<?xml version="1.0" standalone="no"?>
<!DOCTYPE svg PUBLIC "-//W3C//DTD SVG 1.1//EN" "http://www.w3.org/Graphics/SVG/1.1/DTD/svg11.dtd" >
<svg xmlns="http://www.w3.org/2000/svg" xmlns:xlink="http://www.w3.org/1999/xlink" version="1.1">
<metadata>
Created by FontForge 20170731 at Wed Jul 25 11:34:01 2018
 By Aleksey,,,
Copyright 2014 The Nunito Project Authors (https://github.com/googlefonts/NunitoFont)
</metadata>
<defs>
<font id="NunitoHeavy-Regular" horiz-adv-x="600" >
  <font-face 
    font-family="Nunito Heavy"
    font-weight="400"
    font-stretch="normal"
    units-per-em="1000"
    panose-1="0 0 5 0 0 0 0 0 0 0"
    ascent="800"
    descent="-200"
    x-height="494"
    cap-height="705"
    bbox="-484 -280 1381 1092"
    underline-thickness="50"
    underline-position="-150"
    unicode-range="U+000D-FB02"
  />
<missing-glyph horiz-adv-x="443" 
d="M363 -180h-281v885h281v-885zM149 646v-29h57v-33h-58v-29h147v29h-59v33h59v29h-146zM148 532v-92h147v30h-59v62h-88zM206 470h-29v31h29v-31zM148 416v-30h58v-32h-58v-30h88v62h59v30h-147zM266 363v-59h-118v-30h147v89h-29zM206 255v-50h30v20h30v-41h-89v71h-29
v-100h147v100h-89zM148 101v-100h147v100h-147zM266 31h-89v41h89v-41zM148 -19v-29h62l-62 -42v-29h147v29h-91l62 42h29v29h-147z" />
    <glyph glyph-name="fi" unicode="fi" horiz-adv-x="712" 
d="M482 589.5q-30 26.5 -30 70.5t29.5 69.5t81.5 25.5q51 0 81.5 -26t30.5 -69q0 -44 -30 -70.5t-82 -26.5q-51 0 -81 26.5zM667 418v-329q0 -47 -30 -71.5t-74 -24.5t-74 24.5t-30 71.5v253h-158v-251q0 -48 -29.5 -72t-74.5 -24q-44 0 -74 24t-30 72v251h-17q-94 0 -94 76
t94 76h18q6 92 64.5 146t153.5 64l18 2q8 1 23 1q85 0 85 -72q0 -34 -19.5 -53.5t-47.5 -21.5l-18 -2q-31 -3 -41.5 -18.5t-10.5 -40.5v-5h272q94 0 94 -76z" />
    <glyph glyph-name="fl" unicode="fl" horiz-adv-x="771" 
d="M312 540q-11 -16 -11 -41v-5h37q94 0 94 -76t-94 -76h-37v-251q0 -48 -29.5 -72t-74.5 -24q-44 0 -74 24t-30 72v251h-17q-94 0 -94 76t94 76h17q5 94 64 148t155 62l26 2q9 1 24 1q51 0 72.5 -18.5t21.5 -53.5t-21 -54t-56 -21l-26 -2q-30 -2 -41 -18zM548 17.5
q-30 24.5 -30 71.5v525q0 48 30 72t74 24q45 0 74.5 -24t29.5 -72v-525q0 -47 -29.5 -71.5t-74.5 -24.5q-44 0 -74 24.5z" />
    <glyph glyph-name=".notdef" horiz-adv-x="443" 
d="M363 -180h-281v885h281v-885zM149 646v-29h57v-33h-58v-29h147v29h-59v33h59v29h-146zM148 532v-92h147v30h-59v62h-88zM206 470h-29v31h29v-31zM148 416v-30h58v-32h-58v-30h88v62h59v30h-147zM266 363v-59h-118v-30h147v89h-29zM206 255v-50h30v20h30v-41h-89v71h-29
v-100h147v100h-89zM148 101v-100h147v100h-147zM266 31h-89v41h89v-41zM148 -19v-29h62l-62 -42v-29h147v29h-91l62 42h29v29h-147z" />
    <glyph glyph-name=".null" horiz-adv-x="0" 
 />
    <glyph glyph-name="nonmarkingreturn" unicode="&#xd;" horiz-adv-x="295" 
 />
    <glyph glyph-name="NULL" horiz-adv-x="0" 
 />
    <glyph glyph-name="NULL" horiz-adv-x="0" 
 />
    <glyph glyph-name="space" unicode=" " horiz-adv-x="295" 
 />
    <glyph glyph-name="exclam" unicode="!" horiz-adv-x="285" 
d="M101 265.5q-17 15.5 -21 46.5l-61 267q-1 7 -1 20q0 52 35 81.5t90 29.5q54 0 89.5 -30t35.5 -82q0 -7 -2 -21l-61 -265q-4 -30 -21 -46t-41 -16q-25 0 -42 15.5zM64 25q-31 32 -31 78q0 47 31 78.5t78 31.5t78.5 -31.5t31.5 -78.5q0 -46 -31.5 -78t-78.5 -32t-78 32z
" />
    <glyph glyph-name="quotedbl" unicode="&#x22;" horiz-adv-x="507" 
d="M95 400q-18 16 -23 46l-35 127q-4 24 -4 34q0 48 29.5 75.5t79.5 27.5q49 0 78 -27t29 -75q0 -11 -4 -35l-34 -127q-7 -32 -24 -47t-46 -15q-28 0 -46 16zM320 400q-18 16 -23 46l-35 127q-4 24 -4 34q0 48 29.5 75.5t79.5 27.5q49 0 78 -27t29 -75q0 -11 -4 -35
l-34 -127q-7 -32 -24 -47t-46 -15q-28 0 -46 16z" />
    <glyph glyph-name="numbersign" unicode="#" 
d="M480 440l-32 -167h29q26 0 43.5 -17.5t17.5 -43.5t-17.5 -43t-43.5 -17h-53l-22 -111q-4 -21 -19.5 -33.5t-39.5 -12.5q-29 0 -47.5 18t-18.5 45q0 9 1 14l16 80h-67l-22 -111q-4 -20 -20 -33t-36 -13q-28 0 -46.5 18t-18.5 45q0 9 1 14l16 80q-25 1 -42 18t-17 43
t17.5 43t43.5 17h22l32 167h-34q-26 0 -43.5 17.5t-17.5 43.5t17.5 43t43.5 17h58l21 106q4 21 19.5 33.5t37.5 12.5q29 0 48 -18t19 -45q0 -6 -2 -16l-15 -73h65l21 106q4 21 19.5 33.5t38.5 12.5q30 0 48.5 -18t18.5 -45q0 -9 -1 -14l-15 -75q24 -3 39 -20t15 -41
q0 -26 -17.5 -43t-43.5 -17h-17zM350 440h-65l-33 -167h66z" />
    <glyph glyph-name="dollar" unicode="$" 
d="M540 77q-55 -58 -149 -78v-40q0 -35 -22.5 -57t-58.5 -22q-35 0 -58 22t-23 57v36q-95 12 -183 59q-20 13 -29 29t-9 42q0 34 21 60t49 26q14 0 27.5 -4.5t35.5 -17.5q42 -20 76 -27.5t75 -7.5q45 0 67 12.5t22 39.5q0 24 -27 36t-88 26q-74 19 -122.5 38t-84.5 62
t-36 115q0 80 55.5 140t146.5 82v41q0 35 22.5 57t57.5 22q37 0 59 -22t22 -57v-37q38 -6 74 -20t81 -38q20 -13 28.5 -29.5t8.5 -41.5q0 -35 -20.5 -60.5t-48.5 -25.5q-14 0 -26.5 4.5t-36.5 17.5q-12 3 -28 11q-30 12 -51 18t-50 6q-36 0 -58.5 -14.5t-22.5 -38.5
q0 -25 27.5 -37.5t87.5 -25.5q74 -17 123 -36.5t85 -63t36 -118.5q0 -82 -55 -140z" />
    <glyph glyph-name="percent" unicode="%" horiz-adv-x="974" 
d="M351 -8.5q-20 -12.5 -41 -12.5q-28 0 -48.5 20.5t-20.5 51.5q0 26 16 54l331 570q15 26 35 38.5t41 12.5q28 0 48.5 -20.5t20.5 -51.5q0 -26 -16 -54l-331 -570q-15 -26 -35 -38.5zM72.5 343q-51.5 56 -51.5 162q0 101 52 157t142 56t142 -56.5t52 -158.5
q0 -104 -51.5 -160t-142.5 -56t-142.5 56zM236.5 431q6.5 20 6.5 72q0 49 -7 70t-21 21q-15 0 -21.5 -20.5t-6.5 -70.5q0 -52 6.5 -72t21.5 -20t21.5 20zM616.5 49q-51.5 56 -51.5 162q0 101 52 157t142 56t142 -56.5t52 -158.5q0 -104 -51.5 -160t-142.5 -56t-142.5 56z
M780.5 137q6.5 20 6.5 72q0 49 -7 70t-21 21q-15 0 -21.5 -20.5t-6.5 -70.5q0 -52 6.5 -72t21.5 -20t21.5 20z" />
    <glyph glyph-name="ampersand" unicode="&#x26;" horiz-adv-x="713" 
d="M718 73q0 -32 -26 -57t-60 -25q-32 0 -59 24l-68 57q-49 -39 -106 -60t-117 -21q-78 0 -138.5 26.5t-94.5 74t-34 107.5t28 106.5t89 84.5q-55 62 -55 134q0 54 28.5 96.5t81 67t121.5 24.5q95 0 151 -48t56 -126q0 -108 -108 -171l81 -67q21 41 29 82q5 38 30 58.5
t57 20.5q35 0 59 -24t20 -66q-12 -93 -67 -178l73 -60q29 -26 29 -60zM273 565.5q-14 -14.5 -14 -39.5q0 -13 8 -27.5t30 -36.5q32 15 45.5 31.5t13.5 38.5t-13 35t-32 13q-24 0 -38 -14.5zM383 175l-137 115q-31 -31 -31 -76q0 -30 20.5 -49t55.5 -19q47 0 92 29z" />
    <glyph glyph-name="quotesingle" unicode="'" horiz-adv-x="282" 
d="M95 400q-18 16 -23 46l-35 127q-4 24 -4 34q0 48 29.5 75.5t79.5 27.5q49 0 78 -27t29 -75q0 -11 -4 -35l-34 -127q-7 -32 -24 -47t-46 -15q-28 0 -46 16z" />
    <glyph glyph-name="parenleft" unicode="(" horiz-adv-x="424" 
d="M96 263q0 221 115 378q21 32 48.5 48.5t53.5 16.5q27 0 45 -16.5t18 -45.5q0 -18 -9 -42q-31 -81 -44.5 -161t-13.5 -178t13.5 -176t44.5 -160q9 -23 9 -41q0 -29 -18 -46t-45 -17q-26 0 -53.5 16.5t-48.5 48.5q-115 157 -115 375z" />
    <glyph glyph-name="parenright" unicode=")" horiz-adv-x="424" 
d="M164.5 -160.5q-27.5 -16.5 -53.5 -16.5q-27 0 -45 17t-18 45q0 18 9 42q31 82 44 160.5t13 175.5q0 98 -13.5 177.5t-43.5 161.5q-9 24 -9 42q0 29 18 45.5t45 16.5q26 0 53.5 -16.5t48.5 -48.5q115 -159 115 -378q0 -216 -115 -375q-21 -32 -48.5 -48.5z" />
    <glyph glyph-name="asterisk" unicode="*" horiz-adv-x="457" 
d="M427 563q15 -19 15 -47t-15 -48t-42 -18l-52 4l30 -42q9 -15 9 -28q0 -25 -24.5 -45t-51.5 -20q-32 0 -45 28l-23 48l-22 -48q-14 -28 -45 -28q-28 0 -52 20t-24 46q0 15 9 28l29 41l-51 -4q-28 -1 -43 18t-15 47t15.5 48t42.5 18l50 -4l-28 40q-10 14 -10 29
q0 25 24 44.5t52 19.5q32 0 46 -28l22 -47l23 47q14 29 46 29q28 0 51.5 -20t23.5 -45q0 -17 -9 -29l-29 -41l51 5q27 1 42 -18z" />
    <glyph glyph-name="plus" unicode="+" 
d="M524.5 337.5q19.5 -19.5 19.5 -48.5t-19 -48.5t-48 -19.5h-109v-109q0 -29 -19.5 -48t-48.5 -19t-48.5 19t-19.5 48v109h-109q-29 0 -48 19.5t-19 48.5t19.5 48.5t47.5 19.5h109v108q0 29 19.5 48.5t48.5 19.5t48.5 -19.5t19.5 -48.5v-108h109q28 0 47.5 -19.5z" />
    <glyph glyph-name="comma" unicode="," horiz-adv-x="285" 
d="M220.5 177q31.5 -36 31.5 -101q0 -66 -23.5 -120.5t-70.5 -102.5q-16 -17 -38 -17t-39.5 15.5t-17.5 35.5q0 17 14 31q38 40 52 84q-43 4 -69.5 31.5t-26.5 69.5q0 47 30 78.5t76 31.5q50 0 81.5 -36z" />
    <glyph glyph-name="hyphen" unicode="-" horiz-adv-x="452" 
d="M40 270q0 79 97 79h178q97 0 97 -79q0 -81 -97 -81h-178q-97 0 -97 81z" />
    <glyph glyph-name="period" unicode="." horiz-adv-x="285" 
d="M64 25q-31 32 -31 78q0 47 31 78.5t78 31.5t78.5 -31.5t31.5 -78.5q0 -46 -31.5 -78t-78.5 -32t-78 32z" />
    <glyph glyph-name="slash" unicode="/" horiz-adv-x="370" 
d="M118 -71.5q-20 -13.5 -44 -13.5q-32 0 -56.5 20t-24.5 52q0 14 4 26l224 706q9 27 29 40.5t45 13.5q32 0 56 -20t24 -52q0 -14 -4 -26l-224 -706q-9 -27 -29 -40.5z" />
    <glyph glyph-name="zero" unicode="0" 
d="M95 84q-71 94 -71 270q0 174 71.5 267.5t204.5 93.5t204.5 -94t71.5 -268q0 -176 -71.5 -269.5t-204.5 -93.5q-134 0 -205 94zM352.5 197q15.5 46 15.5 156q0 109 -15.5 155t-52.5 46t-52.5 -45.5t-15.5 -155.5t15.5 -156t52.5 -46t52.5 46z" />
    <glyph glyph-name="one" unicode="1" 
d="M595.5 149q24.5 -21 24.5 -63q0 -43 -24.5 -64.5t-77.5 -21.5h-352q-53 0 -77.5 21.5t-24.5 64.5q0 42 24.5 63t77.5 21h68v307l-72 -40q-21 -12 -40 -12q-33 0 -55.5 27.5t-22.5 63.5q0 22 10 41t31 31l162 91q50 30 99 30q46 0 75 -28t29 -75v-436h68q53 0 77.5 -21z
" />
    <glyph glyph-name="two" unicode="2" horiz-adv-x="602" 
d="M556.5 149.5q24.5 -20.5 24.5 -63.5q0 -44 -25 -65t-77 -21h-356q-42 0 -67 25.5t-25 63.5q0 50 41 92l204 207q56 56 56 107q0 54 -58 54q-21 0 -39 -5.5t-43 -15.5q-21 -11 -33 -12q-8 -4 -20 -11t-22 -10.5t-21 -3.5q-29 0 -49 26.5t-20 62.5q0 26 8 42t28 29
q49 30 107.5 47t113.5 17q77 0 136 -25.5t91 -72t32 -106.5q0 -62 -23.5 -110.5t-81.5 -107.5l-123 -123h164q53 0 77.5 -20.5z" />
    <glyph glyph-name="three" unicode="3" 
d="M528.5 301q33.5 -45 33.5 -108q0 -61 -34.5 -106.5t-97.5 -70.5t-148 -25q-65 0 -125 16.5t-105 47.5q-19 14 -27.5 30.5t-8.5 40.5q0 36 20 61t49 25q15 0 26 -4t22 -10t15 -8q15 -3 33 -12q26 -10 45.5 -15.5t44.5 -5.5q51 0 70.5 13t19.5 48q0 31 -20 43.5t-69 12.5
h-65q-35 0 -54 24.5t-19 57.5t19 57.5t54 24.5h45q50 0 69 10t19 36q0 30 -18.5 47.5t-49.5 17.5q-20 0 -36 -5t-43 -16q-24 -11 -34 -12q-4 -2 -17 -9t-23.5 -10t-22.5 -3q-29 0 -49 25t-20 61q0 25 8 41t28 30q44 30 102.5 47t117.5 17q78 0 136.5 -24.5t91 -69.5
t32.5 -104q0 -55 -28.5 -95t-79.5 -59q60 -17 93.5 -62z" />
    <glyph glyph-name="four" unicode="4" 
d="M586.5 250q24.5 -20 24.5 -59q0 -41 -24.5 -61.5t-77.5 -20.5h-5v-10q0 -52 -29.5 -79t-76.5 -27q-45 0 -74.5 27t-29.5 79v10h-199q-43 0 -67 26t-24 65q0 40 25 75l274 388q16 23 41 35.5t53 12.5q44 0 75.5 -28t31.5 -77v-336h5q53 0 77.5 -20zM294 270v118l-83 -118
h83z" />
    <glyph glyph-name="five" unicode="5" 
d="M471.5 438.5q50.5 -28.5 79 -80.5t28.5 -119q0 -74 -35.5 -130t-100.5 -87t-149 -31q-61 0 -120.5 17t-103.5 47q-19 14 -27.5 30.5t-8.5 40.5q0 36 20 61t49 25q15 0 26 -4t22 -10t15 -8q6 -1 33 -11q22 -10 42 -16t43 -6q51 0 73 16.5t22 56.5q0 37 -24 56.5t-67 19.5
q-33 0 -51.5 -1t-49.5 -8q-23 -10 -46 -10q-34 0 -56.5 19.5t-22.5 49.5v249q0 49 25.5 74.5t73.5 25.5h298q102 0 102 -80q0 -81 -102 -81h-188v-88q34 11 85 11q65 0 115.5 -28.5z" />
    <glyph glyph-name="six" unicode="6" horiz-adv-x="601" 
d="M476 440q48 -30 75 -82.5t27 -118.5q0 -72 -32.5 -128.5t-89.5 -88.5t-130 -32q-146 0 -224.5 93.5t-78.5 265.5q0 110 37.5 192.5t105.5 128t159 45.5q56 0 115.5 -17t101.5 -47q19 -15 27.5 -30.5t8.5 -40.5q0 -35 -20.5 -60.5t-49.5 -25.5q-15 0 -26 4t-22 10t-15 8
q-12 1 -33 12q-46 21 -76 21q-38 0 -63.5 -34.5t-33.5 -96.5q22 24 56.5 38t73.5 14q59 0 107 -30zM360.5 174.5q17.5 20.5 17.5 55.5t-17 55.5t-48 20.5q-29 0 -46.5 -20.5t-17.5 -55.5q0 -34 17.5 -55t46.5 -21q30 0 47.5 20.5z" />
    <glyph glyph-name="seven" unicode="7" 
d="M566 680q23 -25 23 -63t-23 -78l-294 -494q-16 -28 -39.5 -41.5t-50.5 -13.5q-41 0 -72 27.5t-31 67.5q0 27 16 56l240 394h-221q-54 0 -78.5 21t-24.5 63q0 43 24.5 64.5t78.5 21.5h387q42 0 65 -25z" />
    <glyph glyph-name="eight" unicode="8" 
d="M553.5 304q31.5 -43 31.5 -108q0 -95 -77 -150t-208 -55t-208 55t-77 150q0 66 32 109t92 59q-50 19 -77.5 60t-27.5 97q0 60 33 103.5t93 67t140 23.5q122 0 194 -52t72 -142q0 -58 -27.5 -99t-77.5 -58q61 -17 92.5 -60zM248 540.5q-16 -13.5 -16 -45.5q0 -31 16.5 -45
t51.5 -14t51.5 14t16.5 45q0 32 -16 45.5t-52 13.5t-52 -13.5zM389 214q0 62 -89 62t-89 -62t89 -62t89 62z" />
    <glyph glyph-name="nine" unicode="9" 
d="M498.5 621.5q78.5 -93.5 78.5 -265.5q0 -110 -37.5 -192.5t-105.5 -128t-159 -45.5q-56 0 -115.5 17t-101.5 47q-19 15 -27.5 30.5t-8.5 40.5q0 35 20.5 60.5t49.5 25.5q15 0 26 -4t22 -10t15 -8q12 -1 33 -12q46 -21 76 -21q38 0 63.5 34.5t33.5 96.5q-22 -24 -56.5 -38
t-73.5 -14q-59 0 -107 30t-75 82.5t-27 118.5q0 72 32.5 128.5t89.5 88.5t130 32q146 0 224.5 -93.5zM333.5 419.5q17.5 20.5 17.5 55.5q0 34 -17.5 55t-46.5 21q-30 0 -47.5 -20.5t-17.5 -55.5t17 -55.5t48 -20.5q29 0 46.5 20.5z" />
    <glyph glyph-name="colon" unicode=":" horiz-adv-x="285" 
d="M64 315.5q-31 31.5 -31 78.5q0 46 31 78t78 32t78.5 -32t31.5 -78q0 -47 -31.5 -78.5t-78.5 -31.5t-78 31.5zM64 25q-31 32 -31 78q0 47 31 78.5t78 31.5t78.5 -31.5t31.5 -78.5q0 -46 -31.5 -78t-78.5 -32t-78 32z" />
    <glyph glyph-name="semicolon" unicode=";" horiz-adv-x="285" 
d="M64 315.5q-31 31.5 -31 78.5q0 46 31 78t78 32t78.5 -32t31.5 -78q0 -47 -31.5 -78.5t-78.5 -31.5t-78 31.5zM220.5 177q31.5 -36 31.5 -101q0 -66 -23.5 -120.5t-70.5 -102.5q-16 -17 -38 -17t-39.5 15.5t-17.5 35.5q0 17 14 31q38 40 52 84q-43 4 -69.5 31.5
t-26.5 69.5q0 47 30 78.5t76 31.5q50 0 81.5 -36z" />
    <glyph glyph-name="less" unicode="&#x3c;" 
d="M534 173q10 -15 10 -35q0 -32 -20 -52.5t-50 -20.5q-18 0 -35 7l-311 112q-34 14 -53 41t-19 64q0 35 19.5 63.5t52.5 42.5l311 111q17 7 35 7q30 0 50 -20.5t20 -52.5q0 -20 -10 -35t-29 -22l-261 -94l261 -94q19 -7 29 -22z" />
    <glyph glyph-name="equal" unicode="=" 
d="M81.5 340.5q-19.5 19.5 -19.5 47.5q0 29 19.5 49t47.5 20h354q29 0 48 -19t19 -48q0 -30 -19 -49.5t-48 -19.5h-354q-28 0 -47.5 19.5zM81.5 140.5q-19.5 19.5 -19.5 47.5q0 29 19.5 49t47.5 20h354q29 0 48 -19t19 -48q0 -30 -19 -49.5t-48 -19.5h-354q-28 0 -47.5 19.5
z" />
    <glyph glyph-name="greater" unicode="&#x3e;" 
d="M524.5 352.5q19.5 -28.5 19.5 -63.5q0 -37 -19 -64t-53 -41l-311 -112q-17 -7 -35 -7q-30 0 -50 20.5t-20 52.5q0 20 10 35t29 22l261 94l-261 94q-19 7 -29 22t-10 35q0 32 20 52.5t50 20.5q18 0 35 -7l311 -111q33 -14 52.5 -42.5z" />
    <glyph glyph-name="question" unicode="?" horiz-adv-x="489" 
d="M195 270q-17 20 -17 56q0 42 16 68t46 56q21 20 30.5 33.5t9.5 31.5q0 16 -12 25.5t-32 9.5q-16 0 -32.5 -6t-38.5 -17q-18 -9 -33 -14q-23 -13 -37 -17t-27 -4q-29 0 -49 25t-20 61q0 24 8.5 39.5t27.5 31.5q46 31 104 48.5t117 17.5q66 0 119.5 -23.5t84 -64.5
t30.5 -92q0 -54 -32 -92t-88 -79q-5 -3 -22.5 -16.5t-27 -24.5t-12.5 -20q-5 -25 -23 -39t-43 -14q-30 0 -47 20zM167.5 24.5q-31.5 31.5 -31.5 78.5t31 78.5t78 31.5t78.5 -31.5t31.5 -78.5t-31.5 -78.5t-78.5 -31.5q-46 0 -77.5 31.5z" />
    <glyph glyph-name="at" unicode="@" horiz-adv-x="950" 
d="M581 449l-1 -9q9 50 71 50q31 0 48.5 -18t17.5 -48q0 -6 -2 -20l-21 -117q-7 -40 -7 -61q0 -52 42 -52q12 0 24.5 16.5t21.5 53.5t9 93q0 259 -296 259q-92 0 -162.5 -38.5t-110 -114.5t-39.5 -185q0 -92 37 -161t106.5 -106.5t165.5 -37.5q55 0 94 7.5t85 26.5
q18 8 31 8q26 0 44.5 -18.5t18.5 -42.5q0 -31 -33 -54q-41 -17 -103.5 -30.5t-136.5 -13.5q-137 0 -239.5 54t-157 149.5t-54.5 218.5q0 144 58 247t161 155.5t235 52.5q133 0 229.5 -46t147.5 -130.5t51 -199.5q0 -122 -55.5 -198.5t-157.5 -76.5q-51 0 -86.5 23t-48.5 58
h-2q-29 -40 -58.5 -60.5t-80.5 -20.5q-81 0 -123 52t-42 134q0 74 27 131.5t74.5 89.5t107.5 32q77 0 106 -52h4zM531 216.5q25 42.5 25 99.5q0 36 -15 54.5t-42 18.5q-44 0 -67.5 -44t-23.5 -99q0 -31 12 -51.5t39 -20.5q47 0 72 42.5z" />
    <glyph glyph-name="A" unicode="A" horiz-adv-x="771" 
d="M764 90q0 -39 -31.5 -66t-70.5 -27q-26 0 -48.5 13.5t-35.5 42.5l-37 82h-308l-38 -82q-13 -28 -35.5 -42t-48.5 -14q-40 0 -72 27t-32 66q0 20 11 44l257 512q15 32 45 49t64 17q35 0 65.5 -17t46.5 -49l257 -512q11 -22 11 -44zM468 295l-81 179l-81 -179h162z" />
    <glyph glyph-name="B" unicode="B" horiz-adv-x="701" 
d="M647.5 303q33.5 -45 33.5 -109q0 -58 -31.5 -102t-89.5 -68t-135 -24h-270q-48 0 -73 25t-25 74v507q0 48 25 73.5t73 25.5h261q74 0 129.5 -22.5t86 -64t30.5 -95.5t-29 -96t-81 -61q62 -18 95.5 -63zM266 439h113q44 0 63 11.5t19 37.5q0 29 -19.5 42.5t-62.5 13.5
h-113v-105zM462 174.5q19 13.5 19 45.5t-18.5 45t-64.5 13h-132v-117h132q45 0 64 13.5z" />
    <glyph glyph-name="C" unicode="C" horiz-adv-x="679" 
d="M211.5 34.5q-81.5 44.5 -126 127t-44.5 191.5t44.5 191t126 126.5t189.5 44.5q64 0 118 -15.5t104 -47.5q20 -14 28 -29.5t8 -41.5q0 -36 -20 -61t-49 -25q-18 0 -31 5t-32 17q-62 30 -113 30q-80 0 -117.5 -47t-37.5 -147q0 -101 37.5 -148t117.5 -47q18 0 35 4.5
t46 14.5q9 3 17 5.5t15 5.5q4 2 17 9t23.5 10t22.5 3q29 0 49 -25t20 -61q0 -25 -8 -41t-28 -30q-50 -32 -104 -47.5t-118 -15.5q-108 0 -189.5 44.5z" />
    <glyph glyph-name="D" unicode="D" horiz-adv-x="783" 
d="M82 25q-25 25 -25 74v507q0 48 25 73.5t73 25.5h205q118 0 204.5 -42.5t132.5 -122t46 -187.5q0 -109 -45.5 -188.5t-132 -122t-205.5 -42.5h-205q-48 0 -73 25zM344 172q92 0 138 43.5t46 137.5q0 93 -46 136.5t-138 43.5h-72v-361h72z" />
    <glyph glyph-name="E" unicode="E" horiz-adv-x="602" 
d="M82 25q-25 25 -25 74v507q0 48 25 73.5t73 25.5h338q51 0 76.5 -21t25.5 -60q0 -83 -102 -83h-227v-100h207q51 0 76.5 -21t25.5 -62q0 -81 -102 -81h-207v-113h227q51 0 76.5 -21t25.5 -62q0 -39 -25.5 -60t-76.5 -21h-338q-48 0 -73 25z" />
    <glyph glyph-name="F" unicode="F" horiz-adv-x="584" 
d="M86.5 22.5q-29.5 29.5 -29.5 76.5v507q0 48 25 73.5t73 25.5h328q53 0 77.5 -20.5t24.5 -63.5t-24.5 -63t-77.5 -20h-214v-96h194q53 0 77.5 -20t24.5 -64q0 -43 -24.5 -63t-77.5 -20h-194v-176q0 -48 -28.5 -77t-76.5 -29t-77.5 29.5z" />
    <glyph glyph-name="G" unicode="G" horiz-adv-x="750" 
d="M678.5 386q22.5 -21 22.5 -57v-150q0 -60 -9 -92t-32 -49.5t-70 -30.5q-39 -8 -84 -12.5t-80 -4.5q-118 0 -204.5 44t-133.5 125.5t-47 193.5q0 109 46.5 191t132 126.5t199.5 44.5q70 0 125 -15t104 -48q20 -14 28 -29.5t8 -41.5q0 -35 -19.5 -60.5t-47.5 -25.5
q-16 0 -27.5 4.5t-22.5 10.5t-15 8q-34 15 -63.5 22t-61.5 7q-88 0 -129 -46.5t-41 -147.5q0 -104 43.5 -152t136.5 -48q33 0 72 6v104h-49q-38 0 -59 18.5t-21 53.5t21 53.5t59 18.5h158q38 0 60.5 -21z" />
    <glyph glyph-name="H" unicode="H" horiz-adv-x="782" 
d="M696 681.5q29 -28.5 29 -75.5v-507q0 -47 -29 -76.5t-77 -29.5q-47 0 -76 29t-29 77v175h-246v-175q0 -47 -29 -76.5t-77 -29.5t-76.5 28.5t-28.5 77.5v507q0 47 28.5 75.5t76.5 28.5t77 -28.5t29 -75.5v-164h246v164q0 47 29 75.5t76 28.5q48 0 77 -28.5z" />
    <glyph glyph-name="I" unicode="I" horiz-adv-x="329" 
d="M86 21.5q-29 28.5 -29 77.5v507q0 47 29 75.5t78 28.5q50 0 79 -28t29 -76v-507q0 -49 -29 -77.5t-79 -28.5q-49 0 -78 28.5z" />
    <glyph glyph-name="J" unicode="J" horiz-adv-x="419" 
d="M-20 80q0 41 19.5 60.5t62.5 22.5l35 2q23 0 35.5 15.5t12.5 37.5v388q0 47 29.5 75.5t79.5 28.5q49 0 78.5 -28.5t29.5 -75.5v-384q0 -102 -56 -160.5t-165 -66.5l-33 -2q-128 -5 -128 87z" />
    <glyph glyph-name="K" unicode="K" horiz-adv-x="720" 
d="M709 94q0 -39 -29.5 -68t-69.5 -29q-44 0 -81 38l-257 280v-216q0 -49 -29 -77.5t-79 -28.5q-49 0 -78 28.5t-29 77.5v507q0 47 29 75.5t78 28.5q50 0 79 -28t29 -76v-199l258 271q30 31 69 31q38 0 67.5 -28.5t29.5 -66.5q0 -39 -33 -71l-171 -175l187 -206
q30 -30 30 -68z" />
    <glyph glyph-name="L" unicode="L" horiz-adv-x="582" 
d="M82 25.5q-25 25.5 -25 74.5v506q0 47 29 75.5t78 28.5t78.5 -28.5t29.5 -75.5v-433h201q52 0 77.5 -21.5t25.5 -65.5t-25 -65t-78 -21h-317q-49 0 -74 25.5z" />
    <glyph glyph-name="M" unicode="M" horiz-adv-x="843" 
d="M755 681q28 -29 28 -75v-517q0 -44 -26 -70t-67 -26t-67.5 26.5t-26.5 69.5v227l-82 -147q-19 -37 -40.5 -52.5t-52.5 -15.5q-30 0 -52 15.5t-41 52.5l-81 142v-222q0 -43 -27 -69.5t-68 -26.5q-40 0 -66 26t-26 70v517q0 46 28 75t72 29q32 0 58 -18t43 -51l162 -303
l162 303q17 33 42.5 51t55.5 18q44 0 72 -29z" />
    <glyph glyph-name="N" unicode="N" horiz-adv-x="763" 
d="M677.5 681q28.5 -29 28.5 -75v-507q0 -47 -28.5 -76.5t-72.5 -29.5q-51 0 -78 34l-270 326v-254q0 -48 -27 -77t-73 -29q-44 0 -72 29.5t-28 76.5v507q0 46 28 75t72 29q50 0 77 -34l270 -324v254q0 47 27.5 75.5t72.5 28.5t73.5 -29z" />
    <glyph glyph-name="O" unicode="O" horiz-adv-x="806" 
d="M211 35q-82 45 -126 127t-44 192q0 109 44.5 190.5t126.5 126t192 44.5t191.5 -44.5t125.5 -126.5t44 -191t-44 -191.5t-125.5 -127t-191.5 -44.5q-111 0 -193 45zM513.5 204q39.5 50 39.5 149q0 98 -40 148t-109 50q-70 0 -109.5 -49t-39.5 -149t39.5 -149.5
t109.5 -49.5t109.5 50z" />
    <glyph glyph-name="P" unicode="P" horiz-adv-x="687" 
d="M86 22q-29 29 -29 77v507q0 48 25 73.5t73 25.5h262q118 0 184.5 -61.5t66.5 -169.5q0 -107 -66.5 -168t-184.5 -61h-145v-146q0 -48 -29 -77t-79 -29q-49 0 -78 29zM387 404q41 0 61 16.5t20 52.5t-20 53.5t-61 17.5h-115v-140h115z" />
    <glyph glyph-name="Q" unicode="Q" horiz-adv-x="806" 
d="M707 -39q19 -30 19 -60q0 -38 -31.5 -63t-73.5 -25q-28 0 -52 12.5t-39 37.5l-61 104q-8 13 -21 18t-44 5q-111 0 -193 45t-126 127t-44 192q0 109 44.5 190.5t126.5 126t192 44.5t191.5 -44.5t125.5 -126.5t44 -191q0 -104 -40 -183.5t-116 -126.5q56 -14 83 -59z
M513.5 204q39.5 50 39.5 149q0 98 -40 148t-109 50q-70 0 -109.5 -49t-39.5 -149t39.5 -149.5t109.5 -49.5t109.5 50z" />
    <glyph glyph-name="R" unicode="R" horiz-adv-x="713" 
d="M688 79q0 -38 -31.5 -63t-72.5 -25q-27 0 -52 12.5t-42 37.5l-128 183q-25 30 -47 30h-46v-155q0 -48 -28 -77t-77 -29t-78 29t-29 77v507q0 48 25 73.5t73 25.5h252q132 0 197.5 -56.5t65.5 -164.5q0 -80 -43.5 -136t-122.5 -77q38 -4 65 -21t52 -51l46 -61
q21 -29 21 -59zM372 413q54 0 76.5 14.5t22.5 49.5q0 37 -22.5 52t-76.5 15h-106v-131h106z" />
    <glyph glyph-name="S" unicode="S" horiz-adv-x="678" 
d="M184.5 6q-68.5 16 -113.5 45q-20 14 -28.5 30.5t-8.5 42.5q0 34 20.5 60t48.5 26q15 0 28 -4.5t36 -17.5q38 -19 75 -26.5t86 -7.5q50 0 76 13t26 37q0 16 -24 30t-101 29q-106 21 -162 52.5t-75.5 70.5t-19.5 94q0 66 40 119.5t109 84.5t154 31q73 0 129 -14.5
t106 -46.5q21 -15 29.5 -31.5t8.5 -41.5q0 -35 -20.5 -60.5t-48.5 -25.5q-14 0 -26.5 4.5t-36.5 17.5q-7 1 -20 8q-26 11 -53.5 18.5t-66.5 7.5q-41 0 -67 -15t-26 -38q0 -13 8 -21.5t36.5 -19t88.5 -22.5q102 -21 156.5 -53t73.5 -71t19 -91q0 -68 -38.5 -120.5t-108 -81
t-160.5 -28.5q-81 0 -149.5 16z" />
    <glyph glyph-name="T" unicode="T" horiz-adv-x="642" 
d="M242.5 23.5q-29.5 28.5 -29.5 75.5v433h-119q-52 0 -77 21t-25 66q0 44 25 65t77 21h454q52 0 77 -21t25 -65q0 -45 -24.5 -66t-77.5 -21h-118v-433q0 -47 -30 -75.5t-79 -28.5t-78.5 28.5z" />
    <glyph glyph-name="U" unicode="U" horiz-adv-x="751" 
d="M135 70q-82 80 -82 233v303q0 47 28.5 75.5t77.5 28.5q48 0 76.5 -28.5t28.5 -75.5v-310q0 -68 29 -105t83 -37q52 0 81.5 37.5t29.5 104.5v310q0 47 28.5 75.5t76.5 28.5q49 0 77.5 -28.5t28.5 -75.5v-303q0 -151 -83 -232t-239 -81q-159 0 -241 80z" />
    <glyph glyph-name="V" unicode="V" horiz-adv-x="759" 
d="M597 697q23 14 51 14q42 0 75.5 -27.5t33.5 -67.5q0 -21 -10 -42l-257 -517q-15 -31 -45.5 -48t-65.5 -17t-65 17t-45 48l-258 517q-10 20 -10 40q0 41 35 69t78 28q29 0 53 -14t37 -43l178 -379l178 379q14 29 37 43z" />
    <glyph glyph-name="W" unicode="W" horiz-adv-x="1127" 
d="M946.5 695.5q26.5 17.5 58.5 17.5q38 0 66.5 -25t28.5 -66q0 -22 -10 -48l-193 -515q-12 -33 -43 -51t-68 -18t-67.5 18t-42.5 51l-110 314l-117 -314q-12 -33 -42.5 -51t-67.5 -18q-36 0 -66.5 18t-42.5 51l-194 515q-9 24 -9 45q0 43 30.5 68.5t72.5 25.5
q33 0 61 -17.5t39 -51.5l119 -340l128 343q12 32 37.5 49.5t56.5 17.5t56.5 -17.5t37.5 -50.5l118 -354l125 352q12 34 38.5 51.5z" />
    <glyph glyph-name="X" unicode="X" horiz-adv-x="698" 
d="M677 92q0 -40 -31 -70t-71 -30q-39 0 -70 35l-155 179l-158 -179q-28 -34 -70 -34q-40 0 -70.5 29.5t-30.5 69.5q0 34 26 64l177 197l-174 196q-25 29 -25 63q0 39 31 69t70 30q40 0 70 -34l154 -176l153 176q29 35 69 35q39 0 70.5 -30.5t31.5 -69.5q0 -34 -26 -63
l-174 -196l177 -197q26 -30 26 -64z" />
    <glyph glyph-name="Y" unicode="Y" horiz-adv-x="666" 
d="M565 712q39 0 70 -30t31 -69q0 -34 -26 -64l-199 -223v-227q0 -52 -30.5 -79t-76.5 -27q-48 0 -78.5 27t-30.5 79v227l-197 223q-27 30 -27 65q0 39 30.5 68.5t69.5 29.5t70 -35l162 -187l161 187q31 35 71 35z" />
    <glyph glyph-name="Z" unicode="Z" horiz-adv-x="626" 
d="M588.5 147q24.5 -20 24.5 -63t-24.5 -63.5t-77.5 -20.5h-386q-41 0 -66.5 26t-25.5 64q0 39 27 76l280 372h-203q-53 0 -78 20t-25 63t25 63.5t78 20.5h368q42 0 67.5 -25.5t25.5 -63.5q0 -40 -27 -77l-280 -372h220q53 0 77.5 -20z" />
    <glyph glyph-name="bracketleft" unicode="[" horiz-adv-x="421" 
d="M142.5 -138q-42.5 42 -42.5 116v569q0 74 42.5 116t116.5 42h88q30 0 52 -19t22 -57t-22 -57t-52 -19h-5q-20 0 -30 -8.5t-10 -33.5v-497q0 -25 10 -33.5t30 -8.5h5q30 0 52 -19t22 -57t-22 -57t-52 -19h-88q-74 0 -116.5 42z" />
    <glyph glyph-name="backslash" unicode="\" horiz-adv-x="368" 
d="M-3 675q-4 12 -4 26q0 32 24.5 52t56.5 20q24 0 44 -13.5t29 -40.5l224 -706q4 -12 4 -26q0 -32 -24 -52t-56 -20q-25 0 -45 13.5t-29 40.5z" />
    <glyph glyph-name="bracketright" unicode="]" horiz-adv-x="421" 
d="M22 -161q-22 19 -22 57t22 57t52 19h5q20 0 29.5 8.5t9.5 33.5v497q0 25 -9.5 33.5t-29.5 8.5h-5q-30 0 -52 19t-22 57t22 57t52 19h87q74 0 116.5 -42t42.5 -116v-569q0 -74 -42.5 -116t-116.5 -42h-87q-30 0 -52 19z" />
    <glyph glyph-name="asciicircum" unicode="^" 
d="M525 214q0 -31 -22.5 -50t-51.5 -19q-19 0 -34 9.5t-22 28.5l-95 264l-95 -264q-7 -19 -22 -29t-33 -10q-29 0 -52 20t-23 51q0 16 7 33l113 313q14 33 42 52.5t63 19.5q36 0 64 -19.5t41 -52.5l113 -313q7 -17 7 -34z" />
    <glyph glyph-name="underscore" unicode="_" horiz-adv-x="500" 
d="M21 -100q-21 16 -21 42q0 27 21 42.5t56 15.5h346q35 0 56 -15.5t21 -42.5q0 -26 -21 -42t-56 -16h-346q-35 0 -56 16z" />
    <glyph glyph-name="grave" unicode="`" horiz-adv-x="311" 
d="M5 633q-37 25 -37 61q0 28 22 49t52 21q41 0 70 -39l72 -99q10 -14 10 -29q0 -19 -13.5 -32.5t-31.5 -13.5q-15 0 -31 11z" />
    <glyph glyph-name="a" unicode="a" horiz-adv-x="559" 
d="M460.5 449.5q57.5 -56.5 57.5 -173.5v-189q0 -44 -26 -69t-72 -25q-37 0 -62.5 20t-31.5 54q-12 -35 -43.5 -55.5t-77.5 -20.5q-52 0 -93.5 21t-65.5 58.5t-24 84.5q1 53 28 84.5t86 46t158 14.5h28v6q0 27 -13.5 38.5t-46.5 11.5q-37 0 -114 -25q-18 -5 -40 -5
q-29 0 -46 20.5t-17 54.5q0 25 9.5 40t29.5 25q35 18 90 29t109 11q120 0 177.5 -56.5zM303.5 148q18.5 20 18.5 54v7h-16q-87 0 -87 -40q0 -18 10.5 -29.5t26.5 -11.5q29 0 47.5 20z" />
    <glyph glyph-name="b" unicode="b" horiz-adv-x="638" 
d="M508.5 474.5q49.5 -31.5 77.5 -89t28 -133.5t-28 -135.5t-78 -92.5t-112 -33q-48 0 -88.5 20t-61.5 53q-8 -33 -34 -52t-65 -19q-47 0 -75 26t-28 70v528q0 41 29.5 67t77.5 26q46 0 73.5 -24t27.5 -64v-181q22 30 61 47.5t83 17.5q63 0 112.5 -31.5zM388 173
q21 28 21 79q0 49 -20.5 75t-58.5 26q-39 0 -60 -26.5t-21 -76.5q0 -51 21 -78t59 -27t59 28z" />
    <glyph glyph-name="c" unicode="c" horiz-adv-x="506" 
d="M96 59q-72 68 -72 187q0 78 35.5 136.5t99 91t146.5 32.5q42 0 86 -11.5t77 -31.5q14 -8 22 -23.5t8 -37.5q0 -36 -16.5 -58.5t-42.5 -22.5q-18 0 -32.5 4t-36.5 13q-16 7 -27 10t-24 3q-82 0 -82 -100q0 -105 83 -105q20 0 50 13q20 9 34.5 13t32.5 4q26 0 42.5 -22
t16.5 -58q0 -22 -8 -39t-21 -24q-72 -42 -174 -42q-125 0 -197 68z" />
    <glyph glyph-name="d" unicode="d" horiz-adv-x="638" 
d="M564 684q30 -26 30 -67v-528q0 -43 -28 -69.5t-75 -26.5q-39 0 -65 19t-34 52q-21 -33 -61.5 -53t-88.5 -20q-62 0 -112 33t-78 92.5t-28 135.5t28 133.5t77.5 89t112.5 31.5q44 0 83 -17.5t61 -47.5v181q0 40 27.5 64t73.5 24q47 0 77 -26zM368.5 172q20.5 27 20.5 78
q0 50 -21 76.5t-60 26.5q-38 0 -58.5 -26t-20.5 -75q0 -51 21 -79t59 -28q39 0 59.5 27z" />
    <glyph glyph-name="e" unicode="e" horiz-adv-x="537" 
d="M494.5 151q16.5 -21 16.5 -55q0 -21 -11 -38.5t-29 -26.5q-34 -16 -82 -28t-87 -12q-84 0 -147 31.5t-97 90t-34 136.5q0 74 32.5 132.5t90 91.5t129.5 33q70 0 124 -31t83.5 -87t29.5 -131q0 -25 -11.5 -38t-31.5 -13h-245q7 -35 25.5 -49.5t56.5 -14.5q26 0 51.5 7.5
t30.5 8.5q16 5 32.5 9.5t30.5 4.5q26 0 42.5 -21zM222 300h118q-6 68 -58 68t-60 -68z" />
    <glyph glyph-name="f" unicode="f" horiz-adv-x="414" 
d="M312 540q-11 -16 -11 -41v-5h37q94 0 94 -76t-94 -76h-37v-251q0 -48 -29.5 -72t-74.5 -24q-44 0 -74 24t-30 72v251h-17q-94 0 -94 76t94 76h17q5 94 64 148t155 62l26 2q9 1 24 1q51 0 72.5 -18.5t21.5 -53.5t-21 -54t-56 -21l-26 -2q-30 -2 -41 -18z" />
    <glyph glyph-name="g" unicode="g" horiz-adv-x="642" 
d="M570 478q28 -26 28 -70v-340q0 -126 -79 -191.5t-232 -65.5q-54 0 -104.5 10.5t-85.5 28.5q-18 9 -28.5 27t-10.5 39q0 34 16.5 55t42.5 21q15 0 35.5 -4.5t40.5 -9.5q58 -16 88 -16q58 0 84.5 22t26.5 71v24q-22 -30 -62 -48t-86 -18q-63 0 -113 30.5t-78.5 86
t-28.5 129.5t28.5 130t78.5 86.5t113 30.5q47 0 88.5 -20t62.5 -52q8 32 34.5 51t65.5 19q47 0 75 -26zM371.5 191q21.5 24 21.5 68t-21.5 69t-60.5 25t-60.5 -24.5t-21.5 -69.5q0 -43 22 -67.5t60 -24.5q39 0 60.5 24z" />
    <glyph glyph-name="h" unicode="h" horiz-adv-x="617" 
d="M534.5 452q41.5 -54 41.5 -165v-198q0 -44 -28 -70t-76 -26t-76 26t-28 70v205q0 54 -46 54q-32 0 -51 -21t-19 -55v-183q0 -44 -28 -70t-76 -26t-76 26t-28 70v528q0 41 29.5 67t77.5 26q46 0 73.5 -24t27.5 -64v-184q57 68 156 68q85 0 126.5 -54z" />
    <glyph glyph-name="i" unicode="i" horiz-adv-x="297" 
d="M74 17.5q-30 24.5 -30 71.5v319q0 48 30 72t74 24t74 -24t30 -72v-319q0 -47 -30 -71.5t-74 -24.5t-74 24.5zM74.5 597q-27.5 24 -27.5 64t27 63t74 23q45 0 73 -23.5t28 -62.5q0 -40 -27.5 -64t-73.5 -24t-73.5 24z" />
    <glyph glyph-name="j" unicode="j" horiz-adv-x="297" 
d="M15 -183q-47 0 -75 19.5t-28 57.5q0 34 19 51t58 19l29 2q10 1 18 10.5t8 17.5v414q0 48 30 72t74 24t74 -24t30 -72v-397q0 -83 -47.5 -133.5t-143.5 -57.5l-28 -2zM73.5 597q-27.5 24 -27.5 64t27 63t74 23q45 0 73 -23.5t28 -62.5q0 -40 -27.5 -64t-73.5 -24t-73.5 24
z" />
    <glyph glyph-name="k" unicode="k" horiz-adv-x="605" 
d="M597 94q0 -38 -28 -68.5t-66 -30.5q-35 0 -65 29l-186 184v-117q0 -48 -29.5 -72t-74.5 -24q-44 0 -74 24t-30 72v523q0 48 30 72t74 24q45 0 74.5 -24t29.5 -72v-319l169 179q30 30 67 30q38 0 66.5 -28.5t28.5 -65.5q0 -35 -30 -65l-82 -86l96 -98q30 -29 30 -67z" />
    <glyph glyph-name="l" unicode="l" horiz-adv-x="297" 
d="M74 17.5q-30 24.5 -30 71.5v525q0 48 30 72t74 24q45 0 74.5 -24t29.5 -72v-525q0 -47 -29.5 -71.5t-74.5 -24.5q-44 0 -74 24.5z" />
    <glyph glyph-name="m" unicode="m" horiz-adv-x="911" 
d="M825.5 457q44.5 -49 44.5 -170v-198q0 -48 -29.5 -72t-74.5 -24q-44 0 -74 24t-30 72v205q0 32 -11 43t-30 11q-27 0 -43.5 -19.5t-16.5 -56.5v-183q0 -48 -29.5 -72t-74.5 -24q-44 0 -74 24t-30 72v205q0 32 -11 43t-30 11q-27 0 -43.5 -19.5t-16.5 -56.5v-183
q0 -48 -30 -72t-74 -24t-74 24t-30 72v322q0 45 31.5 69t74.5 24q36 0 62.5 -18t32.5 -51q52 71 151 71q49 0 84.5 -19.5t56.5 -65.5q27 39 69 62t94 23q81 0 125.5 -49z" />
    <glyph glyph-name="n" unicode="n" horiz-adv-x="617" 
d="M533.5 452.5q42.5 -53.5 42.5 -165.5v-198q0 -44 -28 -70t-76 -26t-76 26t-28 70v190q0 37 -11.5 53t-34.5 16q-32 0 -51 -21t-19 -55v-183q0 -44 -28 -70t-76 -26t-76 26t-28 70v322q0 41 29.5 67t76.5 26q39 0 65 -20t31 -53q58 75 157 75q88 0 130.5 -53.5z" />
    <glyph glyph-name="o" unicode="o" horiz-adv-x="614" 
d="M158 22.5q-64 31.5 -99 90t-35 137.5t35 136.5t98.5 88.5t149.5 31t149.5 -31t98.5 -88.5t35 -136.5t-35 -137.5t-99 -90t-149 -31.5t-149 31.5zM366 169.5q19 24.5 19 80.5t-19 80t-59 24q-39 0 -58.5 -24t-19.5 -80q0 -55 20 -80t59 -25t58 24.5z" />
    <glyph glyph-name="p" unicode="p" horiz-adv-x="638" 
d="M508.5 473.5q49.5 -32.5 77.5 -92t28 -135.5t-28 -134t-77.5 -89.5t-112.5 -31.5q-44 0 -83 17.5t-61 47.5v-153q0 -40 -27.5 -64t-73.5 -24q-48 0 -77.5 26t-29.5 67v500q0 44 28 70t75 26q39 0 65 -19t34 -52q21 33 61.5 53t88.5 20q63 0 112.5 -32.5zM388.5 171
q20.5 26 20.5 75q0 51 -21 79t-59 28t-59 -27t-21 -78q0 -50 21 -76.5t60 -26.5q38 0 58.5 26z" />
    <glyph glyph-name="q" unicode="q" horiz-adv-x="638" 
d="M566 477.5q28 -26.5 28 -69.5v-500q0 -41 -30 -67t-77 -26q-46 0 -73.5 24t-27.5 64v153q-22 -30 -61 -47.5t-83 -17.5q-63 0 -112.5 31.5t-77.5 89.5t-28 134t28 135.5t77.5 92t112.5 32.5q48 0 88.5 -20t61.5 -53q8 33 34 52t65 19q47 0 75 -26.5zM368 171.5
q21 26.5 21 76.5q0 51 -21 78t-59 27t-59 -28t-21 -79q0 -49 20.5 -75t58.5 -26q39 0 60 26.5z" />
    <glyph glyph-name="r" unicode="r" horiz-adv-x="440" 
d="M440 485.5q23 -21.5 23 -63.5q0 -46 -21.5 -67t-77.5 -27l-30 -3q-46 -5 -64 -26t-18 -62v-148q0 -47 -30 -71.5t-74 -24.5t-74 24.5t-30 71.5v322q0 44 30.5 68.5t72.5 24.5q43 0 69 -23t26 -65v-6q16 43 50.5 67t71.5 26l14 1q39 3 62 -18.5z" />
    <glyph glyph-name="s" unicode="s" horiz-adv-x="494" 
d="M128.5 1q-47.5 10 -84.5 32q-13 7 -21 25.5t-8 41.5q0 32 16.5 52t42.5 20q18 0 32 -3t34 -10q27 -10 52.5 -15t62.5 -5q19 0 30.5 4t11.5 11t-6.5 11t-31 9.5t-64.5 12.5q-89 16 -128.5 51.5t-39.5 99.5q0 47 30 85.5t82 60.5t117 22q47 0 91 -11t79 -32q29 -17 29 -61
q0 -33 -16.5 -54.5t-42.5 -21.5q-19 0 -33.5 4t-36.5 12q-22 9 -38.5 13.5t-38.5 4.5q-37 0 -37 -14q0 -12 18.5 -19t72.5 -15q97 -17 137.5 -52t40.5 -102q0 -76 -63 -121.5t-170 -45.5q-72 0 -119.5 10z" />
    <glyph glyph-name="t" unicode="t" horiz-adv-x="425" 
d="M414 121q19 -17 19 -50q0 -41 -31.5 -60.5t-89.5 -15.5l-28 2q-94 7 -142.5 56t-48.5 134v155h-17q-94 0 -94 76t94 76h17v50q0 44 28 70t76 26q49 0 76.5 -26t27.5 -70v-50h37q94 0 94 -76t-94 -76h-37v-172q0 -8 8 -17.5t18 -10.5l29 -2q39 -2 58 -19z" />
    <glyph glyph-name="u" unicode="u" horiz-adv-x="612" 
d="M539.5 478q28.5 -26 28.5 -70v-322q0 -41 -30 -67t-76 -26q-37 0 -62.5 18.5t-32.5 50.5q-49 -71 -136 -71q-97 0 -143.5 54t-46.5 165v198q0 44 28 70t76 26t76 -26t28 -70v-204q0 -55 47 -55q28 0 46 21.5t18 55.5v182q0 44 28 70t76 26q47 0 75.5 -26z" />
    <glyph glyph-name="v" unicode="v" horiz-adv-x="549" 
d="M402 489q22 14 49 14q39 0 69 -25.5t30 -61.5q0 -19 -10 -39l-168 -326q-14 -29 -40 -44t-57 -15q-30 0 -56.5 15.5t-41.5 43.5l-168 326q-9 20 -9 37q0 37 32.5 63t72.5 26q28 0 51.5 -14.5t37.5 -43.5l87 -185l86 186q13 29 35 43z" />
    <glyph glyph-name="w" unicode="w" horiz-adv-x="881" 
d="M731.5 489.5q21.5 14.5 47.5 14.5q38 0 68.5 -26.5t30.5 -64.5q0 -18 -9 -38l-160 -324q-13 -29 -39 -44t-57 -15t-57 15.5t-38 43.5l-80 171l-76 -171q-12 -28 -37.5 -43.5t-56.5 -15.5q-30 0 -56.5 15t-39.5 44l-160 325q-9 20 -9 37q0 38 32 64t72 26q28 0 51 -14.5
t35 -43.5l82 -190l83 189q12 28 35.5 43.5t51.5 15.5q27 0 51.5 -15.5t36.5 -43.5l87 -189l79 191q11 29 32.5 43.5z" />
    <glyph glyph-name="x" unicode="x" horiz-adv-x="558" 
d="M544 84q0 -37 -28 -64.5t-65 -27.5q-38 0 -69 32l-103 101l-103 -101q-31 -32 -68 -32t-65 27t-28 64t30 67l110 104l-100 91q-30 30 -30 66q0 37 28 64.5t66 27.5t68 -31l92 -88l93 88q30 31 68 31q37 0 65 -27t28 -64t-30 -67l-99 -91l110 -104q30 -30 30 -66z" />
    <glyph glyph-name="y" unicode="y" horiz-adv-x="549" 
d="M402 488.5q22 13.5 48 13.5q39 0 69.5 -25.5t30.5 -61.5q0 -19 -10 -38l-259 -507q-14 -29 -37.5 -43.5t-49.5 -14.5q-39 0 -68.5 25t-29.5 61q0 21 10 41l63 123l-160 315q-9 20 -9 37q0 37 32.5 63t72.5 26q28 0 51.5 -14.5t37.5 -43.5l88 -185l85 186q13 29 35 42.5z
" />
    <glyph glyph-name="z" unicode="z" horiz-adv-x="524" 
d="M517 76q0 -76 -94 -76h-305q-40 0 -65 26t-25 62q0 38 28 69l184 185h-126q-94 0 -94 76t94 76h291q40 0 65.5 -26t25.5 -62q0 -39 -29 -69l-183 -185h139q94 0 94 -76z" />
    <glyph glyph-name="braceleft" unicode="{" horiz-adv-x="458" 
d="M436 -47q22 -19 22 -57t-22 -57t-52 -19h-88q-74 0 -116.5 42t-42.5 116v130q0 38 -11.5 54.5t-40.5 20.5q-36 3 -54.5 23.5t-18.5 56.5q0 33 18.5 53.5t54.5 23.5q29 4 40.5 20.5t11.5 54.5v132q0 74 42.5 116t116.5 42h88q30 0 52 -19t22 -57t-22 -57t-52 -19h-5
q-20 0 -30 -8.5t-10 -33.5v-122q0 -47 -27.5 -83t-62.5 -45q35 -9 62.5 -45t27.5 -82v-120q0 -25 10 -33.5t30 -8.5h5q30 0 52 -19z" />
    <glyph glyph-name="bar" unicode="|" horiz-adv-x="313" 
d="M89 -158.5q-27 26.5 -27 67.5v707q0 41 26.5 67.5t68.5 26.5q41 0 68 -26.5t27 -67.5v-707q0 -41 -27 -67.5t-68 -26.5t-68 26.5z" />
    <glyph glyph-name="braceright" unicode="}" horiz-adv-x="458" 
d="M427.5 316.5q18.5 -20.5 18.5 -53.5q0 -36 -18.5 -56.5t-54.5 -23.5q-30 -4 -42 -20.5t-12 -54.5l1 -130q0 -74 -42.5 -116t-116.5 -42h-87q-30 0 -52 19t-22 57t22 57t52 19h5q20 0 29.5 8.5t9.5 33.5v120q0 46 28 82t63 45q-35 9 -63 45.5t-28 82.5v122q0 25 -9.5 33.5
t-29.5 8.5h-5q-30 0 -52 19t-22 57t22 57t52 19h87q74 0 116.5 -42t42.5 -116v-132q0 -38 12 -54.5t41 -20.5q36 -3 54.5 -23.5z" />
    <glyph glyph-name="asciitilde" unicode="~" 
d="M345.5 204.5q-27.5 9.5 -62.5 26.5q-26 12 -41 18t-28 6h-8q-12 0 -19 -3q-34 -30 -58 -30q-15 0 -32 12q-12 9 -19 22.5t-7 28.5q0 17 8 30q22 32 55 50t66 18q27 0 53.5 -9t63.5 -26q26 -12 41 -18t28 -6h8q12 0 19 3q31 29 57 29q15 0 32 -11q13 -10 20.5 -24t7.5 -30
t-9 -30q-21 -31 -54 -48.5t-67 -17.5q-27 0 -54.5 9.5z" />
    <glyph glyph-name="uni00A0" unicode="&#xa0;" horiz-adv-x="295" 
 />
    <glyph glyph-name="exclamdown" unicode="&#xa1;" horiz-adv-x="285" 
d="M64 315.5q-31 31.5 -31 78.5t31 78.5t79 31.5q46 0 77.5 -31.5t31.5 -78.5t-31.5 -78.5t-77.5 -31.5q-48 0 -79 31.5zM55 -158q-34 29 -34 80q0 8 2 24l57 239q4 30 21 46t41 16q25 0 41.5 -15.5t21.5 -46.5l57 -240q2 -16 2 -24q0 -50 -34.5 -79t-87.5 -29t-87 29z" />
    <glyph glyph-name="cent" unicode="&#xa2;" 
d="M520.5 154q16.5 -22 16.5 -58q0 -22 -8 -39t-21 -24q-50 -29 -113 -38v-36q0 -35 -22 -57t-59 -22q-35 0 -57.5 22t-22.5 57v46q-80 23 -124.5 86t-44.5 155q0 88 45 151.5t124 90.5v50q0 36 22.5 58t57.5 22q37 0 59 -22t22 -58v-36q64 -9 114 -39q14 -8 22 -23.5
t8 -37.5q0 -36 -16.5 -58.5t-42.5 -22.5q-18 0 -32.5 4t-36.5 13q-16 7 -27 10t-24 3q-82 0 -82 -100q0 -105 83 -105q20 0 50 13q20 9 34.5 13t32.5 4q26 0 42.5 -22z" />
    <glyph glyph-name="sterling" unicode="&#xa3;" 
d="M572 149.5q25 -20.5 25 -63.5q0 -44 -25 -65t-77 -21h-377q-52 0 -77 21t-25 65q0 37 18 57t55 25v126h-10q-27 0 -45 17t-18 42t18 42t45 17h10v97q0 60 32 107t89.5 73t131.5 26q57 0 117.5 -17t101.5 -46q19 -15 27.5 -30.5t8.5 -40.5q0 -35 -20.5 -60.5t-49.5 -25.5
q-15 0 -26 4t-22 10t-15 8q-7 0 -33 11q-25 10 -42.5 15.5t-36.5 5.5q-26 0 -38.5 -15.5t-12.5 -38.5v-83h104q26 0 44 -17t18 -42t-18 -42t-44 -17h-104v-124h194q52 0 77 -20.5z" />
    <glyph glyph-name="currency" unicode="&#xa4;" 
d="M85 38.5q-9 14.5 -9 32.5q2 14 11 21l37 36q-40 50 -40 122q0 67 38 121l-26 22q-11 13 -15.5 21.5t-4.5 22.5q0 15 12 26.5t28 11.5q7 0 14 -5t13 -11.5t9 -9.5l27 -23q55 30 121 30q71 0 122 -30l26 23q10 10 21 16.5t19 6.5q13 0 24 -10t13 -24q0 -16 -5 -25t-16 -20
l-26 -22q20 -25 29.5 -56.5t9.5 -64.5q0 -68 -42 -122l23 -18q15 -17 20.5 -27t6.5 -27q-5 -34 -45 -34q-13 4 -32 26l-31 27q-46 -25 -117 -25q-37 0 -65.5 6t-51.5 20l-25 -22q-15 -18 -24.5 -25t-21.5 -7q-18 2 -27 16.5zM397.5 155.5q36.5 37.5 36.5 94.5q0 34 -16 65
t-46 50t-72 19q-64 0 -98 -39.5t-34 -94.5q0 -54 35 -93t97 -39q61 0 97.5 37.5z" />
    <glyph glyph-name="yen" unicode="&#xa5;" 
d="M495 712q39 0 69.5 -30t30.5 -69q0 -35 -25 -64l-118 -132h46q25 0 43.5 -16t18.5 -43t-18.5 -43t-43.5 -16h-91v-38h91q25 0 43.5 -16t18.5 -43t-18.5 -43t-43.5 -16h-91v-44q0 -52 -30.5 -79t-76.5 -27q-47 0 -78 27.5t-31 78.5v44h-89q-25 0 -43.5 16t-18.5 43
t18.5 43t43.5 16h89v38h-89q-25 0 -43.5 16t-18.5 43t18.5 43t43.5 16h45l-117 134q-26 32 -26 65q0 39 30 68t69 29q42 0 71 -35l125 -147l126 146q29 35 70 35z" />
    <glyph glyph-name="brokenbar" unicode="&#xa6;" horiz-adv-x="313" 
d="M89 392.5q-27 26.5 -27 67.5v156q0 41 27 67.5t68 26.5t68 -26.5t27 -67.5v-156q0 -41 -27 -67.5t-68 -26.5t-68 26.5zM89 -158.5q-27 26.5 -27 67.5v156q0 41 26.5 67.5t68.5 26.5q41 0 68 -26.5t27 -67.5v-156q0 -41 -27 -67.5t-68 -26.5t-68 26.5z" />
    <glyph glyph-name="section" unicode="&#xa7;" horiz-adv-x="615" 
d="M520 100q32 -43 32 -83q0 -100 -67 -152t-195 -52q-73 0 -121.5 9.5t-86.5 31.5q-13 7 -21.5 25.5t-8.5 42.5q0 31 17 51t43 20q17 0 31 -3t35 -10q30 -10 55.5 -15t64.5 -5q23 0 37.5 10t14.5 26q0 11 -9 19.5t-31 16.5l-160 69q-128 50 -128 174q0 91 75 151
q-17 20 -26 41.5t-9 40.5q0 94 70.5 149t191.5 55q48 0 93.5 -11.5t81.5 -32.5q14 -7 21.5 -23t7.5 -37q0 -33 -17 -54.5t-42 -21.5q-20 0 -34.5 4t-36.5 13q-20 8 -35 12.5t-34 4.5q-30 0 -47.5 -9t-17.5 -23q0 -13 11 -23.5t30 -17.5l159 -69q63 -26 96 -70t33 -102
q0 -93 -73 -152zM407 183q5 10 5 17q0 23 -17 45.5t-42 33.5l-143 67q-8 -13 -8 -21q0 -24 17 -45t43 -32z" />
    <glyph glyph-name="dieresis" unicode="&#xa8;" horiz-adv-x="343" 
d="M9.5 598.5q-23.5 22.5 -23.5 60.5q0 37 23.5 59t61.5 22q39 0 63 -22t24 -59q0 -38 -24 -60.5t-63 -22.5q-38 0 -61.5 22.5zM208.5 598.5q-23.5 22.5 -23.5 60.5q0 37 23.5 59t63.5 22q37 0 61 -22t24 -59q0 -38 -23.5 -60.5t-61.5 -22.5q-40 0 -63.5 22.5z" />
    <glyph glyph-name="copyright" unicode="&#xa9;" horiz-adv-x="815" 
d="M226 42.5q-82 47.5 -129 129t-47 181.5t47 181.5t129 128.5t182 47t181.5 -47t128.5 -128.5t47 -181.5t-47 -181.5t-129 -129t-181 -47.5q-100 0 -182 47.5zM553.5 102.5q64.5 37.5 100.5 103t36 147.5t-36 147.5t-100.5 102.5t-145.5 37q-82 0 -146.5 -37t-100.5 -102.5
t-36 -147.5t36 -147.5t100.5 -103t146.5 -37.5q81 0 145.5 37.5zM306 164q-50 27 -77.5 76t-27.5 113t27.5 112.5t77.5 75.5t115 27q85 0 126 -31q16 -12 21.5 -23t5.5 -30q0 -23 -14.5 -43t-39.5 -20q-12 0 -21 2.5t-26 10.5q-3 1 -16 4.5t-25 3.5q-35 0 -51 -19t-16 -70
q0 -52 16 -71t51 -19q12 0 25 3.5t16 4.5q17 8 26 10.5t21 2.5q25 0 39.5 -20t14.5 -43q0 -20 -5 -32t-22 -21q-32 -15 -59.5 -23t-66.5 -8q-65 0 -115 27z" />
    <glyph glyph-name="ordfeminine" unicode="&#xaa;" horiz-adv-x="365" 
d="M302 674q38 -36 38 -111v-93q0 -37 -20 -54.5t-52 -17.5q-24 0 -43.5 14.5t-22.5 44.5q-10 -29 -32 -44t-51 -15q-44 0 -72.5 30.5t-28.5 69.5q0 41 36 62.5t119 21.5h26v10q0 7 -6 9.5t-24 2.5q-9 0 -28.5 -3.5t-33.5 -7.5q-7 -3 -15 -2.5t-11 0.5q-23 0 -35 16t-12 35
q0 32 26 43q21 9 56 17t69 8q79 0 117 -36zM190 497.5q9 6.5 9 18.5v3h-9q-22 0 -31.5 -5t-9.5 -11q0 -12 18 -12q14 0 23 6.5zM201 470v-4v4z" />
    <glyph glyph-name="guillemotleft" unicode="&#xab;" horiz-adv-x="594" 
d="M70 206q-20 32 -20 61q0 28 20 60l71 108q14 21 33 31.5t39 10.5q31 0 54 -20t23 -52q0 -19 -10 -40l-42 -98l42 -99q9 -21 9 -39q0 -31 -22.5 -51.5t-53.5 -20.5q-20 0 -38.5 10.5t-32.5 30.5zM326 206q-20 32 -20 61q0 28 20 60l71 108q14 21 33 31.5t39 10.5
q31 0 54 -20t23 -52q0 -19 -10 -40l-42 -98l42 -99q9 -21 9 -39q0 -31 -22.5 -51.5t-53.5 -20.5q-20 0 -38.5 10.5t-32.5 30.5z" />
    <glyph glyph-name="logicalnot" unicode="&#xac;" 
d="M421.5 143q-19.5 20 -19.5 48v127h-279q-28 0 -47.5 19.5t-19.5 47.5q0 29 19.5 49t47.5 20h354q29 0 48 -19t19 -48v-196q0 -29 -19.5 -48.5t-49.5 -19.5q-34 0 -53.5 20z" />
    <glyph glyph-name="uni00AD" unicode="&#xad;" horiz-adv-x="452" 
d="M40 270q0 79 97 79h178q97 0 97 -79q0 -81 -97 -81h-178q-97 0 -97 81z" />
    <glyph glyph-name="registered" unicode="&#xae;" horiz-adv-x="815" 
d="M589.5 663q81.5 -47 128.5 -128.5t47 -181.5t-47 -181.5t-129 -129t-181 -47.5q-100 0 -182 47.5t-129 129t-47 181.5t47 181.5t129 128.5t182 47t181.5 -47zM553.5 102.5q64.5 37.5 100.5 103t36 147.5t-36 147.5t-100.5 102.5t-145.5 37q-82 0 -146.5 -37
t-100.5 -102.5t-36 -147.5t36 -147.5t100.5 -103t146.5 -37.5q81 0 145.5 37.5zM613 206q0 -28 -26.5 -48t-58.5 -20q-41 0 -65 32l-79 109l-1 1l-2 2v-65q0 -38 -22 -59t-54 -21q-37 0 -60 20.5t-23 59.5v275q0 37 19 55.5t55 18.5h141q81 0 124 -38t43 -101
q0 -46 -25 -81.5t-72 -50.5q23 -2 40.5 -11.5t36.5 -31.5l11 -3q18 -21 18 -43zM415 398q24 0 30.5 4.5t6.5 18.5q0 15 -6.5 20t-30.5 5h-36v-48h36z" />
    <glyph glyph-name="macron" unicode="&#xaf;" horiz-adv-x="317" 
d="M-2.5 617.5q-16.5 14.5 -16.5 39.5q0 26 16 40t41 14h242q24 0 40 -14t16 -40q0 -25 -16 -39.5t-40 -14.5h-242q-24 0 -40.5 14.5z" />
    <glyph glyph-name="degree" unicode="&#xb0;" horiz-adv-x="370" 
d="M103.5 420q-36.5 20 -57.5 55.5t-21 79.5t21 79.5t57.5 55.5t81.5 20t81.5 -20t57.5 -55.5t21 -79.5t-21 -79.5t-57.5 -55.5t-81.5 -20t-81.5 20zM225 512q17 17 17 43t-17 43t-40 17t-40 -17t-17 -43t17 -43t40 -17t40 17z" />
    <glyph glyph-name="plusminus" unicode="&#xb1;" 
d="M75 295.5q-19 19.5 -19 48.5q0 30 19 50t48 20h109v51q0 29 19.5 48.5t47.5 19.5q29 0 49 -19.5t20 -48.5v-51h109q29 0 48 -19t19 -48q0 -31 -19 -51t-48 -20h-109v-51q0 -28 -19 -47.5t-48 -19.5t-49 19.5t-20 48.5v50h-109q-29 0 -48 19.5zM531 117q19 -19 19 -48
q0 -30 -19 -49.5t-48 -19.5h-354q-28 0 -47.5 19.5t-19.5 47.5q0 29 19.5 49t47.5 20h354q29 0 48 -19z" />
    <glyph glyph-name="uni00B2" unicode="&#xb2;" horiz-adv-x="400" 
d="M362 388q18 -15 18 -45q0 -61 -75 -61h-205q-32 0 -51 17.5t-19 43.5q0 35 32 68l113 115q25 27 25 47q0 21 -23 21q-16 0 -31 -6t-17 -7q-16 -7 -25 -10t-24 -3q-23 0 -36.5 19t-13.5 38q0 20 5 31t22 22q56 31 133 31q73 0 119.5 -34.5t46.5 -91.5q0 -35 -13 -61
t-52 -63l-62 -56h76q39 0 57 -15z" />
    <glyph glyph-name="uni00B3" unicode="&#xb3;" horiz-adv-x="401" 
d="M349 463.5q21 -26.5 21 -63.5q0 -52 -46 -88t-135 -36q-96 0 -140 34q-15 11 -20 23t-5 30q0 19 13.5 39t38.5 20q8 0 15.5 -3t15 -7t15.5 -8q4 -1 20.5 -6.5t40.5 -5.5q42 0 42 22t-40 22h-43q-26 0 -40 17.5t-14 41.5t14 41t40 17h30q23 0 31.5 4t8.5 16q0 9 -8.5 15
t-23.5 6q-17 0 -32.5 -6t-18.5 -7q-16 -7 -25 -10t-24 -3q-23 0 -36.5 20t-13.5 43q0 15 5.5 26t21.5 21q28 16 63.5 23.5t68.5 7.5q79 0 123 -35t44 -86q0 -30 -16.5 -53.5t-49.5 -33.5q38 -11 59 -37.5z" />
    <glyph glyph-name="acute" unicode="&#xb4;" horiz-adv-x="311" 
d="M162 552q-19 0 -32.5 13t-13.5 31q0 16 11 30l72 99q29 39 69 39q30 0 52.5 -21.5t22.5 -49.5q0 -34 -37 -60l-113 -71q-14 -10 -31 -10z" />
    <glyph glyph-name="uni00B5" unicode="&#xb5;" horiz-adv-x="612" 
d="M540 478q28 -26 28 -70v-322q0 -41 -29.5 -67t-76.5 -26q-38 0 -63.5 18.5t-31.5 50.5q-43 -62 -118 -70v-84q0 -41 -29.5 -67t-77.5 -26q-46 0 -73.5 24.5t-27.5 63.5v505q0 44 27.5 70t76.5 26q48 0 76 -26t28 -70v-204q0 -55 47 -55q30 0 47 22.5t17 54.5v182
q0 44 27.5 70t76.5 26q48 0 76 -26z" />
    <glyph glyph-name="paragraph" unicode="&#xb6;" horiz-adv-x="668" 
d="M276.5 -167q-18.5 18 -18.5 46v350q-71 0 -125 29.5t-84 83.5t-30 126t30 125.5t85 82.5t128 29h285q28 0 46 -18t18 -46v-762q0 -28 -18 -46t-45 -18q-28 0 -46.5 18t-18.5 46v713h-97v-713q0 -28 -18 -46t-45 -18q-28 0 -46.5 18z" />
    <glyph glyph-name="periodcentered" unicode="&#xb7;" horiz-adv-x="285" 
d="M64 191.5q-31 31.5 -31 78.5q0 46 31 77.5t78 31.5t78.5 -31.5t31.5 -77.5q0 -47 -31.5 -78.5t-78.5 -31.5t-78 31.5z" />
    <glyph glyph-name="cedilla" unicode="&#xb8;" horiz-adv-x="314" 
d="M262.5 -58.5q21.5 -19.5 21.5 -49.5q0 -41 -36.5 -66t-105.5 -25q-45 0 -71 9q-23 7 -23 33q0 16 9 27.5t23 8.5q24 -8 56 -8q19 0 30 4t11 17q0 7 -6 11.5t-16 4.5q-7 0 -20 -2.5t-20 -2.5q-10 0 -16 5.5t-4 14.5l13 97h92l-10 -60q7 1 20 1q31 0 52.5 -19.5z" />
    <glyph glyph-name="uni00B9" unicode="&#xb9;" horiz-adv-x="425" 
d="M388 388q18 -15 18 -45t-18 -45.5t-58 -15.5h-178q-76 0 -76 61q0 60 76 60h10v141l-18 -8q-15 -8 -30 -8q-25 0 -42 19t-17 44q0 15 8.5 28.5t24.5 22.5l82 41q43 22 76 22q34 0 53.5 -20.5t19.5 -55.5v-226h11q40 0 58 -15z" />
    <glyph glyph-name="ordmasculine" unicode="&#xba;" horiz-adv-x="397" 
d="M62.5 443.5q-45.5 45.5 -45.5 111.5q0 65 45.5 110t135.5 45q92 0 137 -45t45 -110q0 -66 -45 -111.5t-137 -45.5q-90 0 -135.5 45.5zM225.5 524.5q10.5 11.5 10.5 30.5q0 41 -38 41q-35 0 -35 -41q0 -19 10 -30.5t25 -11.5q17 0 27.5 11.5z" />
    <glyph glyph-name="guillemotright" unicode="&#xbb;" horiz-adv-x="585" 
d="M166.5 66.5q-18.5 -10.5 -39.5 -10.5q-30 0 -53.5 20.5t-23.5 51.5q0 20 10 40l43 99l-43 98q-11 24 -11 41q0 31 23 51t54 20q21 0 40 -10.5t31 -31.5l64 -108q19 -31 19 -60q0 -30 -19 -61l-64 -108q-12 -21 -30.5 -31.5zM422.5 66.5q-18.5 -10.5 -39.5 -10.5
q-30 0 -53.5 20.5t-23.5 51.5q0 20 10 40l43 99l-43 98q-11 24 -11 41q0 31 23 51t54 20q21 0 40 -10.5t31 -31.5l64 -108q19 -31 19 -60q0 -30 -19 -61l-64 -108q-12 -21 -30.5 -31.5z" />
    <glyph glyph-name="onequarter" unicode="&#xbc;" horiz-adv-x="1006" 
d="M654 713.5q18 11.5 36 11.5q25 0 43.5 -18.5t18.5 -46.5q0 -24 -14 -48l-341 -586q-13 -23 -31 -34.5t-36 -11.5q-25 0 -43.5 18.5t-18.5 46.5q0 24 14 48l341 586q13 23 31 34.5zM388 297.5q-18 -15.5 -58 -15.5h-178q-76 0 -76 61q0 60 76 60h10v141l-18 -8
q-15 -8 -30 -8q-25 0 -42 19t-17 44q0 15 8.5 28.5t24.5 22.5l82 41q43 22 76 22q34 0 53.5 -20.5t19.5 -55.5v-226h11q40 0 58 -15t18 -45t-18 -45.5zM985 70q-16 -14 -46 -15q-2 -29 -20.5 -45t-47.5 -16q-27 0 -46 16t-21 45h-121q-31 0 -49.5 19.5t-18.5 48.5
q0 28 20 56l160 212q12 17 30.5 26t38.5 9q31 0 53 -21t22 -58v-184q30 -1 46 -15t16 -39t-16 -39zM741 163h63v82z" />
    <glyph glyph-name="onehalf" unicode="&#xbd;" horiz-adv-x="1009" 
d="M654 713.5q18 11.5 36 11.5q25 0 43.5 -18.5t18.5 -46.5q0 -24 -14 -48l-341 -586q-13 -23 -31 -34.5t-36 -11.5q-25 0 -43.5 18.5t-18.5 46.5q0 24 14 48l341 586q13 23 31 34.5zM388 297.5q-18 -15.5 -58 -15.5h-178q-76 0 -76 61q0 60 76 60h10v141l-18 -8
q-15 -8 -30 -8q-25 0 -42 19t-17 44q0 15 8.5 28.5t24.5 22.5l82 41q43 22 76 22q34 0 53.5 -20.5t19.5 -55.5v-226h11q40 0 58 -15t18 -45t-18 -45.5zM971 106q18 -15 18 -45q0 -61 -75 -61h-205q-32 0 -50.5 17.5t-18.5 44.5q0 36 31 67l113 115q25 27 25 47q0 21 -23 21
q-18 0 -32 -6.5t-15 -6.5q-17 -8 -26 -10.5t-24 -2.5q-23 0 -36.5 19t-13.5 38q0 20 5 31t22 22q56 31 133 31q73 0 120 -34.5t47 -91.5q0 -35 -13 -61t-53 -63l-62 -56h76q39 0 57 -15z" />
    <glyph glyph-name="threequarters" unicode="&#xbe;" horiz-adv-x="989" 
d="M637 713.5q18 11.5 36 11.5q25 0 43.5 -18.5t18.5 -46.5q0 -24 -14 -48l-341 -586q-13 -23 -31 -34.5t-36 -11.5q-25 0 -43.5 18.5t-18.5 46.5q0 24 14 48l341 586q13 23 31 34.5zM324 312q-46 -36 -135 -36q-96 0 -140 34q-15 11 -20 23t-5 30q0 19 13.5 39t38.5 20
q8 0 15.5 -3t15 -7t15.5 -8q4 -1 20.5 -6.5t40.5 -5.5q42 0 42 22t-40 22h-43q-26 0 -40 17.5t-14 41.5t14 41t40 17h30q23 0 31.5 4t8.5 16q0 9 -8.5 15t-23.5 6q-17 0 -32.5 -6t-18.5 -7q-16 -7 -25 -10t-24 -3q-23 0 -36.5 20t-13.5 43q0 15 5.5 26t21.5 21
q28 16 63.5 23.5t68.5 7.5q79 0 123 -35t44 -86q0 -30 -16.5 -53.5t-49.5 -33.5q38 -11 59 -37.5t21 -63.5q0 -52 -46 -88zM968 70q-16 -14 -46 -15q-2 -29 -20.5 -45t-47.5 -16q-27 0 -46 16t-21 45h-121q-31 0 -49.5 19.5t-18.5 48.5q0 28 20 56l160 212q12 17 30.5 26
t38.5 9q31 0 53 -21t22 -58v-184q62 -2 62 -54q0 -25 -16 -39zM725 163h62v81z" />
    <glyph glyph-name="questiondown" unicode="&#xbf;" horiz-adv-x="489" 
d="M165.5 315.5q-31.5 31.5 -31.5 78.5t31.5 78.5t78.5 31.5q46 0 77 -31.5t31 -78.5t-31 -78.5t-77 -31.5q-47 0 -78.5 31.5zM112.5 -166q-53.5 23 -83.5 64t-30 92q0 35 17 61.5t40 44.5t60 42q30 18 45.5 30t19.5 26q5 25 22.5 39t43.5 14q30 0 46.5 -19.5t16.5 -55.5
q0 -44 -17 -68.5t-48 -47.5q-19 -13 -27.5 -22.5t-8.5 -23.5q0 -33 44 -33q16 0 32.5 5.5t38.5 15.5q24 10 33 12q23 13 37 17.5t27 4.5q29 0 49 -25t20 -61q0 -25 -8.5 -40.5t-27.5 -30.5q-43 -31 -101 -47.5t-120 -16.5q-67 0 -120.5 23z" />
    <glyph glyph-name="Agrave" unicode="&#xc0;" horiz-adv-x="771" 
d="M764 90q0 -39 -31.5 -66t-70.5 -27q-26 0 -48.5 13.5t-35.5 42.5l-37 82h-308l-38 -82q-13 -28 -35.5 -42t-48.5 -14q-40 0 -72 27t-32 66q0 20 11 44l257 512q15 32 45 49t64 17q35 0 65.5 -17t46.5 -49l257 -512q11 -22 11 -44zM468 295l-81 179l-81 -179h162zM260 803
q-24 11 -35.5 27t-11.5 34q0 25 18.5 44t45.5 19q30 0 56 -25l80 -73q14 -14 14 -31q0 -16 -12 -27t-29 -11q-11 0 -20 4z" />
    <glyph glyph-name="Aacute" unicode="&#xc1;" horiz-adv-x="771" 
d="M764 90q0 -39 -31.5 -66t-70.5 -27q-26 0 -48.5 13.5t-35.5 42.5l-37 82h-308l-38 -82q-13 -28 -35.5 -42t-48.5 -14q-40 0 -72 27t-32 66q0 20 11 44l257 512q15 32 45 49t64 17q35 0 65.5 -17t46.5 -49l257 -512q11 -22 11 -44zM468 295l-81 179l-81 -179h162zM384 760
q-17 0 -29.5 11t-12.5 27q0 17 15 31l80 73q27 26 55 26q27 0 46 -19.5t19 -44.5q0 -18 -11.5 -34t-35.5 -27l-106 -39q-9 -4 -20 -4z" />
    <glyph glyph-name="Acircumflex" unicode="&#xc2;" horiz-adv-x="771" 
d="M764 90q0 -39 -31.5 -66t-70.5 -27q-26 0 -48.5 13.5t-35.5 42.5l-37 82h-308l-38 -82q-13 -28 -35.5 -42t-48.5 -14q-40 0 -72 27t-32 66q0 20 11 44l257 512q15 32 45 49t64 17q35 0 65.5 -17t46.5 -49l257 -512q11 -22 11 -44zM468 295l-81 179l-81 -179h162zM282 761
q-21 0 -36.5 14.5t-15.5 34.5q0 21 22 39l74 56q24 21 59 21q33 0 58 -21l75 -56q21 -17 21 -40q0 -20 -15 -34.5t-37 -14.5t-41 18l-61 54l-62 -54q-18 -17 -41 -17z" />
    <glyph glyph-name="Atilde" unicode="&#xc3;" horiz-adv-x="771" 
d="M764 90q0 -39 -31.5 -66t-70.5 -27q-26 0 -48.5 13.5t-35.5 42.5l-37 82h-308l-38 -82q-13 -28 -35.5 -42t-48.5 -14q-40 0 -72 27t-32 66q0 20 11 44l257 512q15 32 45 49t64 17q35 0 65.5 -17t46.5 -49l257 -512q11 -22 11 -44zM468 295l-81 179l-81 -179h162zM385 789
q-50 12 -75 12q-9 0 -15 -3t-14 -10q-9 -8 -16.5 -12t-20.5 -4q-17 0 -26.5 10.5t-9.5 28.5q0 22 13.5 46t36.5 40t51 16q30 0 76 -13q50 -12 75 -12q15 0 30 13q17 15 36 15q36 0 36 -38q0 -22 -13.5 -46t-36.5 -40t-50 -16q-29 0 -77 13z" />
    <glyph glyph-name="Adieresis" unicode="&#xc4;" horiz-adv-x="771" 
d="M764 90q0 -39 -31.5 -66t-70.5 -27q-26 0 -48.5 13.5t-35.5 42.5l-37 82h-308l-38 -82q-13 -28 -35.5 -42t-48.5 -14q-40 0 -72 27t-32 66q0 20 11 44l257 512q15 32 45 49t64 17q35 0 65.5 -17t46.5 -49l257 -512q11 -22 11 -44zM468 295l-81 179l-81 -179h162z
M223.5 785.5q-23.5 22.5 -23.5 60.5q0 36 23.5 57.5t61.5 21.5q39 0 63 -21.5t24 -57.5q0 -38 -24 -60.5t-63 -22.5q-38 0 -61.5 22.5zM422.5 785.5q-23.5 22.5 -23.5 60.5q0 36 23.5 57.5t63.5 21.5q37 0 61 -21.5t24 -57.5q0 -38 -23.5 -60.5t-61.5 -22.5
q-40 0 -63.5 22.5z" />
    <glyph glyph-name="Aring" unicode="&#xc5;" horiz-adv-x="771" 
d="M764 89q0 -39 -31 -65.5t-71 -26.5q-26 0 -48.5 13.5t-35.5 42.5l-37 82h-308l-38 -82q-13 -29 -35.5 -42.5t-49.5 -13.5q-40 0 -71.5 26.5t-31.5 66.5q0 19 11 44l284 568q-32 34 -32 80q0 48 34 81t82 33q49 0 82.5 -33t33.5 -81t-32 -80l283 -568q11 -22 11 -45z
M358 811q-11 -12 -11 -29q0 -18 11 -30t28 -12t28.5 12.5t11.5 29.5t-11.5 29t-28.5 12t-28 -12zM468 295l-81 179l-81 -179h162z" />
    <glyph glyph-name="AE" unicode="&#xc6;" horiz-adv-x="1008" 
d="M1001 81q0 -81 -103 -81h-262q-36 0 -61 14t-31 39l-19 82h-282l-52 -82q-19 -29 -45 -43.5t-55 -14.5q-38 0 -66 23t-28 58q0 28 20 58l346 512q18 26 50 42.5t69 16.5h416q103 0 103 -81q0 -40 -26.5 -61.5t-76.5 -21.5h-271l23 -100h228q103 0 103 -83q0 -81 -103 -81
h-189l26 -113h183q103 0 103 -83zM489 295l-38 167l-106 -167h144z" />
    <glyph glyph-name="Ccedilla" unicode="&#xc7;" horiz-adv-x="679" 
d="M211.5 34.5q-81.5 44.5 -126 127t-44.5 191.5t44.5 191t126 126.5t189.5 44.5q64 0 118 -15.5t104 -47.5q20 -14 28 -29.5t8 -41.5q0 -36 -20 -61t-49 -25q-18 0 -31 5t-32 17q-62 30 -113 30q-80 0 -117.5 -47t-37.5 -147q0 -101 37.5 -148t117.5 -47q18 0 35 4.5
t46 14.5q9 3 17 5.5t15 5.5q4 2 17 9t23.5 10t22.5 3q29 0 49 -25t20 -61q0 -25 -8 -41t-28 -30q-50 -32 -104 -47.5t-118 -15.5q-108 0 -189.5 44.5zM502.5 -58.5q21.5 -19.5 21.5 -49.5q0 -41 -36.5 -66t-105.5 -25q-45 0 -71 9q-23 7 -23 33q0 16 9 27.5t23 8.5
q24 -8 56 -8q19 0 30 4t11 17q0 7 -6 11.5t-16 4.5q-7 0 -20 -2.5t-20 -2.5q-10 0 -16 5.5t-4 14.5l13 97h92l-10 -60q7 1 20 1q31 0 52.5 -19.5z" />
    <glyph glyph-name="Egrave" unicode="&#xc8;" horiz-adv-x="602" 
d="M82 25q-25 25 -25 74v507q0 48 25 73.5t73 25.5h338q51 0 76.5 -21t25.5 -60q0 -83 -102 -83h-227v-100h207q51 0 76.5 -21t25.5 -62q0 -81 -102 -81h-207v-113h227q51 0 76.5 -21t25.5 -62q0 -39 -25.5 -60t-76.5 -21h-338q-48 0 -73 25zM211 803q-24 11 -35.5 27
t-11.5 34q0 25 18.5 44t45.5 19q30 0 56 -25l80 -73q14 -14 14 -31q0 -16 -12 -27t-29 -11q-11 0 -20 4z" />
    <glyph glyph-name="Eacute" unicode="&#xc9;" horiz-adv-x="602" 
d="M82 25q-25 25 -25 74v507q0 48 25 73.5t73 25.5h338q51 0 76.5 -21t25.5 -60q0 -83 -102 -83h-227v-100h207q51 0 76.5 -21t25.5 -62q0 -81 -102 -81h-207v-113h227q51 0 76.5 -21t25.5 -62q0 -39 -25.5 -60t-76.5 -21h-338q-48 0 -73 25zM335 760q-17 0 -29.5 11
t-12.5 27q0 17 15 31l80 73q27 26 55 26q27 0 46 -19.5t19 -44.5q0 -18 -11.5 -34t-35.5 -27l-106 -39q-9 -4 -20 -4z" />
    <glyph glyph-name="Ecircumflex" unicode="&#xca;" horiz-adv-x="602" 
d="M82 25q-25 25 -25 74v507q0 48 25 73.5t73 25.5h338q51 0 76.5 -21t25.5 -60q0 -83 -102 -83h-227v-100h207q51 0 76.5 -21t25.5 -62q0 -81 -102 -81h-207v-113h227q51 0 76.5 -21t25.5 -62q0 -39 -25.5 -60t-76.5 -21h-338q-48 0 -73 25zM233 761q-21 0 -36.5 14.5
t-15.5 34.5q0 21 22 39l74 56q24 21 59 21q33 0 58 -21l75 -56q21 -17 21 -40q0 -20 -15 -34.5t-37 -14.5t-41 18l-61 54l-62 -54q-18 -17 -41 -17z" />
    <glyph glyph-name="Edieresis" unicode="&#xcb;" horiz-adv-x="602" 
d="M82 25q-25 25 -25 74v507q0 48 25 73.5t73 25.5h338q51 0 76.5 -21t25.5 -60q0 -83 -102 -83h-227v-100h207q51 0 76.5 -21t25.5 -62q0 -81 -102 -81h-207v-113h227q51 0 76.5 -21t25.5 -62q0 -39 -25.5 -60t-76.5 -21h-338q-48 0 -73 25zM174.5 785.5
q-23.5 22.5 -23.5 60.5q0 36 23.5 57.5t61.5 21.5q39 0 63 -21.5t24 -57.5q0 -38 -24 -60.5t-63 -22.5q-38 0 -61.5 22.5zM373.5 785.5q-23.5 22.5 -23.5 60.5q0 36 23.5 57.5t63.5 21.5q37 0 61 -21.5t24 -57.5q0 -38 -23.5 -60.5t-61.5 -22.5q-40 0 -63.5 22.5z" />
    <glyph glyph-name="Igrave" unicode="&#xcc;" horiz-adv-x="329" 
d="M86 21.5q-29 28.5 -29 77.5v507q0 47 29 75.5t78 28.5q50 0 79 -28t29 -76v-507q0 -49 -29 -77.5t-79 -28.5q-49 0 -78 28.5zM39 803q-24 11 -35.5 27t-11.5 34q0 25 18.5 44t45.5 19q30 0 56 -25l80 -73q14 -14 14 -31q0 -16 -12 -27t-29 -11q-11 0 -20 4z" />
    <glyph glyph-name="Iacute" unicode="&#xcd;" horiz-adv-x="329" 
d="M86 21.5q-29 28.5 -29 77.5v507q0 47 29 75.5t78 28.5q50 0 79 -28t29 -76v-507q0 -49 -29 -77.5t-79 -28.5q-49 0 -78 28.5zM163 760q-17 0 -29.5 11t-12.5 27q0 17 15 31l80 73q27 26 55 26q27 0 46 -19.5t19 -44.5q0 -18 -11.5 -34t-35.5 -27l-106 -39q-9 -4 -20 -4z
" />
    <glyph glyph-name="Icircumflex" unicode="&#xce;" horiz-adv-x="329" 
d="M86 21.5q-29 28.5 -29 77.5v507q0 47 29 75.5t78 28.5q50 0 79 -28t29 -76v-507q0 -49 -29 -77.5t-79 -28.5q-49 0 -78 28.5zM61 761q-21 0 -36.5 14.5t-15.5 34.5q0 21 22 39l74 56q24 21 59 21q33 0 58 -21l75 -56q21 -17 21 -40q0 -20 -15 -34.5t-37 -14.5t-41 18
l-61 54l-62 -54q-18 -17 -41 -17z" />
    <glyph glyph-name="Idieresis" unicode="&#xcf;" horiz-adv-x="329" 
d="M86 21.5q-29 28.5 -29 77.5v507q0 47 29 75.5t78 28.5q50 0 79 -28t29 -76v-507q0 -49 -29 -77.5t-79 -28.5q-49 0 -78 28.5zM2.5 785.5q-23.5 22.5 -23.5 60.5q0 36 23.5 57.5t61.5 21.5q39 0 63 -21.5t24 -57.5q0 -38 -24 -60.5t-63 -22.5q-38 0 -61.5 22.5z
M201.5 785.5q-23.5 22.5 -23.5 60.5q0 36 23.5 57.5t63.5 21.5q37 0 61 -21.5t24 -57.5q0 -38 -23.5 -60.5t-61.5 -22.5q-40 0 -63.5 22.5z" />
    <glyph glyph-name="Eth" unicode="&#xd0;" horiz-adv-x="827" 
d="M607.5 662.5q86.5 -42.5 132.5 -122t46 -187.5q0 -109 -45.5 -188.5t-132 -122t-205.5 -42.5h-205q-48 0 -73 25t-25 74v176h-4q-46 0 -71 21t-25 59t25 59t71 21h4v171q0 48 25 73.5t73 25.5h205q118 0 204.5 -42.5zM525.5 216q46.5 44 46.5 137t-46.5 136.5
t-138.5 43.5h-71v-98h103q46 0 71.5 -21t25.5 -59t-25.5 -59t-71.5 -21h-103v-103h71q92 0 138.5 44z" />
    <glyph glyph-name="Ntilde" unicode="&#xd1;" horiz-adv-x="763" 
d="M677.5 681q28.5 -29 28.5 -75v-507q0 -47 -28.5 -76.5t-72.5 -29.5q-51 0 -78 34l-270 326v-254q0 -48 -27 -77t-73 -29q-44 0 -72 29.5t-28 76.5v507q0 46 28 75t72 29q50 0 77 -34l270 -324v254q0 47 27.5 75.5t72.5 28.5t73.5 -29zM381 789q-50 12 -75 12q-9 0 -15 -3
t-14 -10q-9 -8 -16.5 -12t-20.5 -4q-17 0 -26.5 10.5t-9.5 28.5q0 22 13.5 46t36.5 40t51 16q30 0 76 -13q50 -12 75 -12q15 0 30 13q17 15 36 15q36 0 36 -38q0 -22 -13.5 -46t-36.5 -40t-50 -16q-29 0 -77 13z" />
    <glyph glyph-name="Ograve" unicode="&#xd2;" horiz-adv-x="806" 
d="M211 35q-82 45 -126 127t-44 192q0 109 44.5 190.5t126.5 126t192 44.5t191.5 -44.5t125.5 -126.5t44 -191t-44 -191.5t-125.5 -127t-191.5 -44.5q-111 0 -193 45zM513.5 204q39.5 50 39.5 149q0 98 -40 148t-109 50q-70 0 -109.5 -49t-39.5 -149t39.5 -149.5
t109.5 -49.5t109.5 50zM278 803q-24 11 -35.5 27t-11.5 34q0 25 18.5 44t45.5 19q30 0 56 -25l80 -73q14 -14 14 -31q0 -16 -12 -27t-29 -11q-11 0 -20 4z" />
    <glyph glyph-name="Oacute" unicode="&#xd3;" horiz-adv-x="806" 
d="M211 35q-82 45 -126 127t-44 192q0 109 44.5 190.5t126.5 126t192 44.5t191.5 -44.5t125.5 -126.5t44 -191t-44 -191.5t-125.5 -127t-191.5 -44.5q-111 0 -193 45zM513.5 204q39.5 50 39.5 149q0 98 -40 148t-109 50q-70 0 -109.5 -49t-39.5 -149t39.5 -149.5
t109.5 -49.5t109.5 50zM402 760q-17 0 -29.5 11t-12.5 27q0 17 15 31l80 73q27 26 55 26q27 0 46 -19.5t19 -44.5q0 -18 -11.5 -34t-35.5 -27l-106 -39q-9 -4 -20 -4z" />
    <glyph glyph-name="Ocircumflex" unicode="&#xd4;" horiz-adv-x="806" 
d="M211 35q-82 45 -126 127t-44 192q0 109 44.5 190.5t126.5 126t192 44.5t191.5 -44.5t125.5 -126.5t44 -191t-44 -191.5t-125.5 -127t-191.5 -44.5q-111 0 -193 45zM513.5 204q39.5 50 39.5 149q0 98 -40 148t-109 50q-70 0 -109.5 -49t-39.5 -149t39.5 -149.5
t109.5 -49.5t109.5 50zM300 761q-21 0 -36.5 14.5t-15.5 34.5q0 21 22 39l74 56q24 21 59 21q33 0 58 -21l75 -56q21 -17 21 -40q0 -20 -15 -34.5t-37 -14.5t-41 18l-61 54l-62 -54q-18 -17 -41 -17z" />
    <glyph glyph-name="Otilde" unicode="&#xd5;" horiz-adv-x="806" 
d="M211 35q-82 45 -126 127t-44 192q0 109 44.5 190.5t126.5 126t192 44.5t191.5 -44.5t125.5 -126.5t44 -191t-44 -191.5t-125.5 -127t-191.5 -44.5q-111 0 -193 45zM513.5 204q39.5 50 39.5 149q0 98 -40 148t-109 50q-70 0 -109.5 -49t-39.5 -149t39.5 -149.5
t109.5 -49.5t109.5 50zM403 789q-50 12 -75 12q-9 0 -15 -3t-14 -10q-9 -8 -16.5 -12t-20.5 -4q-17 0 -26.5 10.5t-9.5 28.5q0 22 13.5 46t36.5 40t51 16q30 0 76 -13q50 -12 75 -12q15 0 30 13q17 15 36 15q36 0 36 -38q0 -22 -13.5 -46t-36.5 -40t-50 -16q-29 0 -77 13z
" />
    <glyph glyph-name="Odieresis" unicode="&#xd6;" horiz-adv-x="806" 
d="M211 35q-82 45 -126 127t-44 192q0 109 44.5 190.5t126.5 126t192 44.5t191.5 -44.5t125.5 -126.5t44 -191t-44 -191.5t-125.5 -127t-191.5 -44.5q-111 0 -193 45zM513.5 204q39.5 50 39.5 149q0 98 -40 148t-109 50q-70 0 -109.5 -49t-39.5 -149t39.5 -149.5
t109.5 -49.5t109.5 50zM241.5 785.5q-23.5 22.5 -23.5 60.5q0 36 23.5 57.5t61.5 21.5q39 0 63 -21.5t24 -57.5q0 -38 -24 -60.5t-63 -22.5q-38 0 -61.5 22.5zM440.5 785.5q-23.5 22.5 -23.5 60.5q0 36 23.5 57.5t63.5 21.5q37 0 61 -21.5t24 -57.5q0 -38 -23.5 -60.5
t-61.5 -22.5q-40 0 -63.5 22.5z" />
    <glyph glyph-name="multiply" unicode="&#xd7;" 
d="M486 200q20 -20 20 -49q0 -28 -20 -48t-48 -20q-29 0 -49 20l-89 89l-89 -89q-20 -20 -48 -20q-27 0 -49 20q-20 22 -20 48q0 27 20 49l89 89l-89 89q-19 19 -19 48t20 49t47 20q28 0 49 -21l89 -89l89 89q20 20 49 20t48 -20q20 -20 20 -48q0 -26 -20 -48l-89 -89z" />
    <glyph glyph-name="Oslash" unicode="&#xd8;" horiz-adv-x="806" 
d="M736.5 511.5q28.5 -70.5 28.5 -158.5q0 -109 -44 -191.5t-125.5 -127t-191.5 -44.5q-59 0 -113 14l-10 -18q-17 -28 -38 -41.5t-44 -13.5q-29 0 -50 21t-21 53q0 28 17 58l7 13q-54 48 -82.5 119t-28.5 159q0 109 44.5 190.5t126.5 126t192 44.5q55 0 112 -13l9 16
q17 28 38.5 42t43.5 14q29 0 50 -21t21 -53q0 -27 -18 -59l-6 -11q54 -48 82.5 -118.5zM264 269l163 280q-14 2 -23 2q-70 0 -109.5 -49t-39.5 -149q0 -48 9 -84zM513.5 204q39.5 50 39.5 149q0 44 -10 86l-164 -283q16 -2 25 -2q70 0 109.5 50z" />
    <glyph glyph-name="Ugrave" unicode="&#xd9;" horiz-adv-x="751" 
d="M135 70q-82 80 -82 233v303q0 47 28.5 75.5t77.5 28.5q48 0 76.5 -28.5t28.5 -75.5v-310q0 -68 29 -105t83 -37q52 0 81.5 37.5t29.5 104.5v310q0 47 28.5 75.5t76.5 28.5q49 0 77.5 -28.5t28.5 -75.5v-303q0 -151 -83 -232t-239 -81q-159 0 -241 80zM251 803
q-24 11 -35.5 27t-11.5 34q0 25 18.5 44t45.5 19q30 0 56 -25l80 -73q14 -14 14 -31q0 -16 -12 -27t-29 -11q-11 0 -20 4z" />
    <glyph glyph-name="Uacute" unicode="&#xda;" horiz-adv-x="751" 
d="M135 70q-82 80 -82 233v303q0 47 28.5 75.5t77.5 28.5q48 0 76.5 -28.5t28.5 -75.5v-310q0 -68 29 -105t83 -37q52 0 81.5 37.5t29.5 104.5v310q0 47 28.5 75.5t76.5 28.5q49 0 77.5 -28.5t28.5 -75.5v-303q0 -151 -83 -232t-239 -81q-159 0 -241 80zM375 760
q-17 0 -29.5 11t-12.5 27q0 17 15 31l80 73q27 26 55 26q27 0 46 -19.5t19 -44.5q0 -18 -11.5 -34t-35.5 -27l-106 -39q-9 -4 -20 -4z" />
    <glyph glyph-name="Ucircumflex" unicode="&#xdb;" horiz-adv-x="751" 
d="M135 70q-82 80 -82 233v303q0 47 28.5 75.5t77.5 28.5q48 0 76.5 -28.5t28.5 -75.5v-310q0 -68 29 -105t83 -37q52 0 81.5 37.5t29.5 104.5v310q0 47 28.5 75.5t76.5 28.5q49 0 77.5 -28.5t28.5 -75.5v-303q0 -151 -83 -232t-239 -81q-159 0 -241 80zM273 761
q-21 0 -36.5 14.5t-15.5 34.5q0 21 22 39l74 56q24 21 59 21q33 0 58 -21l75 -56q21 -17 21 -40q0 -20 -15 -34.5t-37 -14.5t-41 18l-61 54l-62 -54q-18 -17 -41 -17z" />
    <glyph glyph-name="Udieresis" unicode="&#xdc;" horiz-adv-x="751" 
d="M135 70q-82 80 -82 233v303q0 47 28.5 75.5t77.5 28.5q48 0 76.5 -28.5t28.5 -75.5v-310q0 -68 29 -105t83 -37q52 0 81.5 37.5t29.5 104.5v310q0 47 28.5 75.5t76.5 28.5q49 0 77.5 -28.5t28.5 -75.5v-303q0 -151 -83 -232t-239 -81q-159 0 -241 80zM214.5 785.5
q-23.5 22.5 -23.5 60.5q0 36 23.5 57.5t61.5 21.5q39 0 63 -21.5t24 -57.5q0 -38 -24 -60.5t-63 -22.5q-38 0 -61.5 22.5zM413.5 785.5q-23.5 22.5 -23.5 60.5q0 36 23.5 57.5t63.5 21.5q37 0 61 -21.5t24 -57.5q0 -38 -23.5 -60.5t-61.5 -22.5q-40 0 -63.5 22.5z" />
    <glyph glyph-name="Yacute" unicode="&#xdd;" horiz-adv-x="666" 
d="M565 712q39 0 70 -30t31 -69q0 -34 -26 -64l-199 -223v-227q0 -52 -30.5 -79t-76.5 -27q-48 0 -78.5 27t-30.5 79v227l-197 223q-27 30 -27 65q0 39 30.5 68.5t69.5 29.5t70 -35l162 -187l161 187q31 35 71 35zM331 760q-17 0 -29.5 11t-12.5 27q0 17 15 31l80 73
q27 26 55 26q27 0 46 -19.5t19 -44.5q0 -18 -11.5 -34t-35.5 -27l-106 -39q-9 -4 -20 -4z" />
    <glyph glyph-name="Thorn" unicode="&#xde;" horiz-adv-x="689" 
d="M600 516q68 -58 68 -159q0 -100 -68.5 -157.5t-186.5 -57.5h-145v-43q0 -48 -29 -77t-77 -29t-76.5 29t-28.5 77v507q0 47 28.5 75.5t76.5 28.5q49 0 77.5 -28.5t28.5 -75.5v-32h145q119 0 187 -58zM446 315q22 12 22 42t-22 42.5t-72 12.5h-106v-109h106q50 0 72 12z
" />
    <glyph glyph-name="germandbls" unicode="&#xdf;" horiz-adv-x="729" 
d="M315 33q-12 7 -20.5 25.5t-8.5 41.5q0 32 16.5 52t42.5 20q19 0 34 -4t35 -11q24 -9 43 -13.5t44 -4.5q16 0 23.5 3.5t7.5 11.5q0 12 -14.5 19t-48.5 18q-45 13 -75.5 27t-53 43t-22.5 77q0 39 16.5 70.5t44.5 68.5q17 23 23.5 34t6.5 21q0 40 -60 40q-45 0 -71 -31.5
t-26 -88.5v-363q0 -44 -28 -70t-76 -26t-76 26t-28 70v329q0 145 81.5 221t234.5 76q114 0 177.5 -42.5t63.5 -119.5q0 -36 -15.5 -64.5t-44.5 -63.5q-20 -23 -28.5 -37t-8.5 -27q0 -11 13 -17t45 -15q45 -12 76.5 -26.5t55 -45.5t23.5 -84q0 -85 -60 -133.5t-164 -48.5
q-107 0 -178 42z" />
    <glyph glyph-name="agrave" unicode="&#xe0;" horiz-adv-x="559" 
d="M460.5 449.5q57.5 -56.5 57.5 -173.5v-189q0 -44 -26 -69t-72 -25q-37 0 -62.5 20t-31.5 54q-12 -35 -43.5 -55.5t-77.5 -20.5q-52 0 -93.5 21t-65.5 58.5t-24 84.5q1 53 28 84.5t86 46t158 14.5h28v6q0 27 -13.5 38.5t-46.5 11.5q-37 0 -114 -25q-18 -5 -40 -5
q-29 0 -46 20.5t-17 54.5q0 25 9.5 40t29.5 25q35 18 90 29t109 11q120 0 177.5 -56.5zM303.5 148q18.5 20 18.5 54v7h-16q-87 0 -87 -40q0 -18 10.5 -29.5t26.5 -11.5q29 0 47.5 20zM136 635q-37 25 -37 61q0 28 22 49t52 21q41 0 70 -39l72 -99q10 -14 10 -29
q0 -19 -13.5 -32.5t-31.5 -13.5q-15 0 -31 11z" />
    <glyph glyph-name="aacute" unicode="&#xe1;" horiz-adv-x="559" 
d="M460.5 449.5q57.5 -56.5 57.5 -173.5v-189q0 -44 -26 -69t-72 -25q-37 0 -62.5 20t-31.5 54q-12 -35 -43.5 -55.5t-77.5 -20.5q-52 0 -93.5 21t-65.5 58.5t-24 84.5q1 53 28 84.5t86 46t158 14.5h28v6q0 27 -13.5 38.5t-46.5 11.5q-37 0 -114 -25q-18 -5 -40 -5
q-29 0 -46 20.5t-17 54.5q0 25 9.5 40t29.5 25q35 18 90 29t109 11q120 0 177.5 -56.5zM303.5 148q18.5 20 18.5 54v7h-16q-87 0 -87 -40q0 -18 10.5 -29.5t26.5 -11.5q29 0 47.5 20zM286 554q-19 0 -32.5 13t-13.5 31q0 16 11 30l72 99q29 39 69 39q30 0 52.5 -21.5
t22.5 -49.5q0 -34 -37 -60l-113 -71q-14 -10 -31 -10z" />
    <glyph glyph-name="acircumflex" unicode="&#xe2;" horiz-adv-x="559" 
d="M460.5 449.5q57.5 -56.5 57.5 -173.5v-189q0 -44 -26 -69t-72 -25q-37 0 -62.5 20t-31.5 54q-12 -35 -43.5 -55.5t-77.5 -20.5q-52 0 -93.5 21t-65.5 58.5t-24 84.5q1 53 28 84.5t86 46t158 14.5h28v6q0 27 -13.5 38.5t-46.5 11.5q-37 0 -114 -25q-18 -5 -40 -5
q-29 0 -46 20.5t-17 54.5q0 25 9.5 40t29.5 25q35 18 90 29t109 11q120 0 177.5 -56.5zM303.5 148q18.5 20 18.5 54v7h-16q-87 0 -87 -40q0 -18 10.5 -29.5t26.5 -11.5q29 0 47.5 20zM177 554q-21 0 -37.5 15t-16.5 36q0 18 13 34l80 94q16 19 31 28t36 9q22 0 36.5 -8.5
t30.5 -30.5l80 -92q14 -17 14 -34q0 -21 -16.5 -36t-37.5 -15q-29 0 -47 27l-60 81l-59 -81q-18 -27 -47 -27z" />
    <glyph glyph-name="atilde" unicode="&#xe3;" horiz-adv-x="559" 
d="M460.5 449.5q57.5 -56.5 57.5 -173.5v-189q0 -44 -26 -69t-72 -25q-37 0 -62.5 20t-31.5 54q-12 -35 -43.5 -55.5t-77.5 -20.5q-52 0 -93.5 21t-65.5 58.5t-24 84.5q1 53 28 84.5t86 46t158 14.5h28v6q0 27 -13.5 38.5t-46.5 11.5q-37 0 -114 -25q-18 -5 -40 -5
q-29 0 -46 20.5t-17 54.5q0 25 9.5 40t29.5 25q35 18 90 29t109 11q120 0 177.5 -56.5zM303.5 148q18.5 20 18.5 54v7h-16q-87 0 -87 -40q0 -18 10.5 -29.5t26.5 -11.5q29 0 47.5 20zM324.5 585q-17.5 7 -46.5 21q-38 22 -58 22q-15 0 -24 -7t-19 -20q-10 -12 -18 -18
t-20 -6q-15 0 -24 12.5t-9 33.5q0 22 13.5 50t37 47.5t50.5 19.5q19 0 37 -7t43 -20q40 -22 59 -22q15 0 24.5 6.5t19.5 19.5q10 12 17.5 17.5t19.5 5.5q16 0 24.5 -11.5t8.5 -32.5q0 -23 -13.5 -51t-36.5 -47.5t-50 -19.5q-18 0 -35.5 7z" />
    <glyph glyph-name="adieresis" unicode="&#xe4;" horiz-adv-x="559" 
d="M460.5 449.5q57.5 -56.5 57.5 -173.5v-189q0 -44 -26 -69t-72 -25q-37 0 -62.5 20t-31.5 54q-12 -35 -43.5 -55.5t-77.5 -20.5q-52 0 -93.5 21t-65.5 58.5t-24 84.5q1 53 28 84.5t86 46t158 14.5h28v6q0 27 -13.5 38.5t-46.5 11.5q-37 0 -114 -25q-18 -5 -40 -5
q-29 0 -46 20.5t-17 54.5q0 25 9.5 40t29.5 25q35 18 90 29t109 11q120 0 177.5 -56.5zM303.5 148q18.5 20 18.5 54v7h-16q-87 0 -87 -40q0 -18 10.5 -29.5t26.5 -11.5q29 0 47.5 20zM121.5 600.5q-23.5 22.5 -23.5 60.5q0 37 23.5 59t61.5 22q39 0 63 -22t24 -59
q0 -38 -24 -60.5t-63 -22.5q-38 0 -61.5 22.5zM320.5 600.5q-23.5 22.5 -23.5 60.5q0 37 23.5 59t63.5 22q37 0 61 -22t24 -59q0 -38 -23.5 -60.5t-61.5 -22.5q-40 0 -63.5 22.5z" />
    <glyph glyph-name="aring" unicode="&#xe5;" horiz-adv-x="559" 
d="M460.5 449.5q57.5 -56.5 57.5 -173.5v-189q0 -44 -26 -69t-72 -25q-37 0 -62.5 20t-31.5 54q-12 -35 -43.5 -55.5t-77.5 -20.5q-52 0 -93.5 21t-65.5 58.5t-24 84.5q1 53 28 84.5t86 46t158 14.5h28v6q0 27 -13.5 38.5t-46.5 11.5q-37 0 -114 -25q-18 -5 -40 -5
q-29 0 -46 20.5t-17 54.5q0 25 9.5 40t29.5 25q35 18 90 29t109 11q120 0 177.5 -56.5zM303.5 148q18.5 20 18.5 54v7h-16q-87 0 -87 -40q0 -18 10.5 -29.5t26.5 -11.5q29 0 47.5 20zM203 583q-33 32 -33 79t33 79t80 32t80 -32t33 -79t-33 -79t-80 -32t-80 32zM312.5 631.5
q11.5 12.5 11.5 30.5q0 19 -11 31t-30 12q-18 0 -29.5 -12t-11.5 -31q0 -18 11.5 -30.5t29.5 -12.5t29.5 12.5z" />
    <glyph glyph-name="ae" unicode="&#xe6;" horiz-adv-x="824" 
d="M781.5 151q16.5 -21 16.5 -55q0 -21 -11 -38t-29 -27q-33 -16 -81.5 -28t-85.5 -12q-133 0 -197 82q-25 -40 -67 -61t-96 -21q-60 0 -107.5 21t-74.5 58.5t-27 84.5q1 53 27.5 84.5t84.5 46t154 14.5h29v8q0 25 -13.5 36.5t-44.5 11.5q-27 0 -47.5 -4.5t-47.5 -12.5
q-15 -5 -30.5 -9t-29.5 -4q-26 0 -42.5 20.5t-16.5 54.5q0 43 39 65q34 19 86 29.5t106 10.5q106 0 156 -50q61 50 149 50q64 0 113.5 -31.5t77.5 -88t28 -129.5q0 -24 -11.5 -37.5t-31.5 -13.5h-240q7 -34 25.5 -49t53.5 -15q19 0 37.5 4t42.5 12q42 14 63 14
q26 0 42.5 -21zM514 300h113q-6 68 -51 68q-55 0 -62 -68zM300.5 149.5q16.5 21.5 16.5 50.5v9h-16q-82 0 -82 -40q0 -19 11.5 -30t30.5 -11q23 0 39.5 21.5z" />
    <glyph glyph-name="ccedilla" unicode="&#xe7;" horiz-adv-x="506" 
d="M96 59q-72 68 -72 187q0 78 35.5 136.5t99 91t146.5 32.5q42 0 86 -11.5t77 -31.5q14 -8 22 -23.5t8 -37.5q0 -36 -16.5 -58.5t-42.5 -22.5q-18 0 -32.5 4t-36.5 13q-16 7 -27 10t-24 3q-82 0 -82 -100q0 -105 83 -105q20 0 50 13q20 9 34.5 13t32.5 4q26 0 42.5 -22
t16.5 -58q0 -22 -8 -39t-21 -24q-72 -42 -174 -42q-125 0 -197 68zM393.5 -58.5q21.5 -19.5 21.5 -49.5q0 -41 -36.5 -66t-105.5 -25q-45 0 -71 9q-23 7 -23 33q0 16 9 27.5t23 8.5q24 -8 56 -8q19 0 30 4t11 17q0 7 -6 11.5t-16 4.5q-7 0 -20 -2.5t-20 -2.5q-10 0 -16 5.5
t-4 14.5l13 97h92l-10 -60q7 1 20 1q31 0 52.5 -19.5z" />
    <glyph glyph-name="egrave" unicode="&#xe8;" horiz-adv-x="537" 
d="M494.5 151q16.5 -21 16.5 -55q0 -21 -11 -38.5t-29 -26.5q-34 -16 -82 -28t-87 -12q-84 0 -147 31.5t-97 90t-34 136.5q0 74 32.5 132.5t90 91.5t129.5 33q70 0 124 -31t83.5 -87t29.5 -131q0 -25 -11.5 -38t-31.5 -13h-245q7 -35 25.5 -49.5t56.5 -14.5q26 0 51.5 7.5
t30.5 8.5q16 5 32.5 9.5t30.5 4.5q26 0 42.5 -21zM222 300h118q-6 68 -58 68t-60 -68zM129 635q-37 25 -37 61q0 28 22 49t52 21q41 0 70 -39l72 -99q10 -14 10 -29q0 -19 -13.5 -32.5t-31.5 -13.5q-15 0 -31 11z" />
    <glyph glyph-name="eacute" unicode="&#xe9;" horiz-adv-x="537" 
d="M494.5 151q16.5 -21 16.5 -55q0 -21 -11 -38.5t-29 -26.5q-34 -16 -82 -28t-87 -12q-84 0 -147 31.5t-97 90t-34 136.5q0 74 32.5 132.5t90 91.5t129.5 33q70 0 124 -31t83.5 -87t29.5 -131q0 -25 -11.5 -38t-31.5 -13h-245q7 -35 25.5 -49.5t56.5 -14.5q26 0 51.5 7.5
t30.5 8.5q16 5 32.5 9.5t30.5 4.5q26 0 42.5 -21zM222 300h118q-6 68 -58 68t-60 -68zM279 554q-19 0 -32.5 13t-13.5 31q0 16 11 30l72 99q29 39 69 39q30 0 52.5 -21.5t22.5 -49.5q0 -34 -37 -60l-113 -71q-14 -10 -31 -10z" />
    <glyph glyph-name="ecircumflex" unicode="&#xea;" horiz-adv-x="537" 
d="M494.5 151q16.5 -21 16.5 -55q0 -21 -11 -38.5t-29 -26.5q-34 -16 -82 -28t-87 -12q-84 0 -147 31.5t-97 90t-34 136.5q0 74 32.5 132.5t90 91.5t129.5 33q70 0 124 -31t83.5 -87t29.5 -131q0 -25 -11.5 -38t-31.5 -13h-245q7 -35 25.5 -49.5t56.5 -14.5q26 0 51.5 7.5
t30.5 8.5q16 5 32.5 9.5t30.5 4.5q26 0 42.5 -21zM222 300h118q-6 68 -58 68t-60 -68zM170 554q-21 0 -37.5 15t-16.5 36q0 18 13 34l80 94q16 19 31 28t36 9q22 0 36.5 -8.5t30.5 -30.5l80 -92q14 -17 14 -34q0 -21 -16.5 -36t-37.5 -15q-29 0 -47 27l-60 81l-59 -81
q-18 -27 -47 -27z" />
    <glyph glyph-name="edieresis" unicode="&#xeb;" horiz-adv-x="537" 
d="M494.5 151q16.5 -21 16.5 -55q0 -21 -11 -38.5t-29 -26.5q-34 -16 -82 -28t-87 -12q-84 0 -147 31.5t-97 90t-34 136.5q0 74 32.5 132.5t90 91.5t129.5 33q70 0 124 -31t83.5 -87t29.5 -131q0 -25 -11.5 -38t-31.5 -13h-245q7 -35 25.5 -49.5t56.5 -14.5q26 0 51.5 7.5
t30.5 8.5q16 5 32.5 9.5t30.5 4.5q26 0 42.5 -21zM222 300h118q-6 68 -58 68t-60 -68zM114.5 600.5q-23.5 22.5 -23.5 60.5q0 37 23.5 59t61.5 22q39 0 63 -22t24 -59q0 -38 -24 -60.5t-63 -22.5q-38 0 -61.5 22.5zM313.5 600.5q-23.5 22.5 -23.5 60.5q0 37 23.5 59t63.5 22
q37 0 61 -22t24 -59q0 -38 -23.5 -60.5t-61.5 -22.5q-40 0 -63.5 22.5z" />
    <glyph glyph-name="igrave" unicode="&#xec;" horiz-adv-x="297" 
d="M74 17.5q-30 24.5 -30 71.5v319q0 48 30 72t74 24t74 -24t30 -72v-319q0 -47 -30 -71.5t-74 -24.5t-74 24.5zM1 635q-37 25 -37 61q0 28 22 49t52 21q41 0 70 -39l72 -99q10 -14 10 -29q0 -19 -13.5 -32.5t-31.5 -13.5q-15 0 -31 11z" />
    <glyph glyph-name="iacute" unicode="&#xed;" horiz-adv-x="297" 
d="M74 17.5q-30 24.5 -30 71.5v319q0 48 30 72t74 24t74 -24t30 -72v-319q0 -47 -30 -71.5t-74 -24.5t-74 24.5zM151 554q-19 0 -32.5 13t-13.5 31q0 16 11 30l72 99q29 39 69 39q30 0 52.5 -21.5t22.5 -49.5q0 -34 -37 -60l-113 -71q-14 -10 -31 -10z" />
    <glyph glyph-name="icircumflex" unicode="&#xee;" horiz-adv-x="297" 
d="M74 17.5q-30 24.5 -30 71.5v319q0 48 30 72t74 24t74 -24t30 -72v-319q0 -47 -30 -71.5t-74 -24.5t-74 24.5zM42 554q-21 0 -37.5 15t-16.5 36q0 18 13 34l80 94q16 19 31 28t36 9q22 0 36.5 -8.5t30.5 -30.5l80 -92q14 -17 14 -34q0 -21 -16.5 -36t-37.5 -15
q-29 0 -47 27l-60 81l-59 -81q-18 -27 -47 -27z" />
    <glyph glyph-name="idieresis" unicode="&#xef;" horiz-adv-x="297" 
d="M74 17.5q-30 24.5 -30 71.5v319q0 48 30 72t74 24t74 -24t30 -72v-319q0 -47 -30 -71.5t-74 -24.5t-74 24.5zM-13.5 600.5q-23.5 22.5 -23.5 60.5q0 37 23.5 59t61.5 22q39 0 63 -22t24 -59q0 -38 -24 -60.5t-63 -22.5q-38 0 -61.5 22.5zM185.5 600.5
q-23.5 22.5 -23.5 60.5q0 37 23.5 59t63.5 22q37 0 61 -22t24 -59q0 -38 -23.5 -60.5t-61.5 -22.5q-40 0 -63.5 22.5z" />
    <glyph glyph-name="eth" unicode="&#xf0;" horiz-adv-x="624" 
d="M575 406q24 -59 24 -112q0 -93 -36 -161.5t-103.5 -105t-160.5 -36.5q-80 0 -142.5 29.5t-97.5 83t-35 122.5q0 65 32.5 117.5t90 82t129.5 29.5q60 0 97 -18q-19 26 -44 46l-123 -26q-6 -2 -18 -2q-23 0 -37 14.5t-14 33.5q0 18 12 32.5t35 20.5l24 5q-11 7 -23 12
q-24 11 -35.5 28t-11.5 37q0 30 23.5 53t59.5 23q20 0 40 -7q86 -30 167 -100l96 20q6 2 18 2q23 0 36.5 -14.5t13.5 -34.5q0 -18 -12 -32t-35 -20l-36 -7q42 -56 66 -115zM385 225q0 43 -19 62t-59 19t-59 -19t-19 -61t19.5 -61.5t59.5 -19.5q77 0 77 80z" />
    <glyph glyph-name="ntilde" unicode="&#xf1;" horiz-adv-x="617" 
d="M533.5 452.5q42.5 -53.5 42.5 -165.5v-198q0 -44 -28 -70t-76 -26t-76 26t-28 70v190q0 37 -11.5 53t-34.5 16q-32 0 -51 -21t-19 -55v-183q0 -44 -28 -70t-76 -26t-76 26t-28 70v322q0 41 29.5 67t76.5 26q39 0 65 -20t31 -53q58 75 157 75q88 0 130.5 -53.5zM352.5 585
q-17.5 7 -46.5 21q-38 22 -58 22q-15 0 -24 -7t-19 -20q-10 -12 -18 -18t-20 -6q-15 0 -24 12.5t-9 33.5q0 22 13.5 50t37 47.5t50.5 19.5q19 0 37 -7t43 -20q40 -22 59 -22q15 0 24.5 6.5t19.5 19.5q10 12 17.5 17.5t19.5 5.5q16 0 24.5 -11.5t8.5 -32.5q0 -23 -13.5 -51
t-36.5 -47.5t-50 -19.5q-18 0 -35.5 7z" />
    <glyph glyph-name="ograve" unicode="&#xf2;" horiz-adv-x="614" 
d="M158 22.5q-64 31.5 -99 90t-35 137.5t35 136.5t98.5 88.5t149.5 31t149.5 -31t98.5 -88.5t35 -136.5t-35 -137.5t-99 -90t-149 -31.5t-149 31.5zM366 169.5q19 24.5 19 80.5t-19 80t-59 24q-39 0 -58.5 -24t-19.5 -80q0 -55 20 -80t59 -25t58 24.5zM160 635
q-37 25 -37 61q0 28 22 49t52 21q41 0 70 -39l72 -99q10 -14 10 -29q0 -19 -13.5 -32.5t-31.5 -13.5q-15 0 -31 11z" />
    <glyph glyph-name="oacute" unicode="&#xf3;" horiz-adv-x="614" 
d="M158 22.5q-64 31.5 -99 90t-35 137.5t35 136.5t98.5 88.5t149.5 31t149.5 -31t98.5 -88.5t35 -136.5t-35 -137.5t-99 -90t-149 -31.5t-149 31.5zM366 169.5q19 24.5 19 80.5t-19 80t-59 24q-39 0 -58.5 -24t-19.5 -80q0 -55 20 -80t59 -25t58 24.5zM310 554
q-19 0 -32.5 13t-13.5 31q0 16 11 30l72 99q29 39 69 39q30 0 52.5 -21.5t22.5 -49.5q0 -34 -37 -60l-113 -71q-14 -10 -31 -10z" />
    <glyph glyph-name="ocircumflex" unicode="&#xf4;" horiz-adv-x="614" 
d="M158 22.5q-64 31.5 -99 90t-35 137.5t35 136.5t98.5 88.5t149.5 31t149.5 -31t98.5 -88.5t35 -136.5t-35 -137.5t-99 -90t-149 -31.5t-149 31.5zM366 169.5q19 24.5 19 80.5t-19 80t-59 24q-39 0 -58.5 -24t-19.5 -80q0 -55 20 -80t59 -25t58 24.5zM201 554
q-21 0 -37.5 15t-16.5 36q0 18 13 34l80 94q16 19 31 28t36 9q22 0 36.5 -8.5t30.5 -30.5l80 -92q14 -17 14 -34q0 -21 -16.5 -36t-37.5 -15q-29 0 -47 27l-60 81l-59 -81q-18 -27 -47 -27z" />
    <glyph glyph-name="otilde" unicode="&#xf5;" horiz-adv-x="614" 
d="M158 22.5q-64 31.5 -99 90t-35 137.5t35 136.5t98.5 88.5t149.5 31t149.5 -31t98.5 -88.5t35 -136.5t-35 -137.5t-99 -90t-149 -31.5t-149 31.5zM366 169.5q19 24.5 19 80.5t-19 80t-59 24q-39 0 -58.5 -24t-19.5 -80q0 -55 20 -80t59 -25t58 24.5zM348.5 585
q-17.5 7 -46.5 21q-38 22 -58 22q-15 0 -24 -7t-19 -20q-10 -12 -18 -18t-20 -6q-15 0 -24 12.5t-9 33.5q0 22 13.5 50t37 47.5t50.5 19.5q19 0 37 -7t43 -20q40 -22 59 -22q15 0 24.5 6.5t19.5 19.5q10 12 17.5 17.5t19.5 5.5q16 0 24.5 -11.5t8.5 -32.5q0 -23 -13.5 -51
t-36.5 -47.5t-50 -19.5q-18 0 -35.5 7z" />
    <glyph glyph-name="odieresis" unicode="&#xf6;" horiz-adv-x="614" 
d="M158 22.5q-64 31.5 -99 90t-35 137.5t35 136.5t98.5 88.5t149.5 31t149.5 -31t98.5 -88.5t35 -136.5t-35 -137.5t-99 -90t-149 -31.5t-149 31.5zM366 169.5q19 24.5 19 80.5t-19 80t-59 24q-39 0 -58.5 -24t-19.5 -80q0 -55 20 -80t59 -25t58 24.5zM145.5 600.5
q-23.5 22.5 -23.5 60.5q0 37 23.5 59t61.5 22q39 0 63 -22t24 -59q0 -38 -24 -60.5t-63 -22.5q-38 0 -61.5 22.5zM344.5 600.5q-23.5 22.5 -23.5 60.5q0 37 23.5 59t63.5 22q37 0 61 -22t24 -59q0 -38 -23.5 -60.5t-61.5 -22.5q-40 0 -63.5 22.5z" />
    <glyph glyph-name="divide" unicode="&#xf7;" 
d="M253 430.5q-20 20.5 -20 48.5q0 29 20 49.5t49 20.5t48.5 -20.5t19.5 -49.5q0 -28 -19.5 -48.5t-48.5 -20.5t-49 20.5zM81.5 240.5q-19.5 19.5 -19.5 47.5q0 29 19.5 49t47.5 20h354q29 0 48 -19t19 -48q0 -30 -19 -49.5t-48 -19.5h-354q-28 0 -47.5 19.5zM253 48.5
q-20 20.5 -20 49.5q0 28 20 48.5t49 20.5t48.5 -20.5t19.5 -48.5q0 -29 -19.5 -49.5t-48.5 -20.5t-49 20.5z" />
    <glyph glyph-name="oslash" unicode="&#xf8;" horiz-adv-x="614" 
d="M563.5 371q26.5 -53 26.5 -121q0 -79 -35 -137.5t-99 -90t-149 -31.5q-44 0 -85 9l-17 -30q-9 -14 -22 -21.5t-27 -7.5q-21 0 -36.5 13.5t-15.5 33.5q0 15 8 28l14 25q-49 33 -75.5 86.5t-26.5 122.5q0 79 35 136.5t98.5 88.5t149.5 31q45 0 84 -9l18 31q9 14 22 21.5
t27 7.5q21 0 37 -13.5t16 -33.5q0 -13 -9 -28l-14 -25q49 -33 75.5 -86zM227 215l82 141h-2q-43 0 -62.5 -24.5t-19.5 -81.5q0 -15 2 -35zM369.5 168q20.5 25 20.5 82q0 15 -2 35l-83 -142h3q41 0 61.5 25z" />
    <glyph glyph-name="ugrave" unicode="&#xf9;" horiz-adv-x="612" 
d="M539.5 478q28.5 -26 28.5 -70v-322q0 -41 -30 -67t-76 -26q-37 0 -62.5 18.5t-32.5 50.5q-49 -71 -136 -71q-97 0 -143.5 54t-46.5 165v198q0 44 28 70t76 26t76 -26t28 -70v-204q0 -55 47 -55q28 0 46 21.5t18 55.5v182q0 44 28 70t76 26q47 0 75.5 -26zM158 635
q-37 25 -37 61q0 28 22 49t52 21q41 0 70 -39l72 -99q10 -14 10 -29q0 -19 -13.5 -32.5t-31.5 -13.5q-15 0 -31 11z" />
    <glyph glyph-name="uacute" unicode="&#xfa;" horiz-adv-x="612" 
d="M539.5 478q28.5 -26 28.5 -70v-322q0 -41 -30 -67t-76 -26q-37 0 -62.5 18.5t-32.5 50.5q-49 -71 -136 -71q-97 0 -143.5 54t-46.5 165v198q0 44 28 70t76 26t76 -26t28 -70v-204q0 -55 47 -55q28 0 46 21.5t18 55.5v182q0 44 28 70t76 26q47 0 75.5 -26zM308 554
q-19 0 -32.5 13t-13.5 31q0 16 11 30l72 99q29 39 69 39q30 0 52.5 -21.5t22.5 -49.5q0 -34 -37 -60l-113 -71q-14 -10 -31 -10z" />
    <glyph glyph-name="ucircumflex" unicode="&#xfb;" horiz-adv-x="612" 
d="M539.5 478q28.5 -26 28.5 -70v-322q0 -41 -30 -67t-76 -26q-37 0 -62.5 18.5t-32.5 50.5q-49 -71 -136 -71q-97 0 -143.5 54t-46.5 165v198q0 44 28 70t76 26t76 -26t28 -70v-204q0 -55 47 -55q28 0 46 21.5t18 55.5v182q0 44 28 70t76 26q47 0 75.5 -26zM199 554
q-21 0 -37.5 15t-16.5 36q0 18 13 34l80 94q16 19 31 28t36 9q22 0 36.5 -8.5t30.5 -30.5l80 -92q14 -17 14 -34q0 -21 -16.5 -36t-37.5 -15q-29 0 -47 27l-60 81l-59 -81q-18 -27 -47 -27z" />
    <glyph glyph-name="udieresis" unicode="&#xfc;" horiz-adv-x="612" 
d="M539.5 478q28.5 -26 28.5 -70v-322q0 -41 -30 -67t-76 -26q-37 0 -62.5 18.5t-32.5 50.5q-49 -71 -136 -71q-97 0 -143.5 54t-46.5 165v198q0 44 28 70t76 26t76 -26t28 -70v-204q0 -55 47 -55q28 0 46 21.5t18 55.5v182q0 44 28 70t76 26q47 0 75.5 -26zM143.5 600.5
q-23.5 22.5 -23.5 60.5q0 37 23.5 59t61.5 22q39 0 63 -22t24 -59q0 -38 -24 -60.5t-63 -22.5q-38 0 -61.5 22.5zM342.5 600.5q-23.5 22.5 -23.5 60.5q0 37 23.5 59t63.5 22q37 0 61 -22t24 -59q0 -38 -23.5 -60.5t-61.5 -22.5q-40 0 -63.5 22.5z" />
    <glyph glyph-name="yacute" unicode="&#xfd;" horiz-adv-x="549" 
d="M402 488.5q22 13.5 48 13.5q39 0 69.5 -25.5t30.5 -61.5q0 -19 -10 -38l-259 -507q-14 -29 -37.5 -43.5t-49.5 -14.5q-39 0 -68.5 25t-29.5 61q0 21 10 41l63 123l-160 315q-9 20 -9 37q0 37 32.5 63t72.5 26q28 0 51.5 -14.5t37.5 -43.5l88 -185l85 186q13 29 35 42.5z
M278 554q-19 0 -32.5 13t-13.5 31q0 16 11 30l72 99q29 39 69 39q30 0 52.5 -21.5t22.5 -49.5q0 -34 -37 -60l-113 -71q-14 -10 -31 -10z" />
    <glyph glyph-name="thorn" unicode="&#xfe;" horiz-adv-x="638" 
d="M509.5 472q49.5 -34 77 -93.5t27.5 -132.5t-27.5 -131t-77 -91t-113.5 -33q-44 0 -83 17.5t-61 47.5v-153q0 -39 -27.5 -63.5t-73.5 -24.5q-48 0 -77.5 26t-29.5 67v709q0 41 29.5 67t77.5 26q46 0 73.5 -24.5t27.5 -63.5v-181q22 30 61 47.5t83 17.5q64 0 113.5 -34z
M388.5 170.5q20.5 25.5 20.5 75.5q0 52 -21 79.5t-59 27.5t-59 -27t-21 -78q0 -50 21 -76.5t60 -26.5q38 0 58.5 25.5z" />
    <glyph glyph-name="ydieresis" unicode="&#xff;" horiz-adv-x="549" 
d="M402 488.5q22 13.5 48 13.5q39 0 69.5 -25.5t30.5 -61.5q0 -19 -10 -38l-259 -507q-14 -29 -37.5 -43.5t-49.5 -14.5q-39 0 -68.5 25t-29.5 61q0 21 10 41l63 123l-160 315q-9 20 -9 37q0 37 32.5 63t72.5 26q28 0 51.5 -14.5t37.5 -43.5l88 -185l85 186q13 29 35 42.5z
M113.5 600.5q-23.5 22.5 -23.5 60.5q0 37 23.5 59t61.5 22q39 0 63 -22t24 -59q0 -38 -24 -60.5t-63 -22.5q-38 0 -61.5 22.5zM312.5 600.5q-23.5 22.5 -23.5 60.5q0 37 23.5 59t63.5 22q37 0 61 -22t24 -59q0 -38 -23.5 -60.5t-61.5 -22.5q-40 0 -63.5 22.5z" />
    <glyph glyph-name="Amacron" unicode="&#x100;" horiz-adv-x="771" 
d="M764 90q0 -39 -31.5 -66t-70.5 -27q-26 0 -48.5 13.5t-35.5 42.5l-37 82h-308l-38 -82q-13 -28 -35.5 -42t-48.5 -14q-40 0 -72 27t-32 66q0 20 11 44l257 512q15 32 45 49t64 17q35 0 65.5 -17t46.5 -49l257 -512q11 -22 11 -44zM468 295l-81 179l-81 -179h162z
M223.5 803q-16.5 15 -16.5 41q0 25 16.5 39.5t40.5 14.5h242q24 0 40 -14.5t16 -39.5q0 -26 -16 -41t-40 -15h-242q-24 0 -40.5 15z" />
    <glyph glyph-name="amacron" unicode="&#x101;" horiz-adv-x="559" 
d="M460.5 449.5q57.5 -56.5 57.5 -173.5v-189q0 -44 -26 -69t-72 -25q-37 0 -62.5 20t-31.5 54q-12 -35 -43.5 -55.5t-77.5 -20.5q-52 0 -93.5 21t-65.5 58.5t-24 84.5q1 53 28 84.5t86 46t158 14.5h28v6q0 27 -13.5 38.5t-46.5 11.5q-37 0 -114 -25q-18 -5 -40 -5
q-29 0 -46 20.5t-17 54.5q0 25 9.5 40t29.5 25q35 18 90 29t109 11q120 0 177.5 -56.5zM303.5 148q18.5 20 18.5 54v7h-16q-87 0 -87 -40q0 -18 10.5 -29.5t26.5 -11.5q29 0 47.5 20zM121.5 619.5q-16.5 14.5 -16.5 39.5q0 26 16 40t41 14h242q24 0 40 -14t16 -40
q0 -25 -16 -39.5t-40 -14.5h-242q-24 0 -40.5 14.5z" />
    <glyph glyph-name="Abreve" unicode="&#x102;" horiz-adv-x="771" 
d="M764 90q0 -39 -31.5 -66t-70.5 -27q-26 0 -48.5 13.5t-35.5 42.5l-37 82h-308l-38 -82q-13 -28 -35.5 -42t-48.5 -14q-40 0 -72 27t-32 66q0 20 11 44l257 512q15 32 45 49t64 17q35 0 65.5 -17t46.5 -49l257 -512q11 -22 11 -44zM468 295l-81 179l-81 -179h162z
M277.5 792q-46.5 20 -64.5 52q-9 17 -9 30q0 18 13 30t32 12q21 0 40 -16q17 -10 43.5 -17t52.5 -7t52.5 7t42.5 17q19 16 41 16q19 0 31.5 -11.5t12.5 -29.5q0 -17 -9 -31q-18 -31 -64.5 -51.5t-106.5 -20.5q-61 0 -107.5 20z" />
    <glyph glyph-name="abreve" unicode="&#x103;" horiz-adv-x="559" 
d="M460.5 449.5q57.5 -56.5 57.5 -173.5v-189q0 -44 -26 -69t-72 -25q-37 0 -62.5 20t-31.5 54q-12 -35 -43.5 -55.5t-77.5 -20.5q-52 0 -93.5 21t-65.5 58.5t-24 84.5q1 53 28 84.5t86 46t158 14.5h28v6q0 27 -13.5 38.5t-46.5 11.5q-37 0 -114 -25q-18 -5 -40 -5
q-29 0 -46 20.5t-17 54.5q0 25 9.5 40t29.5 25q35 18 90 29t109 11q120 0 177.5 -56.5zM303.5 148q18.5 20 18.5 54v7h-16q-87 0 -87 -40q0 -18 10.5 -29.5t26.5 -11.5q29 0 47.5 20zM170 604.5q-51 33.5 -68 83.5q-3 11 -3 19q0 21 14 34.5t33 13.5q26 0 42 -24
q37 -46 95 -46q59 0 96 46q16 24 41 24q19 0 33 -13.5t14 -33.5q0 -9 -3 -20q-18 -50 -68.5 -83.5t-112.5 -33.5t-113 33.5z" />
    <glyph glyph-name="Aogonek" unicode="&#x104;" horiz-adv-x="771" 
d="M783.5 -105q11.5 -13 11.5 -31q0 -27 -20 -38q-43 -26 -99 -26q-57 0 -96.5 33t-39.5 84q0 29 14.5 57t44.5 50q-15 13 -21 29l-37 82h-308l-38 -82q-13 -28 -35.5 -42t-48.5 -14q-40 0 -72 27t-32 66q0 20 11 44l257 512q15 32 45 49t64 17q35 0 65.5 -17t46.5 -49
l257 -512q11 -22 11 -45q0 -27 -15 -48t-38 -33q-4 -4 -18 -15t-21.5 -21.5t-7.5 -26.5q0 -22 13 -34t31 -12h15t33 5q16 4 27.5 -9zM468 295l-81 179l-81 -179h162z" />
    <glyph glyph-name="aogonek" unicode="&#x105;" horiz-adv-x="559" 
d="M546 -104q11 -12 11 -31q0 -12 -5 -22.5t-15 -16.5q-21 -14 -44.5 -20t-54.5 -6q-60 0 -97.5 33t-37.5 85q0 58 49 99q-21 22 -26 50q-11 -34 -42.5 -55t-75.5 -21q-53 0 -95.5 21t-66.5 58.5t-24 84.5q1 53 28 84.5t86.5 46t157.5 14.5h28v6q0 27 -13.5 38.5t-46.5 11.5
q-37 0 -114 -25q-17 -5 -40 -5q-29 0 -46 20.5t-17 54.5q0 25 9.5 40t29.5 25q35 18 90 29t109 11q120 0 177.5 -56.5t57.5 -173.5v-189q0 -60 -44 -83q-26 -19 -36.5 -31.5t-10.5 -27.5q0 -20 12 -33t31 -13t48 5q17 4 28 -8zM303.5 148q18.5 20 18.5 54v7h-16
q-87 0 -87 -40q0 -18 10.5 -29.5t26.5 -11.5q29 0 47.5 20z" />
    <glyph glyph-name="Cacute" unicode="&#x106;" horiz-adv-x="679" 
d="M211.5 34.5q-81.5 44.5 -126 127t-44.5 191.5t44.5 191t126 126.5t189.5 44.5q64 0 118 -15.5t104 -47.5q20 -14 28 -29.5t8 -41.5q0 -36 -20 -61t-49 -25q-18 0 -31 5t-32 17q-62 30 -113 30q-80 0 -117.5 -47t-37.5 -147q0 -101 37.5 -148t117.5 -47q18 0 35 4.5
t46 14.5q9 3 17 5.5t15 5.5q4 2 17 9t23.5 10t22.5 3q29 0 49 -25t20 -61q0 -25 -8 -41t-28 -30q-50 -32 -104 -47.5t-118 -15.5q-108 0 -189.5 44.5zM400 760q-17 0 -29.5 11t-12.5 27q0 17 15 31l80 73q27 26 55 26q27 0 46 -19.5t19 -44.5q0 -18 -11.5 -34t-35.5 -27
l-106 -39q-9 -4 -20 -4z" />
    <glyph glyph-name="cacute" unicode="&#x107;" horiz-adv-x="506" 
d="M96 59q-72 68 -72 187q0 78 35.5 136.5t99 91t146.5 32.5q42 0 86 -11.5t77 -31.5q14 -8 22 -23.5t8 -37.5q0 -36 -16.5 -58.5t-42.5 -22.5q-18 0 -32.5 4t-36.5 13q-16 7 -27 10t-24 3q-82 0 -82 -100q0 -105 83 -105q20 0 50 13q20 9 34.5 13t32.5 4q26 0 42.5 -22
t16.5 -58q0 -22 -8 -39t-21 -24q-72 -42 -174 -42q-125 0 -197 68zM308 554q-19 0 -32.5 13t-13.5 31q0 16 11 30l72 99q29 39 69 39q30 0 52.5 -21.5t22.5 -49.5q0 -34 -37 -60l-113 -71q-14 -10 -31 -10z" />
    <glyph glyph-name="Ccircumflex" unicode="&#x108;" horiz-adv-x="679" 
d="M211.5 34.5q-81.5 44.5 -126 127t-44.5 191.5t44.5 191t126 126.5t189.5 44.5q64 0 118 -15.5t104 -47.5q20 -14 28 -29.5t8 -41.5q0 -36 -20 -61t-49 -25q-18 0 -31 5t-32 17q-62 30 -113 30q-80 0 -117.5 -47t-37.5 -147q0 -101 37.5 -148t117.5 -47q18 0 35 4.5
t46 14.5q9 3 17 5.5t15 5.5q4 2 17 9t23.5 10t22.5 3q29 0 49 -25t20 -61q0 -25 -8 -41t-28 -30q-50 -32 -104 -47.5t-118 -15.5q-108 0 -189.5 44.5zM298 761q-21 0 -36.5 14.5t-15.5 34.5q0 21 22 39l74 56q24 21 59 21q33 0 58 -21l75 -56q21 -17 21 -40q0 -20 -15 -34.5
t-37 -14.5t-41 18l-61 54l-62 -54q-18 -17 -41 -17z" />
    <glyph glyph-name="ccircumflex" unicode="&#x109;" horiz-adv-x="506" 
d="M96 59q-72 68 -72 187q0 78 35.5 136.5t99 91t146.5 32.5q42 0 86 -11.5t77 -31.5q14 -8 22 -23.5t8 -37.5q0 -36 -16.5 -58.5t-42.5 -22.5q-18 0 -32.5 4t-36.5 13q-16 7 -27 10t-24 3q-82 0 -82 -100q0 -105 83 -105q20 0 50 13q20 9 34.5 13t32.5 4q26 0 42.5 -22
t16.5 -58q0 -22 -8 -39t-21 -24q-72 -42 -174 -42q-125 0 -197 68zM199 554q-21 0 -37.5 15t-16.5 36q0 18 13 34l80 94q16 19 31 28t36 9q22 0 36.5 -8.5t30.5 -30.5l80 -92q14 -17 14 -34q0 -21 -16.5 -36t-37.5 -15q-29 0 -47 27l-60 81l-59 -81q-18 -27 -47 -27z" />
    <glyph glyph-name="Cdotaccent" unicode="&#x10a;" horiz-adv-x="679" 
d="M211.5 34.5q-81.5 44.5 -126 127t-44.5 191.5t44.5 191t126 126.5t189.5 44.5q64 0 118 -15.5t104 -47.5q20 -14 28 -29.5t8 -41.5q0 -36 -20 -61t-49 -25q-18 0 -31 5t-32 17q-62 30 -113 30q-80 0 -117.5 -47t-37.5 -147q0 -101 37.5 -148t117.5 -47q18 0 35 4.5
t46 14.5q9 3 17 5.5t15 5.5q4 2 17 9t23.5 10t22.5 3q29 0 49 -25t20 -61q0 -25 -8 -41t-28 -30q-50 -32 -104 -47.5t-118 -15.5q-108 0 -189.5 44.5zM327.5 780.5q-27.5 24.5 -27.5 65.5q0 39 27.5 62.5t73.5 23.5q45 0 73 -23.5t28 -62.5q0 -41 -27.5 -65.5t-73.5 -24.5
t-73.5 24.5z" />
    <glyph glyph-name="cdotaccent" unicode="&#x10b;" horiz-adv-x="506" 
d="M96 59q-72 68 -72 187q0 78 35.5 136.5t99 91t146.5 32.5q42 0 86 -11.5t77 -31.5q14 -8 22 -23.5t8 -37.5q0 -36 -16.5 -58.5t-42.5 -22.5q-18 0 -32.5 4t-36.5 13q-16 7 -27 10t-24 3q-82 0 -82 -100q0 -105 83 -105q20 0 50 13q20 9 34.5 13t32.5 4q26 0 42.5 -22
t16.5 -58q0 -22 -8 -39t-21 -24q-72 -42 -174 -42q-125 0 -197 68zM231.5 597q-27.5 24 -27.5 64t27 63t74 23q45 0 73 -23.5t28 -62.5q0 -40 -27.5 -64t-73.5 -24t-73.5 24z" />
    <glyph glyph-name="Ccaron" unicode="&#x10c;" horiz-adv-x="679" 
d="M211.5 34.5q-81.5 44.5 -126 127t-44.5 191.5t44.5 191t126 126.5t189.5 44.5q64 0 118 -15.5t104 -47.5q20 -14 28 -29.5t8 -41.5q0 -36 -20 -61t-49 -25q-18 0 -31 5t-32 17q-62 30 -113 30q-80 0 -117.5 -47t-37.5 -147q0 -101 37.5 -148t117.5 -47q18 0 35 4.5
t46 14.5q9 3 17 5.5t15 5.5q4 2 17 9t23.5 10t22.5 3q29 0 49 -25t20 -61q0 -25 -8 -41t-28 -30q-50 -32 -104 -47.5t-118 -15.5q-108 0 -189.5 44.5zM342 781l-74 57q-22 18 -22 40q0 19 15.5 33t36.5 14q23 0 41 -17l62 -54l61 54q18 17 41 17q21 0 36.5 -14.5t15.5 -34.5
q0 -21 -21 -38l-75 -57q-27 -21 -58 -21q-32 0 -59 21z" />
    <glyph glyph-name="ccaron" unicode="&#x10d;" horiz-adv-x="506" 
d="M96 59q-72 68 -72 187q0 78 35.5 136.5t99 91t146.5 32.5q42 0 86 -11.5t77 -31.5q14 -8 22 -23.5t8 -37.5q0 -36 -16.5 -58.5t-42.5 -22.5q-18 0 -32.5 4t-36.5 13q-16 7 -27 10t-24 3q-82 0 -82 -100q0 -105 83 -105q20 0 50 13q20 9 34.5 13t32.5 4q26 0 42.5 -22
t16.5 -58q0 -22 -8 -39t-21 -24q-72 -42 -174 -42q-125 0 -197 68zM269 561.5q-14 8.5 -32 29.5l-79 94q-14 15 -14 34q0 21 16.5 36t38.5 15q28 0 46 -26l60 -84l60 84q18 26 45 26q22 0 38.5 -15t16.5 -36q0 -18 -13 -34l-80 -95q-17 -19 -31.5 -28t-35.5 -9
q-22 0 -36 8.5z" />
    <glyph glyph-name="Dcaron" unicode="&#x10e;" horiz-adv-x="783" 
d="M82 25q-25 25 -25 74v507q0 48 25 73.5t73 25.5h205q118 0 204.5 -42.5t132.5 -122t46 -187.5q0 -109 -45.5 -188.5t-132 -122t-205.5 -42.5h-205q-48 0 -73 25zM344 172q92 0 138 43.5t46 137.5q0 93 -46 136.5t-138 43.5h-72v-361h72zM332 781l-74 57q-22 18 -22 40
q0 19 15.5 33t36.5 14q23 0 41 -17l62 -54l61 54q18 17 41 17q21 0 36.5 -14.5t15.5 -34.5q0 -21 -21 -38l-75 -57q-27 -21 -58 -21q-32 0 -59 21z" />
    <glyph glyph-name="dcaron" unicode="&#x10f;" horiz-adv-x="638" 
d="M627 698q14 13 32 13t30 -11t12 -30l-1 -9l-23 -143q-3 -16 -12 -25t-20 -9q-13 0 -22.5 11t-9.5 29v137q0 24 14 37zM564 684q30 -26 30 -67v-528q0 -43 -28 -69.5t-75 -26.5q-39 0 -65 19t-34 52q-21 -33 -61.5 -53t-88.5 -20q-62 0 -112 33t-78 92.5t-28 135.5
t28 133.5t77.5 89t112.5 31.5q44 0 83 -17.5t61 -47.5v181q0 40 27.5 64t73.5 24q47 0 77 -26zM368.5 172q20.5 27 20.5 78q0 50 -21 76.5t-60 26.5q-38 0 -58.5 -26t-20.5 -75q0 -51 21 -79t59 -28q39 0 59.5 27z" />
    <glyph glyph-name="Dcroat" unicode="&#x110;" horiz-adv-x="827" 
d="M607.5 662.5q86.5 -42.5 132.5 -122t46 -187.5q0 -109 -45.5 -188.5t-132 -122t-205.5 -42.5h-205q-48 0 -73 25t-25 74v176h-4q-46 0 -71 21t-25 59t25 59t71 21h4v171q0 48 25 73.5t73 25.5h205q118 0 204.5 -42.5zM525.5 216q46.5 44 46.5 137t-46.5 136.5
t-138.5 43.5h-71v-98h103q46 0 71.5 -21t25.5 -59t-25.5 -59t-71.5 -21h-103v-103h71q92 0 138.5 44z" />
    <glyph glyph-name="dcroat" unicode="&#x111;" horiz-adv-x="638" 
d="M672 636.5q22 -18.5 22 -51.5t-22 -51.5t-65 -18.5h-13v-426q0 -43 -28 -69.5t-75 -26.5q-39 0 -65 19t-34 52q-21 -33 -61.5 -53t-88.5 -20q-62 0 -112 33t-78 92.5t-28 135.5t28 133.5t77.5 89t112.5 31.5q44 0 83 -17.5t61 -47.5v74h-114q-43 0 -64.5 18.5t-21.5 51.5
t21.5 51.5t64.5 18.5h120q10 26 35 40.5t60 14.5t61.5 -14.5t37.5 -40.5h21q43 0 65 -18.5zM368.5 172q20.5 27 20.5 78q0 50 -21 76.5t-60 26.5q-38 0 -58.5 -26t-20.5 -75q0 -51 21 -79t59 -28q39 0 59.5 27z" />
    <glyph glyph-name="Emacron" unicode="&#x112;" horiz-adv-x="602" 
d="M82 25q-25 25 -25 74v507q0 48 25 73.5t73 25.5h338q51 0 76.5 -21t25.5 -60q0 -83 -102 -83h-227v-100h207q51 0 76.5 -21t25.5 -62q0 -81 -102 -81h-207v-113h227q51 0 76.5 -21t25.5 -62q0 -39 -25.5 -60t-76.5 -21h-338q-48 0 -73 25zM174.5 803q-16.5 15 -16.5 41
q0 25 16.5 39.5t40.5 14.5h242q24 0 40 -14.5t16 -39.5q0 -26 -16 -41t-40 -15h-242q-24 0 -40.5 15z" />
    <glyph glyph-name="emacron" unicode="&#x113;" horiz-adv-x="537" 
d="M494.5 151q16.5 -21 16.5 -55q0 -21 -11 -38.5t-29 -26.5q-34 -16 -82 -28t-87 -12q-84 0 -147 31.5t-97 90t-34 136.5q0 74 32.5 132.5t90 91.5t129.5 33q70 0 124 -31t83.5 -87t29.5 -131q0 -25 -11.5 -38t-31.5 -13h-245q7 -35 25.5 -49.5t56.5 -14.5q26 0 51.5 7.5
t30.5 8.5q16 5 32.5 9.5t30.5 4.5q26 0 42.5 -21zM222 300h118q-6 68 -58 68t-60 -68zM114.5 619.5q-16.5 14.5 -16.5 39.5q0 26 16 40t41 14h242q24 0 40 -14t16 -40q0 -25 -16 -39.5t-40 -14.5h-242q-24 0 -40.5 14.5z" />
    <glyph glyph-name="Ebreve" unicode="&#x114;" horiz-adv-x="602" 
d="M82 25q-25 25 -25 74v507q0 48 25 73.5t73 25.5h338q51 0 76.5 -21t25.5 -60q0 -83 -102 -83h-227v-100h207q51 0 76.5 -21t25.5 -62q0 -81 -102 -81h-207v-113h227q51 0 76.5 -21t25.5 -62q0 -39 -25.5 -60t-76.5 -21h-338q-48 0 -73 25zM228.5 792q-46.5 20 -64.5 52
q-9 17 -9 30q0 18 13 30t32 12q21 0 40 -16q17 -10 43.5 -17t52.5 -7t52.5 7t42.5 17q19 16 41 16q19 0 31.5 -11.5t12.5 -29.5q0 -17 -9 -31q-18 -31 -64.5 -51.5t-106.5 -20.5q-61 0 -107.5 20z" />
    <glyph glyph-name="ebreve" unicode="&#x115;" horiz-adv-x="537" 
d="M494.5 151q16.5 -21 16.5 -55q0 -21 -11 -38.5t-29 -26.5q-34 -16 -82 -28t-87 -12q-84 0 -147 31.5t-97 90t-34 136.5q0 74 32.5 132.5t90 91.5t129.5 33q70 0 124 -31t83.5 -87t29.5 -131q0 -25 -11.5 -38t-31.5 -13h-245q7 -35 25.5 -49.5t56.5 -14.5q26 0 51.5 7.5
t30.5 8.5q16 5 32.5 9.5t30.5 4.5q26 0 42.5 -21zM222 300h118q-6 68 -58 68t-60 -68zM163 604.5q-51 33.5 -68 83.5q-3 11 -3 19q0 21 14 34.5t33 13.5q26 0 42 -24q37 -46 95 -46q59 0 96 46q16 24 41 24q19 0 33 -13.5t14 -33.5q0 -9 -3 -20q-18 -50 -68.5 -83.5
t-112.5 -33.5t-113 33.5z" />
    <glyph glyph-name="Edotaccent" unicode="&#x116;" horiz-adv-x="602" 
d="M82 25q-25 25 -25 74v507q0 48 25 73.5t73 25.5h338q51 0 76.5 -21t25.5 -60q0 -83 -102 -83h-227v-100h207q51 0 76.5 -21t25.5 -62q0 -81 -102 -81h-207v-113h227q51 0 76.5 -21t25.5 -62q0 -39 -25.5 -60t-76.5 -21h-338q-48 0 -73 25zM262.5 780.5
q-27.5 24.5 -27.5 65.5q0 39 27.5 62.5t73.5 23.5q45 0 73 -23.5t28 -62.5q0 -41 -27.5 -65.5t-73.5 -24.5t-73.5 24.5z" />
    <glyph glyph-name="edotaccent" unicode="&#x117;" horiz-adv-x="537" 
d="M494.5 151q16.5 -21 16.5 -55q0 -21 -11 -38.5t-29 -26.5q-34 -16 -82 -28t-87 -12q-84 0 -147 31.5t-97 90t-34 136.5q0 74 32.5 132.5t90 91.5t129.5 33q70 0 124 -31t83.5 -87t29.5 -131q0 -25 -11.5 -38t-31.5 -13h-245q7 -35 25.5 -49.5t56.5 -14.5q26 0 51.5 7.5
t30.5 8.5q16 5 32.5 9.5t30.5 4.5q26 0 42.5 -21zM222 300h118q-6 68 -58 68t-60 -68zM202.5 597q-27.5 24 -27.5 64t27 63t74 23q45 0 73 -23.5t28 -62.5q0 -40 -27.5 -64t-73.5 -24t-73.5 24z" />
    <glyph glyph-name="Eogonek" unicode="&#x118;" horiz-adv-x="602" 
d="M614.5 -105q11.5 -13 11.5 -31q0 -27 -21 -38q-43 -26 -99 -26q-59 0 -97 32t-38 82q0 52 37 86h-253q-48 0 -73 25t-25 74v507q0 48 25 73.5t73 25.5h338q51 0 76.5 -21t25.5 -60q0 -41 -25.5 -62t-76.5 -21h-227v-100h207q51 0 76.5 -21t25.5 -62q0 -81 -102 -81h-207
v-113h227q51 0 76.5 -21t25.5 -62q0 -32 -16.5 -51.5t-53.5 -29.5q-30 -19 -30 -55q0 -20 12 -33t31 -13q13 0 48 5q17 4 28.5 -9z" />
    <glyph glyph-name="eogonek" unicode="&#x119;" horiz-adv-x="537" 
d="M500.5 -105q11.5 -13 11.5 -31q0 -27 -21 -38q-43 -26 -99 -26q-59 0 -97.5 32t-38.5 82q0 45 32 77q-123 5 -193.5 74t-70.5 184q0 74 32.5 132.5t90 91.5t129.5 33q70 0 124 -31t83.5 -87t29.5 -131q0 -25 -11.5 -38t-31.5 -13h-245q7 -35 25.5 -49.5t56.5 -14.5
q26 0 51.5 7.5t30.5 8.5q16 5 32.5 9.5t30.5 4.5q26 0 42.5 -21t16.5 -55q0 -44 -51 -71q-43 -21 -61.5 -39.5t-18.5 -40.5q0 -20 12.5 -33t31.5 -13q22 0 48 5q17 4 28.5 -9zM222 300h118q-6 68 -58 68t-60 -68z" />
    <glyph glyph-name="Ecaron" unicode="&#x11a;" horiz-adv-x="602" 
d="M82 25q-25 25 -25 74v507q0 48 25 73.5t73 25.5h338q51 0 76.5 -21t25.5 -60q0 -83 -102 -83h-227v-100h207q51 0 76.5 -21t25.5 -62q0 -81 -102 -81h-207v-113h227q51 0 76.5 -21t25.5 -62q0 -39 -25.5 -60t-76.5 -21h-338q-48 0 -73 25zM277 781l-74 57q-22 18 -22 40
q0 19 15.5 33t36.5 14q23 0 41 -17l62 -54l61 54q18 17 41 17q21 0 36.5 -14.5t15.5 -34.5q0 -21 -21 -38l-75 -57q-27 -21 -58 -21q-32 0 -59 21z" />
    <glyph glyph-name="ecaron" unicode="&#x11b;" horiz-adv-x="537" 
d="M494.5 151q16.5 -21 16.5 -55q0 -21 -11 -38.5t-29 -26.5q-34 -16 -82 -28t-87 -12q-84 0 -147 31.5t-97 90t-34 136.5q0 74 32.5 132.5t90 91.5t129.5 33q70 0 124 -31t83.5 -87t29.5 -131q0 -25 -11.5 -38t-31.5 -13h-245q7 -35 25.5 -49.5t56.5 -14.5q26 0 51.5 7.5
t30.5 8.5q16 5 32.5 9.5t30.5 4.5q26 0 42.5 -21zM222 300h118q-6 68 -58 68t-60 -68zM240 561.5q-14 8.5 -32 29.5l-79 94q-14 15 -14 34q0 21 16.5 36t38.5 15q28 0 46 -26l60 -84l60 84q18 26 45 26q22 0 38.5 -15t16.5 -36q0 -18 -13 -34l-80 -95q-17 -19 -31.5 -28
t-35.5 -9q-22 0 -36 8.5z" />
    <glyph glyph-name="Gcircumflex" unicode="&#x11c;" horiz-adv-x="750" 
d="M678.5 386q22.5 -21 22.5 -57v-150q0 -60 -9 -92t-32 -49.5t-70 -30.5q-39 -8 -84 -12.5t-80 -4.5q-118 0 -204.5 44t-133.5 125.5t-47 193.5q0 109 46.5 191t132 126.5t199.5 44.5q70 0 125 -15t104 -48q20 -14 28 -29.5t8 -41.5q0 -35 -19.5 -60.5t-47.5 -25.5
q-16 0 -27.5 4.5t-22.5 10.5t-15 8q-34 15 -63.5 22t-61.5 7q-88 0 -129 -46.5t-41 -147.5q0 -104 43.5 -152t136.5 -48q33 0 72 6v104h-49q-38 0 -59 18.5t-21 53.5t21 53.5t59 18.5h158q38 0 60.5 -21zM316 761q-21 0 -36.5 14.5t-15.5 34.5q0 21 22 39l74 56q24 21 59 21
q33 0 58 -21l75 -56q21 -17 21 -40q0 -20 -15 -34.5t-37 -14.5t-41 18l-61 54l-62 -54q-18 -17 -41 -17z" />
    <glyph glyph-name="gcircumflex" unicode="&#x11d;" horiz-adv-x="642" 
d="M570 478q28 -26 28 -70v-340q0 -126 -79 -191.5t-232 -65.5q-54 0 -104.5 10.5t-85.5 28.5q-18 9 -28.5 27t-10.5 39q0 34 16.5 55t42.5 21q15 0 35.5 -4.5t40.5 -9.5q58 -16 88 -16q58 0 84.5 22t26.5 71v24q-22 -30 -62 -48t-86 -18q-63 0 -113 30.5t-78.5 86
t-28.5 129.5t28.5 130t78.5 86.5t113 30.5q47 0 88.5 -20t62.5 -52q8 32 34.5 51t65.5 19q47 0 75 -26zM371.5 191q21.5 24 21.5 68t-21.5 69t-60.5 25t-60.5 -24.5t-21.5 -69.5q0 -43 22 -67.5t60 -24.5q39 0 60.5 24zM215 554q-21 0 -37.5 15t-16.5 36q0 18 13 34l80 94
q16 19 31 28t36 9q22 0 36.5 -8.5t30.5 -30.5l80 -92q14 -17 14 -34q0 -21 -16.5 -36t-37.5 -15q-29 0 -47 27l-60 81l-59 -81q-18 -27 -47 -27z" />
    <glyph glyph-name="Gbreve" unicode="&#x11e;" horiz-adv-x="750" 
d="M678.5 386q22.5 -21 22.5 -57v-150q0 -60 -9 -92t-32 -49.5t-70 -30.5q-39 -8 -84 -12.5t-80 -4.5q-118 0 -204.5 44t-133.5 125.5t-47 193.5q0 109 46.5 191t132 126.5t199.5 44.5q70 0 125 -15t104 -48q20 -14 28 -29.5t8 -41.5q0 -35 -19.5 -60.5t-47.5 -25.5
q-16 0 -27.5 4.5t-22.5 10.5t-15 8q-34 15 -63.5 22t-61.5 7q-88 0 -129 -46.5t-41 -147.5q0 -104 43.5 -152t136.5 -48q33 0 72 6v104h-49q-38 0 -59 18.5t-21 53.5t21 53.5t59 18.5h158q38 0 60.5 -21zM311.5 792q-46.5 20 -64.5 52q-9 17 -9 30q0 18 13 30t32 12
q21 0 40 -16q17 -10 43.5 -17t52.5 -7t52.5 7t42.5 17q19 16 41 16q19 0 31.5 -11.5t12.5 -29.5q0 -17 -9 -31q-18 -31 -64.5 -51.5t-106.5 -20.5q-61 0 -107.5 20z" />
    <glyph glyph-name="gbreve" unicode="&#x11f;" horiz-adv-x="642" 
d="M570 478q28 -26 28 -70v-340q0 -126 -79 -191.5t-232 -65.5q-54 0 -104.5 10.5t-85.5 28.5q-18 9 -28.5 27t-10.5 39q0 34 16.5 55t42.5 21q15 0 35.5 -4.5t40.5 -9.5q58 -16 88 -16q58 0 84.5 22t26.5 71v24q-22 -30 -62 -48t-86 -18q-63 0 -113 30.5t-78.5 86
t-28.5 129.5t28.5 130t78.5 86.5t113 30.5q47 0 88.5 -20t62.5 -52q8 32 34.5 51t65.5 19q47 0 75 -26zM371.5 191q21.5 24 21.5 68t-21.5 69t-60.5 25t-60.5 -24.5t-21.5 -69.5q0 -43 22 -67.5t60 -24.5q39 0 60.5 24zM208 604.5q-51 33.5 -68 83.5q-3 11 -3 19
q0 21 14 34.5t33 13.5q26 0 42 -24q37 -46 95 -46q59 0 96 46q16 24 41 24q19 0 33 -13.5t14 -33.5q0 -9 -3 -20q-18 -50 -68.5 -83.5t-112.5 -33.5t-113 33.5z" />
    <glyph glyph-name="Gdotaccent" unicode="&#x120;" horiz-adv-x="750" 
d="M678.5 386q22.5 -21 22.5 -57v-150q0 -60 -9 -92t-32 -49.5t-70 -30.5q-39 -8 -84 -12.5t-80 -4.5q-118 0 -204.5 44t-133.5 125.5t-47 193.5q0 109 46.5 191t132 126.5t199.5 44.5q70 0 125 -15t104 -48q20 -14 28 -29.5t8 -41.5q0 -35 -19.5 -60.5t-47.5 -25.5
q-16 0 -27.5 4.5t-22.5 10.5t-15 8q-34 15 -63.5 22t-61.5 7q-88 0 -129 -46.5t-41 -147.5q0 -104 43.5 -152t136.5 -48q33 0 72 6v104h-49q-38 0 -59 18.5t-21 53.5t21 53.5t59 18.5h158q38 0 60.5 -21zM345.5 780.5q-27.5 24.5 -27.5 65.5q0 39 27.5 62.5t73.5 23.5
q45 0 73 -23.5t28 -62.5q0 -41 -27.5 -65.5t-73.5 -24.5t-73.5 24.5z" />
    <glyph glyph-name="gdotaccent" unicode="&#x121;" horiz-adv-x="642" 
d="M570 478q28 -26 28 -70v-340q0 -126 -79 -191.5t-232 -65.5q-54 0 -104.5 10.5t-85.5 28.5q-18 9 -28.5 27t-10.5 39q0 34 16.5 55t42.5 21q15 0 35.5 -4.5t40.5 -9.5q58 -16 88 -16q58 0 84.5 22t26.5 71v24q-22 -30 -62 -48t-86 -18q-63 0 -113 30.5t-78.5 86
t-28.5 129.5t28.5 130t78.5 86.5t113 30.5q47 0 88.5 -20t62.5 -52q8 32 34.5 51t65.5 19q47 0 75 -26zM371.5 191q21.5 24 21.5 68t-21.5 69t-60.5 25t-60.5 -24.5t-21.5 -69.5q0 -43 22 -67.5t60 -24.5q39 0 60.5 24zM247.5 597q-27.5 24 -27.5 64t27 63t74 23
q45 0 73 -23.5t28 -62.5q0 -40 -27.5 -64t-73.5 -24t-73.5 24z" />
    <glyph glyph-name="Gcommaaccent" unicode="&#x122;" horiz-adv-x="750" 
d="M678.5 386q22.5 -21 22.5 -57v-150q0 -60 -9 -92t-32 -49.5t-70 -30.5q-39 -8 -84 -12.5t-80 -4.5q-118 0 -204.5 44t-133.5 125.5t-47 193.5q0 109 46.5 191t132 126.5t199.5 44.5q70 0 125 -15t104 -48q20 -14 28 -29.5t8 -41.5q0 -35 -19.5 -60.5t-47.5 -25.5
q-16 0 -27.5 4.5t-22.5 10.5t-15 8q-34 15 -63.5 22t-61.5 7q-88 0 -129 -46.5t-41 -147.5q0 -104 43.5 -152t136.5 -48q33 0 72 6v104h-49q-38 0 -59 18.5t-21 53.5t21 53.5t59 18.5h158q38 0 60.5 -21zM492 -83.5q26 -25.5 26 -74.5q0 -32 -10 -58.5t-23 -42.5
q-18 -21 -46 -21q-17 0 -28.5 8t-11.5 21q0 10 8 21q12 21 16 33h-5q-33 0 -55.5 17t-22.5 47q0 34 23.5 54.5t59.5 20.5q43 0 69 -25.5z" />
    <glyph glyph-name="gcommaaccent" unicode="&#x123;" horiz-adv-x="642" 
d="M570 478q28 -26 28 -70v-340q0 -126 -79 -191.5t-232 -65.5q-54 0 -104.5 10.5t-85.5 28.5q-18 9 -28.5 27t-10.5 39q0 34 16.5 55t42.5 21q15 0 35.5 -4.5t40.5 -9.5q58 -16 88 -16q58 0 84.5 22t26.5 71v24q-22 -30 -62 -48t-86 -18q-63 0 -113 30.5t-78.5 86
t-28.5 129.5t28.5 130t78.5 86.5t113 30.5q47 0 88.5 -20t62.5 -52q8 32 34.5 51t65.5 19q47 0 75 -26zM371.5 191q21.5 24 21.5 68t-21.5 69t-60.5 25t-60.5 -24.5t-21.5 -69.5q0 -43 22 -67.5t60 -24.5q39 0 60.5 24zM384.5 705.5q22.5 -16.5 22.5 -46.5q0 -35 -23.5 -56
t-59.5 -21q-43 0 -69 25.5t-26 74.5q0 32 10 58.5t23 42.5q19 22 47 22q16 0 27.5 -8t11.5 -21q0 -11 -8 -22q-11 -18 -16 -32h5q33 0 55.5 -16.5z" />
    <glyph glyph-name="Hcircumflex" unicode="&#x124;" horiz-adv-x="782" 
d="M696 681.5q29 -28.5 29 -75.5v-507q0 -47 -29 -76.5t-77 -29.5q-47 0 -76 29t-29 77v175h-246v-175q0 -47 -29 -76.5t-77 -29.5t-76.5 28.5t-28.5 77.5v507q0 47 28.5 75.5t76.5 28.5t77 -28.5t29 -75.5v-164h246v164q0 47 29 75.5t76 28.5q48 0 77 -28.5zM288 761
q-21 0 -36.5 14.5t-15.5 34.5q0 21 22 39l74 56q24 21 59 21q33 0 58 -21l75 -56q21 -17 21 -40q0 -20 -15 -34.5t-37 -14.5t-41 18l-61 54l-62 -54q-18 -17 -41 -17z" />
    <glyph glyph-name="hcircumflex" unicode="&#x125;" horiz-adv-x="617" 
d="M534.5 452q41.5 -54 41.5 -165v-198q0 -44 -28 -70t-76 -26t-76 26t-28 70v205q0 54 -46 54q-32 0 -51 -21t-19 -55v-183q0 -44 -28 -70t-76 -26t-76 26t-28 70v528q0 41 29.5 67t77.5 26q46 0 73.5 -24t27.5 -64v-184q57 68 156 68q85 0 126.5 -54zM48 761
q-21 0 -36.5 14.5t-15.5 34.5q0 21 22 39l74 56q24 21 59 21q33 0 58 -21l75 -56q21 -17 21 -40q0 -20 -15 -34.5t-37 -14.5t-41 18l-61 54l-62 -54q-18 -17 -41 -17z" />
    <glyph glyph-name="Hbar" unicode="&#x126;" horiz-adv-x="868" 
d="M843.5 628.5q24.5 -21.5 24.5 -56.5t-24.5 -56t-72.5 -21h-3v-396q0 -51 -30.5 -78.5t-74.5 -27.5q-46 0 -76 27.5t-30 78.5v175h-246v-175q0 -51 -30.5 -78.5t-74.5 -27.5q-46 0 -76 27.5t-30 78.5v396h-4q-47 0 -71.5 21t-24.5 56t24.5 56.5t71.5 21.5h12q12 30 38 45
t60 15q33 0 59.5 -15.5t37.5 -44.5h262q12 30 38 45t60 15q33 0 59.5 -15.5t37.5 -44.5h11q48 0 72.5 -21.5zM557 495h-246v-53h246v53z" />
    <glyph glyph-name="hbar" unicode="&#x127;" horiz-adv-x="617" 
d="M534.5 452q41.5 -54 41.5 -165v-198q0 -44 -28 -70t-76 -26t-76 26t-28 70v205q0 54 -46 54q-32 0 -51 -21t-19 -55v-183q0 -44 -28 -70t-76 -26t-76 26t-28 70v426h-13q-43 0 -65 18.5t-22 51.5t22 51.5t65 18.5h21q11 26 37 40.5t62 14.5q35 0 60 -14.5t35 -40.5h120
q43 0 64.5 -18.5t21.5 -51.5t-21.5 -51.5t-64.5 -18.5h-114v-77q57 68 156 68q85 0 126.5 -54z" />
    <glyph glyph-name="Itilde" unicode="&#x128;" horiz-adv-x="329" 
d="M86 21.5q-29 28.5 -29 77.5v507q0 47 29 75.5t78 28.5q50 0 79 -28t29 -76v-507q0 -49 -29 -77.5t-79 -28.5q-49 0 -78 28.5zM164 789q-50 12 -75 12q-9 0 -15 -3t-14 -10q-9 -8 -16.5 -12t-20.5 -4q-17 0 -26.5 10.5t-9.5 28.5q0 22 13.5 46t36.5 40t51 16q30 0 76 -13
q50 -12 75 -12q15 0 30 13q17 15 36 15q36 0 36 -38q0 -22 -13.5 -46t-36.5 -40t-50 -16q-29 0 -77 13z" />
    <glyph glyph-name="itilde" unicode="&#x129;" horiz-adv-x="297" 
d="M74 17.5q-30 24.5 -30 71.5v319q0 48 30 72t74 24t74 -24t30 -72v-319q0 -47 -30 -71.5t-74 -24.5t-74 24.5zM189.5 585q-17.5 7 -46.5 21q-38 22 -58 22q-15 0 -24 -7t-19 -20q-10 -12 -18 -18t-20 -6q-15 0 -24 12.5t-9 33.5q0 22 13.5 50t37 47.5t50.5 19.5
q19 0 37 -7t43 -20q40 -22 59 -22q15 0 24.5 6.5t19.5 19.5q10 12 17.5 17.5t19.5 5.5q16 0 24.5 -11.5t8.5 -32.5q0 -23 -13.5 -51t-36.5 -47.5t-50 -19.5q-18 0 -35.5 7z" />
    <glyph glyph-name="Imacron" unicode="&#x12a;" horiz-adv-x="329" 
d="M86 21.5q-29 28.5 -29 77.5v507q0 47 29 75.5t78 28.5q50 0 79 -28t29 -76v-507q0 -49 -29 -77.5t-79 -28.5q-49 0 -78 28.5zM2.5 803q-16.5 15 -16.5 41q0 25 16.5 39.5t40.5 14.5h242q24 0 40 -14.5t16 -39.5q0 -26 -16 -41t-40 -15h-242q-24 0 -40.5 15z" />
    <glyph glyph-name="imacron" unicode="&#x12b;" horiz-adv-x="297" 
d="M74 17.5q-30 24.5 -30 71.5v319q0 48 30 72t74 24t74 -24t30 -72v-319q0 -47 -30 -71.5t-74 -24.5t-74 24.5zM-13.5 619.5q-16.5 14.5 -16.5 39.5q0 26 16 40t41 14h242q24 0 40 -14t16 -40q0 -25 -16 -39.5t-40 -14.5h-242q-24 0 -40.5 14.5z" />
    <glyph glyph-name="Ibreve" unicode="&#x12c;" horiz-adv-x="329" 
d="M86 21.5q-29 28.5 -29 77.5v507q0 47 29 75.5t78 28.5q50 0 79 -28t29 -76v-507q0 -49 -29 -77.5t-79 -28.5q-49 0 -78 28.5zM56.5 792q-46.5 20 -64.5 52q-9 17 -9 30q0 18 13 30t32 12q21 0 40 -16q17 -10 43.5 -17t52.5 -7t52.5 7t42.5 17q19 16 41 16
q19 0 31.5 -11.5t12.5 -29.5q0 -17 -9 -31q-18 -31 -64.5 -51.5t-106.5 -20.5q-61 0 -107.5 20z" />
    <glyph glyph-name="ibreve" unicode="&#x12d;" horiz-adv-x="297" 
d="M74 17.5q-30 24.5 -30 71.5v319q0 48 30 72t74 24t74 -24t30 -72v-319q0 -47 -30 -71.5t-74 -24.5t-74 24.5zM35 604.5q-51 33.5 -68 83.5q-3 11 -3 19q0 21 14 34.5t33 13.5q26 0 42 -24q37 -46 95 -46q59 0 96 46q16 24 41 24q19 0 33 -13.5t14 -33.5q0 -9 -3 -20
q-18 -50 -68.5 -83.5t-112.5 -33.5t-113 33.5z" />
    <glyph glyph-name="Iogonek" unicode="&#x12e;" horiz-adv-x="329" 
d="M300.5 -105q11.5 -13 11.5 -31q0 -27 -20 -38q-43 -26 -99 -26q-61 0 -98.5 32.5t-37.5 85.5q0 55 43 93q-23 16 -33 37.5t-10 50.5v507q0 47 29 75.5t78 28.5q50 0 79 -28t29 -76v-507q0 -31 -12 -54.5t-32 -34.5q-25 -18 -36 -33t-11 -32q0 -20 12 -33t32 -13
q22 0 48 5q16 4 27.5 -9z" />
    <glyph glyph-name="iogonek" unicode="&#x12f;" horiz-adv-x="297" 
d="M67 589.5q-30 26.5 -30 70.5t29.5 69.5t81.5 25.5q51 0 81.5 -26t30.5 -69q0 -44 -30 -70.5t-82 -26.5q-51 0 -81 26.5zM280.5 -105q11.5 -13 11.5 -31q0 -27 -20 -38q-43 -26 -100 -26q-58 0 -96.5 32t-38.5 86t43 93q-36 27 -36 78v319q0 48 30 72t74 24t74 -24t30 -72
v-319q0 -59 -44 -82q-6 -6 -19 -15t-20.5 -20t-7.5 -27q0 -22 13 -34t31 -12h15t33 5q16 4 27.5 -9z" />
    <glyph glyph-name="Idotaccent" unicode="&#x130;" horiz-adv-x="329" 
d="M86 21.5q-29 28.5 -29 77.5v507q0 47 29 75.5t78 28.5q50 0 79 -28t29 -76v-507q0 -49 -29 -77.5t-79 -28.5q-49 0 -78 28.5zM90.5 780.5q-27.5 24.5 -27.5 65.5q0 39 27.5 62.5t73.5 23.5q45 0 73 -23.5t28 -62.5q0 -41 -27.5 -65.5t-73.5 -24.5t-73.5 24.5z" />
    <glyph glyph-name="dotlessi" unicode="&#x131;" horiz-adv-x="297" 
d="M74 17.5q-30 24.5 -30 71.5v319q0 48 30 72t74 24t74 -24t30 -72v-319q0 -47 -30 -71.5t-74 -24.5t-74 24.5z" />
    <glyph glyph-name="Jcircumflex" unicode="&#x134;" horiz-adv-x="419" 
d="M-20 80q0 41 19.5 60.5t62.5 22.5l35 2q23 0 35.5 15.5t12.5 37.5v388q0 47 29.5 75.5t79.5 28.5q49 0 78.5 -28.5t29.5 -75.5v-384q0 -102 -56 -160.5t-165 -66.5l-33 -2q-128 -5 -128 87zM151 761q-21 0 -36.5 14.5t-15.5 34.5q0 21 22 39l74 56q24 21 59 21
q33 0 58 -21l75 -56q21 -17 21 -40q0 -20 -15 -34.5t-37 -14.5t-41 18l-61 54l-62 -54q-18 -17 -41 -17z" />
    <glyph glyph-name="jcircumflex" unicode="&#x135;" horiz-adv-x="297" 
d="M15 -183q-47 0 -75 19.5t-28 57.5q0 34 19 51t58 19l29 2q10 1 18 10.5t8 17.5v414q0 48 30 72t74 24t74 -24t30 -72v-397q0 -83 -47.5 -133.5t-143.5 -57.5l-28 -2zM41 554q-21 0 -37.5 15t-16.5 36q0 18 13 34l80 94q16 19 31 28t36 9q22 0 36.5 -8.5t30.5 -30.5
l80 -92q14 -17 14 -34q0 -21 -16.5 -36t-37.5 -15q-29 0 -47 27l-60 81l-59 -81q-18 -27 -47 -27z" />
    <glyph glyph-name="Kcommaaccent" unicode="&#x136;" horiz-adv-x="720" 
d="M709 94q0 -39 -29.5 -68t-69.5 -29q-44 0 -81 38l-257 280v-216q0 -49 -29 -77.5t-79 -28.5q-49 0 -78 28.5t-29 77.5v507q0 47 29 75.5t78 28.5q50 0 79 -28t29 -76v-199l258 271q30 31 69 31q38 0 67.5 -28.5t29.5 -66.5q0 -39 -33 -71l-171 -175l187 -206
q30 -30 30 -68zM428 -83.5q26 -25.5 26 -74.5q0 -32 -10 -58.5t-23 -42.5q-18 -21 -46 -21q-17 0 -28.5 8t-11.5 21q0 10 8 21q12 21 16 33h-5q-33 0 -55.5 17t-22.5 47q0 34 23.5 54.5t59.5 20.5q43 0 69 -25.5z" />
    <glyph glyph-name="kcommaaccent" unicode="&#x137;" horiz-adv-x="605" 
d="M597 94q0 -38 -28 -68.5t-66 -30.5q-35 0 -65 29l-186 184v-117q0 -48 -29.5 -72t-74.5 -24q-44 0 -74 24t-30 72v523q0 48 30 72t74 24q45 0 74.5 -24t29.5 -72v-319l169 179q30 30 67 30q38 0 66.5 -28.5t28.5 -65.5q0 -35 -30 -65l-82 -86l96 -98q30 -29 30 -67z
M368 -83.5q26 -25.5 26 -74.5q0 -32 -10 -58.5t-23 -42.5q-18 -21 -46 -21q-17 0 -28.5 8t-11.5 21q0 10 8 21q12 21 16 33h-5q-33 0 -55.5 17t-22.5 47q0 34 23.5 54.5t59.5 20.5q43 0 69 -25.5z" />
    <glyph glyph-name="kgreenlandic" unicode="&#x138;" horiz-adv-x="605" 
d="M597 94q0 -38 -28 -68.5t-66 -30.5q-35 0 -65 29l-186 184v-117q0 -48 -29.5 -72t-74.5 -24q-44 0 -74 24t-30 72v317q0 48 30 72t74 24q45 0 74.5 -24t29.5 -72v-113l169 179q30 30 67 30q38 0 66.5 -28.5t28.5 -65.5q0 -35 -30 -65l-82 -86l96 -98q30 -29 30 -67z" />
    <glyph glyph-name="Lacute" unicode="&#x139;" horiz-adv-x="582" 
d="M82 25.5q-25 25.5 -25 74.5v506q0 47 29 75.5t78 28.5t78.5 -28.5t29.5 -75.5v-433h201q52 0 77.5 -21.5t25.5 -65.5t-25 -65t-78 -21h-317q-49 0 -74 25.5zM163 760q-17 0 -29.5 11t-12.5 27q0 17 15 31l80 73q27 26 55 26q27 0 46 -19.5t19 -44.5q0 -18 -11.5 -34
t-35.5 -27l-106 -39q-9 -4 -20 -4z" />
    <glyph glyph-name="lacute" unicode="&#x13a;" horiz-adv-x="297" 
d="M74 17.5q-30 24.5 -30 71.5v525q0 48 30 72t74 24q45 0 74.5 -24t29.5 -72v-525q0 -47 -29.5 -71.5t-74.5 -24.5q-44 0 -74 24.5zM147 760q-17 0 -29.5 11t-12.5 27q0 17 15 31l80 73q27 26 55 26q27 0 46 -19.5t19 -44.5q0 -18 -11.5 -34t-35.5 -27l-106 -39
q-9 -4 -20 -4z" />
    <glyph glyph-name="Lcommaaccent" unicode="&#x13b;" horiz-adv-x="582" 
d="M82 25.5q-25 25.5 -25 74.5v506q0 47 29 75.5t78 28.5t78.5 -28.5t29.5 -75.5v-433h201q52 0 77.5 -21.5t25.5 -65.5t-25 -65t-78 -21h-317q-49 0 -74 25.5zM382 -83.5q26 -25.5 26 -74.5q0 -32 -10 -58.5t-23 -42.5q-18 -21 -46 -21q-17 0 -28.5 8t-11.5 21q0 10 8 21
q12 21 16 33h-5q-33 0 -55.5 17t-22.5 47q0 34 23.5 54.5t59.5 20.5q43 0 69 -25.5z" />
    <glyph glyph-name="lcommaaccent" unicode="&#x13c;" horiz-adv-x="297" 
d="M74 17.5q-30 24.5 -30 71.5v525q0 48 30 72t74 24q45 0 74.5 -24t29.5 -72v-525q0 -47 -29.5 -71.5t-74.5 -24.5q-44 0 -74 24.5zM214 -83.5q26 -25.5 26 -74.5q0 -32 -10 -58.5t-23 -42.5q-18 -21 -46 -21q-17 0 -28.5 8t-11.5 21q0 10 8 21q12 21 16 33h-5
q-33 0 -55.5 17t-22.5 47q0 34 23.5 54.5t59.5 20.5q43 0 69 -25.5z" />
    <glyph glyph-name="Lcaron" unicode="&#x13d;" horiz-adv-x="582" 
d="M82 25.5q-25 25.5 -25 74.5v506q0 47 29 75.5t78 28.5t78.5 -28.5t29.5 -75.5v-433h201q52 0 77.5 -21.5t25.5 -65.5t-25 -65t-78 -21h-317q-49 0 -74 25.5zM427.5 497.5q-11.5 -7.5 -25.5 -7.5q-17 0 -29 10t-12 27v125q0 29 18.5 44.5t44.5 15.5q24 0 42 -14t18 -38
q0 -8 -3 -19l-38 -122q-4 -14 -15.5 -21.5z" />
    <glyph glyph-name="lcaron" unicode="&#x13e;" horiz-adv-x="297" 
d="M322 493q-9 -9 -20 -9q-13 0 -22.5 11t-9.5 29v137q0 24 14 37t32 13t30 -11t12 -30l-1 -9l-23 -143q-3 -16 -12 -25zM74 17.5q-30 24.5 -30 71.5v525q0 48 30 72t74 24q45 0 74.5 -24t29.5 -72v-525q0 -47 -29.5 -71.5t-74.5 -24.5q-44 0 -74 24.5z" />
    <glyph glyph-name="Ldot" unicode="&#x13f;" horiz-adv-x="582" 
d="M82 25.5q-25 25.5 -25 74.5v506q0 47 29 75.5t78 28.5t78.5 -28.5t29.5 -75.5v-433h201q52 0 77.5 -21.5t25.5 -65.5t-25 -65t-78 -21h-317q-49 0 -74 25.5zM344 284.5q-30 26.5 -30 70.5t29.5 69.5t81.5 25.5q51 0 81 -25.5t30 -69.5t-30 -70.5t-81 -26.5t-81 26.5z" />
    <glyph glyph-name="ldot" unicode="&#x140;" horiz-adv-x="466" 
d="M74 17.5q-30 24.5 -30 71.5v525q0 48 30 72t74 24q45 0 74.5 -24t29.5 -72v-525q0 -47 -29.5 -71.5t-74.5 -24.5q-44 0 -74 24.5zM301 282.5q-30 26.5 -30 70.5t29.5 69.5t81.5 25.5q51 0 81 -25.5t30 -69.5t-30 -70.5t-81 -26.5t-81 26.5z" />
    <glyph glyph-name="Lslash" unicode="&#x141;" horiz-adv-x="626" 
d="M594 151.5q25 -21.5 25 -65.5t-25 -65t-77 -21h-318q-49 0 -74 25.5t-25 74.5v107q-12 -4 -25 -4q-32 0 -53 22.5t-21 52.5q0 21 11.5 40.5t35.5 33.5l52 30v224q0 47 29 75.5t78 28.5q50 0 79.5 -28.5t29.5 -75.5v-99l66 38q24 14 49 14q32 0 53.5 -22.5t21.5 -52.5
q0 -21 -11.5 -40t-35.5 -33l-143 -83v-155h201q52 0 77 -21.5z" />
    <glyph glyph-name="lslash" unicode="&#x142;" horiz-adv-x="407" 
d="M332 503q32 0 53.5 -23t21.5 -53q0 -21 -11.5 -40t-35.5 -33l-53 -31v-234q0 -47 -29.5 -71.5t-74.5 -24.5q-44 0 -74 24.5t-30 71.5v118q-12 -4 -25 -4q-32 0 -53 22.5t-21 53.5q0 21 11.5 40t35.5 33l52 30v232q0 48 30 72t74 24q45 0 74.5 -24t29.5 -72v-115
q12 4 25 4z" />
    <glyph glyph-name="Nacute" unicode="&#x143;" horiz-adv-x="763" 
d="M677.5 681q28.5 -29 28.5 -75v-507q0 -47 -28.5 -76.5t-72.5 -29.5q-51 0 -78 34l-270 326v-254q0 -48 -27 -77t-73 -29q-44 0 -72 29.5t-28 76.5v507q0 46 28 75t72 29q50 0 77 -34l270 -324v254q0 47 27.5 75.5t72.5 28.5t73.5 -29zM380 760q-17 0 -29.5 11t-12.5 27
q0 17 15 31l80 73q27 26 55 26q27 0 46 -19.5t19 -44.5q0 -18 -11.5 -34t-35.5 -27l-106 -39q-9 -4 -20 -4z" />
    <glyph glyph-name="nacute" unicode="&#x144;" horiz-adv-x="617" 
d="M533.5 452.5q42.5 -53.5 42.5 -165.5v-198q0 -44 -28 -70t-76 -26t-76 26t-28 70v190q0 37 -11.5 53t-34.5 16q-32 0 -51 -21t-19 -55v-183q0 -44 -28 -70t-76 -26t-76 26t-28 70v322q0 41 29.5 67t76.5 26q39 0 65 -20t31 -53q58 75 157 75q88 0 130.5 -53.5zM314 554
q-19 0 -32.5 13t-13.5 31q0 16 11 30l72 99q29 39 69 39q30 0 52.5 -21.5t22.5 -49.5q0 -34 -37 -60l-113 -71q-14 -10 -31 -10z" />
    <glyph glyph-name="Ncommaaccent" unicode="&#x145;" horiz-adv-x="763" 
d="M677.5 681q28.5 -29 28.5 -75v-507q0 -47 -28.5 -76.5t-72.5 -29.5q-51 0 -78 34l-270 326v-254q0 -48 -27 -77t-73 -29q-44 0 -72 29.5t-28 76.5v507q0 46 28 75t72 29q50 0 77 -34l270 -324v254q0 47 27.5 75.5t72.5 28.5t73.5 -29zM448 -83.5q26 -25.5 26 -74.5
q0 -32 -10 -58.5t-23 -42.5q-18 -21 -46 -21q-17 0 -28.5 8t-11.5 21q0 10 8 21q12 21 16 33h-5q-33 0 -55.5 17t-22.5 47q0 34 23.5 54.5t59.5 20.5q43 0 69 -25.5z" />
    <glyph glyph-name="ncommaaccent" unicode="&#x146;" horiz-adv-x="617" 
d="M533.5 452.5q42.5 -53.5 42.5 -165.5v-198q0 -44 -28 -70t-76 -26t-76 26t-28 70v190q0 37 -11.5 53t-34.5 16q-32 0 -51 -21t-19 -55v-183q0 -44 -28 -70t-76 -26t-76 26t-28 70v322q0 41 29.5 67t76.5 26q39 0 65 -20t31 -53q58 75 157 75q88 0 130.5 -53.5zM377 -83.5
q26 -25.5 26 -74.5q0 -32 -10 -58.5t-23 -42.5q-18 -21 -46 -21q-17 0 -28.5 8t-11.5 21q0 10 8 21q12 21 16 33h-5q-33 0 -55.5 17t-22.5 47q0 34 23.5 54.5t59.5 20.5q43 0 69 -25.5z" />
    <glyph glyph-name="Ncaron" unicode="&#x147;" horiz-adv-x="763" 
d="M677.5 681q28.5 -29 28.5 -75v-507q0 -47 -28.5 -76.5t-72.5 -29.5q-51 0 -78 34l-270 326v-254q0 -48 -27 -77t-73 -29q-44 0 -72 29.5t-28 76.5v507q0 46 28 75t72 29q50 0 77 -34l270 -324v254q0 47 27.5 75.5t72.5 28.5t73.5 -29zM322 781l-74 57q-22 18 -22 40
q0 19 15.5 33t36.5 14q23 0 41 -17l62 -54l61 54q18 17 41 17q21 0 36.5 -14.5t15.5 -34.5q0 -21 -21 -38l-75 -57q-27 -21 -58 -21q-32 0 -59 21z" />
    <glyph glyph-name="ncaron" unicode="&#x148;" horiz-adv-x="617" 
d="M533.5 452.5q42.5 -53.5 42.5 -165.5v-198q0 -44 -28 -70t-76 -26t-76 26t-28 70v190q0 37 -11.5 53t-34.5 16q-32 0 -51 -21t-19 -55v-183q0 -44 -28 -70t-76 -26t-76 26t-28 70v322q0 41 29.5 67t76.5 26q39 0 65 -20t31 -53q58 75 157 75q88 0 130.5 -53.5zM275 561.5
q-14 8.5 -32 29.5l-79 94q-14 15 -14 34q0 21 16.5 36t38.5 15q28 0 46 -26l60 -84l60 84q18 26 45 26q22 0 38.5 -15t16.5 -36q0 -18 -13 -34l-80 -95q-17 -19 -31.5 -28t-35.5 -9q-22 0 -36 8.5z" />
    <glyph glyph-name="napostrophe" unicode="&#x149;" horiz-adv-x="617" 
d="M225 737.5q26 -25.5 26 -74.5q0 -32 -10 -58.5t-23 -42.5q-19 -22 -46 -22q-17 0 -28.5 8t-11.5 21q0 11 8 22q12 21 16 33h-7q-31 0 -53.5 17t-22.5 47q0 34 23.5 54.5t59.5 20.5q43 0 69 -25.5zM533.5 452.5q42.5 -53.5 42.5 -165.5v-198q0 -44 -28 -70t-76 -26t-76 26
t-28 70v190q0 37 -11.5 53t-34.5 16q-32 0 -51 -21t-19 -55v-183q0 -44 -28 -70t-76 -26t-76 26t-28 70v322q0 41 29.5 67t76.5 26q39 0 65 -20t31 -53q58 75 157 75q88 0 130.5 -53.5z" />
    <glyph glyph-name="Eng" unicode="&#x14a;" horiz-adv-x="763" 
d="M677.5 681q28.5 -29 28.5 -75v-561q0 -102 -56 -160.5t-165 -65.5l-34 -2q-7 -1 -20 -1q-51 0 -79 21t-28 60q0 37 19.5 55.5t61.5 21.5l35 2q27 1 44.5 18t17.5 35v28l-245 296v-254q0 -47 -27.5 -76.5t-72.5 -29.5q-44 0 -72 29.5t-28 76.5v507q0 46 28 75t72 29
q50 0 77 -34l270 -324v254q0 47 27.5 75.5t72.5 28.5t73.5 -29z" />
    <glyph glyph-name="eng" unicode="&#x14b;" horiz-adv-x="617" 
d="M533.5 452.5q42.5 -53.5 42.5 -165.5v-276q0 -85 -49 -134.5t-142 -56.5l-28 -2q-58 -4 -89.5 16t-31.5 60q0 34 18.5 50.5t58.5 19.5l29 2q9 1 17.5 9.5t8.5 18.5v300q0 54 -46 54q-32 0 -51 -21t-19 -55v-183q0 -44 -28 -70t-76 -26t-76 26t-28 70v322q0 41 29.5 67
t76.5 26q40 0 65.5 -20t30.5 -55q29 37 69 57t88 20q88 0 130.5 -53.5z" />
    <glyph glyph-name="Omacron" unicode="&#x14c;" horiz-adv-x="806" 
d="M211 35q-82 45 -126 127t-44 192q0 109 44.5 190.5t126.5 126t192 44.5t191.5 -44.5t125.5 -126.5t44 -191t-44 -191.5t-125.5 -127t-191.5 -44.5q-111 0 -193 45zM513.5 204q39.5 50 39.5 149q0 98 -40 148t-109 50q-70 0 -109.5 -49t-39.5 -149t39.5 -149.5
t109.5 -49.5t109.5 50zM241.5 803q-16.5 15 -16.5 41q0 25 16.5 39.5t40.5 14.5h242q24 0 40 -14.5t16 -39.5q0 -26 -16 -41t-40 -15h-242q-24 0 -40.5 15z" />
    <glyph glyph-name="omacron" unicode="&#x14d;" horiz-adv-x="614" 
d="M158 22.5q-64 31.5 -99 90t-35 137.5t35 136.5t98.5 88.5t149.5 31t149.5 -31t98.5 -88.5t35 -136.5t-35 -137.5t-99 -90t-149 -31.5t-149 31.5zM366 169.5q19 24.5 19 80.5t-19 80t-59 24q-39 0 -58.5 -24t-19.5 -80q0 -55 20 -80t59 -25t58 24.5zM145.5 619.5
q-16.5 14.5 -16.5 39.5q0 26 16 40t41 14h242q24 0 40 -14t16 -40q0 -25 -16 -39.5t-40 -14.5h-242q-24 0 -40.5 14.5z" />
    <glyph glyph-name="Obreve" unicode="&#x14e;" horiz-adv-x="806" 
d="M211 35q-82 45 -126 127t-44 192q0 109 44.5 190.5t126.5 126t192 44.5t191.5 -44.5t125.5 -126.5t44 -191t-44 -191.5t-125.5 -127t-191.5 -44.5q-111 0 -193 45zM513.5 204q39.5 50 39.5 149q0 98 -40 148t-109 50q-70 0 -109.5 -49t-39.5 -149t39.5 -149.5
t109.5 -49.5t109.5 50zM295.5 792q-46.5 20 -64.5 52q-9 17 -9 30q0 18 13 30t32 12q21 0 40 -16q17 -10 43.5 -17t52.5 -7t52.5 7t42.5 17q19 16 41 16q19 0 31.5 -11.5t12.5 -29.5q0 -17 -9 -31q-18 -31 -64.5 -51.5t-106.5 -20.5q-61 0 -107.5 20z" />
    <glyph glyph-name="obreve" unicode="&#x14f;" horiz-adv-x="614" 
d="M158 22.5q-64 31.5 -99 90t-35 137.5t35 136.5t98.5 88.5t149.5 31t149.5 -31t98.5 -88.5t35 -136.5t-35 -137.5t-99 -90t-149 -31.5t-149 31.5zM366 169.5q19 24.5 19 80.5t-19 80t-59 24q-39 0 -58.5 -24t-19.5 -80q0 -55 20 -80t59 -25t58 24.5zM194 604.5
q-51 33.5 -68 83.5q-3 11 -3 19q0 21 14 34.5t33 13.5q26 0 42 -24q37 -46 95 -46q59 0 96 46q16 24 41 24q19 0 33 -13.5t14 -33.5q0 -9 -3 -20q-18 -50 -68.5 -83.5t-112.5 -33.5t-113 33.5z" />
    <glyph glyph-name="Ohungarumlaut" unicode="&#x150;" horiz-adv-x="806" 
d="M211 35q-82 45 -126 127t-44 192q0 109 44.5 190.5t126.5 126t192 44.5t191.5 -44.5t125.5 -126.5t44 -191t-44 -191.5t-125.5 -127t-191.5 -44.5q-111 0 -193 45zM513.5 204q39.5 50 39.5 149q0 98 -40 148t-109 50q-70 0 -109.5 -49t-39.5 -149t39.5 -149.5
t109.5 -49.5t109.5 50zM329 760q-16 0 -27 11t-11 27q0 12 4 21l29 73q7 17 20 25.5t28 8.5q25 0 46.5 -18t21.5 -42q0 -21 -18 -39l-60 -52q-15 -15 -33 -15zM475 760q-15 0 -26 11t-11 28q0 11 4 20l30 73q7 17 20 25.5t28 8.5q25 0 46.5 -18t21.5 -42q0 -21 -18 -39
l-61 -52q-15 -15 -34 -15z" />
    <glyph glyph-name="ohungarumlaut" unicode="&#x151;" horiz-adv-x="614" 
d="M158 22.5q-64 31.5 -99 90t-35 137.5t35 136.5t98.5 88.5t149.5 31t149.5 -31t98.5 -88.5t35 -136.5t-35 -137.5t-99 -90t-149 -31.5t-149 31.5zM366 169.5q19 24.5 19 80.5t-19 80t-59 24q-39 0 -58.5 -24t-19.5 -80q0 -55 20 -80t59 -25t58 24.5zM233 552q-16 0 -28 11
t-12 28q0 7 1 10l17 107q6 31 24.5 47t42.5 16q25 0 43.5 -16.5t18.5 -41.5q0 -20 -11 -39l-59 -99q-13 -23 -37 -23zM401.5 558q-10.5 -6 -21.5 -6q-16 0 -27.5 11t-11.5 28q0 7 1 10l16 107q6 31 24.5 47t42.5 16t42.5 -16t18.5 -41q0 -20 -12 -40l-56 -99
q-6 -11 -16.5 -17z" />
    <glyph glyph-name="OE" unicode="&#x152;" horiz-adv-x="1043" 
d="M218.5 42.5q-86.5 42.5 -132 122t-45.5 188.5q0 108 46 187.5t132.5 122t204.5 42.5h513q99 0 99 -81q0 -41 -25.5 -62t-76.5 -21h-228v-100h208q51 0 76.5 -21t25.5 -62q0 -81 -102 -81h-208v-113h228q51 0 76.5 -21t25.5 -62q0 -81 -101 -81h-511q-119 0 -205.5 42.5z
M496 164v377h-57q-184 0 -184 -188q0 -189 184 -189h57z" />
    <glyph glyph-name="oe" unicode="&#x153;" horiz-adv-x="894" 
d="M851 151q17 -21 17 -55q0 -21 -11 -38t-29 -27q-32 -16 -80 -28t-86 -12q-113 0 -179 64q-67 -64 -182 -64q-84 0 -146.5 32t-96.5 90.5t-34 136.5t34 135.5t96.5 89t146.5 31.5q117 0 184 -65q63 65 166 65q63 0 113 -31.5t78 -88t28 -129.5q0 -24 -11.5 -37.5
t-31.5 -13.5h-238q7 -35 24.5 -49.5t53.5 -14.5q30 0 78 16q42 14 63 14q26 0 43 -21zM586 300h111q-6 68 -50 68q-53 0 -61 -68zM361 170.5q18 25.5 18 79.5q0 55 -18 79.5t-57 24.5t-57 -25t-18 -79t18.5 -79.5t57.5 -25.5q38 0 56 25.5z" />
    <glyph glyph-name="Racute" unicode="&#x154;" horiz-adv-x="713" 
d="M688 79q0 -38 -31.5 -63t-72.5 -25q-27 0 -52 12.5t-42 37.5l-128 183q-25 30 -47 30h-46v-155q0 -48 -28 -77t-77 -29t-78 29t-29 77v507q0 48 25 73.5t73 25.5h252q132 0 197.5 -56.5t65.5 -164.5q0 -80 -43.5 -136t-122.5 -77q38 -4 65 -21t52 -51l46 -61
q21 -29 21 -59zM372 413q54 0 76.5 14.5t22.5 49.5q0 37 -22.5 52t-76.5 15h-106v-131h106zM361 760q-17 0 -29.5 11t-12.5 27q0 17 15 31l80 73q27 26 55 26q27 0 46 -19.5t19 -44.5q0 -18 -11.5 -34t-35.5 -27l-106 -39q-9 -4 -20 -4z" />
    <glyph glyph-name="racute" unicode="&#x155;" horiz-adv-x="440" 
d="M440 485.5q23 -21.5 23 -63.5q0 -46 -21.5 -67t-77.5 -27l-30 -3q-46 -5 -64 -26t-18 -62v-148q0 -47 -30 -71.5t-74 -24.5t-74 24.5t-30 71.5v322q0 44 30.5 68.5t72.5 24.5q43 0 69 -23t26 -65v-6q16 43 50.5 67t71.5 26l14 1q39 3 62 -18.5zM252 554q-19 0 -32.5 13
t-13.5 31q0 16 11 30l72 99q29 39 69 39q30 0 52.5 -21.5t22.5 -49.5q0 -34 -37 -60l-113 -71q-14 -10 -31 -10z" />
    <glyph glyph-name="Rcommaaccent" unicode="&#x156;" horiz-adv-x="713" 
d="M688 79q0 -38 -31.5 -63t-72.5 -25q-27 0 -52 12.5t-42 37.5l-128 183q-25 30 -47 30h-46v-155q0 -48 -28 -77t-77 -29t-78 29t-29 77v507q0 48 25 73.5t73 25.5h252q132 0 197.5 -56.5t65.5 -164.5q0 -80 -43.5 -136t-122.5 -77q38 -4 65 -21t52 -51l46 -61
q21 -29 21 -59zM372 413q54 0 76.5 14.5t22.5 49.5q0 37 -22.5 52t-76.5 15h-106v-131h106zM429 -83.5q26 -25.5 26 -74.5q0 -32 -10 -58.5t-23 -42.5q-18 -21 -46 -21q-17 0 -28.5 8t-11.5 21q0 10 8 21q12 21 16 33h-5q-33 0 -55.5 17t-22.5 47q0 34 23.5 54.5t59.5 20.5
q43 0 69 -25.5z" />
    <glyph glyph-name="rcommaaccent" unicode="&#x157;" horiz-adv-x="440" 
d="M440 485.5q23 -21.5 23 -63.5q0 -46 -21.5 -67t-77.5 -27l-30 -3q-46 -5 -64 -26t-18 -62v-148q0 -47 -30 -71.5t-74 -24.5t-74 24.5t-30 71.5v322q0 44 30.5 68.5t72.5 24.5q43 0 69 -23t26 -65v-6q16 43 50.5 67t71.5 26l14 1q39 3 62 -18.5zM214 -83.5
q26 -25.5 26 -74.5q0 -32 -10 -58.5t-23 -42.5q-18 -21 -46 -21q-17 0 -28.5 8t-11.5 21q0 10 8 21q12 21 16 33h-5q-33 0 -55.5 17t-22.5 47q0 34 23.5 54.5t59.5 20.5q43 0 69 -25.5z" />
    <glyph glyph-name="Rcaron" unicode="&#x158;" horiz-adv-x="713" 
d="M688 79q0 -38 -31.5 -63t-72.5 -25q-27 0 -52 12.5t-42 37.5l-128 183q-25 30 -47 30h-46v-155q0 -48 -28 -77t-77 -29t-78 29t-29 77v507q0 48 25 73.5t73 25.5h252q132 0 197.5 -56.5t65.5 -164.5q0 -80 -43.5 -136t-122.5 -77q38 -4 65 -21t52 -51l46 -61
q21 -29 21 -59zM372 413q54 0 76.5 14.5t22.5 49.5q0 37 -22.5 52t-76.5 15h-106v-131h106zM303 781l-74 57q-22 18 -22 40q0 19 15.5 33t36.5 14q23 0 41 -17l62 -54l61 54q18 17 41 17q21 0 36.5 -14.5t15.5 -34.5q0 -21 -21 -38l-75 -57q-27 -21 -58 -21q-32 0 -59 21z
" />
    <glyph glyph-name="rcaron" unicode="&#x159;" horiz-adv-x="440" 
d="M440 485.5q23 -21.5 23 -63.5q0 -46 -21.5 -67t-77.5 -27l-30 -3q-46 -5 -64 -26t-18 -62v-148q0 -47 -30 -71.5t-74 -24.5t-74 24.5t-30 71.5v322q0 44 30.5 68.5t72.5 24.5q43 0 69 -23t26 -65v-6q16 43 50.5 67t71.5 26l14 1q39 3 62 -18.5zM213 561.5
q-14 8.5 -32 29.5l-79 94q-14 15 -14 34q0 21 16.5 36t38.5 15q28 0 46 -26l60 -84l60 84q18 26 45 26q22 0 38.5 -15t16.5 -36q0 -18 -13 -34l-80 -95q-17 -19 -31.5 -28t-35.5 -9q-22 0 -36 8.5z" />
    <glyph glyph-name="Sacute" unicode="&#x15a;" horiz-adv-x="678" 
d="M184.5 6q-68.5 16 -113.5 45q-20 14 -28.5 30.5t-8.5 42.5q0 34 20.5 60t48.5 26q15 0 28 -4.5t36 -17.5q38 -19 75 -26.5t86 -7.5q50 0 76 13t26 37q0 16 -24 30t-101 29q-106 21 -162 52.5t-75.5 70.5t-19.5 94q0 66 40 119.5t109 84.5t154 31q73 0 129 -14.5
t106 -46.5q21 -15 29.5 -31.5t8.5 -41.5q0 -35 -20.5 -60.5t-48.5 -25.5q-14 0 -26.5 4.5t-36.5 17.5q-7 1 -20 8q-26 11 -53.5 18.5t-66.5 7.5q-41 0 -67 -15t-26 -38q0 -13 8 -21.5t36.5 -19t88.5 -22.5q102 -21 156.5 -53t73.5 -71t19 -91q0 -68 -38.5 -120.5t-108 -81
t-160.5 -28.5q-81 0 -149.5 16zM343 760q-17 0 -29.5 11t-12.5 27q0 17 15 31l80 73q27 26 55 26q27 0 46 -19.5t19 -44.5q0 -18 -11.5 -34t-35.5 -27l-106 -39q-9 -4 -20 -4z" />
    <glyph glyph-name="sacute" unicode="&#x15b;" horiz-adv-x="494" 
d="M128.5 1q-47.5 10 -84.5 32q-13 7 -21 25.5t-8 41.5q0 32 16.5 52t42.5 20q18 0 32 -3t34 -10q27 -10 52.5 -15t62.5 -5q19 0 30.5 4t11.5 11t-6.5 11t-31 9.5t-64.5 12.5q-89 16 -128.5 51.5t-39.5 99.5q0 47 30 85.5t82 60.5t117 22q47 0 91 -11t79 -32q29 -17 29 -61
q0 -33 -16.5 -54.5t-42.5 -21.5q-19 0 -33.5 4t-36.5 12q-22 9 -38.5 13.5t-38.5 4.5q-37 0 -37 -14q0 -12 18.5 -19t72.5 -15q97 -17 137.5 -52t40.5 -102q0 -76 -63 -121.5t-170 -45.5q-72 0 -119.5 10zM259 554q-19 0 -32.5 13t-13.5 31q0 16 11 30l72 99q29 39 69 39
q30 0 52.5 -21.5t22.5 -49.5q0 -34 -37 -60l-113 -71q-14 -10 -31 -10z" />
    <glyph glyph-name="Scircumflex" unicode="&#x15c;" horiz-adv-x="678" 
d="M184.5 6q-68.5 16 -113.5 45q-20 14 -28.5 30.5t-8.5 42.5q0 34 20.5 60t48.5 26q15 0 28 -4.5t36 -17.5q38 -19 75 -26.5t86 -7.5q50 0 76 13t26 37q0 16 -24 30t-101 29q-106 21 -162 52.5t-75.5 70.5t-19.5 94q0 66 40 119.5t109 84.5t154 31q73 0 129 -14.5
t106 -46.5q21 -15 29.5 -31.5t8.5 -41.5q0 -35 -20.5 -60.5t-48.5 -25.5q-14 0 -26.5 4.5t-36.5 17.5q-7 1 -20 8q-26 11 -53.5 18.5t-66.5 7.5q-41 0 -67 -15t-26 -38q0 -13 8 -21.5t36.5 -19t88.5 -22.5q102 -21 156.5 -53t73.5 -71t19 -91q0 -68 -38.5 -120.5t-108 -81
t-160.5 -28.5q-81 0 -149.5 16zM241 761q-21 0 -36.5 14.5t-15.5 34.5q0 21 22 39l74 56q24 21 59 21q33 0 58 -21l75 -56q21 -17 21 -40q0 -20 -15 -34.5t-37 -14.5t-41 18l-61 54l-62 -54q-18 -17 -41 -17z" />
    <glyph glyph-name="scircumflex" unicode="&#x15d;" horiz-adv-x="494" 
d="M128.5 1q-47.5 10 -84.5 32q-13 7 -21 25.5t-8 41.5q0 32 16.5 52t42.5 20q18 0 32 -3t34 -10q27 -10 52.5 -15t62.5 -5q19 0 30.5 4t11.5 11t-6.5 11t-31 9.5t-64.5 12.5q-89 16 -128.5 51.5t-39.5 99.5q0 47 30 85.5t82 60.5t117 22q47 0 91 -11t79 -32q29 -17 29 -61
q0 -33 -16.5 -54.5t-42.5 -21.5q-19 0 -33.5 4t-36.5 12q-22 9 -38.5 13.5t-38.5 4.5q-37 0 -37 -14q0 -12 18.5 -19t72.5 -15q97 -17 137.5 -52t40.5 -102q0 -76 -63 -121.5t-170 -45.5q-72 0 -119.5 10zM150 554q-21 0 -37.5 15t-16.5 36q0 18 13 34l80 94q16 19 31 28
t36 9q22 0 36.5 -8.5t30.5 -30.5l80 -92q14 -17 14 -34q0 -21 -16.5 -36t-37.5 -15q-29 0 -47 27l-60 81l-59 -81q-18 -27 -47 -27z" />
    <glyph glyph-name="Scedilla" unicode="&#x15e;" horiz-adv-x="678" 
d="M184.5 6q-68.5 16 -113.5 45q-20 14 -28.5 30.5t-8.5 42.5q0 34 20.5 60t48.5 26q15 0 28 -4.5t36 -17.5q38 -19 75 -26.5t86 -7.5q50 0 76 13t26 37q0 16 -24 30t-101 29q-106 21 -162 52.5t-75.5 70.5t-19.5 94q0 66 40 119.5t109 84.5t154 31q73 0 129 -14.5
t106 -46.5q21 -15 29.5 -31.5t8.5 -41.5q0 -35 -20.5 -60.5t-48.5 -25.5q-14 0 -26.5 4.5t-36.5 17.5q-7 1 -20 8q-26 11 -53.5 18.5t-66.5 7.5q-41 0 -67 -15t-26 -38q0 -13 8 -21.5t36.5 -19t88.5 -22.5q102 -21 156.5 -53t73.5 -71t19 -91q0 -68 -38.5 -120.5t-108 -81
t-160.5 -28.5q-81 0 -149.5 16zM434.5 -58.5q21.5 -19.5 21.5 -49.5q0 -41 -36.5 -66t-105.5 -25q-45 0 -71 9q-23 7 -23 33q0 16 9 27.5t23 8.5q24 -8 56 -8q19 0 30 4t11 17q0 7 -6 11.5t-16 4.5q-7 0 -20 -2.5t-20 -2.5q-10 0 -16 5.5t-4 14.5l13 97h92l-10 -60q7 1 20 1
q31 0 52.5 -19.5z" />
    <glyph glyph-name="scedilla" unicode="&#x15f;" horiz-adv-x="494" 
d="M128.5 1q-47.5 10 -84.5 32q-13 7 -21 25.5t-8 41.5q0 32 16.5 52t42.5 20q18 0 32 -3t34 -10q27 -10 52.5 -15t62.5 -5q19 0 30.5 4t11.5 11t-6.5 11t-31 9.5t-64.5 12.5q-89 16 -128.5 51.5t-39.5 99.5q0 47 30 85.5t82 60.5t117 22q47 0 91 -11t79 -32q29 -17 29 -61
q0 -33 -16.5 -54.5t-42.5 -21.5q-19 0 -33.5 4t-36.5 12q-22 9 -38.5 13.5t-38.5 4.5q-37 0 -37 -14q0 -12 18.5 -19t72.5 -15q97 -17 137.5 -52t40.5 -102q0 -76 -63 -121.5t-170 -45.5q-72 0 -119.5 10zM348.5 -58.5q21.5 -19.5 21.5 -49.5q0 -41 -36.5 -66t-105.5 -25
q-45 0 -71 9q-23 7 -23 33q0 16 9 27.5t23 8.5q24 -8 56 -8q19 0 30 4t11 17q0 7 -6 11.5t-16 4.5q-7 0 -20 -2.5t-20 -2.5q-10 0 -16 5.5t-4 14.5l13 97h92l-10 -60q7 1 20 1q31 0 52.5 -19.5z" />
    <glyph glyph-name="Scaron" unicode="&#x160;" horiz-adv-x="678" 
d="M184.5 6q-68.5 16 -113.5 45q-20 14 -28.5 30.5t-8.5 42.5q0 34 20.5 60t48.5 26q15 0 28 -4.5t36 -17.5q38 -19 75 -26.5t86 -7.5q50 0 76 13t26 37q0 16 -24 30t-101 29q-106 21 -162 52.5t-75.5 70.5t-19.5 94q0 66 40 119.5t109 84.5t154 31q73 0 129 -14.5
t106 -46.5q21 -15 29.5 -31.5t8.5 -41.5q0 -35 -20.5 -60.5t-48.5 -25.5q-14 0 -26.5 4.5t-36.5 17.5q-7 1 -20 8q-26 11 -53.5 18.5t-66.5 7.5q-41 0 -67 -15t-26 -38q0 -13 8 -21.5t36.5 -19t88.5 -22.5q102 -21 156.5 -53t73.5 -71t19 -91q0 -68 -38.5 -120.5t-108 -81
t-160.5 -28.5q-81 0 -149.5 16zM285 781l-74 57q-22 18 -22 40q0 19 15.5 33t36.5 14q23 0 41 -17l62 -54l61 54q18 17 41 17q21 0 36.5 -14.5t15.5 -34.5q0 -21 -21 -38l-75 -57q-27 -21 -58 -21q-32 0 -59 21z" />
    <glyph glyph-name="scaron" unicode="&#x161;" horiz-adv-x="494" 
d="M128.5 1q-47.5 10 -84.5 32q-13 7 -21 25.5t-8 41.5q0 32 16.5 52t42.5 20q18 0 32 -3t34 -10q27 -10 52.5 -15t62.5 -5q19 0 30.5 4t11.5 11t-6.5 11t-31 9.5t-64.5 12.5q-89 16 -128.5 51.5t-39.5 99.5q0 47 30 85.5t82 60.5t117 22q47 0 91 -11t79 -32q29 -17 29 -61
q0 -33 -16.5 -54.5t-42.5 -21.5q-19 0 -33.5 4t-36.5 12q-22 9 -38.5 13.5t-38.5 4.5q-37 0 -37 -14q0 -12 18.5 -19t72.5 -15q97 -17 137.5 -52t40.5 -102q0 -76 -63 -121.5t-170 -45.5q-72 0 -119.5 10zM220 561.5q-14 8.5 -32 29.5l-79 94q-14 15 -14 34q0 21 16.5 36
t38.5 15q28 0 46 -26l60 -84l60 84q18 26 45 26q22 0 38.5 -15t16.5 -36q0 -18 -13 -34l-80 -95q-17 -19 -31.5 -28t-35.5 -9q-22 0 -36 8.5z" />
    <glyph glyph-name="uni0162" unicode="&#x162;" horiz-adv-x="642" 
d="M242.5 23.5q-29.5 28.5 -29.5 75.5v433h-119q-52 0 -77 21t-25 66q0 44 25 65t77 21h454q52 0 77 -21t25 -65q0 -45 -24.5 -66t-77.5 -21h-118v-433q0 -47 -30 -75.5t-79 -28.5t-78.5 28.5zM421.5 -58.5q21.5 -19.5 21.5 -49.5q0 -41 -36.5 -66t-105.5 -25q-45 0 -71 9
q-23 7 -23 33q0 16 9 27.5t23 8.5q24 -8 56 -8q19 0 30 4t11 17q0 7 -6 11.5t-16 4.5q-7 0 -20 -2.5t-20 -2.5q-10 0 -16 5.5t-4 14.5l13 97h92l-10 -60q7 1 20 1q31 0 52.5 -19.5z" />
    <glyph glyph-name="uni0163" unicode="&#x163;" horiz-adv-x="425" 
d="M414 121q19 -17 19 -50q0 -41 -31.5 -60.5t-89.5 -15.5l-28 2q-94 7 -142.5 56t-48.5 134v155h-17q-94 0 -94 76t94 76h17v50q0 44 28 70t76 26q49 0 76.5 -26t27.5 -70v-50h37q94 0 94 -76t-94 -76h-37v-172q0 -8 8 -17.5t18 -10.5l29 -2q39 -2 58 -19zM363.5 -58.5
q21.5 -19.5 21.5 -49.5q0 -41 -36.5 -66t-105.5 -25q-45 0 -71 9q-23 7 -23 33q0 16 9 27.5t23 8.5q24 -8 56 -8q19 0 30 4t11 17q0 7 -6 11.5t-16 4.5q-7 0 -20 -2.5t-20 -2.5q-10 0 -16 5.5t-4 14.5l13 97h92l-10 -60q7 1 20 1q31 0 52.5 -19.5z" />
    <glyph glyph-name="Tcaron" unicode="&#x164;" horiz-adv-x="642" 
d="M242.5 23.5q-29.5 28.5 -29.5 75.5v433h-119q-52 0 -77 21t-25 66q0 44 25 65t77 21h454q52 0 77 -21t25 -65q0 -45 -24.5 -66t-77.5 -21h-118v-433q0 -47 -30 -75.5t-79 -28.5t-78.5 28.5zM262 781l-74 57q-22 18 -22 40q0 19 15.5 33t36.5 14q23 0 41 -17l62 -54l61 54
q18 17 41 17q21 0 36.5 -14.5t15.5 -34.5q0 -21 -21 -38l-75 -57q-27 -21 -58 -21q-32 0 -59 21z" />
    <glyph glyph-name="tcaron" unicode="&#x165;" horiz-adv-x="425" 
d="M414 121q19 -17 19 -50q0 -41 -31.5 -60.5t-89.5 -15.5l-28 2q-94 7 -142.5 56t-48.5 134v155h-17q-94 0 -94 76t94 76h17v50q0 44 28 70t76 26q49 0 76.5 -26t27.5 -70v-50h37q94 0 94 -76t-94 -76h-37v-172q0 -8 8 -17.5t18 -10.5l29 -2q39 -2 58 -19zM418.639 518.731
q-14.9727 -6.74902 -33.2012 -6.74902q-22.1338 0 -37.7578 8.99902q-15.624 9 -15.624 24.2988v112.496q0 26.0986 24.0869 40.0479t57.9395 13.9492q31.248 0 54.6836 -12.5986q23.4365 -12.5996 23.4365 -34.1992q0 -7.19922 -3.90625 -17.0986l-49.4756 -109.796
q-5.20898 -12.5996 -20.1816 -19.3496z" />
    <glyph glyph-name="Tbar" unicode="&#x166;" horiz-adv-x="642" 
d="M430 532v-97h53q46 0 71.5 -21t25.5 -59t-25.5 -59t-71.5 -21h-53v-176q0 -47 -30 -75.5t-79 -28.5t-78.5 28.5t-29.5 75.5v176h-54q-47 0 -71.5 20.5t-24.5 59.5t24.5 59.5t71.5 20.5h54v97h-119q-52 0 -77 21t-25 66q0 44 25 65t77 21h454q52 0 77 -21t25 -65
q0 -45 -24.5 -66t-77.5 -21h-118z" />
    <glyph glyph-name="tbar" unicode="&#x167;" horiz-adv-x="435" 
d="M419 121q19 -17 19 -50q0 -41 -31.5 -60.5t-89.5 -15.5l-28 2q-94 7 -142.5 56t-48.5 134v23h-5q-41 0 -63.5 18t-22.5 52q0 49 46 64q-66 11 -66 74q0 76 94 76h17v50q0 44 28 70t76 26q49 0 76.5 -26t27.5 -70v-50h37q94 0 94 -76q0 -63 -65 -74q45 -16 45 -64
q0 -34 -22.5 -52t-63.5 -18h-25v-40q0 -8 8 -17.5t18 -10.5l29 -2q39 -2 58 -19z" />
    <glyph glyph-name="Utilde" unicode="&#x168;" horiz-adv-x="751" 
d="M135 70q-82 80 -82 233v303q0 47 28.5 75.5t77.5 28.5q48 0 76.5 -28.5t28.5 -75.5v-310q0 -68 29 -105t83 -37q52 0 81.5 37.5t29.5 104.5v310q0 47 28.5 75.5t76.5 28.5q49 0 77.5 -28.5t28.5 -75.5v-303q0 -151 -83 -232t-239 -81q-159 0 -241 80zM376 789
q-50 12 -75 12q-9 0 -15 -3t-14 -10q-9 -8 -16.5 -12t-20.5 -4q-17 0 -26.5 10.5t-9.5 28.5q0 22 13.5 46t36.5 40t51 16q30 0 76 -13q50 -12 75 -12q15 0 30 13q17 15 36 15q36 0 36 -38q0 -22 -13.5 -46t-36.5 -40t-50 -16q-29 0 -77 13z" />
    <glyph glyph-name="utilde" unicode="&#x169;" horiz-adv-x="612" 
d="M539.5 478q28.5 -26 28.5 -70v-322q0 -41 -30 -67t-76 -26q-37 0 -62.5 18.5t-32.5 50.5q-49 -71 -136 -71q-97 0 -143.5 54t-46.5 165v198q0 44 28 70t76 26t76 -26t28 -70v-204q0 -55 47 -55q28 0 46 21.5t18 55.5v182q0 44 28 70t76 26q47 0 75.5 -26zM346.5 585
q-17.5 7 -46.5 21q-38 22 -58 22q-15 0 -24 -7t-19 -20q-10 -12 -18 -18t-20 -6q-15 0 -24 12.5t-9 33.5q0 22 13.5 50t37 47.5t50.5 19.5q19 0 37 -7t43 -20q40 -22 59 -22q15 0 24.5 6.5t19.5 19.5q10 12 17.5 17.5t19.5 5.5q16 0 24.5 -11.5t8.5 -32.5q0 -23 -13.5 -51
t-36.5 -47.5t-50 -19.5q-18 0 -35.5 7z" />
    <glyph glyph-name="Umacron" unicode="&#x16a;" horiz-adv-x="751" 
d="M135 70q-82 80 -82 233v303q0 47 28.5 75.5t77.5 28.5q48 0 76.5 -28.5t28.5 -75.5v-310q0 -68 29 -105t83 -37q52 0 81.5 37.5t29.5 104.5v310q0 47 28.5 75.5t76.5 28.5q49 0 77.5 -28.5t28.5 -75.5v-303q0 -151 -83 -232t-239 -81q-159 0 -241 80zM214.5 803
q-16.5 15 -16.5 41q0 25 16.5 39.5t40.5 14.5h242q24 0 40 -14.5t16 -39.5q0 -26 -16 -41t-40 -15h-242q-24 0 -40.5 15z" />
    <glyph glyph-name="umacron" unicode="&#x16b;" horiz-adv-x="612" 
d="M539.5 478q28.5 -26 28.5 -70v-322q0 -41 -30 -67t-76 -26q-37 0 -62.5 18.5t-32.5 50.5q-49 -71 -136 -71q-97 0 -143.5 54t-46.5 165v198q0 44 28 70t76 26t76 -26t28 -70v-204q0 -55 47 -55q28 0 46 21.5t18 55.5v182q0 44 28 70t76 26q47 0 75.5 -26zM143.5 619.5
q-16.5 14.5 -16.5 39.5q0 26 16 40t41 14h242q24 0 40 -14t16 -40q0 -25 -16 -39.5t-40 -14.5h-242q-24 0 -40.5 14.5z" />
    <glyph glyph-name="Ubreve" unicode="&#x16c;" horiz-adv-x="751" 
d="M135 70q-82 80 -82 233v303q0 47 28.5 75.5t77.5 28.5q48 0 76.5 -28.5t28.5 -75.5v-310q0 -68 29 -105t83 -37q52 0 81.5 37.5t29.5 104.5v310q0 47 28.5 75.5t76.5 28.5q49 0 77.5 -28.5t28.5 -75.5v-303q0 -151 -83 -232t-239 -81q-159 0 -241 80zM268.5 792
q-46.5 20 -64.5 52q-9 17 -9 30q0 18 13 30t32 12q21 0 40 -16q17 -10 43.5 -17t52.5 -7t52.5 7t42.5 17q19 16 41 16q19 0 31.5 -11.5t12.5 -29.5q0 -17 -9 -31q-18 -31 -64.5 -51.5t-106.5 -20.5q-61 0 -107.5 20z" />
    <glyph glyph-name="ubreve" unicode="&#x16d;" horiz-adv-x="612" 
d="M539.5 478q28.5 -26 28.5 -70v-322q0 -41 -30 -67t-76 -26q-37 0 -62.5 18.5t-32.5 50.5q-49 -71 -136 -71q-97 0 -143.5 54t-46.5 165v198q0 44 28 70t76 26t76 -26t28 -70v-204q0 -55 47 -55q28 0 46 21.5t18 55.5v182q0 44 28 70t76 26q47 0 75.5 -26zM192 604.5
q-51 33.5 -68 83.5q-3 11 -3 19q0 21 14 34.5t33 13.5q26 0 42 -24q37 -46 95 -46q59 0 96 46q16 24 41 24q19 0 33 -13.5t14 -33.5q0 -9 -3 -20q-18 -50 -68.5 -83.5t-112.5 -33.5t-113 33.5z" />
    <glyph glyph-name="Uring" unicode="&#x16e;" horiz-adv-x="751" 
d="M135 70q-82 80 -82 233v303q0 47 28.5 75.5t77.5 28.5q48 0 76.5 -28.5t28.5 -75.5v-310q0 -68 29 -105t83 -37q52 0 81.5 37.5t29.5 104.5v310q0 47 28.5 75.5t76.5 28.5q49 0 77.5 -28.5t28.5 -75.5v-303q0 -151 -83 -232t-239 -81q-159 0 -241 80zM296 792
q-33 32 -33 79t33 79t80 32t80 -32t33 -79t-33 -79t-80 -32t-80 32zM405.5 840.5q11.5 12.5 11.5 30.5q0 19 -11 31t-30 12q-18 0 -29.5 -12t-11.5 -31q0 -18 11.5 -30.5t29.5 -12.5t29.5 12.5z" />
    <glyph glyph-name="uring" unicode="&#x16f;" horiz-adv-x="612" 
d="M539.5 478q28.5 -26 28.5 -70v-322q0 -41 -30 -67t-76 -26q-37 0 -62.5 18.5t-32.5 50.5q-49 -71 -136 -71q-97 0 -143.5 54t-46.5 165v198q0 44 28 70t76 26t76 -26t28 -70v-204q0 -55 47 -55q28 0 46 21.5t18 55.5v182q0 44 28 70t76 26q47 0 75.5 -26zM225 583
q-33 32 -33 79t33 79t80 32t80 -32t33 -79t-33 -79t-80 -32t-80 32zM334.5 631.5q11.5 12.5 11.5 30.5q0 19 -11 31t-30 12q-18 0 -29.5 -12t-11.5 -31q0 -18 11.5 -30.5t29.5 -12.5t29.5 12.5z" />
    <glyph glyph-name="Uhungarumlaut" unicode="&#x170;" horiz-adv-x="751" 
d="M135 70q-82 80 -82 233v303q0 47 28.5 75.5t77.5 28.5q48 0 76.5 -28.5t28.5 -75.5v-310q0 -68 29 -105t83 -37q52 0 81.5 37.5t29.5 104.5v310q0 47 28.5 75.5t76.5 28.5q49 0 77.5 -28.5t28.5 -75.5v-303q0 -151 -83 -232t-239 -81q-159 0 -241 80zM302 760
q-16 0 -27 11t-11 27q0 12 4 21l29 73q7 17 20 25.5t28 8.5q25 0 46.5 -18t21.5 -42q0 -21 -18 -39l-60 -52q-15 -15 -33 -15zM448 760q-15 0 -26 11t-11 28q0 11 4 20l30 73q7 17 20 25.5t28 8.5q25 0 46.5 -18t21.5 -42q0 -21 -18 -39l-61 -52q-15 -15 -34 -15z" />
    <glyph glyph-name="uhungarumlaut" unicode="&#x171;" horiz-adv-x="612" 
d="M539.5 478q28.5 -26 28.5 -70v-322q0 -41 -30 -67t-76 -26q-37 0 -62.5 18.5t-32.5 50.5q-49 -71 -136 -71q-97 0 -143.5 54t-46.5 165v198q0 44 28 70t76 26t76 -26t28 -70v-204q0 -55 47 -55q28 0 46 21.5t18 55.5v182q0 44 28 70t76 26q47 0 75.5 -26zM231 552
q-16 0 -28 11t-12 28q0 7 1 10l17 107q6 31 24.5 47t42.5 16q25 0 43.5 -16.5t18.5 -41.5q0 -20 -11 -39l-59 -99q-13 -23 -37 -23zM399.5 558q-10.5 -6 -21.5 -6q-16 0 -27.5 11t-11.5 28q0 7 1 10l16 107q6 31 24.5 47t42.5 16t42.5 -16t18.5 -41q0 -20 -12 -40l-56 -99
q-6 -11 -16.5 -17z" />
    <glyph glyph-name="Uogonek" unicode="&#x172;" horiz-adv-x="751" 
d="M669.5 681.5q28.5 -28.5 28.5 -75.5v-303q0 -119 -52.5 -196t-151.5 -102q-23 -4 -36 -20.5t-13 -39.5q0 -20 12.5 -33t31.5 -13q13 0 23.5 1t24.5 4q17 4 28 -8t11 -31q0 -12 -5 -22.5t-15 -16.5q-22 -14 -45.5 -20t-53.5 -6q-59 0 -97.5 32t-38.5 82q0 41 30 77
q-147 6 -222.5 85.5t-75.5 226.5v303q0 47 28.5 75.5t77.5 28.5q48 0 76.5 -28.5t28.5 -75.5v-310q0 -68 29 -105t83 -37q52 0 81.5 37.5t29.5 104.5v310q0 47 28.5 75.5t76.5 28.5q49 0 77.5 -28.5z" />
    <glyph glyph-name="uogonek" unicode="&#x173;" horiz-adv-x="612" 
d="M596 -104q11 -12 11 -31q0 -12 -5 -22.5t-15 -16.5q-41 -26 -99 -26q-61 0 -98.5 32.5t-37.5 85.5q0 54 44 96q-23 19 -29 48q-48 -71 -136 -71q-97 0 -143.5 54t-46.5 165v198q0 44 28 70t76 26t76 -26t28 -70v-204q0 -55 44 -55q30 0 48.5 21.5t18.5 55.5v182
q0 44 28 70t76 26q47 0 75.5 -26t28.5 -70v-321q0 -56 -49 -82q-43 -31 -43 -60q0 -20 12.5 -33t31.5 -13q13 0 23.5 1t24.5 4q17 4 28 -8z" />
    <glyph glyph-name="Wcircumflex" unicode="&#x174;" horiz-adv-x="1127" 
d="M946.5 695.5q26.5 17.5 58.5 17.5q38 0 66.5 -25t28.5 -66q0 -22 -10 -48l-193 -515q-12 -33 -43 -51t-68 -18t-67.5 18t-42.5 51l-110 314l-117 -314q-12 -33 -42.5 -51t-67.5 -18q-36 0 -66.5 18t-42.5 51l-194 515q-9 24 -9 45q0 43 30.5 68.5t72.5 25.5
q33 0 61 -17.5t39 -51.5l119 -340l128 343q12 32 37.5 49.5t56.5 17.5t56.5 -17.5t37.5 -50.5l118 -354l125 352q12 34 38.5 51.5zM461 761q-21 0 -36.5 14.5t-15.5 34.5q0 21 22 39l74 56q24 21 59 21q33 0 58 -21l75 -56q21 -17 21 -40q0 -20 -15 -34.5t-37 -14.5t-41 18
l-61 54l-62 -54q-18 -17 -41 -17z" />
    <glyph glyph-name="wcircumflex" unicode="&#x175;" horiz-adv-x="881" 
d="M731.5 489.5q21.5 14.5 47.5 14.5q38 0 68.5 -26.5t30.5 -64.5q0 -18 -9 -38l-160 -324q-13 -29 -39 -44t-57 -15t-57 15.5t-38 43.5l-80 171l-76 -171q-12 -28 -37.5 -43.5t-56.5 -15.5q-30 0 -56.5 15t-39.5 44l-160 325q-9 20 -9 37q0 38 32 64t72 26q28 0 51 -14.5
t35 -43.5l82 -190l83 189q12 28 35.5 43.5t51.5 15.5q27 0 51.5 -15.5t36.5 -43.5l87 -189l79 191q11 29 32.5 43.5zM335 554q-21 0 -37.5 15t-16.5 36q0 18 13 34l80 94q16 19 31 28t36 9q22 0 36.5 -8.5t30.5 -30.5l80 -92q14 -17 14 -34q0 -21 -16.5 -36t-37.5 -15
q-29 0 -47 27l-60 81l-59 -81q-18 -27 -47 -27z" />
    <glyph glyph-name="Ycircumflex" unicode="&#x176;" horiz-adv-x="666" 
d="M565 712q39 0 70 -30t31 -69q0 -34 -26 -64l-199 -223v-227q0 -52 -30.5 -79t-76.5 -27q-48 0 -78.5 27t-30.5 79v227l-197 223q-27 30 -27 65q0 39 30.5 68.5t69.5 29.5t70 -35l162 -187l161 187q31 35 71 35zM229 761q-21 0 -36.5 14.5t-15.5 34.5q0 21 22 39l74 56
q24 21 59 21q33 0 58 -21l75 -56q21 -17 21 -40q0 -20 -15 -34.5t-37 -14.5t-41 18l-61 54l-62 -54q-18 -17 -41 -17z" />
    <glyph glyph-name="ycircumflex" unicode="&#x177;" horiz-adv-x="549" 
d="M402 488.5q22 13.5 48 13.5q39 0 69.5 -25.5t30.5 -61.5q0 -19 -10 -38l-259 -507q-14 -29 -37.5 -43.5t-49.5 -14.5q-39 0 -68.5 25t-29.5 61q0 21 10 41l63 123l-160 315q-9 20 -9 37q0 37 32.5 63t72.5 26q28 0 51.5 -14.5t37.5 -43.5l88 -185l85 186q13 29 35 42.5z
M169 554q-21 0 -37.5 15t-16.5 36q0 18 13 34l80 94q16 19 31 28t36 9q22 0 36.5 -8.5t30.5 -30.5l80 -92q14 -17 14 -34q0 -21 -16.5 -36t-37.5 -15q-29 0 -47 27l-60 81l-59 -81q-18 -27 -47 -27z" />
    <glyph glyph-name="Ydieresis" unicode="&#x178;" horiz-adv-x="666" 
d="M565 712q39 0 70 -30t31 -69q0 -34 -26 -64l-199 -223v-227q0 -52 -30.5 -79t-76.5 -27q-48 0 -78.5 27t-30.5 79v227l-197 223q-27 30 -27 65q0 39 30.5 68.5t69.5 29.5t70 -35l162 -187l161 187q31 35 71 35zM170.5 785.5q-23.5 22.5 -23.5 60.5q0 36 23.5 57.5
t61.5 21.5q39 0 63 -21.5t24 -57.5q0 -38 -24 -60.5t-63 -22.5q-38 0 -61.5 22.5zM369.5 785.5q-23.5 22.5 -23.5 60.5q0 36 23.5 57.5t63.5 21.5q37 0 61 -21.5t24 -57.5q0 -38 -23.5 -60.5t-61.5 -22.5q-40 0 -63.5 22.5z" />
    <glyph glyph-name="Zacute" unicode="&#x179;" horiz-adv-x="626" 
d="M588.5 147q24.5 -20 24.5 -63t-24.5 -63.5t-77.5 -20.5h-386q-41 0 -66.5 26t-25.5 64q0 39 27 76l280 372h-203q-53 0 -78 20t-25 63t25 63.5t78 20.5h368q42 0 67.5 -25.5t25.5 -63.5q0 -40 -27 -77l-280 -372h220q53 0 77.5 -20zM315 760q-17 0 -29.5 11t-12.5 27
q0 17 15 31l80 73q27 26 55 26q27 0 46 -19.5t19 -44.5q0 -18 -11.5 -34t-35.5 -27l-106 -39q-9 -4 -20 -4z" />
    <glyph glyph-name="zacute" unicode="&#x17a;" horiz-adv-x="524" 
d="M517 76q0 -76 -94 -76h-305q-40 0 -65 26t-25 62q0 38 28 69l184 185h-126q-94 0 -94 76t94 76h291q40 0 65.5 -26t25.5 -62q0 -39 -29 -69l-183 -185h139q94 0 94 -76zM276 554q-19 0 -32.5 13t-13.5 31q0 16 11 30l72 99q29 39 69 39q30 0 52.5 -21.5t22.5 -49.5
q0 -34 -37 -60l-113 -71q-14 -10 -31 -10z" />
    <glyph glyph-name="Zdotaccent" unicode="&#x17b;" horiz-adv-x="626" 
d="M588.5 147q24.5 -20 24.5 -63t-24.5 -63.5t-77.5 -20.5h-386q-41 0 -66.5 26t-25.5 64q0 39 27 76l280 372h-203q-53 0 -78 20t-25 63t25 63.5t78 20.5h368q42 0 67.5 -25.5t25.5 -63.5q0 -40 -27 -77l-280 -372h220q53 0 77.5 -20zM242.5 780.5q-27.5 24.5 -27.5 65.5
q0 39 27.5 62.5t73.5 23.5q45 0 73 -23.5t28 -62.5q0 -41 -27.5 -65.5t-73.5 -24.5t-73.5 24.5z" />
    <glyph glyph-name="zdotaccent" unicode="&#x17c;" horiz-adv-x="524" 
d="M517 76q0 -76 -94 -76h-305q-40 0 -65 26t-25 62q0 38 28 69l184 185h-126q-94 0 -94 76t94 76h291q40 0 65.5 -26t25.5 -62q0 -39 -29 -69l-183 -185h139q94 0 94 -76zM199.5 597q-27.5 24 -27.5 64t27 63t74 23q45 0 73 -23.5t28 -62.5q0 -40 -27.5 -64t-73.5 -24
t-73.5 24z" />
    <glyph glyph-name="Zcaron" unicode="&#x17d;" horiz-adv-x="626" 
d="M588.5 147q24.5 -20 24.5 -63t-24.5 -63.5t-77.5 -20.5h-386q-41 0 -66.5 26t-25.5 64q0 39 27 76l280 372h-203q-53 0 -78 20t-25 63t25 63.5t78 20.5h368q42 0 67.5 -25.5t25.5 -63.5q0 -40 -27 -77l-280 -372h220q53 0 77.5 -20zM257 781l-74 57q-22 18 -22 40
q0 19 15.5 33t36.5 14q23 0 41 -17l62 -54l61 54q18 17 41 17q21 0 36.5 -14.5t15.5 -34.5q0 -21 -21 -38l-75 -57q-27 -21 -58 -21q-32 0 -59 21z" />
    <glyph glyph-name="zcaron" unicode="&#x17e;" horiz-adv-x="524" 
d="M517 76q0 -76 -94 -76h-305q-40 0 -65 26t-25 62q0 38 28 69l184 185h-126q-94 0 -94 76t94 76h291q40 0 65.5 -26t25.5 -62q0 -39 -29 -69l-183 -185h139q94 0 94 -76zM237 561.5q-14 8.5 -32 29.5l-79 94q-14 15 -14 34q0 21 16.5 36t38.5 15q28 0 46 -26l60 -84l60 84
q18 26 45 26q22 0 38.5 -15t16.5 -36q0 -18 -13 -34l-80 -95q-17 -19 -31.5 -28t-35.5 -9q-22 0 -36 8.5z" />
    <glyph glyph-name="uni018F" unicode="&#x18f;" horiz-adv-x="788" 
d="M568 670q86 -45 132.5 -127t46.5 -190q0 -103 -43.5 -185.5t-123 -130t-181.5 -47.5q-110 0 -190.5 42t-124 123.5t-43.5 197.5q0 39 20.5 61t56.5 22h406q-16 56 -58.5 83t-111.5 27q-24 0 -60 -8.5t-71 -20.5q-5 -3 -17.5 -9.5t-23 -9.5t-22.5 -3q-29 0 -49.5 25.5
t-20.5 60.5q0 24 8.5 40t28.5 31q40 30 104.5 46.5t137.5 16.5q113 0 199 -45zM486 184q32 30 42 92h-269q10 -61 46 -91.5t94 -30.5q55 0 87 30z" />
    <glyph glyph-name="florin" unicode="&#x192;" 
d="M471 535.5q-12 -12.5 -17 -33.5h53q25 0 43.5 -16t18.5 -41t-18.5 -40.5t-43.5 -15.5h-78l-76 -359q-24 -117 -94 -166t-152 -49h-22q-42 0 -65.5 22.5t-23.5 53.5q0 34 25.5 59.5t70.5 25.5h11q17 0 30 16t17 42l75 355h-54q-25 0 -43.5 15.5t-18.5 40.5t18.5 41
t43.5 16h78q25 113 95 161t149 48h22q43 0 66.5 -23t23.5 -55q0 -34 -25.5 -59.5t-70.5 -25.5h-11q-15 0 -27 -12.5z" />
    <glyph glyph-name="Ohorn" unicode="&#x1a0;" horiz-adv-x="806" 
d="M765 353q0 -109 -44 -191.5t-125.5 -127t-191.5 -44.5q-111 0 -193 45t-126 127t-44 192q0 109 44.5 190.5t126.5 126t193 44.5q27 0 55 -5q6 -1 23.5 -3t35.5 -2q30 0 45 12.5t18 41.5q5 55 30 81t70 26q41 0 62 -25t21 -74q0 -46 -28.5 -88t-74.5 -58q103 -96 103 -268
zM513.5 204q39.5 50 39.5 149q0 98 -40 148t-109 50q-70 0 -109.5 -49t-39.5 -149t39.5 -149.5t109.5 -49.5t109.5 50z" />
    <glyph glyph-name="ohorn" unicode="&#x1a1;" horiz-adv-x="614" 
d="M604.5 472q-27.5 -40 -70.5 -58q28 -32 42 -75t14 -91q0 -78 -35 -136t-99 -89.5t-149 -31.5t-149 31.5t-99 89.5t-35 136q0 80 35 138t98.5 89t149.5 31q29 0 59 -6q22 -4 29 -4q44 0 53 49q7 50 32 71t71 21q42 0 61.5 -20t19.5 -64q0 -41 -27.5 -81zM366 169.5
q19 24.5 19 78.5q0 57 -19 81.5t-59 24.5t-59 -24.5t-19 -81.5q0 -54 20 -78.5t59 -24.5t58 24.5z" />
    <glyph glyph-name="Uhorn" unicode="&#x1af;" horiz-adv-x="751" 
d="M778 679.5q-30 -42.5 -80 -59.5v-317q0 -151 -83 -232t-239 -81q-159 0 -241 80t-82 233v303q0 47 28.5 75.5t77.5 28.5q48 0 76.5 -28.5t28.5 -75.5v-310q0 -68 29 -105t83 -37q52 0 81.5 37.5t29.5 104.5v310q0 45 26.5 74t71.5 32q17 1 26.5 9.5t12.5 39.5
q10 110 100 110q84 0 84 -101q0 -48 -30 -90.5z" />
    <glyph glyph-name="uhorn" unicode="&#x1b0;" horiz-adv-x="645" 
d="M646.5 472.5q-29.5 -37.5 -78.5 -55.5v-331q0 -41 -30 -67t-76 -26q-37 0 -62.5 18.5t-32.5 50.5q-49 -71 -136 -71q-97 0 -143.5 54t-46.5 165v198q0 44 28 70t76 26t76 -26t28 -70v-204q0 -55 44 -55q30 0 48.5 21.5t18.5 55.5v182q0 44 23.5 67.5t72.5 28.5
q14 2 23.5 12.5t12.5 29.5q7 49 31.5 70.5t71.5 21.5q42 0 61.5 -20t19.5 -63q0 -45 -29.5 -82.5z" />
    <glyph glyph-name="uni01C4" unicode="&#x1c4;" horiz-adv-x="1394" 
d="M82 25q-25 25 -25 74v507q0 48 25 73.5t73 25.5h205q118 0 204.5 -42.5t132.5 -122t46 -187.5q0 -109 -45.5 -188.5t-132 -122t-205.5 -42.5h-205q-48 0 -73 25zM344 172q92 0 138 43.5t46 137.5q0 93 -46 136.5t-138 43.5h-72v-361h72zM1356.5 147q24.5 -20 24.5 -63
t-24.5 -63.5t-77.5 -20.5h-386q-41 0 -66.5 26t-25.5 64q0 39 27 76l280 372h-203q-53 0 -78 20t-25 63t25 63.5t78 20.5h368q42 0 67.5 -25.5t25.5 -63.5q0 -40 -27 -77l-280 -372h220q53 0 77.5 -20zM1025 781l-74 57q-22 18 -22 40q0 19 15.5 33t36.5 14q23 0 41 -17
l62 -54l61 54q18 17 41 17q21 0 36.5 -14.5t15.5 -34.5q0 -21 -21 -38l-75 -57q-27 -21 -58 -21q-32 0 -59 21z" />
    <glyph glyph-name="uni01C5" unicode="&#x1c5;" horiz-adv-x="1307" 
d="M82 25q-25 25 -25 74v507q0 48 25 73.5t73 25.5h205q118 0 204.5 -42.5t132.5 -122t46 -187.5q0 -109 -45.5 -188.5t-132 -122t-205.5 -42.5h-205q-48 0 -73 25zM344 172q92 0 138 43.5t46 137.5q0 93 -46 136.5t-138 43.5h-72v-361h72zM1300 76q0 -76 -94 -76h-305
q-40 0 -65 26t-25 62q0 38 28 69l184 185h-126q-94 0 -94 76t94 76h291q40 0 65.5 -26t25.5 -62q0 -39 -29 -69l-183 -185h139q94 0 94 -76zM1020 561.5q-14 8.5 -32 29.5l-79 94q-14 15 -14 34q0 21 16.5 36t38.5 15q28 0 46 -26l60 -84l60 84q18 26 45 26q22 0 38.5 -15
t16.5 -36q0 -18 -13 -34l-80 -95q-17 -19 -31.5 -28t-35.5 -9q-22 0 -36 8.5z" />
    <glyph glyph-name="uni01C6" unicode="&#x1c6;" horiz-adv-x="1162" 
d="M564 684q30 -26 30 -67v-528q0 -43 -28 -69.5t-75 -26.5q-39 0 -65 19t-34 52q-21 -33 -61.5 -53t-88.5 -20q-62 0 -112 33t-78 92.5t-28 135.5t28 133.5t77.5 89t112.5 31.5q44 0 83 -17.5t61 -47.5v181q0 40 27.5 64t73.5 24q47 0 77 -26zM368.5 172q20.5 27 20.5 78
q0 50 -21 76.5t-60 26.5q-38 0 -58.5 -26t-20.5 -75q0 -51 21 -79t59 -28q39 0 59.5 27zM1155 76q0 -76 -94 -76h-305q-40 0 -65 26t-25 62q0 38 28 69l184 185h-126q-94 0 -94 76t94 76h291q40 0 65.5 -26t25.5 -62q0 -39 -29 -69l-183 -185h139q94 0 94 -76zM875 561.5
q-14 8.5 -32 29.5l-79 94q-14 15 -14 34q0 21 16.5 36t38.5 15q28 0 46 -26l60 -84l60 84q18 26 45 26q22 0 38.5 -15t16.5 -36q0 -18 -13 -34l-80 -95q-17 -19 -31.5 -28t-35.5 -9q-22 0 -36 8.5z" />
    <glyph glyph-name="uni01C7" unicode="&#x1c7;" horiz-adv-x="1007" 
d="M82 25.5q-25 25.5 -25 74.5v506q0 47 29 75.5t78 28.5t78.5 -28.5t29.5 -75.5v-433h171q52 0 77.5 -21.5t25.5 -65.5t-25 -65t-78 -21h-287q-49 0 -74 25.5zM601 11.5q-33 22.5 -33 68.5q0 42 19.5 61t62.5 22l35 2q23 1 35.5 16t12.5 37v388q0 47 29.5 75.5t79.5 28.5
q49 0 78.5 -28.5t29.5 -75.5v-384q0 -103 -56 -161.5t-165 -65.5l-33 -2q-62 -4 -95 18.5z" />
    <glyph glyph-name="uni01C8" unicode="&#x1c8;" horiz-adv-x="879" 
d="M82 25.5q-25 25.5 -25 74.5v506q0 47 29 75.5t78 28.5t78.5 -28.5t29.5 -75.5v-433h201q52 0 77.5 -21.5t25.5 -65.5t-25 -65t-78 -21h-317q-49 0 -74 25.5zM597 -183q-47 0 -75 19.5t-28 57.5q0 34 19 51t58 19l29 2q10 1 18 10.5t8 17.5v414q0 48 30 72t74 24t74 -24
t30 -72v-397q0 -83 -47.5 -133.5t-143.5 -57.5l-28 -2zM655.5 597q-27.5 24 -27.5 64t27 63t74 23q45 0 73 -23.5t28 -62.5q0 -40 -27.5 -64t-73.5 -24t-73.5 24z" />
    <glyph glyph-name="uni01C9" unicode="&#x1c9;" horiz-adv-x="594" 
d="M74 17.5q-30 24.5 -30 71.5v525q0 48 30 72t74 24q45 0 74.5 -24t29.5 -72v-525q0 -47 -29.5 -71.5t-74.5 -24.5q-44 0 -74 24.5zM312 -183q-47 0 -75 19.5t-28 57.5q0 34 19 51t58 19l29 2q10 1 18 10.5t8 17.5v414q0 48 30 72t74 24t74 -24t30 -72v-397
q0 -83 -47.5 -133.5t-143.5 -57.5l-28 -2zM370.5 597q-27.5 24 -27.5 64t27 63t74 23q45 0 73 -23.5t28 -62.5q0 -40 -27.5 -64t-73.5 -24t-73.5 24z" />
    <glyph glyph-name="uni01CA" unicode="&#x1ca;" horiz-adv-x="1182" 
d="M677.5 681q28.5 -29 28.5 -75v-507q0 -47 -28.5 -76.5t-72.5 -29.5q-51 0 -78 34l-270 326v-254q0 -48 -27 -77t-73 -29q-44 0 -72 29.5t-28 76.5v507q0 46 28 75t72 29q50 0 77 -34l270 -324v254q0 47 27.5 75.5t72.5 28.5t73.5 -29zM743 80q0 41 19.5 60.5t62.5 22.5
l35 2q23 0 35.5 15.5t12.5 37.5v388q0 47 29.5 75.5t79.5 28.5q49 0 78.5 -28.5t29.5 -75.5v-384q0 -102 -56 -160.5t-165 -66.5l-33 -2q-128 -5 -128 87z" />
    <glyph glyph-name="uni01CB" unicode="&#x1cb;" horiz-adv-x="1060" 
d="M677.5 681q28.5 -29 28.5 -75v-507q0 -47 -28.5 -76.5t-72.5 -29.5q-51 0 -78 34l-270 326v-254q0 -48 -27 -77t-73 -29q-44 0 -72 29.5t-28 76.5v507q0 46 28 75t72 29q50 0 77 -34l270 -324v254q0 47 27.5 75.5t72.5 28.5t73.5 -29zM778 -183q-47 0 -75 19.5t-28 57.5
q0 34 19 51t58 19l29 2q10 1 18 10.5t8 17.5v414q0 48 30 72t74 24t74 -24t30 -72v-397q0 -83 -47.5 -133.5t-143.5 -57.5l-28 -2zM836.5 597q-27.5 24 -27.5 64t27 63t74 23q45 0 73 -23.5t28 -62.5q0 -40 -27.5 -64t-73.5 -24t-73.5 24z" />
    <glyph glyph-name="uni01CC" unicode="&#x1cc;" horiz-adv-x="914" 
d="M533.5 452.5q42.5 -53.5 42.5 -165.5v-198q0 -44 -28 -70t-76 -26t-76 26t-28 70v190q0 37 -11.5 53t-34.5 16q-32 0 -51 -21t-19 -55v-183q0 -44 -28 -70t-76 -26t-76 26t-28 70v322q0 41 29.5 67t76.5 26q39 0 65 -20t31 -53q58 75 157 75q88 0 130.5 -53.5zM632 -183
q-47 0 -75 19.5t-28 57.5q0 34 19 51t58 19l29 2q10 1 18 10.5t8 17.5v414q0 48 30 72t74 24t74 -24t30 -72v-397q0 -83 -47.5 -133.5t-143.5 -57.5l-28 -2zM690.5 597q-27.5 24 -27.5 64t27 63t74 23q45 0 73 -23.5t28 -62.5q0 -40 -27.5 -64t-73.5 -24t-73.5 24z" />
    <glyph glyph-name="uni01CE" unicode="&#x1ce;" horiz-adv-x="559" 
d="M460.5 449.5q57.5 -56.5 57.5 -173.5v-189q0 -44 -26 -69t-72 -25q-37 0 -62.5 20t-31.5 54q-12 -35 -43.5 -55.5t-77.5 -20.5q-52 0 -93.5 21t-65.5 58.5t-24 84.5q1 53 28 84.5t86 46t158 14.5h28v6q0 27 -13.5 38.5t-46.5 11.5q-37 0 -114 -25q-18 -5 -40 -5
q-29 0 -46 20.5t-17 54.5q0 25 9.5 40t29.5 25q35 18 90 29t109 11q120 0 177.5 -56.5zM303.5 148q18.5 20 18.5 54v7h-16q-87 0 -87 -40q0 -18 10.5 -29.5t26.5 -11.5q29 0 47.5 20zM247 561.5q-14 8.5 -32 29.5l-79 94q-14 15 -14 34q0 21 16.5 36t38.5 15q28 0 46 -26
l60 -84l60 84q18 26 45 26q22 0 38.5 -15t16.5 -36q0 -18 -13 -34l-80 -95q-17 -19 -31.5 -28t-35.5 -9q-22 0 -36 8.5z" />
    <glyph glyph-name="uni01D4" unicode="&#x1d4;" horiz-adv-x="612" 
d="M539.5 478q28.5 -26 28.5 -70v-322q0 -41 -30 -67t-76 -26q-37 0 -62.5 18.5t-32.5 50.5q-49 -71 -136 -71q-97 0 -143.5 54t-46.5 165v198q0 44 28 70t76 26t76 -26t28 -70v-204q0 -55 47 -55q28 0 46 21.5t18 55.5v182q0 44 28 70t76 26q47 0 75.5 -26zM269 561.5
q-14 8.5 -32 29.5l-79 94q-14 15 -14 34q0 21 16.5 36t38.5 15q28 0 46 -26l60 -84l60 84q18 26 45 26q22 0 38.5 -15t16.5 -36q0 -18 -13 -34l-80 -95q-17 -19 -31.5 -28t-35.5 -9q-22 0 -36 8.5z" />
    <glyph glyph-name="uni01E5" unicode="&#x1e5;" horiz-adv-x="642" 
d="M650.5 16.5q17.5 -14.5 17.5 -38.5t-17.5 -39t-44.5 -15h-36q-34 -79 -106 -123.5t-177 -44.5q-97 0 -179 56q-50 34 -50 77q0 24 13 37t39 13q21 0 37.5 -6t37.5 -18q23 -13 40.5 -19.5t41.5 -6.5q49 0 82 35h-75q-26 0 -43.5 15t-17.5 39t17.5 38.5t43.5 14.5h117
q1 8 1 24v46q-23 -20 -63.5 -33.5t-84.5 -13.5q-63 0 -113 25.5t-78.5 72.5t-28.5 107q0 74 28.5 130t78.5 86.5t113 30.5q47 0 88.5 -20t62.5 -52q8 32 34.5 51t65.5 19q47 0 75 -26t28 -70v-340q0 -13 -2 -37h10q27 0 44.5 -14.5zM371.5 201.5q21.5 19.5 21.5 57.5
q0 44 -21.5 69t-60.5 25t-60.5 -24.5t-21.5 -69.5q0 -36 22 -56.5t60 -20.5q39 0 60.5 19.5z" />
    <glyph glyph-name="Gcaron" unicode="&#x1e6;" horiz-adv-x="750" 
d="M678.5 386q22.5 -21 22.5 -57v-150q0 -60 -9 -92t-32 -49.5t-70 -30.5q-39 -8 -84 -12.5t-80 -4.5q-118 0 -204.5 44t-133.5 125.5t-47 193.5q0 109 46.5 191t132 126.5t199.5 44.5q70 0 125 -15t104 -48q20 -14 28 -29.5t8 -41.5q0 -35 -19.5 -60.5t-47.5 -25.5
q-16 0 -27.5 4.5t-22.5 10.5t-15 8q-34 15 -63.5 22t-61.5 7q-88 0 -129 -46.5t-41 -147.5q0 -104 43.5 -152t136.5 -48q33 0 72 6v104h-49q-38 0 -59 18.5t-21 53.5t21 53.5t59 18.5h158q38 0 60.5 -21zM360 781l-74 57q-22 18 -22 40q0 19 15.5 33t36.5 14q23 0 41 -17
l62 -54l61 54q18 17 41 17q21 0 36.5 -14.5t15.5 -34.5q0 -21 -21 -38l-75 -57q-27 -21 -58 -21q-32 0 -59 21z" />
    <glyph glyph-name="gcaron" unicode="&#x1e7;" horiz-adv-x="642" 
d="M570 478q28 -26 28 -70v-340q0 -126 -79 -191.5t-232 -65.5q-54 0 -104.5 10.5t-85.5 28.5q-18 9 -28.5 27t-10.5 39q0 34 16.5 55t42.5 21q15 0 35.5 -4.5t40.5 -9.5q58 -16 88 -16q58 0 84.5 22t26.5 71v24q-22 -30 -62 -48t-86 -18q-63 0 -113 30.5t-78.5 86
t-28.5 129.5t28.5 130t78.5 86.5t113 30.5q47 0 88.5 -20t62.5 -52q8 32 34.5 51t65.5 19q47 0 75 -26zM371.5 191q21.5 24 21.5 68t-21.5 69t-60.5 25t-60.5 -24.5t-21.5 -69.5q0 -43 22 -67.5t60 -24.5q39 0 60.5 24zM285 561.5q-14 8.5 -32 29.5l-79 94q-14 15 -14 34
q0 21 16.5 36t38.5 15q28 0 46 -26l60 -84l60 84q18 26 45 26q22 0 38.5 -15t16.5 -36q0 -18 -13 -34l-80 -95q-17 -19 -31.5 -28t-35.5 -9q-22 0 -36 8.5z" />
    <glyph glyph-name="uni01E9" unicode="&#x1e9;" horiz-adv-x="605" 
d="M597 94q0 -38 -28 -68.5t-66 -30.5q-35 0 -65 29l-186 184v-117q0 -48 -29.5 -72t-74.5 -24q-44 0 -74 24t-30 72v523q0 48 30 72t74 24q45 0 74.5 -24t29.5 -72v-319l169 179q30 30 67 30q38 0 66.5 -28.5t28.5 -65.5q0 -35 -30 -65l-82 -86l96 -98q30 -29 30 -67z
M268 751l-74 57q-22 18 -22 40q0 19 15.5 33t36.5 14q23 0 41 -17l62 -54l61 54q18 17 41 17q21 0 36.5 -14.5t15.5 -34.5q0 -21 -21 -38l-75 -57q-27 -21 -58 -21q-32 0 -59 21z" />
    <glyph glyph-name="uni01EA" unicode="&#x1ea;" horiz-adv-x="806" 
d="M472 -55q0 -20 12 -33t31 -13t48 5q17 4 28 -8t11 -31q0 -12 -5 -22.5t-15 -16.5q-22 -14 -45.5 -20t-53.5 -6q-59 0 -97 32t-38 82q0 43 28 77q-103 6 -178.5 52t-116 125.5t-40.5 185.5q0 109 44.5 190.5t126.5 126t192 44.5t191.5 -44.5t125.5 -126.5t44 -191
q0 -132 -62.5 -222t-176.5 -125q-54 -17 -54 -61zM513.5 204q39.5 50 39.5 149q0 98 -40 148t-109 50q-70 0 -109.5 -49t-39.5 -149t39.5 -149.5t109.5 -49.5t109.5 50z" />
    <glyph glyph-name="uni01EB" unicode="&#x1eb;" horiz-adv-x="614" 
d="M375.5 -17.5q-13.5 -15.5 -13.5 -37.5q0 -20 12 -33t31 -13t48 5q3 1 8 1q14 0 23.5 -12.5t9.5 -28.5q0 -11 -5.5 -21.5t-15.5 -16.5q-23 -14 -46.5 -20t-53.5 -6q-59 0 -97 32t-38 82q0 45 34 79q-116 12 -182 80t-66 177q0 79 35 136.5t98.5 88.5t149.5 31t149.5 -31
t98.5 -88.5t35 -136.5q0 -91 -47.5 -156t-129.5 -89q-24 -7 -37.5 -22.5zM366 169.5q19 24.5 19 80.5t-19 80t-59 24q-39 0 -58.5 -24t-19.5 -80q0 -55 20 -80t59 -25t58 24.5z" />
    <glyph glyph-name="uni01EF" unicode="&#x1ef;" horiz-adv-x="575" 
d="M85.5 -132.5q-9.5 17.5 -9.5 36.5q0 30 20.5 53.5t49.5 23.5q20 0 38 -11q38 -19 73 -19q40 0 65.5 23t25.5 60q0 20 -5 34t-27 23.5t-67 9.5q-3 0 -5 1q-40 1 -64.5 22.5t-24.5 52.5q0 37 34 70l111 95h-169q-38 0 -62 21t-24 55t24 55t62 21h324q33 0 54 -24.5
t21 -57.5q0 -37 -27 -63l-131 -113q9 -1 12 -3q167 -17 167 -195q0 -69 -41 -124t-107.5 -85.5t-139.5 -30.5q-82 0 -149 40q-19 12 -28.5 29.5zM251 557.5q-14 8.5 -32 29.5l-79 94q-14 15 -14 34q0 21 16.5 36t38.5 15q28 0 46 -26l60 -84l60 84q18 26 45 26
q22 0 38.5 -15t16.5 -36q0 -18 -13 -34l-80 -95q-17 -19 -31.5 -28t-35.5 -9q-22 0 -36 8.5z" />
    <glyph glyph-name="Aringacute" unicode="&#x1fa;" horiz-adv-x="771" 
d="M764 89q0 -39 -31 -65.5t-71 -26.5q-26 0 -48.5 13.5t-35.5 42.5l-37 82h-308l-38 -82q-13 -29 -35.5 -42.5t-49.5 -13.5q-40 0 -71.5 26.5t-31.5 66.5q0 19 11 44l284 568q-32 34 -32 80q0 48 34 81t82 33q25 0 46 -9l85 50q29 18 53 18q30 0 50 -21t20 -48
q0 -23 -16 -41t-49 -26l-76 -11q3 -12 3 -26q0 -48 -32 -80l283 -568q11 -22 11 -45zM358 811q-11 -12 -11 -29q0 -18 11 -30t28 -12t28.5 12.5t11.5 29.5t-11.5 29t-28.5 12t-28 -12zM468 295l-81 179l-81 -179h162z" />
    <glyph glyph-name="aringacute" unicode="&#x1fb;" horiz-adv-x="559" 
d="M200 580q-34 33 -34 82q0 48 34 81t83 33q22 0 43 -8l1 1l77 65q29 28 61 28q29 0 49 -20.5t20 -47.5q0 -19 -13 -37t-40 -29l-89 -28q7 -15 7 -38q0 -48 -34 -81.5t-82 -33.5q-49 0 -83 33zM254.5 691q-11.5 -12 -11.5 -29t11.5 -29.5t28.5 -12.5t28 12t11 30
q0 17 -11 29t-28 12t-28.5 -12zM460.5 449.5q57.5 -56.5 57.5 -173.5v-189q0 -44 -26 -69t-72 -25q-37 0 -62.5 20t-31.5 54q-12 -35 -43.5 -55.5t-77.5 -20.5q-52 0 -93.5 21t-65.5 58.5t-24 84.5q1 53 28 84.5t86 46t158 14.5h28v6q0 27 -13.5 38.5t-46.5 11.5
q-37 0 -114 -25q-18 -5 -40 -5q-29 0 -46 20.5t-17 54.5q0 25 9.5 40t29.5 25q35 18 90 29t109 11q120 0 177.5 -56.5zM303.5 148q18.5 20 18.5 54v7h-16q-87 0 -87 -40q0 -18 10.5 -29.5t26.5 -11.5q29 0 47.5 20z" />
    <glyph glyph-name="AEacute" unicode="&#x1fc;" horiz-adv-x="1008" 
d="M1001 81q0 -81 -103 -81h-262q-36 0 -61 14t-31 39l-19 82h-282l-52 -82q-19 -29 -45 -43.5t-55 -14.5q-38 0 -66 23t-28 58q0 28 20 58l346 512q18 26 50 42.5t69 16.5h416q103 0 103 -81q0 -40 -26.5 -61.5t-76.5 -21.5h-271l23 -100h228q103 0 103 -83q0 -81 -103 -81
h-189l26 -113h183q103 0 103 -83zM489 295l-38 167l-106 -167h144zM509 760q-17 0 -29.5 11t-12.5 27q0 17 15 31l80 73q27 26 55 26q27 0 46 -19.5t19 -44.5q0 -18 -11.5 -34t-35.5 -27l-106 -39q-9 -4 -20 -4z" />
    <glyph glyph-name="aeacute" unicode="&#x1fd;" horiz-adv-x="824" 
d="M781.5 151q16.5 -21 16.5 -55q0 -21 -11 -38t-29 -27q-33 -16 -81.5 -28t-85.5 -12q-133 0 -197 82q-25 -40 -67 -61t-96 -21q-60 0 -107.5 21t-74.5 58.5t-27 84.5q1 53 27.5 84.5t84.5 46t154 14.5h29v8q0 25 -13.5 36.5t-44.5 11.5q-27 0 -47.5 -4.5t-47.5 -12.5
q-15 -5 -30.5 -9t-29.5 -4q-26 0 -42.5 20.5t-16.5 54.5q0 43 39 65q34 19 86 29.5t106 10.5q106 0 156 -50q61 50 149 50q64 0 113.5 -31.5t77.5 -88t28 -129.5q0 -24 -11.5 -37.5t-31.5 -13.5h-240q7 -34 25.5 -49t53.5 -15q19 0 37.5 4t42.5 12q42 14 63 14
q26 0 42.5 -21zM514 300h113q-6 68 -51 68q-55 0 -62 -68zM300.5 149.5q16.5 21.5 16.5 50.5v9h-16q-82 0 -82 -40q0 -19 11.5 -30t30.5 -11q23 0 39.5 21.5zM417 554q-19 0 -32.5 13t-13.5 31q0 16 11 30l72 99q29 39 69 39q30 0 52.5 -21.5t22.5 -49.5q0 -34 -37 -60
l-113 -71q-14 -10 -31 -10z" />
    <glyph glyph-name="Oslashacute" unicode="&#x1fe;" horiz-adv-x="806" 
d="M736.5 511.5q28.5 -70.5 28.5 -158.5q0 -109 -44 -191.5t-125.5 -127t-191.5 -44.5q-59 0 -113 14l-10 -18q-17 -28 -38 -41.5t-44 -13.5q-29 0 -50 21t-21 53q0 28 17 58l7 13q-54 48 -82.5 119t-28.5 159q0 109 44.5 190.5t126.5 126t192 44.5q55 0 112 -13l9 16
q17 28 38.5 42t43.5 14q29 0 50 -21t21 -53q0 -27 -18 -59l-6 -11q54 -48 82.5 -118.5zM264 269l163 280q-14 2 -23 2q-70 0 -109.5 -49t-39.5 -149q0 -48 9 -84zM513.5 204q39.5 50 39.5 149q0 44 -10 86l-164 -283q16 -2 25 -2q70 0 109.5 50zM402 760q-17 0 -29.5 11
t-12.5 27q0 17 15 31l80 73q27 26 55 26q27 0 46 -19.5t19 -44.5q0 -18 -11.5 -34t-35.5 -27l-106 -39q-9 -4 -20 -4z" />
    <glyph glyph-name="oslashacute" unicode="&#x1ff;" horiz-adv-x="614" 
d="M563.5 371q26.5 -53 26.5 -121q0 -79 -35 -137.5t-99 -90t-149 -31.5q-44 0 -85 9l-17 -30q-9 -14 -22 -21.5t-27 -7.5q-21 0 -36.5 13.5t-15.5 33.5q0 15 8 28l14 25q-49 33 -75.5 86.5t-26.5 122.5q0 79 35 136.5t98.5 88.5t149.5 31q45 0 84 -9l18 31q9 14 22 21.5
t27 7.5q21 0 37 -13.5t16 -33.5q0 -13 -9 -28l-14 -25q49 -33 75.5 -86zM227 215l82 141h-2q-43 0 -62.5 -24.5t-19.5 -81.5q0 -15 2 -35zM369.5 168q20.5 25 20.5 82q0 15 -2 35l-83 -142h3q41 0 61.5 25zM310 554q-19 0 -32.5 13t-13.5 31q0 16 11 30l72 99q29 39 69 39
q30 0 52.5 -21.5t22.5 -49.5q0 -34 -37 -60l-113 -71q-14 -10 -31 -10z" />
    <glyph glyph-name="uni0200" unicode="&#x200;" horiz-adv-x="771" 
d="M764 90q0 -39 -31.5 -66t-70.5 -27q-26 0 -48.5 13.5t-35.5 42.5l-37 82h-308l-38 -82q-13 -28 -35.5 -42t-48.5 -14q-40 0 -72 27t-32 66q0 20 11 44l257 512q15 32 45 49t64 17q35 0 65.5 -17t46.5 -49l257 -512q11 -22 11 -44zM468 295l-81 179l-81 -179h162zM218 827
q-18 18 -18 39q0 24 21.5 42t46.5 18q15 0 28 -8.5t20 -25.5l30 -73q4 -9 4 -20q0 -17 -11 -28t-27 -11q-17 0 -33 15zM366 827q-18 18 -18 39q0 24 21.5 42t46.5 18q15 0 28 -8.5t20 -25.5l29 -73q5 -12 5 -20q0 -17 -11.5 -28t-27.5 -11q-18 0 -33 15z" />
    <glyph glyph-name="uni0201" unicode="&#x201;" horiz-adv-x="559" 
d="M460.5 449.5q57.5 -56.5 57.5 -173.5v-189q0 -44 -26 -69t-72 -25q-37 0 -62.5 20t-31.5 54q-12 -35 -43.5 -55.5t-77.5 -20.5q-52 0 -93.5 21t-65.5 58.5t-24 84.5q1 53 28 84.5t86 46t158 14.5h28v6q0 27 -13.5 38.5t-46.5 11.5q-37 0 -114 -25q-18 -5 -40 -5
q-29 0 -46 20.5t-17 54.5q0 25 9.5 40t29.5 25q35 18 90 29t109 11q120 0 177.5 -56.5zM303.5 148q18.5 20 18.5 54v7h-16q-87 0 -87 -40q0 -18 10.5 -29.5t26.5 -11.5q29 0 47.5 20zM116 674q-12 20 -12 40q0 25 18.5 41t42.5 16q23 0 41.5 -16t24.5 -47l17 -107q1 -3 1 -9
q0 -17 -12 -28.5t-28 -11.5q-10 0 -20.5 6t-16.5 17zM261 674q-11 19 -11 39q0 25 19 41.5t44 16.5q23 0 41.5 -16t24.5 -47l16 -107q1 -3 1 -10q0 -17 -11.5 -28t-27.5 -11q-24 0 -37 23z" />
    <glyph glyph-name="uni0202" unicode="&#x202;" horiz-adv-x="771" 
d="M764 90q0 -39 -31.5 -66t-70.5 -27q-26 0 -48.5 13.5t-35.5 42.5l-37 82h-308l-38 -82q-13 -28 -35.5 -42t-48.5 -14q-40 0 -72 27t-32 66q0 20 11 44l257 512q15 32 45 49t64 17q35 0 65.5 -17t46.5 -49l257 -512q11 -22 11 -44zM468 295l-81 179l-81 -179h162zM248 771
q-19 0 -31.5 11.5t-12.5 29.5q0 17 9 31q18 31 64.5 51.5t107.5 20.5t107 -20t64 -52q9 -16 9 -30q0 -18 -13 -30t-32 -12q-21 0 -40 16q-16 11 -42 17.5t-53 6.5t-53 -6.5t-43 -17.5q-19 -16 -41 -16z" />
    <glyph glyph-name="uni0203" unicode="&#x203;" horiz-adv-x="559" 
d="M460.5 449.5q57.5 -56.5 57.5 -173.5v-189q0 -44 -26 -69t-72 -25q-37 0 -62.5 20t-31.5 54q-12 -35 -43.5 -55.5t-77.5 -20.5q-52 0 -93.5 21t-65.5 58.5t-24 84.5q1 53 28 84.5t86 46t158 14.5h28v6q0 27 -13.5 38.5t-46.5 11.5q-37 0 -114 -25q-18 -5 -40 -5
q-29 0 -46 20.5t-17 54.5q0 25 9.5 40t29.5 25q35 18 90 29t109 11q120 0 177.5 -56.5zM303.5 148q18.5 20 18.5 54v7h-16q-87 0 -87 -40q0 -18 10.5 -29.5t26.5 -11.5q29 0 47.5 20zM146 575q-19 0 -33 13.5t-14 33.5q0 10 3 20q17 51 68 84t113 33t113 -33t68 -84
q3 -10 3 -19q0 -21 -14 -34.5t-33 -13.5q-25 0 -41 24q-37 46 -96 46q-58 0 -95 -46q-16 -24 -42 -24z" />
    <glyph glyph-name="uni0204" unicode="&#x204;" horiz-adv-x="602" 
d="M82 25q-25 25 -25 74v507q0 48 25 73.5t73 25.5h338q51 0 76.5 -21t25.5 -60q0 -83 -102 -83h-227v-100h207q51 0 76.5 -21t25.5 -62q0 -81 -102 -81h-207v-113h227q51 0 76.5 -21t25.5 -62q0 -39 -25.5 -60t-76.5 -21h-338q-48 0 -73 25zM169 827q-18 18 -18 39
q0 24 21.5 42t46.5 18q15 0 28 -8.5t20 -25.5l30 -73q4 -9 4 -20q0 -17 -11 -28t-27 -11q-17 0 -33 15zM317 827q-18 18 -18 39q0 24 21.5 42t46.5 18q15 0 28 -8.5t20 -25.5l29 -73q5 -12 5 -20q0 -17 -11.5 -28t-27.5 -11q-18 0 -33 15z" />
    <glyph glyph-name="uni0205" unicode="&#x205;" horiz-adv-x="537" 
d="M494.5 151q16.5 -21 16.5 -55q0 -21 -11 -38.5t-29 -26.5q-34 -16 -82 -28t-87 -12q-84 0 -147 31.5t-97 90t-34 136.5q0 74 32.5 132.5t90 91.5t129.5 33q70 0 124 -31t83.5 -87t29.5 -131q0 -25 -11.5 -38t-31.5 -13h-245q7 -35 25.5 -49.5t56.5 -14.5q26 0 51.5 7.5
t30.5 8.5q16 5 32.5 9.5t30.5 4.5q26 0 42.5 -21zM222 300h118q-6 68 -58 68t-60 -68zM109 674q-12 20 -12 40q0 25 18.5 41t42.5 16q23 0 41.5 -16t24.5 -47l17 -107q1 -3 1 -9q0 -17 -12 -28.5t-28 -11.5q-10 0 -20.5 6t-16.5 17zM254 674q-11 19 -11 39q0 25 19 41.5
t44 16.5q23 0 41.5 -16t24.5 -47l16 -107q1 -3 1 -10q0 -17 -11.5 -28t-27.5 -11q-24 0 -37 23z" />
    <glyph glyph-name="uni0206" unicode="&#x206;" horiz-adv-x="602" 
d="M82 25q-25 25 -25 74v507q0 48 25 73.5t73 25.5h338q51 0 76.5 -21t25.5 -60q0 -83 -102 -83h-227v-100h207q51 0 76.5 -21t25.5 -62q0 -81 -102 -81h-207v-113h227q51 0 76.5 -21t25.5 -62q0 -39 -25.5 -60t-76.5 -21h-338q-48 0 -73 25zM199 771q-19 0 -31.5 11.5
t-12.5 29.5q0 17 9 31q18 31 64.5 51.5t107.5 20.5t107 -20t64 -52q9 -16 9 -30q0 -18 -13 -30t-32 -12q-21 0 -40 16q-16 11 -42 17.5t-53 6.5t-53 -6.5t-43 -17.5q-19 -16 -41 -16z" />
    <glyph glyph-name="uni0207" unicode="&#x207;" horiz-adv-x="537" 
d="M494.5 151q16.5 -21 16.5 -55q0 -21 -11 -38.5t-29 -26.5q-34 -16 -82 -28t-87 -12q-84 0 -147 31.5t-97 90t-34 136.5q0 74 32.5 132.5t90 91.5t129.5 33q70 0 124 -31t83.5 -87t29.5 -131q0 -25 -11.5 -38t-31.5 -13h-245q7 -35 25.5 -49.5t56.5 -14.5q26 0 51.5 7.5
t30.5 8.5q16 5 32.5 9.5t30.5 4.5q26 0 42.5 -21zM222 300h118q-6 68 -58 68t-60 -68zM139 575q-19 0 -33 13.5t-14 33.5q0 10 3 20q17 51 68 84t113 33t113 -33t68 -84q3 -10 3 -19q0 -21 -14 -34.5t-33 -13.5q-25 0 -41 24q-37 46 -96 46q-58 0 -95 -46q-16 -24 -42 -24z
" />
    <glyph glyph-name="uni0208" unicode="&#x208;" horiz-adv-x="329" 
d="M86 21.5q-29 28.5 -29 77.5v507q0 47 29 75.5t78 28.5q50 0 79 -28t29 -76v-507q0 -49 -29 -77.5t-79 -28.5q-49 0 -78 28.5zM-3 827q-18 18 -18 39q0 24 21.5 42t46.5 18q15 0 28 -8.5t20 -25.5l30 -73q4 -9 4 -20q0 -17 -11 -28t-27 -11q-17 0 -33 15zM145 827
q-18 18 -18 39q0 24 21.5 42t46.5 18q15 0 28 -8.5t20 -25.5l29 -73q5 -12 5 -20q0 -17 -11.5 -28t-27.5 -11q-18 0 -33 15z" />
    <glyph glyph-name="uni0209" unicode="&#x209;" horiz-adv-x="297" 
d="M74 17.5q-30 24.5 -30 71.5v319q0 48 30 72t74 24t74 -24t30 -72v-319q0 -47 -30 -71.5t-74 -24.5t-74 24.5zM-19 674q-12 20 -12 40q0 25 18.5 41t42.5 16q23 0 41.5 -16t24.5 -47l17 -107q1 -3 1 -9q0 -17 -12 -28.5t-28 -11.5q-10 0 -20.5 6t-16.5 17zM126 674
q-11 19 -11 39q0 25 19 41.5t44 16.5q23 0 41.5 -16t24.5 -47l16 -107q1 -3 1 -10q0 -17 -11.5 -28t-27.5 -11q-24 0 -37 23z" />
    <glyph glyph-name="uni020A" unicode="&#x20a;" horiz-adv-x="329" 
d="M86 21.5q-29 28.5 -29 77.5v507q0 47 29 75.5t78 28.5q50 0 79 -28t29 -76v-507q0 -49 -29 -77.5t-79 -28.5q-49 0 -78 28.5zM27 771q-19 0 -31.5 11.5t-12.5 29.5q0 17 9 31q18 31 64.5 51.5t107.5 20.5t107 -20t64 -52q9 -16 9 -30q0 -18 -13 -30t-32 -12q-21 0 -40 16
q-16 11 -42 17.5t-53 6.5t-53 -6.5t-43 -17.5q-19 -16 -41 -16z" />
    <glyph glyph-name="uni020B" unicode="&#x20b;" horiz-adv-x="297" 
d="M74 17.5q-30 24.5 -30 71.5v319q0 48 30 72t74 24t74 -24t30 -72v-319q0 -47 -30 -71.5t-74 -24.5t-74 24.5zM11 575q-19 0 -33 13.5t-14 33.5q0 10 3 20q17 51 68 84t113 33t113 -33t68 -84q3 -10 3 -19q0 -21 -14 -34.5t-33 -13.5q-25 0 -41 24q-37 46 -96 46
q-58 0 -95 -46q-16 -24 -42 -24z" />
    <glyph glyph-name="uni020C" unicode="&#x20c;" horiz-adv-x="806" 
d="M211 35q-82 45 -126 127t-44 192q0 109 44.5 190.5t126.5 126t192 44.5t191.5 -44.5t125.5 -126.5t44 -191t-44 -191.5t-125.5 -127t-191.5 -44.5q-111 0 -193 45zM513.5 204q39.5 50 39.5 149q0 98 -40 148t-109 50q-70 0 -109.5 -49t-39.5 -149t39.5 -149.5
t109.5 -49.5t109.5 50zM236 827q-18 18 -18 39q0 24 21.5 42t46.5 18q15 0 28 -8.5t20 -25.5l30 -73q4 -9 4 -20q0 -17 -11 -28t-27 -11q-17 0 -33 15zM384 827q-18 18 -18 39q0 24 21.5 42t46.5 18q15 0 28 -8.5t20 -25.5l29 -73q5 -12 5 -20q0 -17 -11.5 -28t-27.5 -11
q-18 0 -33 15z" />
    <glyph glyph-name="uni020D" unicode="&#x20d;" horiz-adv-x="614" 
d="M158 22.5q-64 31.5 -99 90t-35 137.5t35 136.5t98.5 88.5t149.5 31t149.5 -31t98.5 -88.5t35 -136.5t-35 -137.5t-99 -90t-149 -31.5t-149 31.5zM366 169.5q19 24.5 19 80.5t-19 80t-59 24q-39 0 -58.5 -24t-19.5 -80q0 -55 20 -80t59 -25t58 24.5zM140 674
q-12 20 -12 40q0 25 18.5 41t42.5 16q23 0 41.5 -16t24.5 -47l17 -107q1 -3 1 -9q0 -17 -12 -28.5t-28 -11.5q-10 0 -20.5 6t-16.5 17zM285 674q-11 19 -11 39q0 25 19 41.5t44 16.5q23 0 41.5 -16t24.5 -47l16 -107q1 -3 1 -10q0 -17 -11.5 -28t-27.5 -11q-24 0 -37 23z
" />
    <glyph glyph-name="uni020E" unicode="&#x20e;" horiz-adv-x="806" 
d="M211 35q-82 45 -126 127t-44 192q0 109 44.5 190.5t126.5 126t192 44.5t191.5 -44.5t125.5 -126.5t44 -191t-44 -191.5t-125.5 -127t-191.5 -44.5q-111 0 -193 45zM513.5 204q39.5 50 39.5 149q0 98 -40 148t-109 50q-70 0 -109.5 -49t-39.5 -149t39.5 -149.5
t109.5 -49.5t109.5 50zM266 771q-19 0 -31.5 11.5t-12.5 29.5q0 17 9 31q18 31 64.5 51.5t107.5 20.5t107 -20t64 -52q9 -16 9 -30q0 -18 -13 -30t-32 -12q-21 0 -40 16q-16 11 -42 17.5t-53 6.5t-53 -6.5t-43 -17.5q-19 -16 -41 -16z" />
    <glyph glyph-name="uni020F" unicode="&#x20f;" horiz-adv-x="614" 
d="M158 22.5q-64 31.5 -99 90t-35 137.5t35 136.5t98.5 88.5t149.5 31t149.5 -31t98.5 -88.5t35 -136.5t-35 -137.5t-99 -90t-149 -31.5t-149 31.5zM366 169.5q19 24.5 19 80.5t-19 80t-59 24q-39 0 -58.5 -24t-19.5 -80q0 -55 20 -80t59 -25t58 24.5zM170 575
q-19 0 -33 13.5t-14 33.5q0 10 3 20q17 51 68 84t113 33t113 -33t68 -84q3 -10 3 -19q0 -21 -14 -34.5t-33 -13.5q-25 0 -41 24q-37 46 -96 46q-58 0 -95 -46q-16 -24 -42 -24z" />
    <glyph glyph-name="uni0210" unicode="&#x210;" horiz-adv-x="713" 
d="M688 79q0 -38 -31.5 -63t-72.5 -25q-27 0 -52 12.5t-42 37.5l-128 183q-25 30 -47 30h-46v-155q0 -48 -28 -77t-77 -29t-78 29t-29 77v507q0 48 25 73.5t73 25.5h252q132 0 197.5 -56.5t65.5 -164.5q0 -80 -43.5 -136t-122.5 -77q38 -4 65 -21t52 -51l46 -61
q21 -29 21 -59zM372 413q54 0 76.5 14.5t22.5 49.5q0 37 -22.5 52t-76.5 15h-106v-131h106zM195 827q-18 18 -18 39q0 24 21.5 42t46.5 18q15 0 28 -8.5t20 -25.5l30 -73q4 -9 4 -20q0 -17 -11 -28t-27 -11q-17 0 -33 15zM343 827q-18 18 -18 39q0 24 21.5 42t46.5 18
q15 0 28 -8.5t20 -25.5l29 -73q5 -12 5 -20q0 -17 -11.5 -28t-27.5 -11q-18 0 -33 15z" />
    <glyph glyph-name="uni0211" unicode="&#x211;" horiz-adv-x="440" 
d="M440 485.5q23 -21.5 23 -63.5q0 -46 -21.5 -67t-77.5 -27l-30 -3q-46 -5 -64 -26t-18 -62v-148q0 -47 -30 -71.5t-74 -24.5t-74 24.5t-30 71.5v322q0 44 30.5 68.5t72.5 24.5q43 0 69 -23t26 -65v-6q16 43 50.5 67t71.5 26l14 1q39 3 62 -18.5zM82 674q-12 20 -12 40
q0 25 18.5 41t42.5 16q23 0 41.5 -16t24.5 -47l17 -107q1 -3 1 -9q0 -17 -12 -28.5t-28 -11.5q-10 0 -20.5 6t-16.5 17zM227 674q-11 19 -11 39q0 25 19 41.5t44 16.5q23 0 41.5 -16t24.5 -47l16 -107q1 -3 1 -10q0 -17 -11.5 -28t-27.5 -11q-24 0 -37 23z" />
    <glyph glyph-name="uni0212" unicode="&#x212;" horiz-adv-x="713" 
d="M688 79q0 -38 -31.5 -63t-72.5 -25q-27 0 -52 12.5t-42 37.5l-128 183q-25 30 -47 30h-46v-155q0 -48 -28 -77t-77 -29t-78 29t-29 77v507q0 48 25 73.5t73 25.5h252q132 0 197.5 -56.5t65.5 -164.5q0 -80 -43.5 -136t-122.5 -77q38 -4 65 -21t52 -51l46 -61
q21 -29 21 -59zM372 413q54 0 76.5 14.5t22.5 49.5q0 37 -22.5 52t-76.5 15h-106v-131h106zM225 771q-19 0 -31.5 11.5t-12.5 29.5q0 17 9 31q18 31 64.5 51.5t107.5 20.5t107 -20t64 -52q9 -16 9 -30q0 -18 -13 -30t-32 -12q-21 0 -40 16q-16 11 -42 17.5t-53 6.5t-53 -6.5
t-43 -17.5q-19 -16 -41 -16z" />
    <glyph glyph-name="uni0213" unicode="&#x213;" horiz-adv-x="440" 
d="M440 485.5q23 -21.5 23 -63.5q0 -46 -21.5 -67t-77.5 -27l-30 -3q-46 -5 -64 -26t-18 -62v-148q0 -47 -30 -71.5t-74 -24.5t-74 24.5t-30 71.5v322q0 44 30.5 68.5t72.5 24.5q43 0 69 -23t26 -65v-6q16 43 50.5 67t71.5 26l14 1q39 3 62 -18.5zM112 575q-19 0 -33 13.5
t-14 33.5q0 10 3 20q17 51 68 84t113 33t113 -33t68 -84q3 -10 3 -19q0 -21 -14 -34.5t-33 -13.5q-25 0 -41 24q-37 46 -96 46q-58 0 -95 -46q-16 -24 -42 -24z" />
    <glyph glyph-name="uni0214" unicode="&#x214;" horiz-adv-x="751" 
d="M135 70q-82 80 -82 233v303q0 47 28.5 75.5t77.5 28.5q48 0 76.5 -28.5t28.5 -75.5v-310q0 -68 29 -105t83 -37q52 0 81.5 37.5t29.5 104.5v310q0 47 28.5 75.5t76.5 28.5q49 0 77.5 -28.5t28.5 -75.5v-303q0 -151 -83 -232t-239 -81q-159 0 -241 80zM209 827
q-18 18 -18 39q0 24 21.5 42t46.5 18q15 0 28 -8.5t20 -25.5l30 -73q4 -9 4 -20q0 -17 -11 -28t-27 -11q-17 0 -33 15zM357 827q-18 18 -18 39q0 24 21.5 42t46.5 18q15 0 28 -8.5t20 -25.5l29 -73q5 -12 5 -20q0 -17 -11.5 -28t-27.5 -11q-18 0 -33 15z" />
    <glyph glyph-name="uni0215" unicode="&#x215;" horiz-adv-x="612" 
d="M539.5 478q28.5 -26 28.5 -70v-322q0 -41 -30 -67t-76 -26q-37 0 -62.5 18.5t-32.5 50.5q-49 -71 -136 -71q-97 0 -143.5 54t-46.5 165v198q0 44 28 70t76 26t76 -26t28 -70v-204q0 -55 47 -55q28 0 46 21.5t18 55.5v182q0 44 28 70t76 26q47 0 75.5 -26zM138 674
q-12 20 -12 40q0 25 18.5 41t42.5 16q23 0 41.5 -16t24.5 -47l17 -107q1 -3 1 -9q0 -17 -12 -28.5t-28 -11.5q-10 0 -20.5 6t-16.5 17zM283 674q-11 19 -11 39q0 25 19 41.5t44 16.5q23 0 41.5 -16t24.5 -47l16 -107q1 -3 1 -10q0 -17 -11.5 -28t-27.5 -11q-24 0 -37 23z
" />
    <glyph glyph-name="uni0216" unicode="&#x216;" horiz-adv-x="751" 
d="M135 70q-82 80 -82 233v303q0 47 28.5 75.5t77.5 28.5q48 0 76.5 -28.5t28.5 -75.5v-310q0 -68 29 -105t83 -37q52 0 81.5 37.5t29.5 104.5v310q0 47 28.5 75.5t76.5 28.5q49 0 77.5 -28.5t28.5 -75.5v-303q0 -151 -83 -232t-239 -81q-159 0 -241 80zM239 771
q-19 0 -31.5 11.5t-12.5 29.5q0 17 9 31q18 31 64.5 51.5t107.5 20.5t107 -20t64 -52q9 -16 9 -30q0 -18 -13 -30t-32 -12q-21 0 -40 16q-16 11 -42 17.5t-53 6.5t-53 -6.5t-43 -17.5q-19 -16 -41 -16z" />
    <glyph glyph-name="uni0217" unicode="&#x217;" horiz-adv-x="612" 
d="M539.5 478q28.5 -26 28.5 -70v-322q0 -41 -30 -67t-76 -26q-37 0 -62.5 18.5t-32.5 50.5q-49 -71 -136 -71q-97 0 -143.5 54t-46.5 165v198q0 44 28 70t76 26t76 -26t28 -70v-204q0 -55 47 -55q28 0 46 21.5t18 55.5v182q0 44 28 70t76 26q47 0 75.5 -26zM168 575
q-19 0 -33 13.5t-14 33.5q0 10 3 20q17 51 68 84t113 33t113 -33t68 -84q3 -10 3 -19q0 -21 -14 -34.5t-33 -13.5q-25 0 -41 24q-37 46 -96 46q-58 0 -95 -46q-16 -24 -42 -24z" />
    <glyph glyph-name="Scommaaccent" unicode="&#x218;" horiz-adv-x="678" 
d="M184.5 6q-68.5 16 -113.5 45q-20 14 -28.5 30.5t-8.5 42.5q0 34 20.5 60t48.5 26q15 0 28 -4.5t36 -17.5q38 -19 75 -26.5t86 -7.5q50 0 76 13t26 37q0 16 -24 30t-101 29q-106 21 -162 52.5t-75.5 70.5t-19.5 94q0 66 40 119.5t109 84.5t154 31q73 0 129 -14.5
t106 -46.5q21 -15 29.5 -31.5t8.5 -41.5q0 -35 -20.5 -60.5t-48.5 -25.5q-14 0 -26.5 4.5t-36.5 17.5q-7 1 -20 8q-26 11 -53.5 18.5t-66.5 7.5q-41 0 -67 -15t-26 -38q0 -13 8 -21.5t36.5 -19t88.5 -22.5q102 -21 156.5 -53t73.5 -71t19 -91q0 -68 -38.5 -120.5t-108 -81
t-160.5 -28.5q-81 0 -149.5 16zM400 -83.5q26 -25.5 26 -74.5q0 -32 -10 -58.5t-23 -42.5q-18 -21 -46 -21q-17 0 -28.5 8t-11.5 21q0 10 8 21q12 21 16 33h-5q-33 0 -55.5 17t-22.5 47q0 34 23.5 54.5t59.5 20.5q43 0 69 -25.5z" />
    <glyph glyph-name="scommaaccent" unicode="&#x219;" horiz-adv-x="494" 
d="M128.5 1q-47.5 10 -84.5 32q-13 7 -21 25.5t-8 41.5q0 32 16.5 52t42.5 20q18 0 32 -3t34 -10q27 -10 52.5 -15t62.5 -5q19 0 30.5 4t11.5 11t-6.5 11t-31 9.5t-64.5 12.5q-89 16 -128.5 51.5t-39.5 99.5q0 47 30 85.5t82 60.5t117 22q47 0 91 -11t79 -32q29 -17 29 -61
q0 -33 -16.5 -54.5t-42.5 -21.5q-19 0 -33.5 4t-36.5 12q-22 9 -38.5 13.5t-38.5 4.5q-37 0 -37 -14q0 -12 18.5 -19t72.5 -15q97 -17 137.5 -52t40.5 -102q0 -76 -63 -121.5t-170 -45.5q-72 0 -119.5 10zM314 -83.5q26 -25.5 26 -74.5q0 -32 -10 -58.5t-23 -42.5
q-18 -21 -46 -21q-17 0 -28.5 8t-11.5 21q0 10 8 21q12 21 16 33h-5q-33 0 -55.5 17t-22.5 47q0 34 23.5 54.5t59.5 20.5q43 0 69 -25.5z" />
    <glyph glyph-name="uni021A" unicode="&#x21a;" horiz-adv-x="642" 
d="M242.5 23.5q-29.5 28.5 -29.5 75.5v433h-119q-52 0 -77 21t-25 66q0 44 25 65t77 21h454q52 0 77 -21t25 -65q0 -45 -24.5 -66t-77.5 -21h-118v-433q0 -47 -30 -75.5t-79 -28.5t-78.5 28.5zM387 -83.5q26 -25.5 26 -74.5q0 -32 -10 -58.5t-23 -42.5q-18 -21 -46 -21
q-17 0 -28.5 8t-11.5 21q0 10 8 21q12 21 16 33h-5q-33 0 -55.5 17t-22.5 47q0 34 23.5 54.5t59.5 20.5q43 0 69 -25.5z" />
    <glyph glyph-name="uni021B" unicode="&#x21b;" horiz-adv-x="425" 
d="M414 121q19 -17 19 -50q0 -41 -31.5 -60.5t-89.5 -15.5l-28 2q-94 7 -142.5 56t-48.5 134v155h-17q-94 0 -94 76t94 76h17v50q0 44 28 70t76 26q49 0 76.5 -26t27.5 -70v-50h37q94 0 94 -76t-94 -76h-37v-172q0 -8 8 -17.5t18 -10.5l29 -2q39 -2 58 -19zM329 -83.5
q26 -25.5 26 -74.5q0 -32 -10 -58.5t-23 -42.5q-18 -21 -46 -21q-17 0 -28.5 8t-11.5 21q0 10 8 21q12 21 16 33h-5q-33 0 -55.5 17t-22.5 47q0 34 23.5 54.5t59.5 20.5q43 0 69 -25.5z" />
    <glyph glyph-name="uni021F" unicode="&#x21f;" horiz-adv-x="617" 
d="M534.5 452q41.5 -54 41.5 -165v-198q0 -44 -28 -70t-76 -26t-76 26t-28 70v205q0 54 -46 54q-32 0 -51 -21t-19 -55v-183q0 -44 -28 -70t-76 -26t-76 26t-28 70v528q0 41 29.5 67t77.5 26q46 0 73.5 -24t27.5 -64v-184q57 68 156 68q85 0 126.5 -54zM258 751l-74 57
q-22 18 -22 40q0 19 15.5 33t36.5 14q23 0 41 -17l62 -54l61 54q18 17 41 17q21 0 36.5 -14.5t15.5 -34.5q0 -21 -21 -38l-75 -57q-27 -21 -58 -21q-32 0 -59 21z" />
    <glyph glyph-name="uni0227" unicode="&#x227;" horiz-adv-x="559" 
d="M460.5 449.5q57.5 -56.5 57.5 -173.5v-189q0 -44 -26 -69t-72 -25q-37 0 -62.5 20t-31.5 54q-12 -35 -43.5 -55.5t-77.5 -20.5q-52 0 -93.5 21t-65.5 58.5t-24 84.5q1 53 28 84.5t86 46t158 14.5h28v6q0 27 -13.5 38.5t-46.5 11.5q-37 0 -114 -25q-18 -5 -40 -5
q-29 0 -46 20.5t-17 54.5q0 25 9.5 40t29.5 25q35 18 90 29t109 11q120 0 177.5 -56.5zM303.5 148q18.5 20 18.5 54v7h-16q-87 0 -87 -40q0 -18 10.5 -29.5t26.5 -11.5q29 0 47.5 20zM209.5 597q-27.5 24 -27.5 64t27 63t74 23q45 0 73 -23.5t28 -62.5q0 -40 -27.5 -64
t-73.5 -24t-73.5 24z" />
    <glyph glyph-name="uni0228" unicode="&#x228;" horiz-adv-x="602" 
d="M82 25q-25 25 -25 74v507q0 48 25 73.5t73 25.5h338q51 0 76.5 -21t25.5 -60q0 -83 -102 -83h-227v-100h207q51 0 76.5 -21t25.5 -62q0 -81 -102 -81h-207v-113h227q51 0 76.5 -21t25.5 -62q0 -39 -25.5 -60t-76.5 -21h-338q-48 0 -73 25zM436.5 -58.5
q21.5 -19.5 21.5 -49.5q0 -41 -36.5 -66t-105.5 -25q-45 0 -71 9q-23 7 -23 33q0 16 9 27.5t23 8.5q24 -8 56 -8q19 0 30 4t11 17q0 7 -6 11.5t-16 4.5q-7 0 -20 -2.5t-20 -2.5q-10 0 -16 5.5t-4 14.5l13 97h92l-10 -60q7 1 20 1q31 0 52.5 -19.5z" />
    <glyph glyph-name="uni022A" unicode="&#x22a;" horiz-adv-x="806" 
d="M211 35q-82 45 -126 127t-44 192q0 109 44.5 190.5t126.5 126t192 44.5t191.5 -44.5t125.5 -126.5t44 -191t-44 -191.5t-125.5 -127t-191.5 -44.5q-111 0 -193 45zM513.5 204q39.5 50 39.5 149q0 98 -40 148t-109 50q-70 0 -109.5 -49t-39.5 -149t39.5 -149.5
t109.5 -49.5t109.5 50zM241.5 785.5q-23.5 22.5 -23.5 60.5q0 36 23.5 57.5t61.5 21.5q39 0 63 -21.5t24 -57.5q0 -38 -24 -60.5t-63 -22.5q-38 0 -61.5 22.5zM440.5 785.5q-23.5 22.5 -23.5 60.5q0 36 23.5 57.5t63.5 21.5q37 0 61 -21.5t24 -57.5q0 -38 -23.5 -60.5
t-61.5 -22.5q-40 0 -63.5 22.5zM241.5 963q-16.5 15 -16.5 41q0 25 16.5 39.5t40.5 14.5h242q24 0 40 -14.5t16 -39.5q0 -26 -16 -41t-40 -15h-242q-24 0 -40.5 15z" />
    <glyph glyph-name="uni022B" unicode="&#x22b;" horiz-adv-x="614" 
d="M158 22.5q-64 31.5 -99 90t-35 137.5t35 136.5t98.5 88.5t149.5 31t149.5 -31t98.5 -88.5t35 -136.5t-35 -137.5t-99 -90t-149 -31.5t-149 31.5zM366 169.5q19 24.5 19 80.5t-19 80t-59 24q-39 0 -58.5 -24t-19.5 -80q0 -55 20 -80t59 -25t58 24.5zM145.5 600.5
q-23.5 22.5 -23.5 60.5q0 37 23.5 59t61.5 22q39 0 63 -22t24 -59q0 -38 -24 -60.5t-63 -22.5q-38 0 -61.5 22.5zM344.5 600.5q-23.5 22.5 -23.5 60.5q0 37 23.5 59t63.5 22q37 0 61 -22t24 -59q0 -38 -23.5 -60.5t-61.5 -22.5q-40 0 -63.5 22.5zM145.5 808.5
q-16.5 14.5 -16.5 39.5q0 26 16 40t41 14h242q24 0 40 -14t16 -40q0 -25 -16 -39.5t-40 -14.5h-242q-24 0 -40.5 14.5z" />
    <glyph glyph-name="uni022C" unicode="&#x22c;" horiz-adv-x="806" 
d="M211 35q-82 45 -126 127t-44 192q0 109 44.5 190.5t126.5 126t192 44.5t191.5 -44.5t125.5 -126.5t44 -191t-44 -191.5t-125.5 -127t-191.5 -44.5q-111 0 -193 45zM513.5 204q39.5 50 39.5 149q0 98 -40 148t-109 50q-70 0 -109.5 -49t-39.5 -149t39.5 -149.5
t109.5 -49.5t109.5 50zM403 789q-50 12 -75 12q-9 0 -15 -3t-14 -10q-9 -8 -16.5 -12t-20.5 -4q-17 0 -26.5 10.5t-9.5 28.5q0 22 13.5 46t36.5 40t51 16q30 0 76 -13q50 -12 75 -12q15 0 30 13q17 15 36 15q36 0 36 -38q0 -22 -13.5 -46t-36.5 -40t-50 -16q-29 0 -77 13z
M241.5 963q-16.5 15 -16.5 41q0 25 16.5 39.5t40.5 14.5h242q24 0 40 -14.5t16 -39.5q0 -26 -16 -41t-40 -15h-242q-24 0 -40.5 15z" />
    <glyph glyph-name="uni022D" unicode="&#x22d;" horiz-adv-x="614" 
d="M158 22.5q-64 31.5 -99 90t-35 137.5t35 136.5t98.5 88.5t149.5 31t149.5 -31t98.5 -88.5t35 -136.5t-35 -137.5t-99 -90t-149 -31.5t-149 31.5zM366 169.5q19 24.5 19 80.5t-19 80t-59 24q-39 0 -58.5 -24t-19.5 -80q0 -55 20 -80t59 -25t58 24.5zM348.5 585
q-17.5 7 -46.5 21q-38 22 -58 22q-15 0 -24 -7t-19 -20q-10 -12 -18 -18t-20 -6q-15 0 -24 12.5t-9 33.5q0 22 13.5 50t37 47.5t50.5 19.5q19 0 37 -7t43 -20q40 -22 59 -22q15 0 24.5 6.5t19.5 19.5q10 12 17.5 17.5t19.5 5.5q16 0 24.5 -11.5t8.5 -32.5q0 -23 -13.5 -51
t-36.5 -47.5t-50 -19.5q-18 0 -35.5 7zM145.5 808.5q-16.5 14.5 -16.5 39.5q0 26 16 40t41 14h242q24 0 40 -14t16 -40q0 -25 -16 -39.5t-40 -14.5h-242q-24 0 -40.5 14.5z" />
    <glyph glyph-name="uni0230" unicode="&#x230;" horiz-adv-x="806" 
d="M211 35q-82 45 -126 127t-44 192q0 109 44.5 190.5t126.5 126t192 44.5t191.5 -44.5t125.5 -126.5t44 -191t-44 -191.5t-125.5 -127t-191.5 -44.5q-111 0 -193 45zM513.5 204q39.5 50 39.5 149q0 98 -40 148t-109 50q-70 0 -109.5 -49t-39.5 -149t39.5 -149.5
t109.5 -49.5t109.5 50zM329.5 780.5q-27.5 24.5 -27.5 65.5q0 39 27.5 62.5t73.5 23.5q45 0 73 -23.5t28 -62.5q0 -41 -27.5 -65.5t-73.5 -24.5t-73.5 24.5zM241.5 963q-16.5 15 -16.5 41q0 25 16.5 39.5t40.5 14.5h242q24 0 40 -14.5t16 -39.5q0 -26 -16 -41t-40 -15h-242
q-24 0 -40.5 15z" />
    <glyph glyph-name="uni0231" unicode="&#x231;" horiz-adv-x="614" 
d="M158 22.5q-64 31.5 -99 90t-35 137.5t35 136.5t98.5 88.5t149.5 31t149.5 -31t98.5 -88.5t35 -136.5t-35 -137.5t-99 -90t-149 -31.5t-149 31.5zM366 169.5q19 24.5 19 80.5t-19 80t-59 24q-39 0 -58.5 -24t-19.5 -80q0 -55 20 -80t59 -25t58 24.5zM233.5 597
q-27.5 24 -27.5 64t27 63t74 23q45 0 73 -23.5t28 -62.5q0 -40 -27.5 -64t-73.5 -24t-73.5 24zM145.5 808.5q-16.5 14.5 -16.5 39.5q0 26 16 40t41 14h242q24 0 40 -14t16 -40q0 -25 -16 -39.5t-40 -14.5h-242q-24 0 -40.5 14.5z" />
    <glyph glyph-name="uni0232" unicode="&#x232;" horiz-adv-x="666" 
d="M565 712q39 0 70 -30t31 -69q0 -34 -26 -64l-199 -223v-227q0 -52 -30.5 -79t-76.5 -27q-48 0 -78.5 27t-30.5 79v227l-197 223q-27 30 -27 65q0 39 30.5 68.5t69.5 29.5t70 -35l162 -187l161 187q31 35 71 35zM170.5 803q-16.5 15 -16.5 41q0 25 16.5 39.5t40.5 14.5
h242q24 0 40 -14.5t16 -39.5q0 -26 -16 -41t-40 -15h-242q-24 0 -40.5 15z" />
    <glyph glyph-name="uni0233" unicode="&#x233;" horiz-adv-x="549" 
d="M402 488.5q22 13.5 48 13.5q39 0 69.5 -25.5t30.5 -61.5q0 -19 -10 -38l-259 -507q-14 -29 -37.5 -43.5t-49.5 -14.5q-39 0 -68.5 25t-29.5 61q0 21 10 41l63 123l-160 315q-9 20 -9 37q0 37 32.5 63t72.5 26q28 0 51.5 -14.5t37.5 -43.5l88 -185l85 186q13 29 35 42.5z
M113.5 619.5q-16.5 14.5 -16.5 39.5q0 26 16 40t41 14h242q24 0 40 -14t16 -40q0 -25 -16 -39.5t-40 -14.5h-242q-24 0 -40.5 14.5z" />
    <glyph glyph-name="uni0237" unicode="&#x237;" horiz-adv-x="297" 
d="M15 -183q-47 0 -75 19.5t-28 57.5q0 34 19 51t58 19l29 2q10 1 18 10.5t8 17.5v414q0 48 30 72t74 24t74 -24t30 -72v-397q0 -83 -47.5 -133.5t-143.5 -57.5l-28 -2z" />
    <glyph glyph-name="uni0259" unicode="&#x259;" horiz-adv-x="537" 
d="M384.5 474.5q61.5 -31.5 95 -90t33.5 -135.5q0 -72 -32 -131t-87 -93t-122 -34q-116 0 -182 66t-66 183q0 25 11.5 38.5t31.5 13.5h249q-7 35 -27 49.5t-58 14.5q-19 0 -36 -4t-42 -12q-16 -5 -33 -9.5t-31 -4.5q-26 0 -42.5 20.5t-16.5 54.5q0 22 10.5 39t29.5 26
q35 17 82.5 28.5t89.5 11.5q81 0 142.5 -31.5zM319 197h-117q6 -67 59 -67q49 0 58 67z" />
    <glyph glyph-name="uni0292" unicode="&#x292;" horiz-adv-x="575" 
d="M85.5 -132.5q-9.5 17.5 -9.5 36.5q0 30 20.5 53.5t49.5 23.5q20 0 38 -11q38 -19 73 -19q40 0 65.5 23t25.5 60q0 20 -5 34t-27 23.5t-67 9.5q-3 0 -5 1q-40 1 -64.5 22.5t-24.5 52.5q0 37 34 70l111 95h-169q-38 0 -62 21t-24 55t24 55t62 21h324q33 0 54 -24.5
t21 -57.5q0 -37 -27 -63l-131 -113q9 -1 12 -3q167 -17 167 -195q0 -69 -41 -124t-107.5 -85.5t-139.5 -30.5q-82 0 -149 40q-19 12 -28.5 29.5z" />
    <glyph glyph-name="uni02BB" unicode="&#x2bb;" horiz-adv-x="331" 
d="M228.5 703.5q22.5 -16.5 22.5 -46.5q0 -35 -23.5 -56t-59.5 -21q-43 0 -69 25.5t-26 74.5q0 32 10 58.5t23 42.5q19 22 47 22q16 0 27.5 -8t11.5 -21q0 -11 -8 -22q-11 -18 -16 -32h5q33 0 55.5 -16.5z" />
    <glyph glyph-name="uni02BC" unicode="&#x2bc;" horiz-adv-x="331" 
d="M225 737.5q26 -25.5 26 -74.5q0 -32 -10 -58.5t-23 -42.5q-19 -22 -46 -22q-17 0 -28.5 8t-11.5 21q0 11 8 22q12 21 16 33h-7q-31 0 -53.5 17t-22.5 47q0 34 23.5 54.5t59.5 20.5q43 0 69 -25.5z" />
    <glyph glyph-name="uni02BE" unicode="&#x2be;" horiz-adv-x="305" 
d="M150 617q18 0 29.5 12.5t11.5 30.5q0 19 -11.5 31t-29.5 12v68q47 0 80 -32t33 -79t-33 -79t-80 -32v68z" />
    <glyph glyph-name="uni02BF" unicode="&#x2bf;" horiz-adv-x="305" 
d="M75 581q-33 32 -33 79t33 79t80 32v-68q-18 0 -29.5 -12t-11.5 -31q0 -18 11.5 -30.5t29.5 -12.5v-68q-47 0 -80 32z" />
    <glyph glyph-name="circumflex" unicode="&#x2c6;" horiz-adv-x="320" 
d="M54 552q-21 0 -37.5 15t-16.5 36q0 18 13 34l80 94q16 19 31 28t36 9q22 0 36.5 -8.5t30.5 -30.5l80 -92q14 -17 14 -34q0 -21 -16.5 -36t-37.5 -15q-29 0 -47 27l-60 81l-59 -81q-18 -27 -47 -27z" />
    <glyph glyph-name="caron" unicode="&#x2c7;" horiz-adv-x="319" 
d="M124 559.5q-14 8.5 -32 29.5l-79 94q-14 15 -14 34q0 21 16.5 36t38.5 15q28 0 46 -26l60 -84l60 84q18 26 45 26q22 0 38.5 -15t16.5 -36q0 -18 -13 -34l-80 -95q-17 -19 -31.5 -28t-35.5 -9q-22 0 -36 8.5z" />
    <glyph glyph-name="uni02C8" unicode="&#x2c8;" horiz-adv-x="320" 
d="M120.5 567.5q-14.5 16.5 -14.5 40.5v103q0 25 14.5 41t39.5 16q26 0 40 -15.5t14 -41.5v-103q0 -25 -14 -41t-40 -16q-25 0 -39.5 16.5z" />
    <glyph glyph-name="uni02C9" unicode="&#x2c9;" horiz-adv-x="317" 
d="M-2.5 617.5q-16.5 14.5 -16.5 39.5q0 26 16 40t41 14h242q24 0 40 -14t16 -40q0 -25 -16 -39.5t-40 -14.5h-242q-24 0 -40.5 14.5z" />
    <glyph glyph-name="uni02CA" unicode="&#x2ca;" horiz-adv-x="311" 
d="M162 552q-19 0 -32.5 13t-13.5 31q0 16 11 30l72 99q29 39 69 39q30 0 52.5 -21.5t22.5 -49.5q0 -34 -37 -60l-113 -71q-14 -10 -31 -10z" />
    <glyph glyph-name="uni02CB" unicode="&#x2cb;" horiz-adv-x="311" 
d="M5 633q-37 25 -37 61q0 28 22 49t52 21q41 0 70 -39l72 -99q10 -14 10 -29q0 -19 -13.5 -32.5t-31.5 -13.5q-15 0 -31 11z" />
    <glyph glyph-name="uni02CC" unicode="&#x2cc;" horiz-adv-x="320" 
d="M120.5 -259q-14.5 16 -14.5 41v103q0 25 14.5 41t39.5 16q26 0 40 -16t14 -41v-103q0 -26 -14 -41.5t-40 -15.5q-25 0 -39.5 16z" />
    <glyph glyph-name="breve" unicode="&#x2d8;" horiz-adv-x="322" 
d="M48 602.5q-51 33.5 -68 83.5q-3 11 -3 19q0 21 14 34.5t33 13.5q26 0 42 -24q37 -46 95 -46q59 0 96 46q16 24 41 24q19 0 33 -13.5t14 -33.5q0 -9 -3 -20q-18 -50 -68.5 -83.5t-112.5 -33.5t-113 33.5z" />
    <glyph glyph-name="dotaccent" unicode="&#x2d9;" horiz-adv-x="340" 
d="M96.5 595q-27.5 24 -27.5 64t27 63t74 23q45 0 73 -23.5t28 -62.5q0 -40 -27.5 -64t-73.5 -24t-73.5 24z" />
    <glyph glyph-name="ring" unicode="&#x2da;" horiz-adv-x="310" 
d="M75 581q-33 32 -33 79t33 79t80 32t80 -32t33 -79t-33 -79t-80 -32t-80 32zM184.5 629.5q11.5 12.5 11.5 30.5q0 19 -11 31t-30 12q-18 0 -29.5 -12t-11.5 -31q0 -18 11.5 -30.5t29.5 -12.5t29.5 12.5z" />
    <glyph glyph-name="ogonek" unicode="&#x2db;" horiz-adv-x="317" 
d="M24 -168q-38 31 -38 82t40.5 87.5t116.5 45.5l18 -37q-31 -11 -47 -27.5t-16 -41.5q0 -24 14 -37t34 -13q22 0 48 7q16 4 27 -7.5t11 -29.5q0 -23 -19 -35q-43 -25 -94 -25q-57 0 -95 31z" />
    <glyph glyph-name="tilde" unicode="&#x2dc;" horiz-adv-x="316" 
d="M199.5 583q-17.5 7 -46.5 21q-38 22 -58 22q-15 0 -24 -7t-19 -20q-10 -12 -18 -18t-20 -6q-15 0 -24 12.5t-9 33.5q0 22 13.5 50t37 47.5t50.5 19.5q19 0 37 -7t43 -20q40 -22 59 -22q15 0 24.5 6.5t19.5 19.5q10 12 17.5 17.5t19.5 5.5q16 0 24.5 -11.5t8.5 -32.5
q0 -23 -13.5 -51t-36.5 -47.5t-50 -19.5q-18 0 -35.5 7z" />
    <glyph glyph-name="hungarumlaut" unicode="&#x2dd;" horiz-adv-x="323" 
d="M90 550q-16 0 -28 11t-12 28q0 7 1 10l17 107q6 31 24.5 47t42.5 16q25 0 43.5 -16.5t18.5 -41.5q0 -20 -11 -39l-59 -99q-13 -23 -37 -23zM258.5 556q-10.5 -6 -21.5 -6q-16 0 -27.5 11t-11.5 28q0 7 1 10l16 107q6 31 24.5 47t42.5 16t42.5 -16t18.5 -41q0 -20 -12 -40
l-56 -99q-6 -11 -16.5 -17z" />
    <glyph glyph-name="gravecomb" unicode="&#x300;" horiz-adv-x="0" 
d="M-306 633q-37 25 -37 61q0 28 22 49t52 21q41 0 70 -39l72 -99q10 -14 10 -29q0 -19 -13.5 -32.5t-31.5 -13.5q-15 0 -31 11z" />
    <glyph glyph-name="acutecomb" unicode="&#x301;" horiz-adv-x="0" 
d="M-149 552q-19 0 -32.5 13t-13.5 31q0 16 11 30l72 99q29 39 69 39q30 0 52.5 -21.5t22.5 -49.5q0 -34 -37 -60l-113 -71q-14 -10 -31 -10z" />
    <glyph glyph-name="uni0302" unicode="&#x302;" horiz-adv-x="0" 
d="M-266 552q-21 0 -37.5 15t-16.5 36q0 18 13 34l80 94q16 19 31 28t36 9q22 0 36.5 -8.5t30.5 -30.5l80 -92q14 -17 14 -34q0 -21 -16.5 -36t-37.5 -15q-29 0 -47 27l-60 81l-59 -81q-18 -27 -47 -27z" />
    <glyph glyph-name="tildecomb" unicode="&#x303;" horiz-adv-x="0" 
d="M-116.5 583q-17.5 7 -46.5 21q-38 22 -58 22q-15 0 -24 -7t-19 -20q-10 -12 -18 -18t-20 -6q-15 0 -24 12.5t-9 33.5q0 22 13.5 50t37 47.5t50.5 19.5q19 0 37 -7t43 -20q40 -22 59 -22q15 0 24.5 6.5t19.5 19.5q10 12 17.5 17.5t19.5 5.5q16 0 24.5 -11.5t8.5 -32.5
q0 -23 -13.5 -51t-36.5 -47.5t-50 -19.5q-18 0 -35.5 7z" />
    <glyph glyph-name="uni0304" unicode="&#x304;" horiz-adv-x="0" 
d="M-319.5 617.5q-16.5 14.5 -16.5 39.5q0 26 16 40t41 14h242q24 0 40 -14t16 -40q0 -25 -16 -39.5t-40 -14.5h-242q-24 0 -40.5 14.5z" />
    <glyph glyph-name="uni0306" unicode="&#x306;" horiz-adv-x="0" 
d="M-274 602.5q-51 33.5 -68 83.5q-3 11 -3 19q0 21 14 34.5t33 13.5q26 0 42 -24q37 -46 95 -46q59 0 96 46q16 24 41 24q19 0 33 -13.5t14 -33.5q0 -9 -3 -20q-18 -50 -68.5 -83.5t-112.5 -33.5t-113 33.5z" />
    <glyph glyph-name="uni0307" unicode="&#x307;" horiz-adv-x="0" 
d="M-243.5 595q-27.5 24 -27.5 64t27 63t74 23q45 0 73 -23.5t28 -62.5q0 -40 -27.5 -64t-73.5 -24t-73.5 24z" />
    <glyph glyph-name="uni0308" unicode="&#x308;" horiz-adv-x="0" 
d="M-333.5 598.5q-23.5 22.5 -23.5 60.5q0 37 23.5 59t61.5 22q39 0 63 -22t24 -59q0 -38 -24 -60.5t-63 -22.5q-38 0 -61.5 22.5zM-134.5 598.5q-23.5 22.5 -23.5 60.5q0 37 23.5 59t63.5 22q37 0 61 -22t24 -59q0 -38 -23.5 -60.5t-61.5 -22.5q-40 0 -63.5 22.5z" />
    <glyph glyph-name="hookabovecomb" unicode="&#x309;" horiz-adv-x="0" 
d="M-131 556.5q-13 -8.5 -29 -8.5q-17 0 -28.5 9t-11.5 26q0 21 9 33t26 27q10 7 15 12.5t5 12.5q0 11 -7.5 17t-20.5 6q-12 0 -25 -4t-17 -5q-14 -3 -24 9.5t-10 28.5q0 26 22 33q34 11 72 11q59 0 91 -22.5t32 -55.5q0 -25 -13 -39.5t-37 -30.5q-17 -12 -24.5 -18.5
t-9.5 -16.5q-2 -16 -15 -24.5z" />
    <glyph glyph-name="uni030A" unicode="&#x30a;" horiz-adv-x="0" 
d="M-235 581q-33 32 -33 79t33 79t80 32t80 -32t33 -79t-33 -79t-80 -32t-80 32zM-125.5 629.5q11.5 12.5 11.5 30.5q0 19 -11 31t-30 12q-18 0 -29.5 -12t-11.5 -31q0 -18 11.5 -30.5t29.5 -12.5t29.5 12.5z" />
    <glyph glyph-name="uni030B" unicode="&#x30b;" horiz-adv-x="0" 
d="M-233 550q-16 0 -28 11t-12 28q0 7 1 10l17 107q6 31 24.5 47t42.5 16q25 0 43.5 -16.5t18.5 -41.5q0 -20 -11 -39l-59 -99q-13 -23 -37 -23zM-64.5 556q-10.5 -6 -21.5 -6q-16 0 -27.5 11t-11.5 28q0 7 1 10l16 107q6 31 24.5 47t42.5 16t42.5 -16t18.5 -41
q0 -20 -12 -40l-56 -99q-6 -11 -16.5 -17z" />
    <glyph glyph-name="uni030C" unicode="&#x30c;" horiz-adv-x="0" 
d="M-195 559.5q-14 8.5 -32 29.5l-79 94q-14 15 -14 34q0 21 16.5 36t38.5 15q28 0 46 -26l60 -84l60 84q18 26 45 26q22 0 38.5 -15t16.5 -36q0 -18 -13 -34l-80 -95q-17 -19 -31.5 -28t-35.5 -9q-22 0 -36 8.5z" />
    <glyph glyph-name="uni030F" unicode="&#x30f;" horiz-adv-x="0" 
d="M-331 672q-12 20 -12 40q0 25 18.5 41t42.5 16q23 0 41.5 -16t24.5 -47l17 -107q1 -3 1 -9q0 -17 -12 -28.5t-28 -11.5q-10 0 -20.5 6t-16.5 17zM-186 672q-11 19 -11 39q0 25 19 41.5t44 16.5q23 0 41.5 -16t24.5 -47l16 -107q1 -3 1 -10q0 -17 -11.5 -28t-27.5 -11
q-24 0 -37 23z" />
    <glyph glyph-name="uni0311" unicode="&#x311;" horiz-adv-x="0" 
d="M-298 573q-19 0 -33 13.5t-14 33.5q0 10 3 20q17 51 68 84t113 33t113 -33t68 -84q3 -10 3 -19q0 -21 -14 -34.5t-33 -13.5q-25 0 -41 24q-37 46 -96 46q-58 0 -95 -46q-16 -24 -42 -24z" />
    <glyph glyph-name="uni0312" unicode="&#x312;" horiz-adv-x="0" 
d="M-102.5 703.5q22.5 -16.5 22.5 -46.5q0 -35 -23.5 -56t-59.5 -21q-43 0 -69 25.5t-26 74.5q0 32 10 58.5t23 42.5q19 22 47 22q16 0 27.5 -8t11.5 -21q0 -11 -8 -22q-11 -18 -16 -32h5q33 0 55.5 -16.5z" />
    <glyph glyph-name="uni031B" unicode="&#x31b;" horiz-adv-x="0" 
d="M-174 481v15q40 0 56 13t20 45q5 43 27.5 62t63.5 19q37 0 54.5 -17.5t17.5 -58.5q0 -33 -16.5 -64.5t-46 -54t-65.5 -27.5z" />
    <glyph glyph-name="dotbelowcomb" unicode="&#x323;" horiz-adv-x="0" 
d="M-227.5 -188.5q-23.5 22.5 -23.5 59.5q0 36 23.5 58t62.5 22q37 0 61.5 -22t24.5 -58q0 -37 -23.5 -59.5t-62.5 -22.5t-62.5 22.5z" />
    <glyph glyph-name="uni0324" unicode="&#x324;" horiz-adv-x="0" 
d="M-333.5 -189.5q-23.5 22.5 -23.5 60.5q0 36 23.5 58.5t61.5 22.5q39 0 63 -22.5t24 -58.5q0 -38 -24 -60.5t-63 -22.5q-38 0 -61.5 22.5zM-134.5 -189.5q-23.5 22.5 -23.5 60.5q0 36 24 58.5t63 22.5q37 0 61 -22.5t24 -58.5q0 -38 -23.5 -60.5t-61.5 -22.5
q-40 0 -63.5 22.5z" />
    <glyph glyph-name="uni0326" unicode="&#x326;" horiz-adv-x="0" 
d="M-99 -83.5q26 -25.5 26 -74.5q0 -32 -10 -58.5t-23 -42.5q-18 -21 -46 -21q-17 0 -28.5 8t-11.5 21q0 10 8 21q12 21 16 33h-5q-33 0 -55.5 17t-22.5 47q0 34 23.5 54.5t59.5 20.5q43 0 69 -25.5z" />
    <glyph glyph-name="uni0327" unicode="&#x327;" horiz-adv-x="0" 
d="M-51.5 -58.5q21.5 -19.5 21.5 -49.5q0 -41 -36.5 -66t-105.5 -25q-45 0 -71 9q-23 7 -23 33q0 16 9 27.5t23 8.5q24 -8 56 -8q19 0 30 4t11 17q0 7 -6 11.5t-16 4.5q-7 0 -20 -2.5t-20 -2.5q-10 0 -16 5.5t-4 14.5l13 97h92l-10 -60q7 1 20 1q31 0 52.5 -19.5z" />
    <glyph glyph-name="uni0328" unicode="&#x328;" horiz-adv-x="0" 
d="M-293 -168q-38 31 -38 82t40.5 87.5t116.5 45.5l18 -37q-31 -11 -47 -27.5t-16 -41.5q0 -24 14 -37t34 -13q22 0 48 7q16 4 27 -7.5t11 -29.5q0 -23 -19 -35q-43 -25 -94 -25q-57 0 -95 31z" />
    <glyph glyph-name="uni032E" unicode="&#x32e;" horiz-adv-x="0" 
d="M-274 -202q-51 32 -69 79q-4 9 -4 20q0 20 14 33t33 13q26 0 43 -23q38 -41 95 -41q58 0 96 41q17 23 43 23q19 0 32.5 -13t13.5 -33q0 -11 -4 -20q-18 -47 -68.5 -79t-112.5 -32q-61 0 -112 32z" />
    <glyph glyph-name="uni0331" unicode="&#x331;" horiz-adv-x="0" 
d="M-319.5 -168q-16.5 14 -16.5 37t16.5 37t40.5 14h242q24 0 40 -14t16 -37t-16 -37t-40 -14h-242q-24 0 -40.5 14z" />
    <glyph glyph-name="uni0335" unicode="&#x335;" horiz-adv-x="0" 
d="M-319.5 214q-16.5 14 -16.5 36q0 21 16.5 34t40.5 13h242q24 0 40 -13t16 -34q0 -22 -16 -36t-40 -14h-242q-24 0 -40.5 14z" />
    <glyph glyph-name="uni0394" unicode="&#x394;" horiz-adv-x="771" 
d="M764 89q0 -38 -30 -63.5t-68 -25.5h-558q-39 0 -70 25.5t-31 63.5q0 18 11 45l257 512q15 32 44.5 48.5t65.5 16.5q35 0 65.5 -17t45.5 -48l257 -512q11 -22 11 -45zM246 175h281l-140 307z" />
    <glyph glyph-name="Sigma" unicode="&#x3a3;" horiz-adv-x="624" 
d="M567.5 -31q24.5 -21 24.5 -63q0 -43 -24.5 -64.5t-78.5 -21.5h-368q-42 0 -67 25.5t-25 63.5q0 40 27 77l205 277l-205 276q-28 37 -28 77q0 38 25.5 63.5t67.5 25.5h368q54 0 78.5 -21.5t24.5 -64.5q0 -42 -24.5 -63t-78.5 -21h-198l142 -188q34 -48 34 -84
q0 -37 -35 -84l-141 -189h198q54 0 78.5 -21z" />
    <glyph glyph-name="uni03A9" unicode="&#x3a9;" horiz-adv-x="838" 
d="M774.5 150q24.5 -20 24.5 -64q0 -45 -24.5 -65.5t-77.5 -20.5h-166q-41 0 -65 25t-24 64q0 38 23 77q71 129 95.5 185.5t24.5 92.5q0 107 -166 107t-166 -107q0 -35 24 -90.5t96 -187.5q24 -40 24 -78t-24 -63t-65 -25h-167q-53 0 -77.5 20.5t-24.5 65.5q0 44 24.5 64
t77.5 20h44q-59 75 -90 123t-43.5 84.5t-12.5 74.5q0 82 45.5 141.5t131 91t203.5 31.5q115 0 201 -32t132.5 -92t46.5 -140q0 -37 -11.5 -72t-42.5 -83t-92 -127h44q53 0 77.5 -20z" />
    <glyph glyph-name="uni03BC" unicode="&#x3bc;" horiz-adv-x="612" 
d="M540 478q28 -26 28 -70v-322q0 -41 -29.5 -67t-76.5 -26q-38 0 -63.5 18.5t-31.5 50.5q-43 -62 -118 -70v-84q0 -41 -29.5 -67t-77.5 -26q-46 0 -73.5 24.5t-27.5 63.5v505q0 44 27.5 70t76.5 26q48 0 76 -26t28 -70v-204q0 -55 47 -55q30 0 47 22.5t17 54.5v182
q0 44 27.5 70t76.5 26q48 0 76 -26z" />
    <glyph glyph-name="pi" unicode="&#x3c0;" horiz-adv-x="646" 
d="M636 121q19 -17 19 -50q0 -38 -27.5 -57.5t-75.5 -19.5l-18 1l-29 2q-95 7 -142.5 57t-47.5 133v155h-8q-2 -81 -12 -148t-32 -133q-11 -34 -38.5 -51t-61.5 -17q-43 0 -75 25t-32 65q0 12 3 25q5 26 14 65q11 51 17.5 87.5t9.5 81.5h-24q-94 0 -94 76t94 76h464
q94 0 94 -76t-94 -76h-17v-172q0 -9 7.5 -18t18.5 -10l28 -2q40 -2 59 -19z" />
    <glyph glyph-name="uni0400" unicode="&#x400;" horiz-adv-x="602" 
d="M82 25q-25 25 -25 74v507q0 48 25 73.5t73 25.5h338q51 0 76.5 -21t25.5 -60q0 -83 -102 -83h-227v-100h207q51 0 76.5 -21t25.5 -62q0 -81 -102 -81h-207v-113h227q51 0 76.5 -21t25.5 -62q0 -39 -25.5 -60t-76.5 -21h-338q-48 0 -73 25zM201 803q-24 11 -35.5 27
t-11.5 34q0 25 18.5 44t45.5 19q30 0 56 -25l80 -73q14 -14 14 -31q0 -16 -12 -27t-29 -11q-11 0 -20 4z" />
    <glyph glyph-name="uni0401" unicode="&#x401;" horiz-adv-x="602" 
d="M82 25q-25 25 -25 74v507q0 48 25 73.5t73 25.5h338q51 0 76.5 -21t25.5 -60q0 -83 -102 -83h-227v-100h207q51 0 76.5 -21t25.5 -62q0 -81 -102 -81h-207v-113h227q51 0 76.5 -21t25.5 -62q0 -39 -25.5 -60t-76.5 -21h-338q-48 0 -73 25zM164.5 785.5
q-23.5 22.5 -23.5 60.5q0 36 23.5 57.5t61.5 21.5q39 0 63 -21.5t24 -57.5q0 -38 -24 -60.5t-63 -22.5q-38 0 -61.5 22.5zM363.5 785.5q-23.5 22.5 -23.5 60.5q0 36 23.5 57.5t63.5 21.5q37 0 61 -21.5t24 -57.5q0 -38 -23.5 -60.5t-61.5 -22.5q-40 0 -63.5 22.5z" />
    <glyph glyph-name="uni0402" unicode="&#x402;" horiz-adv-x="812" 
d="M597 -2q-41 0 -68.5 22t-27.5 52q0 33 14 52.5t42 33.5q21 22 21 46q0 7 -1 11.5t-1 7.5q0 52 -90 52q-28 0 -56 -2l-23 -1v-171q0 -49 -28.5 -78.5t-76.5 -29.5t-77 29.5t-29 78.5v431h-103q-44 0 -72.5 24.5t-28.5 62.5q0 37 29 61.5t72 24.5h417q44 0 72.5 -24
t28.5 -62t-28.5 -62.5t-72.5 -24.5h-103v-99q53 6 121 6q133 0 198.5 -59t65.5 -164q0 -168 -160 -214q-16 -4 -35 -4z" />
    <glyph glyph-name="uni0403" unicode="&#x403;" 
d="M85.5 22.5q-28.5 29.5 -28.5 78.5v505q0 44 27 71.5t72 27.5h340q46 0 69 -22t23 -61t-23 -61.5t-69 -22.5h-228v-437q0 -49 -28.5 -78.5t-77.5 -29.5q-48 0 -76.5 29.5zM319 760q-17 0 -29.5 11t-12.5 27q0 17 15 31l80 73q27 26 55 26q27 0 46 -19.5t19 -44.5
q0 -18 -11.5 -34t-35.5 -27l-106 -39q-9 -4 -20 -4z" />
    <glyph glyph-name="uni0404" unicode="&#x404;" horiz-adv-x="680" 
d="M215 35.5q-84 45.5 -129 128t-45 189.5t45 189t129 127.5t197 45.5q64 0 109.5 -13.5t88.5 -39.5q50 -36 50 -85q0 -33 -22.5 -57t-54.5 -24q-26 0 -50 17q-32 16 -59.5 25t-56.5 9q-59 0 -96.5 -26.5t-54.5 -81.5h168q36 0 58 -21.5t22 -57.5q0 -37 -22 -59.5t-58 -22.5
h-171q32 -118 154 -118q15 0 46 7.5t63 22.5q27 15 50 15q33 0 55 -23.5t22 -57.5q0 -26 -15.5 -51t-46.5 -44q-37 -16 -85.5 -27.5t-93.5 -11.5q-113 0 -197 45.5z" />
    <glyph glyph-name="uni0405" unicode="&#x405;" horiz-adv-x="678" 
d="M184.5 6q-68.5 16 -113.5 45q-20 14 -28.5 30.5t-8.5 42.5q0 34 20.5 60t48.5 26q15 0 28 -4.5t36 -17.5q38 -19 75 -26.5t86 -7.5q50 0 76 13t26 37q0 16 -24 30t-101 29q-106 21 -162 52.5t-75.5 70.5t-19.5 94q0 66 40 119.5t109 84.5t154 31q73 0 129 -14.5
t106 -46.5q21 -15 29.5 -31.5t8.5 -41.5q0 -35 -20.5 -60.5t-48.5 -25.5q-14 0 -26.5 4.5t-36.5 17.5q-7 1 -20 8q-26 11 -53.5 18.5t-66.5 7.5q-41 0 -67 -15t-26 -38q0 -13 8 -21.5t36.5 -19t88.5 -22.5q102 -21 156.5 -53t73.5 -71t19 -91q0 -68 -38.5 -120.5t-108 -81
t-160.5 -28.5q-81 0 -149.5 16z" />
    <glyph glyph-name="uni0406" unicode="&#x406;" horiz-adv-x="329" 
d="M86 21.5q-29 28.5 -29 77.5v507q0 47 29 75.5t78 28.5q50 0 79 -28t29 -76v-507q0 -49 -29 -77.5t-79 -28.5q-49 0 -78 28.5z" />
    <glyph glyph-name="uni0407" unicode="&#x407;" horiz-adv-x="329" 
d="M86 21.5q-29 28.5 -29 77.5v507q0 47 29 75.5t78 28.5q50 0 79 -28t29 -76v-507q0 -49 -29 -77.5t-79 -28.5q-49 0 -78 28.5zM2.5 785.5q-23.5 22.5 -23.5 60.5q0 36 23.5 57.5t61.5 21.5q39 0 63 -21.5t24 -57.5q0 -38 -24 -60.5t-63 -22.5q-38 0 -61.5 22.5z
M201.5 785.5q-23.5 22.5 -23.5 60.5q0 36 23.5 57.5t63.5 21.5q37 0 61 -21.5t24 -57.5q0 -38 -23.5 -60.5t-61.5 -22.5q-40 0 -63.5 22.5z" />
    <glyph glyph-name="uni0408" unicode="&#x408;" horiz-adv-x="419" 
d="M-20 80q0 41 19.5 60.5t62.5 22.5l35 2q23 0 35.5 15.5t12.5 37.5v388q0 47 29.5 75.5t79.5 28.5q49 0 78.5 -28.5t29.5 -75.5v-384q0 -102 -56 -160.5t-165 -66.5l-33 -2q-128 -5 -128 87z" />
    </font>
</defs>
</svg>
