<?xml version="1.0" standalone="no"?>
<!DOCTYPE svg PUBLIC "-//W3C//DTD SVG 1.1//EN" "http://www.w3.org/Graphics/SVG/1.1/DTD/svg11.dtd" >
<svg xmlns="http://www.w3.org/2000/svg" xmlns:xlink="http://www.w3.org/1999/xlink" version="1.1">
<metadata>
Created by FontForge 20170731 at Wed Jul 25 11:33:34 2018
 By Aleksey,,,
Copyright 2014 The Nunito Project Authors (https://github.com/googlefonts/NunitoFont)
</metadata>
<defs>
<font id="NunitoHeavy-Italic" horiz-adv-x="600" >
  <font-face 
    font-family="Nunito Heavy"
    font-weight="400"
    font-style="italic"
    font-stretch="normal"
    units-per-em="1000"
    panose-1="0 0 5 0 0 0 0 0 0 0"
    ascent="800"
    descent="-200"
    x-height="494"
    cap-height="705"
    bbox="-439 -281 1397 1092"
    underline-thickness="50"
    underline-position="-150"
    slope="-4.541"
    unicode-range="U+000D-FB02"
  />
<missing-glyph horiz-adv-x="443" 
d="M363 -180h-281v885h281v-885zM149 646v-29h57v-33h-58v-29h147v29h-59v33h59v29h-146zM148 532v-92h147v30h-59v62h-88zM206 470h-29v31h29v-31zM148 416v-30h58v-32h-58v-30h88v62h59v30h-147zM266 363v-59h-118v-30h147v89h-29zM206 255v-50h30v20h30v-41h-89v71h-29
v-100h147v100h-89zM148 101v-100h147v100h-147zM266 31h-89v41h89v-41zM148 -19v-29h62l-62 -42v-29h147v29h-91l62 42h29v29h-147z" />
    <glyph glyph-name="fi" unicode="fi" horiz-adv-x="712" 
d="M677.5 729q30.5 -26 30.5 -69q0 -44 -30 -70.5t-82 -26.5q-51 0 -81 26.5t-30 70.5t29.5 69.5t81.5 25.5q51 0 81.5 -26zM681 418l-26 -329q-4 -47 -35 -71.5t-76 -24.5q-44 0 -72.5 24.5t-24.5 71.5l21 253h-159l-20 -251q-4 -48 -35.5 -72t-76.5 -24q-44 0 -72 24.5
t-24 71.5l21 251h-18q-89 0 -89 65q0 87 102 87h18q12 90 74 145.5t151 63.5l30 3q8 1 24 1q34 0 54.5 -14t20.5 -51q1 -40 -19 -60t-49 -22l-24 -2q-27 -2 -40 -18t-15 -39l-1 -7h273q93 0 87 -76z" />
    <glyph glyph-name="fl" unicode="fl" horiz-adv-x="771" 
d="M337 540q-13 -16 -15 -39l-1 -7h38q87 0 87 -70q0 -42 -24 -62t-76 -20h-37l-20 -251q-4 -48 -35.5 -72t-76.5 -24q-44 0 -72 24.5t-24 71.5l21 251h-18q-45 0 -67 18t-22 52q0 43 24.5 62.5t77.5 19.5h18q12 90 74 145.5t151 63.5l31 3q24 2 34 2q39 0 60.5 -14.5
t21.5 -51.5q0 -41 -22.5 -60t-63.5 -22l-24 -2q-27 -2 -40 -18zM530.5 17.5q-28.5 24.5 -24.5 71.5l41 523q4 48 35 72.5t76 24.5t73 -24.5t24 -72.5l-41 -523q-4 -47 -35 -71.5t-75 -24.5q-45 0 -73.5 24.5z" />
    <glyph glyph-name=".notdef" horiz-adv-x="443" 
d="M363 -180h-281v885h281v-885zM149 646v-29h57v-33h-58v-29h147v29h-59v33h59v29h-146zM148 532v-92h147v30h-59v62h-88zM206 470h-29v31h29v-31zM148 416v-30h58v-32h-58v-30h88v62h59v30h-147zM266 363v-59h-118v-30h147v89h-29zM206 255v-50h30v20h30v-41h-89v71h-29
v-100h147v100h-89zM148 101v-100h147v100h-147zM266 31h-89v41h89v-41zM148 -19v-29h62l-62 -42v-29h147v29h-91l62 42h29v29h-147z" />
    <glyph glyph-name=".null" horiz-adv-x="0" 
 />
    <glyph glyph-name="nonmarkingreturn" unicode="&#xd;" horiz-adv-x="295" 
 />
    <glyph glyph-name="NULL" horiz-adv-x="0" 
 />
    <glyph glyph-name="NULL" horiz-adv-x="0" 
 />
    <glyph glyph-name="space" unicode=" " horiz-adv-x="295" 
 />
    <glyph glyph-name="exclam" unicode="!" horiz-adv-x="285" 
d="M104.5 265.5q-15.5 15.5 -18.5 46.5l-39 267q-4 69 32 100t99 31q52 0 86 -27t34 -75q0 -9 -4 -31l-84 -265q-6 -30 -23.5 -46t-42.5 -16q-24 0 -39.5 15.5zM53 25q-31 32 -31 78q0 47 31 78.5t78 31.5t78 -31.5t31 -78.5q0 -46 -31 -78t-78 -32t-78 32z" />
    <glyph glyph-name="quotedbl" unicode="&#x22;" horiz-adv-x="507" 
d="M109.5 400.5q-18.5 16.5 -20.5 45.5l-27 142q-1 7 -1 19q0 50 30 76.5t83 26.5q48 0 76 -24.5t28 -68.5q0 -16 -7 -44l-43 -127q-10 -33 -26 -47.5t-44 -14.5q-30 0 -48.5 16.5zM334.5 400.5q-18.5 16.5 -20.5 45.5l-27 142q-1 7 -1 19q0 50 30 76.5t83 26.5
q48 0 76 -24.5t28 -68.5q0 -16 -7 -44l-43 -127q-10 -33 -26 -47.5t-44 -14.5q-30 0 -48.5 16.5z" />
    <glyph glyph-name="numbersign" unicode="#" 
d="M476 440l-33 -167h29q26 0 43.5 -17.5t17.5 -43.5t-17.5 -43t-43.5 -17h-52l-22 -111q-4 -20 -20 -33t-39 -13q-29 0 -48 17.5t-19 44.5q0 5 2 15l16 80h-68l-22 -111q-4 -20 -19.5 -33t-35.5 -13q-29 0 -47.5 17.5t-18.5 44.5q0 5 2 15l16 80q-25 1 -42 18t-17 43
t17.5 43t43.5 17h21l33 167h-34q-26 0 -43.5 17.5t-17.5 43.5t17.5 43t43.5 17h57l21 106q4 21 19.5 33.5t37.5 12.5q30 0 48.5 -18.5t18.5 -46.5q0 -9 -1 -14l-15 -73h64l21 106q4 21 19.5 33.5t39.5 12.5q29 0 48 -17.5t19 -44.5q0 -5 -2 -15l-15 -75q24 -3 39 -19.5
t15 -41.5q0 -26 -17.5 -43t-43.5 -17h-16zM346 440h-65l-34 -167h66z" />
    <glyph glyph-name="dollar" unicode="$" 
d="M283 465q27 -14 87 -32q69 -21 113 -41.5t76.5 -61.5t32.5 -108q0 -90 -60 -150t-162 -76l-3 -37q-3 -37 -25 -58t-57 -21q-37 0 -60 23t-20 56l3 35q-96 8 -159 31q-22 11 -32.5 31t-10.5 43q0 35 21.5 62t55.5 27q20 0 41 -10l27 -6q39 -9 70.5 -13.5t73.5 -4.5
q43 0 63 12t20 38q0 22 -26 35.5t-82 30.5q-68 21 -114 42.5t-80 63.5t-34 108q0 86 61.5 147.5t162.5 78.5l3 36q3 36 25.5 57.5t57.5 21.5q37 0 59 -22t19 -57l-3 -37q97 -12 153 -47q31 -21 31 -60q0 -35 -24.5 -63t-60.5 -28q-21 0 -41 10l-34 9q-34 10 -61 15.5
t-56 5.5q-36 0 -57 -12t-21 -34q0 -26 27 -40z" />
    <glyph glyph-name="percent" unicode="%" horiz-adv-x="974" 
d="M326 -19q-17 -9 -35 -9q-28 0 -50 20t-22 49q0 22 14 43l404 612q12 19 28.5 28t34.5 9q29 0 51 -20t22 -49q0 -22 -14 -43l-404 -612q-12 -19 -29 -28zM91 340q-50 52 -50 148q0 107 52.5 169t143.5 62t141.5 -52.5t50.5 -146.5q0 -110 -51 -171t-145 -61q-92 0 -142 52
zM257.5 444.5q7.5 32.5 7.5 93.5q0 30 -6 43.5t-20 13.5q-19 0 -26.5 -30.5t-7.5 -94.5q0 -31 6 -44.5t20 -13.5q19 0 26.5 32.5zM611 45q-50 52 -50 148q0 107 52.5 169t143.5 62t141.5 -52.5t50.5 -146.5q0 -111 -51 -171.5t-145 -60.5q-92 0 -142 52zM777.5 149.5
q7.5 32.5 7.5 93.5q0 30 -6 43.5t-20 13.5q-19 0 -26.5 -30.5t-7.5 -95.5q0 -30 6 -43.5t20 -13.5q19 0 26.5 32.5z" />
    <glyph glyph-name="ampersand" unicode="&#x26;" horiz-adv-x="713" 
d="M568.5 438q27.5 21 59.5 21q30 0 51.5 -18.5t21.5 -51.5q0 -6 -2 -20q-25 -108 -88 -196l37 -36q25 -26 25 -56q0 -36 -29 -63.5t-65 -27.5q-35 0 -62 28l-32 33q-96 -60 -206 -60q-77 0 -138.5 27t-96.5 73.5t-35 104.5q0 137 139 208q-18 26 -27 56.5t-9 59.5
q0 56 28.5 99t79.5 67t116 24q62 0 111 -21t76 -58.5t27 -86.5q0 -61 -33 -109t-94 -77l71 -70q23 39 39 91q8 38 35.5 59zM307 563.5q-15 -15.5 -15 -42.5q0 -26 29 -60q36 13 52 31t16 45q0 18 -12 30t-32 12q-23 0 -38 -15.5zM373 167l-124 128q-40 -32 -40 -82
q0 -30 21.5 -48.5t57.5 -18.5q45 0 85 21z" />
    <glyph glyph-name="quotesingle" unicode="'" horiz-adv-x="282" 
d="M109.5 400.5q-18.5 16.5 -20.5 45.5l-27 142q-1 7 -1 19q0 50 30 76.5t83 26.5q48 0 76 -24.5t28 -68.5q0 -16 -7 -44l-43 -127q-10 -33 -26 -47.5t-44 -14.5q-30 0 -48.5 16.5z" />
    <glyph glyph-name="parenleft" unicode="(" horiz-adv-x="424" 
d="M118.5 28.5q-23.5 84.5 -23.5 172.5q0 130 39 244.5t123 226.5q14 20 36 30.5t45 10.5q30 0 51 -16.5t21 -44.5q0 -17 -11 -42q-92 -202 -92 -408q0 -85 8 -148t26 -134q5 -16 5 -35q0 -35 -21 -54.5t-52 -19.5q-25 0 -49.5 15t-39.5 44q-42 74 -65.5 158.5z" />
    <glyph glyph-name="parenright" unicode=")" horiz-adv-x="424" 
d="M307.5 495.5q23.5 -84.5 23.5 -172.5q0 -131 -39 -245t-123 -226q-14 -20 -36 -30.5t-45 -10.5q-29 0 -50 16.5t-21 44.5q0 21 11 43q91 200 91 407q0 88 -7.5 151.5t-25.5 131.5q-6 20 -6 35q0 34 21 53.5t52 19.5q26 0 50 -15t39 -44q42 -74 65.5 -158.5z" />
    <glyph glyph-name="asterisk" unicode="*" horiz-adv-x="457" 
d="M448 563q15 -19 15 -47t-15 -48t-42 -18l-52 4l30 -42q9 -15 9 -28q0 -25 -24.5 -45t-51.5 -20q-32 0 -45 28l-23 48l-22 -48q-14 -28 -45 -28q-28 0 -52 20t-24 46q0 15 9 28l29 41l-51 -4q-28 -1 -43 18t-15 47t15.5 48t42.5 18l50 -4l-28 40q-10 14 -10 29
q0 25 24 44.5t52 19.5q32 0 46 -28l22 -47l23 47q14 29 46 29q28 0 51.5 -20t23.5 -45q0 -17 -9 -29l-29 -41l51 5q27 1 42 -18z" />
    <glyph glyph-name="plus" unicode="+" 
d="M530.5 338q17.5 -19 17.5 -46q0 -31 -21.5 -51t-51.5 -20h-108l-8 -109q-3 -29 -24.5 -48t-50.5 -19t-47 19.5t-15 47.5l9 109h-109q-26 0 -44 18t-18 45q0 31 21 52t52 21h108l9 108q2 29 23 48.5t50 19.5t47 -19.5t16 -48.5l-8 -108h108q27 0 44.5 -19z" />
    <glyph glyph-name="comma" unicode="," horiz-adv-x="285" 
d="M211 181q27 -32 27 -95q0 -64 -30.5 -124.5t-81.5 -108.5q-19 -18 -40 -18q-20 0 -35.5 15t-15.5 34q0 18 16 34q40 40 58 84q-42 6 -64.5 32.5t-22.5 67.5q0 55 31.5 83t78.5 28q52 0 79 -32z" />
    <glyph glyph-name="hyphen" unicode="-" horiz-adv-x="452" 
d="M65 209.5q-23 20.5 -23 53.5q0 43 25 64.5t79 21.5h178q44 0 67 -20t23 -53q0 -87 -104 -87h-178q-44 0 -67 20.5z" />
    <glyph glyph-name="period" unicode="." horiz-adv-x="285" 
d="M53 25q-31 32 -31 78q0 47 31 78.5t78 31.5t78 -31.5t31 -78.5q0 -46 -31 -78t-78 -32t-78 32z" />
    <glyph glyph-name="slash" unicode="/" horiz-adv-x="370" 
d="M91.5 -77.5q-19.5 -11.5 -42.5 -11.5q-31 0 -55.5 18.5t-24.5 46.5q0 15 5 26l291 729q9 23 28.5 34.5t43.5 11.5q32 0 56 -18.5t24 -47.5q0 -15 -5 -26l-292 -727q-9 -24 -28.5 -35.5z" />
    <glyph glyph-name="zero" unicode="0" 
d="M98 74q-67 82 -67 238q0 125 35 215.5t101 138t158 47.5q127 0 194.5 -82t67.5 -238q0 -125 -35 -215.5t-101.5 -138t-158.5 -47.5q-127 0 -194 82zM359 220.5q21 68.5 21 201.5q0 70 -14 100.5t-46 30.5q-40 0 -61 -70.5t-21 -199.5q0 -69 14 -100t45 -31q41 0 62 68.5z
" />
    <glyph glyph-name="one" unicode="1" 
d="M607 90q0 -47 -26 -68.5t-84 -21.5h-350q-95 0 -95 78q0 48 26.5 70t83.5 22h68l23 296l-55 -28q-25 -13 -47 -13q-35 0 -58.5 27t-23.5 62q0 22 10.5 41t31.5 31l170 91q54 30 103 30q46 0 72.5 -28t22.5 -78l-34 -431h67q95 0 95 -80z" />
    <glyph glyph-name="two" unicode="2" horiz-adv-x="602" 
d="M544 151q25 -19 25 -57q0 -50 -26 -72t-84 -22h-354q-41 0 -63.5 22.5t-22.5 57.5q0 25 12 51.5t36 48.5l221 207q31 30 49 60t18 52q0 26 -16.5 38t-50.5 12q-52 0 -113 -27q-28 -16 -53 -16q-31 0 -50.5 22t-19.5 53q0 24 13.5 47.5t40.5 40.5q79 46 208 46
q118 -1 184.5 -58t66.5 -157q0 -54 -28 -102t-95 -109l-128 -119h158q47 0 72 -19z" />
    <glyph glyph-name="three" unicode="3" 
d="M528 304.5q31 -37.5 31 -91.5q0 -63 -33.5 -113.5t-99 -79.5t-158.5 -29q-70 0 -129 14t-93 29q-43 27 -43 76q0 34 22.5 60t56.5 26q18 0 39 -9q47 -16 79.5 -23t69.5 -7q88 0 88 59q0 32 -21 45t-67 13h-58q-30 0 -49 21.5t-19 58.5q0 38 25.5 61t63.5 23h30
q51 0 73 12.5t22 43.5q0 28 -18.5 41.5t-57.5 13.5q-18 0 -46 -6t-61 -21q-28 -16 -53 -16q-31 0 -50.5 22t-19.5 53q0 24 13.5 47.5t40.5 40.5q41 24 94.5 35t111.5 11q73 0 130.5 -23.5t90 -66t32.5 -97.5q0 -122 -121 -169q53 -17 84 -54.5z" />
    <glyph glyph-name="four" unicode="4" 
d="M586 251q21 -19 21 -60q0 -82 -110 -82h-3l-1 -7q-4 -53 -35 -81t-79 -28q-46 0 -72.5 27t-22.5 79l1 10h-204q-39 0 -60 23t-21 59q0 21 8.5 44t23.5 43l301 386q17 23 43 34.5t55 11.5q45 0 75.5 -28.5t26.5 -78.5l-27 -333h6q53 0 74 -19zM297 270l9 116l-90 -116h81z
" />
    <glyph glyph-name="five" unicode="5" 
d="M473 440q50 -27 78 -74.5t28 -108.5q0 -127 -78.5 -196.5t-219.5 -69.5q-64 0 -125.5 18t-104.5 49q-37 28 -37 68q0 34 26 58.5t64 24.5q27 0 52 -14q45 -22 73.5 -30t52.5 -8q47 0 71.5 18.5t24.5 54.5q0 76 -95 76l-31 1q-23 0 -58 -9q-27 -12 -52 -12
q-33 0 -53.5 18.5t-17.5 47.5l20 254q5 48 32 73.5t75 25.5h299q48 0 71 -17.5t23 -56.5q0 -40 -29.5 -63.5t-79.5 -23.5h-187l-6 -85q28 8 70 8q64 0 114 -27z" />
    <glyph glyph-name="six" unicode="6" horiz-adv-x="601" 
d="M248 418q23 23 56.5 36t68.5 13q58 0 104 -28t72 -77.5t26 -111.5q0 -75 -32.5 -134t-90.5 -92.5t-131 -33.5q-140 0 -216.5 84t-76.5 238q0 124 40.5 214.5t117.5 139.5t186 49q57 0 114 -13.5t75 -26.5q22 -14 33 -35t11 -45q0 -34 -19.5 -59t-51.5 -25q-21 0 -42 11
q-81 27 -123 27q-97 0 -121 -131zM264.5 285q-17.5 -21 -17.5 -58q0 -33 18 -53t47 -20t46.5 22.5t17.5 59.5q0 33 -16.5 51.5t-46.5 18.5q-31 0 -48.5 -21z" />
    <glyph glyph-name="seven" unicode="7" 
d="M599.5 684.5q19.5 -20.5 19.5 -54.5q0 -42 -28 -92l-295 -480q-21 -34 -48 -50.5t-57 -16.5q-37 0 -63.5 24.5t-26.5 62.5q0 32 20 66l241 391h-230q-51 0 -72 20t-21 60q0 45 27 67.5t79 22.5h396q39 0 58.5 -20.5z" />
    <glyph glyph-name="eight" unicode="8" 
d="M583 208q0 -65 -37 -114t-103.5 -76t-153.5 -27q-85 0 -148 25t-97 70t-34 106q0 65 36.5 110t99.5 63q-44 22 -67.5 59.5t-23.5 87.5q0 94 72.5 148.5t198.5 54.5q127 0 195.5 -49.5t68.5 -142.5q0 -53 -32 -97t-85 -63q110 -38 110 -155zM390 497q0 32 -15 44.5
t-49 12.5q-37 0 -54.5 -13.5t-17.5 -45.5q0 -28 18 -43.5t48 -15.5q70 0 70 61zM385 221q0 27 -21.5 41t-58.5 14q-97 0 -97 -64q0 -27 23.5 -43.5t62.5 -16.5q91 0 91 69z" />
    <glyph glyph-name="nine" unicode="9" 
d="M512 631.5q76 -83.5 76 -238.5q0 -124 -40 -214.5t-117.5 -139.5t-185.5 -49q-56 0 -113 14t-77 26q-22 14 -33 35t-11 44q0 34 20 59.5t52 25.5q20 0 41 -11q81 -27 124 -27q100 0 121 132q-24 -23 -57 -36.5t-68 -13.5q-58 0 -104 28t-72.5 77.5t-26.5 111.5
q0 75 32.5 134t90.5 92.5t131 33.5q141 0 217 -83.5zM352 420q18 21 18 58q0 33 -18 53t-47 20t-46.5 -22.5t-17.5 -59.5q0 -32 16.5 -51t45.5 -19q31 0 49 21z" />
    <glyph glyph-name="colon" unicode=":" horiz-adv-x="285" 
d="M77 315.5q-31 31.5 -31 78.5q0 46 31 78t78 32t78 -32t31 -78q0 -47 -31 -78.5t-78 -31.5t-78 31.5zM53 25q-31 32 -31 78q0 47 31 78.5t78 31.5t78 -31.5t31 -78.5q0 -46 -31 -78t-78 -32t-78 32z" />
    <glyph glyph-name="semicolon" unicode=";" horiz-adv-x="285" 
d="M77 315.5q-31 31.5 -31 78.5q0 46 31 78t78 32t78 -32t31 -78q0 -47 -31 -78.5t-78 -31.5t-78 31.5zM211 181q27 -32 27 -95t-30.5 -124t-81.5 -109q-19 -18 -40 -18q-20 0 -35.5 15t-15.5 34q0 18 16 34q40 40 58 84q-42 6 -64.5 32.5t-22.5 67.5q0 55 31.5 83t78.5 28
q52 0 79 -32z" />
    <glyph glyph-name="less" unicode="&#x3c;" 
d="M546.5 407.5q-12.5 -17.5 -31.5 -24.5l-268 -94l254 -94q17 -6 26 -23.5t9 -37.5q1 -31 -20.5 -50.5t-52.5 -19.5q-18 0 -37 8l-303 112q-63 27 -65 98q0 37 23 67.5t59 45.5l320 111q21 8 37 8q28 0 45 -19t17 -51q0 -19 -12.5 -36.5z" />
    <glyph glyph-name="equal" unicode="=" 
d="M86 339q-18 18 -18 44q0 32 21 53t52 21h353q27 0 44.5 -18.5t17.5 -45.5q0 -31 -21.5 -51.5t-51.5 -20.5h-353q-26 0 -44 18zM69 139q-18 18 -18 44q0 32 21 53t52 21h353q27 0 45 -18.5t18 -45.5q0 -32 -21.5 -52t-52.5 -20h-353q-26 0 -44 18z" />
    <glyph glyph-name="greater" unicode="&#x3e;" 
d="M525 227.5q-23 -29.5 -58 -43.5l-320 -112q-21 -8 -36 -8q-28 0 -45 19t-18 51q0 20 12.5 37t31.5 24l268 94l-254 94q-17 7 -26 24t-9 37q1 31 22 50.5t51 19.5q18 0 37 -8l303 -111q64 -28 64 -102q0 -36 -23 -65.5z" />
    <glyph glyph-name="question" unicode="?" horiz-adv-x="489" 
d="M201.5 270q-16.5 20 -13.5 56q4 40 22 66t50 56q22 21 32 34.5t10 29.5q0 17 -14.5 27t-39.5 10q-22 0 -55 -8.5t-69 -24.5q-19 -11 -39 -11q-30 0 -50 24t-20 56q0 22 11 42.5t33 34.5q47 28 99.5 40.5t119.5 12.5q70 0 123.5 -21.5t83.5 -61t30 -91.5q0 -40 -18 -70.5
t-43 -51.5t-64 -47q-36 -25 -52.5 -38.5t-21.5 -30.5q-6 -25 -23.5 -39t-41.5 -14q-33 0 -49.5 20zM157.5 25q-31.5 32 -31.5 78q0 47 31.5 78.5t77.5 31.5q48 0 79 -31.5t31 -78.5q0 -46 -31.5 -78t-78.5 -32q-46 0 -77.5 32z" />
    <glyph glyph-name="at" unicode="@" horiz-adv-x="950" 
d="M250.5 -110q-102.5 54 -157 149.5t-54.5 218.5q0 144 58 247t161 155.5t235 52.5q133 0 229.5 -46t147.5 -130.5t51 -199.5q0 -122 -55.5 -198.5t-157.5 -76.5q-51 0 -86.5 23t-48.5 58h-2q-29 -40 -58.5 -60.5t-80.5 -20.5q-81 0 -123 52t-42 134q0 74 27 131.5
t74.5 89.5t107.5 32q77 0 106 -52h4l-2 -12q9 53 72 53q31 0 48.5 -18t17.5 -48q0 -6 -2 -20l-21 -117q-7 -40 -7 -61q0 -52 42 -52q12 0 24.5 16.5t21.5 53.5t9 93q0 259 -296 259q-92 0 -162.5 -38.5t-110 -114.5t-39.5 -185q0 -92 37 -161t106.5 -106.5t165.5 -37.5
q55 0 94 7.5t85 26.5q18 8 31 8q26 0 44.5 -18.5t18.5 -42.5q0 -31 -33 -54q-41 -17 -103.5 -30.5t-136.5 -13.5q-137 0 -239.5 54zM536 216.5q25 42.5 25 99.5q0 36 -15 54.5t-42 18.5q-44 0 -67.5 -44t-23.5 -99q0 -31 12 -51.5t39 -20.5q47 0 72 42.5z" />
    <glyph glyph-name="A" unicode="A" horiz-adv-x="771" 
d="M745 88q0 -40 -33 -66.5t-73 -26.5q-27 0 -48.5 14t-31.5 42l-30 84h-294l-42 -82q-15 -29 -39 -43t-51 -14q-38 0 -68 24.5t-30 61.5q0 24 14 48l288 517q17 32 49 49t67 17t64 -17t41 -47l211 -528q6 -18 6 -33zM473 295l-64 184l-93 -184h157z" />
    <glyph glyph-name="B" unicode="B" horiz-adv-x="701" 
d="M648 303q30 -46 30 -104q0 -95 -74 -147t-197 -52h-273q-47 0 -70 24.5t-19 71.5l41 510q5 48 32 73.5t75 25.5h249q79 0 133.5 -24t82 -64.5t27.5 -91.5q0 -58 -29.5 -97t-90.5 -63q53 -16 83 -62zM290 544l-8 -105h107q52 0 71 10t19 40q0 27 -18 41t-60 14h-111z
M458.5 173q21.5 12 21.5 46q0 30 -19 44.5t-62 14.5h-130l-9 -117h127q50 0 71.5 12z" />
    <glyph glyph-name="C" unicode="C" horiz-adv-x="679" 
d="M215.5 32q-80.5 42 -123.5 119.5t-43 181.5q0 115 48.5 201.5t137 133.5t204.5 47q80 0 173 -30l23 -6q28 -17 41.5 -40t13.5 -48q0 -34 -22.5 -59t-56.5 -25q-23 0 -50 15q-5 1 -28 7q-53 16 -82 16q-89 0 -136.5 -56.5t-47.5 -154.5q0 -86 36 -130t106 -44q22 0 42 4.5
t49 13.5q27 8 36 10q22 11 44 11q32 0 52 -22t20 -54q0 -23 -11.5 -45.5t-34.5 -39.5q-27 -16 -83 -32t-116 -16q-111 0 -191.5 42z" />
    <glyph glyph-name="D" unicode="D" horiz-adv-x="783" 
d="M64 24.5q-23 24.5 -19 71.5l41 510q5 48 32 73.5t75 25.5h204q106 0 186.5 -41t124.5 -116.5t44 -175.5q0 -118 -48.5 -201.5t-140 -127t-217.5 -43.5h-212q-47 0 -70 24.5zM325 172q110 0 161 47t51 154q0 78 -44.5 119t-126.5 41h-71l-29 -361h59z" />
    <glyph glyph-name="E" unicode="E" horiz-adv-x="602" 
d="M290 541l-8 -100h207q47 0 71 -19.5t24 -55.5q0 -46 -26.5 -67.5t-81.5 -21.5h-207l-9 -113h228q47 0 71 -20t24 -57q0 -45 -27.5 -66t-82.5 -21h-337q-44 0 -67.5 22t-23.5 62l1 14l40 508q5 47 32.5 73t75.5 26h337q47 0 71 -20t24 -55q0 -47 -27 -68t-83 -21h-226z
" />
    <glyph glyph-name="F" unicode="F" horiz-adv-x="584" 
d="M293 538l-7 -96h195q47 0 70 -18.5t23 -56.5q0 -50 -26 -71t-84 -21h-192l-13 -173q-5 -50 -35.5 -79.5t-79.5 -29.5q-48 0 -75 29t-23 77l40 507q5 47 32.5 73t74.5 26h328q48 0 71.5 -19.5t23.5 -58.5q0 -48 -26.5 -68.5t-83.5 -20.5h-213z" />
    <glyph glyph-name="G" unicode="G" horiz-adv-x="750" 
d="M692 387.5q19 -19.5 16 -53.5l-12 -154q-5 -60 -16 -91.5t-36 -49.5t-74 -32q-87 -17 -168 -17q-107 0 -186.5 43t-123 121.5t-43.5 183.5q0 113 48 198.5t137 132t208 46.5q70 0 119 -11.5t97 -27.5q27 -16 40.5 -38.5t13.5 -46.5q0 -34 -23 -58.5t-57 -24.5
q-25 0 -50 14q-8 2 -29 9t-47.5 11.5t-60.5 4.5q-85 0 -132 -57t-47 -154q0 -183 169 -183q36 0 68 8l8 102h-42q-81 0 -81 69q0 35 23.5 55t61.5 20h164q36 0 55 -19.5z" />
    <glyph glyph-name="H" unicode="H" horiz-adv-x="782" 
d="M731 681.5q26 -28.5 22 -75.5l-40 -504q-5 -49 -35.5 -79t-79.5 -30q-45 0 -71 25t-26 68l1 13l14 175h-245l-14 -172q-5 -49 -35.5 -79t-79.5 -30q-45 0 -71 25t-26 68l1 13l40 504q4 49 34.5 78t79.5 29t75 -28.5t22 -75.5l-13 -164h245l13 161q4 49 34.5 78t79.5 29
t75 -28.5z" />
    <glyph glyph-name="I" unicode="I" horiz-adv-x="329" 
d="M71.5 18q-26.5 25 -26.5 68l1 13l40 504q4 49 35 78t81 29q47 0 73.5 -24.5t26.5 -66.5l-1 -13l-40 -504q-4 -50 -35 -79.5t-82 -29.5q-46 0 -72.5 25z" />
    <glyph glyph-name="J" unicode="J" horiz-adv-x="419" 
d="M-2 9.5q-30 20.5 -30 66.5q0 44 22.5 64t68.5 23l33 2q24 2 37 14.5t14 38.5l31 387q5 48 36.5 76.5t80.5 28.5t76.5 -28.5t23.5 -76.5l-29 -383q-8 -105 -68 -162.5t-169 -64.5l-32 -2q-65 -4 -95 16.5z" />
    <glyph glyph-name="K" unicode="K" horiz-adv-x="720" 
d="M642 146q18 -22 18 -49q0 -25 -14 -48.5t-37.5 -38.5t-49.5 -15q-42 0 -76 40l-206 274l-16 -207q-4 -51 -35 -80t-82 -29q-46 0 -72.5 24.5t-26.5 67.5l1 14l40 504q4 50 35 78.5t81 28.5q47 0 73.5 -24.5t26.5 -66.5l-1 -13l-16 -198l233 269q34 35 74 35q35 0 60 -26
t25 -63q0 -43 -37 -81l-155 -180z" />
    <glyph glyph-name="L" unicode="L" horiz-adv-x="582" 
d="M65.5 25.5q-23.5 25.5 -19.5 72.5l40 505q4 49 35 78t80 29q47 0 74 -24.5t27 -66.5l-1 -13l-35 -433h202q95 0 95 -78q0 -51 -26.5 -73t-83.5 -22h-317q-47 0 -70.5 25.5z" />
    <glyph glyph-name="M" unicode="M" horiz-adv-x="843" 
d="M789 679q26 -30 22 -78l-41 -510q-5 -45 -31.5 -71.5t-68.5 -26.5q-41 0 -66 26.5t-21 69.5l18 226l-92 -147q-24 -39 -46.5 -55t-53.5 -16q-30 0 -50.5 16t-37.5 53l-70 137l-17 -212q-3 -44 -31 -71t-71 -27q-41 0 -64.5 26t-20.5 70l42 515q4 48 34 77t75 29
q63 0 95 -69l135 -293l184 290q45 71 106 71q45 0 71 -30z" />
    <glyph glyph-name="N" unicode="N" horiz-adv-x="763" 
d="M708.5 685q25.5 -25 25.5 -67l-1 -13l-40 -504q-4 -49 -34.5 -78.5t-75.5 -29.5q-54 0 -76 33l-240 318l-20 -242q-5 -49 -34 -79t-75 -30t-71 29.5t-21 77.5l40 504q5 47 35 76.5t75 29.5q52 0 75 -33l242 -318l18 244q5 48 34.5 77.5t74.5 29.5q43 0 68.5 -25z" />
    <glyph glyph-name="O" unicode="O" horiz-adv-x="806" 
d="M218.5 31q-81.5 42 -125.5 119.5t-44 182.5q0 114 45.5 201t128.5 134.5t192 47.5t190 -42t125 -119.5t44 -182.5q0 -114 -45.5 -201t-128 -134.5t-191.5 -47.5t-190.5 42zM519 211q41 58 41 161q0 86 -37.5 133t-104.5 47q-73 0 -114 -58t-41 -160q0 -88 37 -134.5
t107 -46.5q71 0 112 58z" />
    <glyph glyph-name="P" unicode="P" horiz-adv-x="687" 
d="M620.5 647q65.5 -58 65.5 -158q0 -116 -67.5 -180t-196.5 -64h-149l-11 -143q-5 -51 -36 -80t-82 -29q-49 0 -75.5 29t-22.5 77l40 507q5 47 32.5 73t75.5 26h246q115 0 180.5 -58zM486 476q0 37 -18.5 52.5t-58.5 15.5h-112l-11 -140h113q87 0 87 72z" />
    <glyph glyph-name="Q" unicode="Q" horiz-adv-x="806" 
d="M684 -40q15 -29 15 -53q0 -41 -33.5 -67.5t-76.5 -26.5q-28 0 -52 13t-38 39l-52 99q-13 24 -55 26q-105 1 -182.5 44.5t-119 120.5t-41.5 178q0 114 45.5 201t128.5 134.5t192 47.5q111 0 192 -41.5t124 -119t43 -183.5q0 -115 -45.5 -201.5t-128.5 -135.5q46 -9 71 -54
zM519.5 211.5q40.5 58.5 40.5 160.5q0 86 -37.5 133t-104.5 47q-73 0 -114 -58t-41 -160q0 -88 37 -134.5t107 -46.5q72 0 112.5 58.5z" />
    <glyph glyph-name="R" unicode="R" horiz-adv-x="713" 
d="M629 129q10 -21 10 -42q0 -41 -33.5 -70t-76.5 -29q-29 0 -53 14.5t-39 45.5l-80 176q-5 14 -17.5 22t-26.5 8h-44l-11 -152q-4 -50 -34.5 -79.5t-79.5 -29.5t-75.5 29t-22.5 77l40 507q5 48 32 73.5t75 25.5h260q74 0 128 -27t82 -75t28 -111q0 -95 -42.5 -150
t-133.5 -73q30 -5 50 -22t36 -50zM413 413q38 0 58 17.5t20 49.5t-16 48t-53 16h-132l-9 -131h132z" />
    <glyph glyph-name="S" unicode="S" horiz-adv-x="678" 
d="M174.5 3.5q-67.5 13.5 -107.5 33.5q-23 14 -35 36.5t-12 46.5q0 32 20 56t52 24q27 0 54 -16q5 -1 35 -9.5t69.5 -14.5t76.5 -6q98 0 98 39q0 26 -30 41t-92 33q-73 22 -121 43.5t-83 63.5t-35 109q0 69 39.5 121.5t111.5 81.5t167 29q75 0 139 -15.5t98 -38.5
q18 -13 27 -31.5t9 -38.5q0 -34 -21.5 -59t-56.5 -25q-25 0 -54 16q-5 1 -30.5 9t-56.5 13.5t-60 5.5q-45 0 -72 -12.5t-27 -35.5q0 -24 28 -38t91 -32q74 -21 122.5 -42t84 -62.5t35.5 -109.5q0 -110 -83 -169.5t-237 -59.5q-76 0 -143.5 13.5z" />
    <glyph glyph-name="T" unicode="T" horiz-adv-x="642" 
d="M224.5 23.5q-27.5 28.5 -22.5 75.5l35 433h-120q-95 0 -95 78q0 51 27 73t83 22h454q95 0 95 -80q0 -51 -26.5 -72t-83.5 -21h-117l-35 -430q-5 -49 -36.5 -78t-81.5 -29q-49 0 -76.5 28.5z" />
    <glyph glyph-name="U" unicode="U" horiz-adv-x="751" 
d="M56 274q0 14 2 44l23 285q4 49 34.5 78t79.5 29t75 -28.5t22 -75.5l-23 -297q-1 -10 -1 -29q0 -64 29.5 -95t90.5 -31q42 0 68.5 28.5t32.5 101.5l25 319q5 49 35.5 78t79.5 29q45 0 71 -24.5t26 -66.5l-1 -13l-24 -309q-12 -152 -93.5 -229.5t-231.5 -77.5
q-320 0 -320 284z" />
    <glyph glyph-name="V" unicode="V" horiz-adv-x="759" 
d="M619 697.5q24 14.5 51 14.5q40 0 70.5 -25.5t30.5 -63.5q0 -22 -13 -47l-284 -519q-17 -31 -49.5 -48t-68.5 -17q-34 0 -61.5 16.5t-39.5 46.5l-200 520q-6 17 -6 33q0 29 17.5 53t45 37.5t55.5 13.5q27 0 48.5 -14t31.5 -42l137 -389l196 387q15 29 39 43.5z" />
    <glyph glyph-name="W" unicode="W" horiz-adv-x="1127" 
d="M965.5 695.5q27.5 17.5 59.5 17.5q37 0 63.5 -22.5t26.5 -61.5q0 -25 -13 -54l-229 -516q-14 -32 -45.5 -50t-66.5 -18t-62.5 17t-36.5 49l-89 320l-138 -318q-14 -33 -45 -51t-66 -18t-63 17.5t-37 49.5l-147 517q-5 22 -5 35q0 47 33.5 75.5t77.5 28.5q33 0 57.5 -17
t32.5 -50l84 -344l150 344q14 32 41.5 49.5t58.5 17.5t55 -17.5t33 -50.5l86 -353l143 352q14 34 41.5 51.5z" />
    <glyph glyph-name="X" unicode="X" horiz-adv-x="698" 
d="M643 156q20 -26 20 -57q0 -27 -15.5 -52t-40.5 -40t-51 -15q-38 0 -64 34l-146 187l-159 -185q-31 -37 -72 -37q-37 0 -64 27.5t-27 66.5q0 38 28 70l181 203l-145 191q-19 26 -19 55q0 28 15.5 53t40.5 40.5t51 15.5q39 0 66 -36l129 -171l155 170q30 36 72 36
q37 0 64.5 -28t27.5 -65t-29 -70l-178 -196z" />
    <glyph glyph-name="Y" unicode="Y" horiz-adv-x="666" 
d="M588 714q38 0 67 -29.5t29 -68.5q0 -37 -27 -68l-211 -243l-16 -203q-4 -53 -36.5 -81t-79.5 -28q-48 0 -76 27t-24 79l16 208l-176 247q-16 22 -16 48q0 27 16 52t41.5 40.5t51.5 15.5q43 0 69 -39l132 -193l169 201q29 35 71 35z" />
    <glyph glyph-name="Z" unicode="Z" horiz-adv-x="626" 
d="M601 90q0 -49 -26.5 -69.5t-83.5 -20.5h-385q-41 0 -63.5 22.5t-22.5 57.5q0 43 35 87l303 371h-198q-95 0 -95 74q0 50 27 71.5t84 21.5h366q41 0 64 -23t23 -58q0 -45 -34 -86l-304 -371h215q95 0 95 -77z" />
    <glyph glyph-name="bracketleft" unicode="[" horiz-adv-x="421" 
d="M113 -138q-39 42 -34 116l45 569q7 74 52.5 116t119.5 42h85q29 0 49.5 -18.5t20.5 -50.5q0 -44 -23 -63.5t-56 -19.5h-5q-20 0 -30.5 -8.5t-13.5 -33.5l-39 -497q-1 -25 8 -33.5t29 -8.5h5q26 0 46.5 -18.5t20.5 -50.5q0 -44 -23.5 -63.5t-59.5 -19.5h-84q-74 0 -113 42
z" />
    <glyph glyph-name="backslash" unicode="\" horiz-adv-x="368" 
d="M27 684q-2 10 -2 15q0 32 27 53t61 21q25 0 45 -13.5t26 -41.5l172 -718q2 -10 2 -15q0 -30 -27 -50.5t-61 -20.5q-26 0 -46 14t-27 42z" />
    <glyph glyph-name="bracketright" unicode="]" horiz-adv-x="421" 
d="M306 668q39 -37 39 -103q0 -12 -1 -18l-45 -569q-6 -74 -52 -116t-120 -42h-84q-29 0 -50 18.5t-21 50.5q0 44 23 63.5t56 19.5h5q20 0 30.5 8.5t13.5 33.5l39 497q3 24 -7 33t-30 9h-5q-26 0 -46.5 18.5t-20.5 50.5q0 44 24 63.5t60 19.5h83q70 0 109 -37z" />
    <glyph glyph-name="asciicircum" unicode="^" 
d="M528 206q0 -26 -24.5 -44.5t-54.5 -18.5q-19 0 -34.5 10t-21.5 30l-74 263l-115 -263q-9 -20 -26 -29.5t-36 -9.5q-29 0 -51 18t-22 45q0 15 7 29l145 325q16 33 45.5 52.5t64.5 19.5q36 0 62.5 -19.5t37.5 -52.5l95 -340q2 -5 2 -15z" />
    <glyph glyph-name="underscore" unicode="_" horiz-adv-x="500" 
d="M-4 -99.5q-20 16.5 -20 42.5q0 27 22.5 42t59.5 15h346q32 0 51.5 -14.5t20.5 -38.5q0 -30 -21.5 -46.5t-59.5 -16.5h-346q-33 0 -53 16.5z" />
    <glyph glyph-name="grave" unicode="`" horiz-adv-x="313" 
d="M56 661q-16 25 -16 46q0 26 20.5 43.5t46.5 17.5q20 0 38 -12t27 -36l37 -98q5 -13 5 -23q0 -20 -14 -32.5t-34 -12.5q-14 0 -28 7t-23 21z" />
    <glyph glyph-name="a" unicode="a" horiz-adv-x="559" 
d="M462 455q59 -51 59 -155q0 -12 -2 -36l-13 -175q-5 -46 -33 -71t-74 -25q-35 0 -58.5 18t-28.5 48q-17 -32 -49 -50t-73 -18q-49 0 -88.5 19.5t-62.5 54t-23 75.5q0 58 27.5 92.5t87.5 51t159 16.5h37q3 56 -72 56q-22 0 -78 -14l-21 -5q-19 -8 -39 -8q-30 0 -48 18.5
t-18 45.5q0 21 12.5 41.5t37.5 34.5q74 37 182 37q120 0 179 -51zM297.5 149q18.5 21 21.5 55v5h-26q-41 0 -60 -11t-19 -34q0 -16 10.5 -26t28.5 -10q26 0 44.5 21z" />
    <glyph glyph-name="b" unicode="b" horiz-adv-x="638" 
d="M514.5 478q47.5 -28 74 -81.5t26.5 -126.5q0 -80 -30 -143.5t-84.5 -99.5t-124.5 -36q-47 0 -82.5 16t-64.5 48q-12 -28 -38 -45t-63 -17q-47 0 -72.5 27t-23.5 69l41 526q3 41 34.5 67.5t80.5 26.5q46 0 71 -24.5t22 -64.5l-13 -169q49 55 137 55q62 0 109.5 -28z
M388 172.5q22 29.5 22 80.5q0 49 -21 75t-60 26q-36 0 -57.5 -29.5t-21.5 -76.5q0 -52 20 -78.5t57 -26.5q39 0 61 29.5z" />
    <glyph glyph-name="c" unicode="c" horiz-adv-x="506" 
d="M158.5 21q-64.5 30 -99.5 85.5t-35 128.5q0 84 36 145t102.5 93.5t157.5 32.5q98 0 157 -28q19 -9 28 -27.5t9 -40.5q0 -32 -17 -56.5t-45 -24.5q-17 0 -32 8q-56 14 -86 14q-46 0 -71.5 -28.5t-25.5 -81.5q0 -45 22.5 -70t61.5 -25q23 0 42 2.5t42 9.5q20 9 35 9
q25 0 39 -19t14 -47q0 -25 -11.5 -47.5t-33.5 -36.5q-26 -11 -65.5 -18.5t-74.5 -7.5q-85 0 -149.5 30z" />
    <glyph glyph-name="d" unicode="d" horiz-adv-x="638" 
d="M596.5 682.5q27.5 -26.5 24.5 -67.5l-41 -526q-3 -42 -31.5 -69t-76.5 -27q-37 0 -60.5 16.5t-32.5 45.5q-24 -31 -60.5 -47.5t-84.5 -16.5q-62 0 -109.5 28.5t-74 82t-26.5 127.5q0 80 30 143t84.5 98.5t124.5 35.5q82 0 137 -53l13 167q3 40 32 64.5t76 24.5
q48 0 75.5 -26.5zM367.5 172.5q21.5 29.5 21.5 76.5q0 105 -77 105q-39 0 -61 -29.5t-22 -80.5q0 -49 21 -75t60 -26q36 0 57.5 29.5z" />
    <glyph glyph-name="e" unicode="e" horiz-adv-x="537" 
d="M501 219.5q-13 -13.5 -36 -13.5h-241q14 -64 94 -64q22 0 36 3t28 7.5t21 6.5q17 8 34 8q25 0 39.5 -19t14.5 -47q0 -24 -11 -46t-33 -35q-26 -14 -63.5 -21.5t-81.5 -7.5q-82 0 -145 30.5t-98 86t-35 128.5q0 76 33.5 138t92.5 97t131 35q110 0 171.5 -66.5t61.5 -183.5
q0 -23 -13 -36.5zM245 352q-15 -16 -21 -52h120q-2 34 -15.5 51t-41.5 17q-27 0 -42 -16z" />
    <glyph glyph-name="f" unicode="f" horiz-adv-x="414" 
d="M337 540q-13 -16 -15 -39l-1 -7h38q87 0 87 -70q0 -42 -24 -62t-76 -20h-37l-20 -251q-4 -48 -35.5 -72t-76.5 -24q-44 0 -72 24.5t-24 71.5l21 251h-18q-45 0 -67 18t-22 52q0 43 24.5 62.5t77.5 19.5h18q12 90 74 145.5t151 63.5l31 3q24 2 34 2q39 0 60.5 -14.5
t21.5 -51.5q0 -41 -22.5 -60t-63.5 -22l-24 -2q-27 -2 -40 -18z" />
    <glyph glyph-name="g" unicode="g" horiz-adv-x="642" 
d="M589 477.5q25 -26.5 22 -69.5l-27 -340q-10 -125 -95 -191t-238 -66q-45 0 -93 8t-83 23q-23 12 -34.5 30.5t-11.5 39.5q0 30 20.5 54t50.5 24q15 0 26 -5q6 0 19.5 -3t20.5 -5q60 -15 92 -15q57 0 86 21.5t33 69.5l1 10q-52 -50 -142 -50q-62 0 -110 28.5t-74.5 80
t-26.5 119.5q0 73 30.5 133.5t86 96t125.5 35.5q48 0 83.5 -15.5t64.5 -45.5q12 27 38.5 43t63.5 16q47 0 72 -26.5zM372 193q23 26 23 68q0 93 -81 93q-39 0 -61.5 -26.5t-22.5 -74.5q0 -40 22 -63t59 -23q38 0 61 26z" />
    <glyph glyph-name="h" unicode="h" horiz-adv-x="617" 
d="M539.5 458q41.5 -48 41.5 -141q0 -23 -1 -35l-16 -193q-4 -44 -33 -70t-78 -26q-48 0 -74.5 26.5t-22.5 69.5l16 186q2 34 -11 53.5t-41 19.5q-58 0 -65 -76l-15 -183q-2 -43 -31.5 -69.5t-78.5 -26.5t-75.5 26.5t-22.5 69.5l41 526q3 41 34 67.5t80 26.5q46 0 71.5 -25
t22.5 -64l-13 -166q27 25 65 38.5t83 13.5q82 0 123.5 -48z" />
    <glyph glyph-name="i" unicode="i" horiz-adv-x="297" 
d="M56.5 17.5q-28.5 24.5 -24.5 71.5l26 318q4 48 35.5 72.5t76.5 24.5q44 0 72 -24.5t24 -72.5l-26 -318q-4 -47 -35 -71.5t-75 -24.5q-45 0 -73.5 24.5zM107.5 597q-27.5 24 -27.5 64t27 63t74 23q45 0 73 -23.5t28 -62.5q0 -40 -27.5 -64t-73.5 -24t-73.5 24z" />
    <glyph glyph-name="j" unicode="j" horiz-adv-x="297" 
d="M-10 -182q-49 0 -74.5 19t-22.5 58q4 33 23.5 50t60.5 20l29 2q5 0 11 6t7 12l34 423q4 47 36 71.5t77 24.5q44 0 71.5 -24t23.5 -72l-33 -408q-5 -77 -53 -124.5t-134 -54.5l-33 -2q-8 -1 -23 -1zM106.5 597q-27.5 24 -27.5 64t27 63t74 23q45 0 73 -23.5t28 -62.5
q0 -40 -27.5 -64t-73.5 -24t-73.5 24z" />
    <glyph glyph-name="k" unicode="k" horiz-adv-x="605" 
d="M538 149q20 -24 20 -53q0 -26 -15.5 -50.5t-40.5 -39t-52 -14.5q-39 0 -68 33l-134 175l-8 -108q-4 -48 -36 -72.5t-76 -24.5t-72 24t-24 71l41 523q4 48 35 72.5t76 24.5q44 0 72.5 -24t24.5 -71l-25 -314l160 174q30 31 69 31q38 0 67 -27.5t29 -64.5q0 -34 -29 -63
l-90 -97z" />
    <glyph glyph-name="l" unicode="l" horiz-adv-x="297" 
d="M56.5 17.5q-28.5 24.5 -24.5 71.5l41 523q4 48 35 72.5t76 24.5t73 -24.5t24 -72.5l-41 -523q-4 -47 -35 -71.5t-75 -24.5q-45 0 -73.5 24.5z" />
    <glyph glyph-name="m" unicode="m" horiz-adv-x="911" 
d="M833.5 458q41.5 -48 41.5 -140q0 -22 -1 -34l-16 -195q-4 -47 -35 -71.5t-76 -24.5q-44 0 -72.5 24.5t-24.5 71.5l16 191q2 32 -9 50t-33 18q-29 0 -43 -19.5t-18 -70.5l-14 -169q-4 -47 -35 -71.5t-76 -24.5q-44 0 -72.5 24.5t-24.5 71.5l16 189q2 34 -8.5 52t-33.5 18
q-29 0 -43 -19.5t-18 -70.5l-14 -169q-4 -47 -35 -71.5t-75 -24.5q-45 0 -73.5 24.5t-24.5 71.5l26 321q4 45 37 69.5t76 24.5q33 0 56.5 -14.5t30.5 -41.5q31 30 67.5 44t83.5 14q45 0 79.5 -18.5t54.5 -52.5q71 71 171 71q78 0 119.5 -48z" />
    <glyph glyph-name="n" unicode="n" horiz-adv-x="617" 
d="M539.5 458q41.5 -48 41.5 -141q0 -23 -1 -35l-16 -193q-4 -44 -33 -70t-78 -26q-48 0 -74.5 26.5t-22.5 69.5l16 186q2 34 -11 53.5t-41 19.5q-58 0 -65 -76l-15 -183q-4 -44 -33 -70t-77 -26q-49 0 -74.5 26t-23.5 70l26 321q3 41 34.5 67.5t78.5 26.5q35 0 58 -16
t30 -43q26 29 66.5 45t90.5 16q82 0 123.5 -48z" />
    <glyph glyph-name="o" unicode="o" horiz-adv-x="614" 
d="M157 21.5q-64 30.5 -98.5 86.5t-34.5 130q0 84 35.5 144.5t99.5 92t149 31.5q86 0 150 -30.5t98.5 -86t34.5 -129.5q0 -84 -35 -144.5t-99 -92.5t-149 -32q-87 0 -151 30.5zM386 265q0 47 -17 68t-57 21q-83 0 -83 -119q0 -48 18 -70t56 -22q83 0 83 122z" />
    <glyph glyph-name="p" unicode="p" horiz-adv-x="638" 
d="M511.5 478q47.5 -28 74 -81.5t26.5 -127.5q0 -80 -30 -143t-84.5 -99t-124.5 -36q-43 0 -76 13.5t-60 39.5l-12 -144q-3 -40 -32.5 -65t-75.5 -25q-48 0 -75.5 27t-24.5 68l39 503q3 43 31.5 69.5t76.5 26.5q37 0 60.5 -16.5t32.5 -45.5q24 31 60.5 47.5t84.5 16.5
q62 0 109.5 -28zM385 173q22 30 22 81q0 49 -21 74.5t-60 25.5q-36 0 -57.5 -29.5t-21.5 -76.5q0 -52 20 -78.5t57 -26.5q39 0 61 30z" />
    <glyph glyph-name="q" unicode="q" horiz-adv-x="638" 
d="M584 477.5q26 -26.5 23 -69.5l-39 -503q-3 -41 -34.5 -68t-80.5 -27q-46 0 -71 25t-22 65l12 146q-24 -26 -59 -40.5t-78 -14.5q-62 0 -109.5 28.5t-74 82t-26.5 126.5q0 80 30 143.5t84.5 99t124.5 35.5q47 0 82.5 -15.5t63.5 -46.5q12 28 38.5 44t62.5 16
q47 0 73 -26.5zM368 172.5q22 29.5 22 76.5q0 53 -20 79t-57 26q-39 0 -61 -29.5t-22 -79.5t20.5 -76t59.5 -26q36 0 58 29.5z" />
    <glyph glyph-name="r" unicode="r" horiz-adv-x="440" 
d="M458.5 488.5q20.5 -17.5 20.5 -53.5l-1 -13q-5 -48 -28 -68t-83 -27l-27 -3q-35 -4 -52.5 -13t-25 -25.5t-10.5 -47.5l-12 -149q-4 -47 -35 -71.5t-75 -24.5q-45 0 -73.5 24.5t-24.5 71.5l26 321q4 45 36 69.5t74 24.5q38 0 62 -19t26 -55q28 32 66 51.5t70 21.5l13 1
q33 2 53.5 -15.5z" />
    <glyph glyph-name="s" unicode="s" horiz-adv-x="494" 
d="M60 17q-30 12 -45 33.5t-15 45.5q0 30 19.5 52.5t48.5 22.5q18 0 37 -10q30 -12 71 -20t74 -8q42 0 42 14q0 11 -17.5 18.5t-55.5 16.5q-56 15 -93 29.5t-65 45.5t-28 81q0 48 30.5 86.5t87 60t131.5 21.5q28 0 69.5 -6.5t69.5 -15.5q26 -13 38.5 -34t12.5 -44
q0 -29 -17.5 -50t-44.5 -21q-16 0 -31 7q-31 13 -59 18t-59 5q-22 0 -34.5 -3.5t-12.5 -9.5q0 -12 17.5 -19.5t56.5 -17.5q54 -14 91.5 -29.5t65.5 -46.5t28 -80q0 -80 -62 -124t-180 -44q-92 0 -171 26z" />
    <glyph glyph-name="t" unicode="t" horiz-adv-x="425" 
d="M417 125q12 -17 12 -45q0 -49 -30.5 -69t-106.5 -20q-100 0 -151.5 48t-51.5 140q0 20 1 30l11 133h-17q-43 0 -66 18.5t-23 52.5q0 41 25 61t77 20h17l4 50q4 45 34 71t78 26q49 0 74.5 -26t21.5 -70l-4 -51h37q42 0 64.5 -18.5t22.5 -51.5q0 -43 -24 -62.5t-76 -19.5
h-37l-11 -135l-1 -14q0 -28 11.5 -41t35.5 -13q8 0 18.5 1.5t22.5 1.5q20 0 32 -17z" />
    <glyph glyph-name="u" unicode="u" horiz-adv-x="612" 
d="M558.5 477.5q25.5 -26.5 21.5 -69.5l-26 -320q-3 -41 -33 -68t-77 -27q-35 0 -59 16.5t-31 43.5q-26 -29 -66 -45.5t-88 -16.5q-81 0 -122.5 47.5t-41.5 138.5q0 22 1 34l16 197q4 43 34.5 69.5t79.5 26.5q48 0 73 -26.5t21 -69.5l-16 -186q-2 -34 10.5 -53.5t39.5 -19.5
q28 0 43.5 20.5t18.5 56.5l15 182q4 43 34 69.5t79 26.5q48 0 73.5 -26.5z" />
    <glyph glyph-name="v" unicode="v" horiz-adv-x="549" 
d="M404.5 492.5q23.5 14.5 50.5 14.5q37 0 66 -24t29 -58q0 -18 -11 -40l-167 -321q-19 -35 -51 -54t-68 -19q-35 0 -64 18.5t-41 53.5l-115 326q-4 11 -4 24q0 25 16.5 47t43 35t52.5 13t47 -14.5t31 -43.5l61 -192l87 190q14 30 37.5 44.5z" />
    <glyph glyph-name="w" unicode="w" horiz-adv-x="881" 
d="M735 491q24 15 52 15q38 0 66 -23t28 -59q0 -21 -12 -45l-175 -329q-14 -28 -44.5 -43t-64.5 -15t-61 14.5t-35 40.5l-54 157l-74 -154q-13 -28 -43 -43t-65 -15q-34 0 -61 14t-36 41l-120 330q-5 14 -5 32q0 42 34 69.5t76 27.5q28 0 49.5 -14t30.5 -43l62 -200l97 201
q12 26 35 40t49 14q25 0 45.5 -13.5t28.5 -40.5l64 -203l95 200q14 29 38 44z" />
    <glyph glyph-name="x" unicode="x" horiz-adv-x="558" 
d="M504 153q25 -29 25 -61q0 -39 -30.5 -69t-68.5 -30q-39 0 -70 35l-90 98l-109 -100q-33 -33 -72 -33q-35 0 -60 24.5t-25 59.5q0 40 36 75l116 101l-92 92q-25 29 -25 63q0 39 30 68.5t69 29.5t70 -35l84 -89l98 87q35 35 76 35q34 0 58.5 -24.5t24.5 -58.5
q0 -38 -34 -71l-109 -96z" />
    <glyph glyph-name="y" unicode="y" horiz-adv-x="549" 
d="M404.5 492.5q23.5 14.5 50.5 14.5q37 0 66 -24t29 -58q0 -18 -11 -40l-270 -515q-16 -29 -38 -43.5t-46 -14.5q-35 0 -60 24t-25 61q0 21 12 47l46 92l-125 353q-4 11 -4 24q0 25 16.5 47t43 35t52.5 13t47 -14.5t31 -43.5l61 -192l87 190q14 30 37.5 44.5z" />
    <glyph glyph-name="z" unicode="z" horiz-adv-x="524" 
d="M504 84q0 -43 -24.5 -63.5t-76.5 -20.5h-299q-40 0 -62.5 23.5t-22.5 58.5q0 44 34 79l190 181h-126q-89 0 -89 68q0 43 25 63.5t77 20.5h292q40 0 62.5 -23.5t22.5 -57.5q0 -44 -33 -78l-192 -183h134q88 0 88 -68z" />
    <glyph glyph-name="braceleft" unicode="{" horiz-adv-x="458" 
d="M317 308q-30 -35 -66 -43q34 -9 58.5 -46.5t20.5 -84.5l-9 -120q-1 -25 8 -33.5t29 -8.5h6q26 0 46 -18t20 -50q0 -44 -23 -64t-56 -20h-78q-69 0 -113.5 38.5t-44.5 104.5l1 15l11 130l1 17q0 28 -11 41.5t-37 16.5q-32 3 -49 22.5t-17 51.5q0 36 20 58t59 25
q29 4 42.5 20.5t16.5 54.5l10 132q5 76 44 117t111 41h105q26 0 46 -18.5t20 -50.5q0 -44 -23 -63.5t-58 -19.5h-3q-20 0 -30.5 -8.5t-12.5 -33.5l-10 -122q-4 -46 -34 -81z" />
    <glyph glyph-name="bar" unicode="|" horiz-adv-x="313" 
d="M57.5 -158.5q-24.5 26.5 -22.5 67.5l57 707q3 41 31.5 67.5t70.5 26.5q41 0 66 -26.5t22 -67.5l-57 -707q-2 -41 -31 -67.5t-71 -26.5q-41 0 -65.5 26.5z" />
    <glyph glyph-name="braceright" unicode="}" horiz-adv-x="458" 
d="M429 319.5q17 -19.5 17 -51.5q0 -36 -19.5 -58t-59.5 -26q-29 -3 -42 -19.5t-16 -54.5l-10 -132q-5 -76 -44 -117t-111 -41h-105q-26 0 -46 18.5t-20 50.5q0 44 23 63.5t55 19.5h6q19 0 29.5 8.5t13.5 33.5l9 122q4 46 34 81t66 43q-33 9 -58 46t-21 84l10 121
q2 24 -7.5 33t-29.5 9h-5q-27 0 -47.5 18t-20.5 51q0 43 23.5 63t56.5 20h77q47 0 84.5 -19t57.5 -55t16 -84l-12 -131l-1 -16q0 -28 11 -41.5t37 -16.5q32 -3 49 -22.5z" />
    <glyph glyph-name="asciitilde" unicode="~" 
d="M341.5 204.5q-26.5 9.5 -60.5 26.5q-25 13 -39.5 18.5t-27.5 5.5h-12q-11 0 -15 -3q-31 -28 -63 -28q-23 0 -38.5 14.5t-15.5 36.5q0 20 14 40q24 32 57.5 50t67.5 18q27 0 52 -9t62 -26q24 -12 39.5 -18t28.5 -6h12q10 0 14 3q32 29 64 29q24 0 40 -16t16 -39
q0 -20 -15 -40q-24 -31 -58.5 -48.5t-68.5 -17.5q-27 0 -53.5 9.5z" />
    <glyph glyph-name="uni00A0" unicode="&#xa0;" horiz-adv-x="295" 
 />
    <glyph glyph-name="exclamdown" unicode="&#xa1;" horiz-adv-x="285" 
d="M77 315.5q-31 31.5 -31 78.5t31 78.5t78 31.5t78 -31.5t31 -78.5t-31 -78.5t-78 -31.5t-78 31.5zM29.5 -156.5q-32.5 30.5 -32.5 74.5q0 14 3 28l76 239q7 30 25 46t42 16q25 0 40 -15.5t17 -46.5l38 -240q5 -62 -29.5 -97t-95.5 -35q-51 0 -83.5 30.5z" />
    <glyph glyph-name="cent" unicode="&#xa2;" 
d="M479 167q25 0 39.5 -19t14.5 -47q0 -25 -11.5 -47.5t-33.5 -36.5q-22 -9 -52.5 -16t-60.5 -9l-2 -33q-3 -36 -25 -57.5t-57 -21.5q-37 0 -60 22t-20 57l5 55q-72 27 -112 84.5t-40 136.5q0 99 50 166t140 92l4 45q3 36 27 58t59 22q36 0 57 -22t18 -58l-2 -35
q59 -6 100 -25q19 -9 28 -27.5t9 -40.5q0 -32 -17 -56.5t-45 -24.5q-17 0 -32 8q-56 14 -86 14q-46 0 -71.5 -28.5t-25.5 -81.5q0 -45 22.5 -70t61.5 -25q24 0 42 2.5t41 9.5q20 9 35 9z" />
    <glyph glyph-name="sterling" unicode="&#xa3;" 
d="M339 535q-15 -14 -17 -40l-7 -83h104q24 0 40.5 -16t16.5 -40q0 -27 -19.5 -44.5t-48.5 -17.5h-103l-10 -124h194q95 0 95 -75q0 -50 -25.5 -72.5t-83.5 -22.5h-376q-95 0 -95 81q0 39 19 60.5t60 26.5l10 126h-10q-25 0 -41.5 15.5t-16.5 40.5q0 27 19.5 44.5t48.5 17.5
h9l7 100q5 60 38.5 106t93 71.5t138.5 25.5q122 0 214 -49q38 -25 38 -66q0 -33 -25.5 -59.5t-62.5 -26.5q-27 0 -56 16q-53 19 -105 19q-28 0 -43 -14z" />
    <glyph glyph-name="currency" unicode="&#xa4;" 
d="M85 38.5q-9 14.5 -9 32.5q2 14 11 21l37 36q-40 50 -40 122q0 67 38 121l-26 22q-11 13 -15.5 21.5t-4.5 22.5q0 15 12 26.5t28 11.5q7 0 14 -5t13 -11.5t9 -9.5l27 -23q55 30 121 30q71 0 122 -30l26 23q10 10 21 16.5t19 6.5q13 0 24 -10t13 -24q0 -16 -5 -25t-16 -20
l-26 -22q20 -25 29.5 -56.5t9.5 -64.5q0 -68 -42 -122l23 -18q15 -17 20.5 -27t6.5 -27q-5 -34 -45 -34q-13 4 -32 26l-31 27q-46 -25 -117 -25q-37 0 -65.5 6t-51.5 20l-25 -22q-15 -18 -24.5 -25t-21.5 -7q-18 2 -27 16.5zM397.5 155.5q36.5 37.5 36.5 94.5q0 34 -16 65
t-46 50t-72 19q-64 0 -98 -39.5t-34 -94.5q0 -54 35 -93t97 -39q61 0 97.5 37.5z" />
    <glyph glyph-name="yen" unicode="&#xa5;" 
d="M463 704.5q21 10.5 44 10.5q39 0 69.5 -25.5t30.5 -61.5q0 -26 -20 -52l-119 -159h44q23 0 40 -15.5t17 -38.5q0 -30 -19.5 -47t-46.5 -17h-91l-3 -38h91q24 0 40.5 -15.5t16.5 -40.5q0 -28 -20.5 -45t-47.5 -17h-89l-4 -44q-4 -51 -37 -78.5t-79 -27.5q-47 0 -75 27
t-24 79l3 44h-90q-24 0 -40.5 15.5t-16.5 40.5q0 29 20.5 45.5t47.5 16.5h89l3 38h-89q-24 0 -41.5 16t-17.5 40q0 29 20.5 45.5t47.5 16.5h42l-87 155q-14 24 -14 48q0 39 33 66.5t73 27.5q25 0 45.5 -12t34.5 -36l73 -153l109 159q16 22 37 32.5z" />
    <glyph glyph-name="brokenbar" unicode="&#xa6;" horiz-adv-x="313" 
d="M104 389q-25 23 -25 60l1 11l12 156q3 41 32 67.5t70 26.5t66 -26.5t22 -67.5l-12 -156q-5 -41 -33.5 -67.5t-69.5 -26.5q-38 0 -63 23zM57.5 -158.5q-24.5 26.5 -22.5 67.5l13 156q3 41 32 67.5t71 26.5q41 0 65.5 -26.5t21.5 -67.5l-13 -156q-2 -41 -31.5 -67.5
t-70.5 -26.5t-65.5 26.5z" />
    <glyph glyph-name="section" unicode="&#xa7;" horiz-adv-x="615" 
d="M508 89q25 -41 25 -80q0 -92 -73.5 -144.5t-202.5 -52.5q-56 0 -115 13t-96 34q-34 21 -34 62q0 31 19.5 56t47.5 25q15 0 29 -7q36 -16 74.5 -25.5t67.5 -9.5q38 0 59.5 9t21.5 26q0 11 -9 19.5t-30 17.5l-152 78q-60 28 -88 68.5t-28 96.5q0 100 89 162q-28 40 -28 80
q0 57 32.5 100.5t92.5 68.5t140 26q60 2 108 -7.5t95 -32.5q19 -10 28.5 -26t9.5 -34q0 -30 -21.5 -54.5t-48.5 -24.5q-6 0 -20 4q-43 17 -70.5 23t-56.5 6q-46 0 -66.5 -7.5t-20.5 -25.5q0 -10 10 -21.5t27 -18.5l153 -77q58 -27 87.5 -68.5t29.5 -94.5q0 -104 -86 -164z
M401 178q6 11 6 19q0 53 -52 80l-136 74q-11 -16 -11 -24q0 -24 15 -44.5t39 -31.5z" />
    <glyph glyph-name="dieresis" unicode="&#xa8;" horiz-adv-x="343" 
d="M42.5 598.5q-23.5 22.5 -23.5 60.5q0 37 23.5 59t61.5 22q39 0 63 -22t24 -59q0 -38 -24 -60.5t-63 -22.5q-38 0 -61.5 22.5zM241.5 598.5q-23.5 22.5 -23.5 60.5q0 37 23.5 59t63.5 22q37 0 61 -22t24 -59q0 -38 -23.5 -60.5t-61.5 -22.5q-40 0 -63.5 22.5z" />
    <glyph glyph-name="copyright" unicode="&#xa9;" horiz-adv-x="816" 
d="M235 42.5q-82 47.5 -129 129t-47 181.5t47 181.5t129 128.5t182 47t181.5 -47t128.5 -128.5t47 -181.5t-47 -181.5t-129 -129t-181 -47.5q-100 0 -182 47.5zM562.5 102.5q64.5 37.5 100.5 103t36 147.5t-36 147.5t-100.5 102.5t-145.5 37q-82 0 -146.5 -37t-100.5 -102.5
t-36 -147.5t36 -147.5t100.5 -103t146.5 -37.5q81 0 145.5 37.5zM315 164q-50 27 -77.5 76t-27.5 113t27.5 112.5t77.5 75.5t115 27q85 0 126 -31q16 -12 21.5 -23t5.5 -30q0 -23 -14.5 -43t-39.5 -20q-12 0 -21 2.5t-26 10.5q-3 1 -16 4.5t-25 3.5q-35 0 -51 -19t-16 -70
q0 -52 16 -71t51 -19q12 0 25 3.5t16 4.5q17 8 26 10.5t21 2.5q25 0 39.5 -20t14.5 -43q0 -20 -5 -32t-22 -21q-32 -15 -59.5 -23t-66.5 -8q-65 0 -115 27z" />
    <glyph glyph-name="ordfeminine" unicode="&#xaa;" horiz-adv-x="366" 
d="M330.5 677.5q35.5 -32.5 35.5 -103.5q0 -16 -1 -24l-5 -79q-3 -34 -22.5 -53.5t-48.5 -19.5q-32 0 -50 16.5t-19 43.5q-15 -31 -36 -45.5t-52 -14.5q-38 0 -66 28t-28 66q0 46 37 68t117 22h34l1 7q1 9 -6.5 12t-30.5 3q-35 0 -68 -8q-10 -2 -14 -2q-20 0 -32 14t-12 34
q0 15 9 29t25 21q40 18 121 18q76 0 111.5 -32.5zM211 498q8 7 10 18v3h-41q-2 0 -6 -5t-4 -9q0 -14 20 -14q13 0 21 7zM218 469l2 -3v5z" />
    <glyph glyph-name="guillemotleft" unicode="&#xab;" horiz-adv-x="594" 
d="M68 207q-17 29 -17 55q0 32 26 67l83 108q15 20 34.5 30t40.5 10q30 0 50.5 -18t20.5 -47q0 -21 -13 -46l-53 -98l36 -98q7 -18 7 -36q0 -34 -24 -55.5t-56 -21.5q-21 0 -39.5 10.5t-30.5 31.5zM324 207q-17 29 -17 55q0 32 26 67l83 108q15 20 34.5 30t40.5 10
q30 0 50.5 -18t20.5 -47q0 -21 -13 -46l-53 -98l36 -98q7 -18 7 -36q0 -34 -24 -55.5t-56 -21.5q-21 0 -39.5 10.5t-30.5 31.5z" />
    <glyph glyph-name="logicalnot" unicode="&#xac;" 
d="M414.5 142.5q-18.5 19.5 -16.5 48.5l11 127h-279q-26 0 -44 19t-18 45q0 31 21 51.5t52 20.5h353q29 0 46.5 -19.5t15.5 -47.5l-15 -196q-4 -30 -24.5 -49t-49.5 -19q-34 0 -52.5 19.5z" />
    <glyph glyph-name="uni00AD" unicode="&#xad;" horiz-adv-x="452" 
d="M65 209.5q-23 20.5 -23 53.5q0 43 25 64.5t79 21.5h178q44 0 67 -20t23 -53q0 -87 -104 -87h-178q-44 0 -67 20.5z" />
    <glyph glyph-name="registered" unicode="&#xae;" horiz-adv-x="816" 
d="M598.5 663q81.5 -47 128.5 -128.5t47 -181.5t-47 -181.5t-129 -129t-181 -47.5q-100 0 -181.5 47.5t-129 129t-47.5 181.5t47 181.5t129 128.5t182 47t181.5 -47zM562 102.5q64 37.5 100.5 103t36.5 147.5t-36.5 147.5t-100.5 102.5t-145 37t-145.5 -37t-101 -102.5
t-36.5 -147.5t36.5 -148t101 -103t145.5 -37t145 37.5zM591 345q-27 -36 -76 -50q22 -3 37.5 -12.5t33.5 -30.5l9 -3q15 -19 15 -40q0 -29 -28 -50t-62 -21q-43 0 -62 32l-71 109l-2 3l-6 -65q-3 -38 -26.5 -59t-55.5 -21q-37 0 -58.5 20.5t-18.5 59.5l23 275q6 74 79 74
h130q79 0 122.5 -35t43.5 -97q0 -53 -27 -89zM431 392q18 0 26 7.5t8 25.5q0 11 -8.5 16t-27.5 5h-34l-4 -54h40z" />
    <glyph glyph-name="macron" unicode="&#xaf;" horiz-adv-x="317" 
d="M28.5 617q-14.5 14 -14.5 39q0 27 17.5 41t44.5 14h242q22 0 36.5 -13t14.5 -35q0 -30 -17 -45t-45 -15h-241q-23 0 -37.5 14z" />
    <glyph glyph-name="degree" unicode="&#xb0;" horiz-adv-x="370" 
d="M128 420q-37 20 -58 55.5t-21 79.5t21 79.5t58 55.5t82 20q44 0 81 -20t58 -55.5t21 -79.5t-21 -79.5t-57.5 -55.5t-81.5 -20t-82 20zM250 512q17 17 17 43t-17 43t-40 17q-24 0 -41 -17t-17 -43t17 -43t41 -17q23 0 40 17z" />
    <glyph glyph-name="plusminus" unicode="&#xb1;" 
d="M531.5 296q-21.5 -20 -51.5 -20h-108l-4 -51q-3 -29 -24.5 -48t-49.5 -19q-29 0 -47.5 19.5t-15.5 48.5l4 50h-108q-27 0 -44.5 19.5t-17.5 47.5q0 31 21 51t51 20h109l4 51q1 28 22 48t50 20t47.5 -19.5t16.5 -48.5l-4 -51h109q27 0 44.5 -19.5t17.5 -47.5
q0 -31 -21.5 -51zM513 117.5q18 -18.5 18 -45.5q0 -31 -21.5 -51.5t-52.5 -20.5h-353q-26 0 -44 18.5t-18 44.5q0 31 21 52t52 21h353q27 0 45 -18.5z" />
    <glyph glyph-name="uni00B2" unicode="&#xb2;" horiz-adv-x="403" 
d="M376 385q16 -18 16 -42q0 -25 -16 -43t-48 -18h-224q-32 0 -48.5 17t-16.5 42q0 15 6 29t17 24l136 129q31 28 31 49q0 11 -10 16.5t-29 5.5q-38 0 -70 -17q-12 -6 -21 -6q-19 0 -31 16t-12 38q0 30 24 48q51 36 142 36q73 0 119 -33.5t46 -87.5q0 -41 -22 -75.5
t-75 -75.5l-48 -34h88q30 0 46 -18z" />
    <glyph glyph-name="uni00B3" unicode="&#xb3;" horiz-adv-x="402" 
d="M364.5 464.5q18.5 -23.5 18.5 -54.5q0 -60 -49.5 -97t-131.5 -37q-81 0 -135 23q-19 9 -28 25.5t-9 35.5q0 23 12 40.5t31 17.5q8 0 20 -5q24 -10 51 -15.5t48 -5.5q48 0 48 27q0 8 -8.5 12.5t-25.5 4.5h-31q-34 0 -49.5 16t-15.5 39q0 25 16 43.5t48 18.5h24q22 0 31 4
t9 14q0 12 -10 17.5t-32 5.5q-49 0 -77 -16q-10 -6 -21 -6q-18 0 -30.5 16t-12.5 38q0 30 24 48q23 17 59.5 26t81.5 9q74 0 119.5 -32.5t45.5 -86.5q0 -32 -19 -55.5t-55 -34.5q35 -12 53.5 -35.5z" />
    <glyph glyph-name="acute" unicode="&#xb4;" horiz-adv-x="292" 
d="M197 553q-18 0 -30 11t-12 29q0 14 8 29l37 103q11 22 28 33t36 11q27 0 48 -18.5t21 -44.5q0 -25 -22 -50l-61 -77q-23 -26 -53 -26z" />
    <glyph glyph-name="uni00B5" unicode="&#xb5;" horiz-adv-x="612" 
d="M559 477.5q26 -26.5 22 -69.5l-25 -320q-3 -41 -34 -68t-78 -27q-35 0 -58.5 17t-30.5 45q-22 -25 -54.5 -41.5t-70.5 -21.5l-7 -83q-3 -41 -34.5 -67.5t-80.5 -26.5q-46 0 -71.5 25t-21.5 65l40 503q4 44 33.5 70t78.5 26q48 0 74 -26.5t22 -69.5l-18 -186
q-2 -29 11 -51t39 -22q27 0 44 21.5t19 55.5l15 182q4 44 33.5 70t78.5 26q48 0 74 -26.5zM211 -9h-4q2 0 1 -4z" />
    <glyph glyph-name="paragraph" unicode="&#xb6;" horiz-adv-x="668" 
d="M245 -167q-17 18 -15 46l28 350q-64 1 -114 27.5t-78 75.5t-28 116q0 77 31.5 135t90 90t138.5 32h285q28 0 44.5 -18t14.5 -46l-60 -762q-1 -28 -21 -46t-47 -18q-28 0 -45 18t-15 46l56 713h-95l-57 -713q-1 -28 -20.5 -46t-47.5 -18t-45 18z" />
    <glyph glyph-name="periodcentered" unicode="&#xb7;" horiz-adv-x="285" 
d="M66 191.5q-31 31.5 -31 78.5q0 46 31 77.5t78 31.5t78.5 -31.5t31.5 -77.5q0 -47 -31.5 -78.5t-78.5 -31.5t-78 31.5z" />
    <glyph glyph-name="cedilla" unicode="&#xb8;" horiz-adv-x="313" 
d="M232 -57.5q23 -18.5 23 -50.5q0 -42 -38.5 -66.5t-101.5 -24.5q-48 0 -75 9q-11 3 -17 12t-6 20q0 16 10 28t24 8q14 -3 30 -5t23 -2q23 0 33.5 5t10.5 16q0 7 -7.5 11.5t-19.5 4.5q-8 0 -18.5 -2.5t-15.5 -2.5q-12 0 -16.5 5.5t-1.5 14.5l21 97h92l-15 -59h2
q40 0 63 -18.5z" />
    <glyph glyph-name="uni00B9" unicode="&#xb9;" horiz-adv-x="424" 
d="M395.5 388.5q17.5 -14.5 17.5 -39.5q0 -36 -18.5 -51.5t-63.5 -15.5h-176q-72 0 -72 58q0 32 20 47.5t62 15.5h10l11 142l-19 -9q-14 -7 -29 -7q-24 0 -41 18t-17 41q0 16 9.5 30.5t29.5 23.5l104 51q34 16 60 16q33 0 51.5 -20.5t16.5 -59.5l-19 -226h9q37 0 54.5 -14.5
z" />
    <glyph glyph-name="ordmasculine" unicode="&#xba;" horiz-adv-x="397" 
d="M87 437.5q-47 39.5 -47 103.5q0 79 52 124t139 45q81 0 128 -39.5t47 -105.5q0 -77 -53 -122t-139 -45q-80 0 -127 39.5zM250.5 526q11.5 13 11.5 33q0 16 -10.5 26.5t-25.5 10.5q-38 0 -38 -45q0 -16 9.5 -27t23.5 -11q18 0 29.5 13z" />
    <glyph glyph-name="guillemotright" unicode="&#xbb;" horiz-adv-x="585" 
d="M147 67q-20 -10 -42 -10q-29 0 -49.5 17.5t-20.5 46.5q0 22 13 47l53 99l-36 98q-7 18 -7 36q0 33 24 54.5t55 21.5q21 0 40 -10.5t31 -31.5l65 -108q16 -28 16 -54q0 -33 -25 -67l-82 -108q-15 -21 -35 -31zM403 67q-20 -10 -42 -10q-29 0 -49.5 17.5t-20.5 46.5
q0 22 13 47l53 99l-36 98q-7 18 -7 36q0 33 24 54.5t55 21.5q21 0 40 -10.5t31 -31.5l65 -108q16 -28 16 -54q0 -33 -25 -67l-82 -108q-15 -21 -35 -31z" />
    <glyph glyph-name="onequarter" unicode="&#xbc;" horiz-adv-x="1006" 
d="M726 729q25 0 44 -17t19 -43q0 -22 -14 -43l-405 -614q-24 -36 -61 -36q-25 0 -44 17t-19 43q0 22 14 43l405 614q24 36 61 36zM394.5 297.5q-18.5 -15.5 -63.5 -15.5h-176q-72 0 -72 58q0 32 20 47.5t62 15.5h10l11 142l-19 -9q-14 -7 -29 -7q-24 0 -41 18t-17 41
q0 16 9.5 30.5t29.5 23.5l104 51q34 16 60 16q33 0 51.5 -20.5t16.5 -59.5l-19 -226h9q37 0 54.5 -14.5t17.5 -39.5q0 -36 -18.5 -51.5zM976 149.5q14 -12.5 14 -38.5t-17.5 -41t-43.5 -15h-7q-4 -29 -23.5 -45t-47.5 -16t-45 16t-17 45h-121q-30 0 -46.5 17.5t-16.5 43.5
q0 33 24 63l176 212q14 17 33 26t39 9q31 0 52 -21t18 -58l-15 -184q30 -1 44 -13.5zM797 163l6 81l-69 -81h63z" />
    <glyph glyph-name="onehalf" unicode="&#xbd;" horiz-adv-x="1009" 
d="M726 729q25 0 44 -17t19 -43q0 -22 -14 -43l-405 -614q-24 -36 -61 -36q-25 0 -44 17t-19 43q0 22 14 43l405 614q24 36 61 36zM394.5 297.5q-18.5 -15.5 -63.5 -15.5h-176q-72 0 -72 58q0 32 20 47.5t62 15.5h10l11 142l-19 -9q-14 -7 -29 -7q-24 0 -41 18t-17 41
q0 16 9.5 30.5t29.5 23.5l104 51q34 16 60 16q33 0 51.5 -20.5t16.5 -59.5l-19 -226h9q37 0 54.5 -14.5t17.5 -39.5q0 -36 -18.5 -51.5zM960 103q16 -18 16 -42q0 -25 -16 -43t-48 -18h-224q-32 0 -48.5 17t-16.5 42q0 15 6 29t17 24l136 129q31 28 31 49q0 11 -10 16.5
t-29 5.5q-38 0 -70 -17q-12 -6 -21 -6q-19 0 -31 16t-12 38q0 30 24 48q51 36 142 36q73 0 118 -33t45 -88q0 -42 -21 -76t-74 -75l-48 -34h88q30 0 46 -18z" />
    <glyph glyph-name="threequarters" unicode="&#xbe;" horiz-adv-x="991" 
d="M711 729q25 0 44 -17t19 -43q0 -22 -14 -43l-405 -614q-24 -36 -61 -36q-25 0 -44 17.5t-19 43.5q0 19 14 42l405 614q24 36 61 36zM333.5 313q-49.5 -37 -131.5 -37q-81 0 -135 23q-19 9 -28 25.5t-9 35.5q0 23 12 40.5t31 17.5q8 0 20 -5q24 -10 51 -15.5t48 -5.5
q48 0 48 27q0 8 -8.5 12.5t-25.5 4.5h-31q-34 0 -49.5 16t-15.5 39q0 25 16 43.5t48 18.5h24q22 0 31 4t9 14q0 12 -10 17.5t-32 5.5q-49 0 -77 -16q-10 -6 -21 -6q-18 0 -30.5 16t-12.5 38q0 30 24 48q23 17 59.5 26t81.5 9q74 0 119.5 -32.5t45.5 -86.5q0 -32 -19 -55.5
t-55 -34.5q35 -12 53.5 -35.5t18.5 -54.5q0 -60 -49.5 -97zM962 149.5q14 -12.5 14 -38.5t-18 -41t-44 -15h-7q-4 -29 -23 -45t-48 -16q-28 0 -45 16t-16 45h-122q-30 0 -46.5 17.5t-16.5 43.5q0 33 24 63l177 212q14 17 33 26t39 9q31 0 51.5 -21t17.5 -58l-15 -184
q31 -1 45 -13.5zM789 244l-69 -81h63z" />
    <glyph glyph-name="questiondown" unicode="&#xbf;" horiz-adv-x="489" 
d="M178 315.5q-31 31.5 -31 78.5t31 78.5t78 31.5q46 0 77.5 -31.5t31.5 -78.5t-31.5 -78.5t-77.5 -31.5q-47 0 -78 31.5zM90 -168q-53 21 -83 59.5t-30 89.5q0 44 20 75.5t47 50t68 39.5q30 15 45.5 25.5t20.5 22.5q7 25 25.5 39t44.5 14q30 0 45 -19.5t12 -55.5
q-5 -44 -25.5 -68.5t-53.5 -48.5q-20 -13 -29 -22.5t-9 -21.5q0 -34 51 -34q54 0 129 34q17 10 33 10q27 0 44.5 -24t17.5 -56q0 -22 -9.5 -42t-28.5 -34q-77 -54 -213 -54q-69 0 -122 21z" />
    <glyph glyph-name="Agrave" unicode="&#xc0;" horiz-adv-x="771" 
d="M745 88q0 -40 -33 -66.5t-73 -26.5q-27 0 -48.5 14t-31.5 42l-30 84h-294l-42 -82q-15 -29 -39 -43t-51 -14q-38 0 -68 24.5t-30 61.5q0 24 14 48l288 517q17 32 49 49t67 17t64 -17t41 -47l211 -528q6 -18 6 -33zM473 295l-64 184l-93 -184h157zM306 837q-17 17 -17 37
q0 22 19.5 38t44.5 16q32 0 47 -28l43 -78q6 -10 6 -22q0 -17 -13.5 -28.5t-31.5 -11.5q-23 0 -40 18z" />
    <glyph glyph-name="Aacute" unicode="&#xc1;" horiz-adv-x="771" 
d="M745 88q0 -40 -33 -66.5t-73 -26.5q-27 0 -48.5 14t-31.5 42l-30 84h-294l-42 -82q-15 -29 -39 -43t-51 -14q-38 0 -68 24.5t-30 61.5q0 24 14 48l288 517q17 32 49 49t67 17t64 -17t41 -47l211 -528q6 -18 6 -33zM473 295l-64 184l-93 -184h157zM451 761
q-17 0 -29.5 11.5t-12.5 28.5q0 15 10 29l50 72q18 27 46 27q23 0 42 -17.5t19 -39.5t-20 -41l-66 -54q-17 -16 -39 -16z" />
    <glyph glyph-name="Acircumflex" unicode="&#xc2;" horiz-adv-x="771" 
d="M745 88q0 -40 -33 -66.5t-73 -26.5q-27 0 -48.5 14t-31.5 42l-30 84h-294l-42 -82q-15 -29 -39 -43t-51 -14q-38 0 -68 24.5t-30 61.5q0 24 14 48l288 517q17 32 49 49t67 17t64 -17t41 -47l211 -528q6 -18 6 -33zM473 295l-64 184l-93 -184h157zM362.5 769
q-14.5 -7 -28.5 -7q-18 0 -31 10t-13 26q0 19 19 39l63 68q26 24 67 24q19 0 36 -6t26 -18l55 -68q12 -15 12 -29q0 -19 -17 -33t-38 -14q-31 0 -48 29l-29 52l-47 -52q-12 -14 -26.5 -21z" />
    <glyph glyph-name="Atilde" unicode="&#xc3;" horiz-adv-x="771" 
d="M745 88q0 -40 -33 -66.5t-73 -26.5q-27 0 -48.5 14t-31.5 42l-30 84h-294l-42 -82q-15 -29 -39 -43t-51 -14q-38 0 -68 24.5t-30 61.5q0 24 14 48l288 517q17 32 49 49t67 17t64 -17t41 -47l211 -528q6 -18 6 -33zM473 295l-64 184l-93 -184h157zM468 771.5
q-18 6.5 -42 17.5q-23 11 -38 16.5t-29 5.5q-13 0 -20.5 -5t-17.5 -15q-7 -9 -15 -14t-20 -5q-16 0 -24.5 10.5t-8.5 28.5q0 26 12.5 52.5t37.5 43.5t59 17q17 0 35 -6t42 -18q44 -21 67 -21q13 0 21 5t17 14t16.5 13.5t19.5 4.5q32 0 32 -38q0 -26 -12.5 -52.5t-37 -43.5
t-58.5 -17q-18 0 -36 6.5z" />
    <glyph glyph-name="Adieresis" unicode="&#xc4;" horiz-adv-x="771" 
d="M745 88q0 -40 -33 -66.5t-73 -26.5q-27 0 -48.5 14t-31.5 42l-30 84h-294l-42 -82q-15 -29 -39 -43t-51 -14q-38 0 -68 24.5t-30 61.5q0 24 14 48l288 517q17 32 49 49t67 17t64 -17t41 -47l211 -528q6 -18 6 -33zM473 295l-64 184l-93 -184h157zM271.5 785.5
q-23.5 22.5 -23.5 60.5q0 36 23.5 57.5t61.5 21.5q39 0 63 -21.5t24 -57.5q0 -38 -24 -60.5t-63 -22.5q-38 0 -61.5 22.5zM470.5 785.5q-23.5 22.5 -23.5 60.5q0 36 23.5 57.5t63.5 21.5q37 0 61 -21.5t24 -57.5q0 -38 -23.5 -60.5t-61.5 -22.5q-40 0 -63.5 22.5z" />
    <glyph glyph-name="Aring" unicode="&#xc5;" horiz-adv-x="771" 
d="M745 88q0 -40 -33 -66.5t-73 -26.5q-27 0 -48.5 14t-31.5 42l-30 84h-294l-42 -82q-15 -29 -39 -43.5t-52 -14.5q-38 0 -67.5 24.5t-29.5 61.5q0 25 14 49l320 580q-25 30 -25 72q0 48 33.5 81t82.5 33q48 0 82 -33t34 -81q0 -25 -10 -47t-27 -37l230 -577q6 -18 6 -33z
M401.5 811q-11.5 -12 -11.5 -29t11.5 -29.5t28.5 -12.5t28 12t11 30q0 17 -11 29t-28 12t-28.5 -12zM473 295l-64 184l-93 -184h157z" />
    <glyph glyph-name="AE" unicode="&#xc6;" horiz-adv-x="1008" 
d="M652 541l15 -100h228q47 0 71 -19.5t24 -55.5q0 -47 -26.5 -68t-82.5 -21h-189l17 -113h185q46 0 70 -20t24 -57q0 -46 -27 -66.5t-82 -20.5h-262q-35 0 -58.5 15t-27.5 40l-12 80h-265l-54 -81q-22 -33 -51 -49t-59 -16q-36 0 -61.5 22.5t-25.5 58.5q0 39 31 81l362 497
q19 27 52.5 42t71.5 15h417q47 0 71 -19.5t24 -55.5q0 -46 -27.5 -67.5t-82.5 -21.5h-270zM495 295l-25 164l-109 -164h134z" />
    <glyph glyph-name="Ccedilla" unicode="&#xc7;" horiz-adv-x="679" 
d="M215.5 32q-80.5 42 -123.5 119.5t-43 181.5q0 115 48.5 201.5t137 133.5t204.5 47q80 0 173 -30l23 -6q28 -17 41.5 -40t13.5 -48q0 -34 -22.5 -59t-56.5 -25q-23 0 -50 15q-5 1 -28 7q-53 16 -82 16q-89 0 -136.5 -56.5t-47.5 -154.5q0 -86 36 -130t106 -44q22 0 42 4.5
t49 13.5q27 8 36 10q22 11 44 11q32 0 52 -22t20 -54q0 -23 -11.5 -45.5t-34.5 -39.5q-27 -16 -83 -32t-116 -16q-111 0 -191.5 42zM473 -57.5q23 -18.5 23 -50.5q0 -42 -38.5 -66.5t-101.5 -24.5q-48 0 -75 9q-11 3 -17 12t-6 20q0 16 10 28t24 8q14 -3 30 -5t23 -2
q23 0 33.5 5t10.5 16q0 7 -7.5 11.5t-19.5 4.5q-8 0 -18.5 -2.5t-15.5 -2.5q-12 0 -16.5 5.5t-1.5 14.5l21 97h92l-15 -59h2q40 0 63 -18.5z" />
    <glyph glyph-name="Egrave" unicode="&#xc8;" horiz-adv-x="602" 
d="M290 541l-8 -100h207q47 0 71 -19.5t24 -55.5q0 -46 -26.5 -67.5t-81.5 -21.5h-207l-9 -113h228q47 0 71 -20t24 -57q0 -45 -27.5 -66t-82.5 -21h-337q-44 0 -67.5 22t-23.5 62l1 14l40 508q5 47 32.5 73t75.5 26h337q47 0 71 -20t24 -55q0 -47 -27 -68t-83 -21h-226z
M257 837q-17 17 -17 37q0 22 19.5 38t44.5 16q32 0 47 -28l43 -78q6 -10 6 -22q0 -17 -13.5 -28.5t-31.5 -11.5q-23 0 -40 18z" />
    <glyph glyph-name="Eacute" unicode="&#xc9;" horiz-adv-x="602" 
d="M290 541l-8 -100h207q47 0 71 -19.5t24 -55.5q0 -46 -26.5 -67.5t-81.5 -21.5h-207l-9 -113h228q47 0 71 -20t24 -57q0 -45 -27.5 -66t-82.5 -21h-337q-44 0 -67.5 22t-23.5 62l1 14l40 508q5 47 32.5 73t75.5 26h337q47 0 71 -20t24 -55q0 -47 -27 -68t-83 -21h-226z
M402 761q-17 0 -29.5 11.5t-12.5 28.5q0 15 10 29l50 72q18 27 46 27q23 0 42 -17.5t19 -39.5t-20 -41l-66 -54q-17 -16 -39 -16z" />
    <glyph glyph-name="Ecircumflex" unicode="&#xca;" horiz-adv-x="602" 
d="M290 541l-8 -100h207q47 0 71 -19.5t24 -55.5q0 -46 -26.5 -67.5t-81.5 -21.5h-207l-9 -113h228q47 0 71 -20t24 -57q0 -45 -27.5 -66t-82.5 -21h-337q-44 0 -67.5 22t-23.5 62l1 14l40 508q5 47 32.5 73t75.5 26h337q47 0 71 -20t24 -55q0 -47 -27 -68t-83 -21h-226z
M313.5 769q-14.5 -7 -28.5 -7q-18 0 -31 10t-13 26q0 19 19 39l63 68q26 24 67 24q19 0 36 -6t26 -18l55 -68q12 -15 12 -29q0 -19 -17 -33t-38 -14q-31 0 -48 29l-29 52l-47 -52q-12 -14 -26.5 -21z" />
    <glyph glyph-name="Edieresis" unicode="&#xcb;" horiz-adv-x="602" 
d="M290 541l-8 -100h207q47 0 71 -19.5t24 -55.5q0 -46 -26.5 -67.5t-81.5 -21.5h-207l-9 -113h228q47 0 71 -20t24 -57q0 -45 -27.5 -66t-82.5 -21h-337q-44 0 -67.5 22t-23.5 62l1 14l40 508q5 47 32.5 73t75.5 26h337q47 0 71 -20t24 -55q0 -47 -27 -68t-83 -21h-226z
M222.5 785.5q-23.5 22.5 -23.5 60.5q0 36 23.5 57.5t61.5 21.5q39 0 63 -21.5t24 -57.5q0 -38 -24 -60.5t-63 -22.5q-38 0 -61.5 22.5zM421.5 785.5q-23.5 22.5 -23.5 60.5q0 36 23.5 57.5t63.5 21.5q37 0 61 -21.5t24 -57.5q0 -38 -23.5 -60.5t-61.5 -22.5
q-40 0 -63.5 22.5z" />
    <glyph glyph-name="Igrave" unicode="&#xcc;" horiz-adv-x="329" 
d="M71.5 18q-26.5 25 -26.5 68l1 13l40 504q4 49 35 78t81 29q47 0 73.5 -24.5t26.5 -66.5l-1 -13l-40 -504q-4 -50 -35 -79.5t-82 -29.5q-46 0 -72.5 25zM86 837q-17 17 -17 37q0 22 19.5 38t44.5 16q32 0 47 -28l43 -78q6 -10 6 -22q0 -17 -13.5 -28.5t-31.5 -11.5
q-23 0 -40 18z" />
    <glyph glyph-name="Iacute" unicode="&#xcd;" horiz-adv-x="329" 
d="M71.5 18q-26.5 25 -26.5 68l1 13l40 504q4 49 35 78t81 29q47 0 73.5 -24.5t26.5 -66.5l-1 -13l-40 -504q-4 -50 -35 -79.5t-82 -29.5q-46 0 -72.5 25zM231 761q-17 0 -29.5 11.5t-12.5 28.5q0 15 10 29l50 72q18 27 46 27q23 0 42 -17.5t19 -39.5t-20 -41l-66 -54
q-17 -16 -39 -16z" />
    <glyph glyph-name="Icircumflex" unicode="&#xce;" horiz-adv-x="329" 
d="M71.5 18q-26.5 25 -26.5 68l1 13l40 504q4 49 35 78t81 29q47 0 73.5 -24.5t26.5 -66.5l-1 -13l-40 -504q-4 -50 -35 -79.5t-82 -29.5q-46 0 -72.5 25zM142.5 769q-14.5 -7 -28.5 -7q-18 0 -31 10t-13 26q0 19 19 39l63 68q26 24 67 24q19 0 36 -6t26 -18l55 -68
q12 -15 12 -29q0 -19 -17 -33t-38 -14q-31 0 -48 29l-29 52l-47 -52q-12 -14 -26.5 -21z" />
    <glyph glyph-name="Idieresis" unicode="&#xcf;" horiz-adv-x="329" 
d="M71.5 18q-26.5 25 -26.5 68l1 13l40 504q4 49 35 78t81 29q47 0 73.5 -24.5t26.5 -66.5l-1 -13l-40 -504q-4 -50 -35 -79.5t-82 -29.5q-46 0 -72.5 25zM51.5 785.5q-23.5 22.5 -23.5 60.5q0 36 23.5 57.5t61.5 21.5q39 0 63 -21.5t24 -57.5q0 -38 -24 -60.5t-63 -22.5
q-38 0 -61.5 22.5zM250.5 785.5q-23.5 22.5 -23.5 60.5q0 36 23.5 57.5t63.5 21.5q37 0 61 -21.5t24 -57.5q0 -38 -23.5 -60.5t-61.5 -22.5q-40 0 -63.5 22.5z" />
    <glyph glyph-name="Eth" unicode="&#xd0;" horiz-adv-x="827" 
d="M625 664q80 -41 124 -116.5t44 -175.5q0 -118 -48.5 -201.5t-139.5 -127t-218 -43.5h-212q-43 0 -66 21t-23 61l1 14l14 179h-5q-42 0 -64.5 20t-22.5 55q0 43 27 64t76 21h2l14 171q4 48 31.5 73.5t75.5 25.5h204q106 0 186 -41zM528 219q51 47 51 154q0 78 -44.5 119
t-127.5 41h-71l-8 -98h110q40 0 63.5 -20t23.5 -55q0 -43 -27 -64t-76 -21h-106l-8 -103h59q110 0 161 47z" />
    <glyph glyph-name="Ntilde" unicode="&#xd1;" horiz-adv-x="763" 
d="M708.5 685q25.5 -25 25.5 -67l-1 -13l-40 -504q-4 -49 -34.5 -78.5t-75.5 -29.5q-54 0 -76 33l-240 318l-20 -242q-5 -49 -34 -79t-75 -30t-71 29.5t-21 77.5l40 504q5 47 35 76.5t75 29.5q52 0 75 -33l242 -318l18 244q5 48 34.5 77.5t74.5 29.5q43 0 68.5 -25z
M464 771.5q-18 6.5 -42 17.5q-23 11 -38 16.5t-29 5.5q-13 0 -20.5 -5t-17.5 -15q-7 -9 -15 -14t-20 -5q-16 0 -24.5 10.5t-8.5 28.5q0 26 12.5 52.5t37.5 43.5t59 17q17 0 35 -6t42 -18q44 -21 67 -21q13 0 21 5t17 14t16.5 13.5t19.5 4.5q32 0 32 -38q0 -26 -12.5 -52.5
t-37 -43.5t-58.5 -17q-18 0 -36 6.5z" />
    <glyph glyph-name="Ograve" unicode="&#xd2;" horiz-adv-x="806" 
d="M218.5 31q-81.5 42 -125.5 119.5t-44 182.5q0 114 45.5 201t128.5 134.5t192 47.5t190 -42t125 -119.5t44 -182.5q0 -114 -45.5 -201t-128 -134.5t-191.5 -47.5t-190.5 42zM519 211q41 58 41 161q0 86 -37.5 133t-104.5 47q-73 0 -114 -58t-41 -160q0 -88 37 -134.5
t107 -46.5q71 0 112 58zM324 837q-17 17 -17 37q0 22 19.5 38t44.5 16q32 0 47 -28l43 -78q6 -10 6 -22q0 -17 -13.5 -28.5t-31.5 -11.5q-23 0 -40 18z" />
    <glyph glyph-name="Oacute" unicode="&#xd3;" horiz-adv-x="806" 
d="M218.5 31q-81.5 42 -125.5 119.5t-44 182.5q0 114 45.5 201t128.5 134.5t192 47.5t190 -42t125 -119.5t44 -182.5q0 -114 -45.5 -201t-128 -134.5t-191.5 -47.5t-190.5 42zM519 211q41 58 41 161q0 86 -37.5 133t-104.5 47q-73 0 -114 -58t-41 -160q0 -88 37 -134.5
t107 -46.5q71 0 112 58zM469 761q-17 0 -29.5 11.5t-12.5 28.5q0 15 10 29l50 72q18 27 46 27q23 0 42 -17.5t19 -39.5t-20 -41l-66 -54q-17 -16 -39 -16z" />
    <glyph glyph-name="Ocircumflex" unicode="&#xd4;" horiz-adv-x="806" 
d="M218.5 31q-81.5 42 -125.5 119.5t-44 182.5q0 114 45.5 201t128.5 134.5t192 47.5t190 -42t125 -119.5t44 -182.5q0 -114 -45.5 -201t-128 -134.5t-191.5 -47.5t-190.5 42zM519 211q41 58 41 161q0 86 -37.5 133t-104.5 47q-73 0 -114 -58t-41 -160q0 -88 37 -134.5
t107 -46.5q71 0 112 58zM380.5 769q-14.5 -7 -28.5 -7q-18 0 -31 10t-13 26q0 19 19 39l63 68q26 24 67 24q19 0 36 -6t26 -18l55 -68q12 -15 12 -29q0 -19 -17 -33t-38 -14q-31 0 -48 29l-29 52l-47 -52q-12 -14 -26.5 -21z" />
    <glyph glyph-name="Otilde" unicode="&#xd5;" horiz-adv-x="806" 
d="M218.5 31q-81.5 42 -125.5 119.5t-44 182.5q0 114 45.5 201t128.5 134.5t192 47.5t190 -42t125 -119.5t44 -182.5q0 -114 -45.5 -201t-128 -134.5t-191.5 -47.5t-190.5 42zM519 211q41 58 41 161q0 86 -37.5 133t-104.5 47q-73 0 -114 -58t-41 -160q0 -88 37 -134.5
t107 -46.5q71 0 112 58zM486 771.5q-18 6.5 -42 17.5q-23 11 -38 16.5t-29 5.5q-13 0 -20.5 -5t-17.5 -15q-7 -9 -15 -14t-20 -5q-16 0 -24.5 10.5t-8.5 28.5q0 26 12.5 52.5t37.5 43.5t59 17q17 0 35 -6t42 -18q44 -21 67 -21q13 0 21 5t17 14t16.5 13.5t19.5 4.5
q32 0 32 -38q0 -26 -12.5 -52.5t-37 -43.5t-58.5 -17q-18 0 -36 6.5z" />
    <glyph glyph-name="Odieresis" unicode="&#xd6;" horiz-adv-x="806" 
d="M218.5 31q-81.5 42 -125.5 119.5t-44 182.5q0 114 45.5 201t128.5 134.5t192 47.5t190 -42t125 -119.5t44 -182.5q0 -114 -45.5 -201t-128 -134.5t-191.5 -47.5t-190.5 42zM519 211q41 58 41 161q0 86 -37.5 133t-104.5 47q-73 0 -114 -58t-41 -160q0 -88 37 -134.5
t107 -46.5q71 0 112 58zM289.5 785.5q-23.5 22.5 -23.5 60.5q0 36 23.5 57.5t61.5 21.5q39 0 63 -21.5t24 -57.5q0 -38 -24 -60.5t-63 -22.5q-38 0 -61.5 22.5zM488.5 785.5q-23.5 22.5 -23.5 60.5q0 36 23.5 57.5t63.5 21.5q37 0 61 -21.5t24 -57.5q0 -38 -23.5 -60.5
t-61.5 -22.5q-40 0 -63.5 22.5z" />
    <glyph glyph-name="multiply" unicode="&#xd7;" 
d="M482 200q17 -17 17 -44q0 -32 -24 -53q-23 -20 -50 -20t-47 20l-79 86l-83 -86q-19 -21 -48 -21t-49 21q-16 17 -16 42q0 29 24 55l83 86l-85 92q-16 17 -16 42q0 33 24 55q22 20 49 20q28 0 47 -21l80 -87l84 87q21 21 48 21q29 0 48 -21q17 -17 17 -41q0 -31 -24 -55
l-84 -87z" />
    <glyph glyph-name="Oslash" unicode="&#xd8;" horiz-adv-x="806" 
d="M749.5 513.5q24.5 -63.5 24.5 -141.5q0 -114 -45.5 -201t-128 -134.5t-191.5 -47.5q-70 0 -135 19l-28 -43q-27 -41 -70 -41q-30 0 -52 20.5t-22 49.5q0 25 15 47l28 42q-46 46 -71 109t-25 141q0 114 45.5 201t128.5 134.5t192 47.5q72 0 135 -19l29 43q27 41 70 41
q29 0 51 -20t22 -49q0 -23 -16 -48l-28 -42q47 -45 71.5 -108.5zM269 271l183 277q-13 4 -34 4q-73 0 -114 -58t-41 -160q0 -34 6 -63zM519 211q41 58 41 161q0 34 -6 61l-182 -277q16 -3 35 -3q71 0 112 58z" />
    <glyph glyph-name="Ugrave" unicode="&#xd9;" horiz-adv-x="751" 
d="M56 274q0 14 2 44l23 285q4 49 34.5 78t79.5 29t75 -28.5t22 -75.5l-23 -297q-1 -10 -1 -29q0 -64 29.5 -95t90.5 -31q42 0 68.5 28.5t32.5 101.5l25 319q5 49 35.5 78t79.5 29q45 0 71 -24.5t26 -66.5l-1 -13l-24 -309q-12 -152 -93.5 -229.5t-231.5 -77.5
q-320 0 -320 284zM297 837q-17 17 -17 37q0 22 19.5 38t44.5 16q32 0 47 -28l43 -78q6 -10 6 -22q0 -17 -13.5 -28.5t-31.5 -11.5q-23 0 -40 18z" />
    <glyph glyph-name="Uacute" unicode="&#xda;" horiz-adv-x="751" 
d="M56 274q0 14 2 44l23 285q4 49 34.5 78t79.5 29t75 -28.5t22 -75.5l-23 -297q-1 -10 -1 -29q0 -64 29.5 -95t90.5 -31q42 0 68.5 28.5t32.5 101.5l25 319q5 49 35.5 78t79.5 29q45 0 71 -24.5t26 -66.5l-1 -13l-24 -309q-12 -152 -93.5 -229.5t-231.5 -77.5
q-320 0 -320 284zM442 761q-17 0 -29.5 11.5t-12.5 28.5q0 15 10 29l50 72q18 27 46 27q23 0 42 -17.5t19 -39.5t-20 -41l-66 -54q-17 -16 -39 -16z" />
    <glyph glyph-name="Ucircumflex" unicode="&#xdb;" horiz-adv-x="751" 
d="M56 274q0 14 2 44l23 285q4 49 34.5 78t79.5 29t75 -28.5t22 -75.5l-23 -297q-1 -10 -1 -29q0 -64 29.5 -95t90.5 -31q42 0 68.5 28.5t32.5 101.5l25 319q5 49 35.5 78t79.5 29q45 0 71 -24.5t26 -66.5l-1 -13l-24 -309q-12 -152 -93.5 -229.5t-231.5 -77.5
q-320 0 -320 284zM353.5 769q-14.5 -7 -28.5 -7q-18 0 -31 10t-13 26q0 19 19 39l63 68q26 24 67 24q19 0 36 -6t26 -18l55 -68q12 -15 12 -29q0 -19 -17 -33t-38 -14q-31 0 -48 29l-29 52l-47 -52q-12 -14 -26.5 -21z" />
    <glyph glyph-name="Udieresis" unicode="&#xdc;" horiz-adv-x="751" 
d="M56 274q0 14 2 44l23 285q4 49 34.5 78t79.5 29t75 -28.5t22 -75.5l-23 -297q-1 -10 -1 -29q0 -64 29.5 -95t90.5 -31q42 0 68.5 28.5t32.5 101.5l25 319q5 49 35.5 78t79.5 29q45 0 71 -24.5t26 -66.5l-1 -13l-24 -309q-12 -152 -93.5 -229.5t-231.5 -77.5
q-320 0 -320 284zM262.5 785.5q-23.5 22.5 -23.5 60.5q0 36 23.5 57.5t61.5 21.5q39 0 63 -21.5t24 -57.5q0 -38 -24 -60.5t-63 -22.5q-38 0 -61.5 22.5zM461.5 785.5q-23.5 22.5 -23.5 60.5q0 36 23.5 57.5t63.5 21.5q37 0 61 -21.5t24 -57.5q0 -38 -23.5 -60.5
t-61.5 -22.5q-40 0 -63.5 22.5z" />
    <glyph glyph-name="Yacute" unicode="&#xdd;" horiz-adv-x="666" 
d="M588 714q38 0 67 -29.5t29 -68.5q0 -37 -27 -68l-211 -243l-16 -203q-4 -53 -36.5 -81t-79.5 -28q-48 0 -76 27t-24 79l16 208l-176 247q-16 22 -16 48q0 27 16 52t41.5 40.5t51.5 15.5q43 0 69 -39l132 -193l169 201q29 35 71 35zM398 761q-17 0 -29.5 11.5t-12.5 28.5
q0 15 10 29l50 72q18 27 46 27q23 0 42 -17.5t19 -39.5t-20 -41l-66 -54q-17 -16 -39 -16z" />
    <glyph glyph-name="Thorn" unicode="&#xde;" horiz-adv-x="689" 
d="M616 519.5q61 -54.5 61 -147.5q0 -112 -63.5 -171t-180.5 -59h-173l-3 -40q-5 -49 -35.5 -79t-79.5 -30q-45 0 -71 25t-26 68l1 13l40 504q4 49 34.5 78t79.5 29t75 -28.5t22 -75.5l-3 -32h156q105 0 166 -54.5zM461.5 316.5q16.5 14.5 16.5 42.5q0 27 -13 40t-42 13
h-141l-9 -110h141q31 0 47.5 14.5z" />
    <glyph glyph-name="germandbls" unicode="&#xdf;" horiz-adv-x="729" 
d="M311 26q-35 21 -35 63q0 31 20 55t50 24q20 0 42 -12q27 -12 47.5 -14.5t53.5 -2.5q37 0 37 16q0 12 -14 19.5t-46 16.5q-42 13 -71 26.5t-50 41t-21 72.5q0 44 19 76t52 67q19 20 27.5 32t8.5 23q0 23 -13.5 33t-44.5 10q-95 0 -104 -119l-29 -364q-4 -44 -33 -70
t-77 -26t-75 26t-23 70l26 325q12 150 94 225.5t233 75.5q113 0 177 -39.5t64 -108.5q0 -42 -19 -73t-53 -69q-20 -21 -30 -35t-10 -28q0 -11 12.5 -17.5t41.5 -14.5q42 -13 71 -27.5t51 -45t22 -81.5q0 -85 -65 -135t-177 -50q-95 0 -159 35z" />
    <glyph glyph-name="agrave" unicode="&#xe0;" horiz-adv-x="559" 
d="M462 455q59 -51 59 -155q0 -12 -2 -36l-13 -175q-5 -46 -33 -71t-74 -25q-35 0 -58.5 18t-28.5 48q-17 -32 -49 -50t-73 -18q-49 0 -88.5 19.5t-62.5 54t-23 75.5q0 58 27.5 92.5t87.5 51t159 16.5h37q3 56 -72 56q-22 0 -78 -14l-21 -5q-19 -8 -39 -8q-30 0 -48 18.5
t-18 45.5q0 21 12.5 41.5t37.5 34.5q74 37 182 37q120 0 179 -51zM297.5 149q18.5 21 21.5 55v5h-26q-41 0 -60 -11t-19 -34q0 -16 10.5 -26t28.5 -10q26 0 44.5 21zM181 663q-16 25 -16 46q0 26 20.5 43.5t46.5 17.5q20 0 38 -12t27 -36l37 -98q5 -13 5 -23
q0 -20 -14 -32.5t-34 -12.5q-14 0 -28 7t-23 21z" />
    <glyph glyph-name="aacute" unicode="&#xe1;" horiz-adv-x="559" 
d="M462 455q59 -51 59 -155q0 -12 -2 -36l-13 -175q-5 -46 -33 -71t-74 -25q-35 0 -58.5 18t-28.5 48q-17 -32 -49 -50t-73 -18q-49 0 -88.5 19.5t-62.5 54t-23 75.5q0 58 27.5 92.5t87.5 51t159 16.5h37q3 56 -72 56q-22 0 -78 -14l-21 -5q-19 -8 -39 -8q-30 0 -48 18.5
t-18 45.5q0 21 12.5 41.5t37.5 34.5q74 37 182 37q120 0 179 -51zM297.5 149q18.5 21 21.5 55v5h-26q-41 0 -60 -11t-19 -34q0 -16 10.5 -26t28.5 -10q26 0 44.5 21zM325 555q-18 0 -30 11t-12 29q0 14 8 29l37 103q11 22 28 33t36 11q27 0 48 -18.5t21 -44.5q0 -25 -22 -50
l-61 -77q-23 -26 -53 -26z" />
    <glyph glyph-name="acircumflex" unicode="&#xe2;" horiz-adv-x="559" 
d="M462 455q59 -51 59 -155q0 -12 -2 -36l-13 -175q-5 -46 -33 -71t-74 -25q-35 0 -58.5 18t-28.5 48q-17 -32 -49 -50t-73 -18q-49 0 -88.5 19.5t-62.5 54t-23 75.5q0 58 27.5 92.5t87.5 51t159 16.5h37q3 56 -72 56q-22 0 -78 -14l-21 -5q-19 -8 -39 -8q-30 0 -48 18.5
t-18 45.5q0 21 12.5 41.5t37.5 34.5q74 37 182 37q120 0 179 -51zM297.5 149q18.5 21 21.5 55v5h-26q-41 0 -60 -11t-19 -34q0 -16 10.5 -26t28.5 -10q26 0 44.5 21zM252.5 563q-15.5 -9 -32.5 -9q-22 0 -39 14t-17 35q0 17 13 36l69 91q15 19 36 29.5t44 10.5q22 0 41 -10
t31 -30l59 -100q8 -13 8 -28q0 -20 -16.5 -33.5t-39.5 -13.5q-19 0 -36 10.5t-27 31.5l-30 64l-38 -71q-10 -18 -25.5 -27z" />
    <glyph glyph-name="atilde" unicode="&#xe3;" horiz-adv-x="559" 
d="M462 455q59 -51 59 -155q0 -12 -2 -36l-13 -175q-5 -46 -33 -71t-74 -25q-35 0 -58.5 18t-28.5 48q-17 -32 -49 -50t-73 -18q-49 0 -88.5 19.5t-62.5 54t-23 75.5q0 58 27.5 92.5t87.5 51t159 16.5h37q3 56 -72 56q-22 0 -78 -14l-21 -5q-19 -8 -39 -8q-30 0 -48 18.5
t-18 45.5q0 21 12.5 41.5t37.5 34.5q74 37 182 37q120 0 179 -51zM297.5 149q18.5 21 21.5 55v5h-26q-41 0 -60 -11t-19 -34q0 -16 10.5 -26t28.5 -10q26 0 44.5 21zM344 589.5q-19 7.5 -42 21.5q-19 11 -30.5 16t-24.5 5t-21.5 -6t-20.5 -19q-11 -13 -19 -19t-21 -6
q-14 0 -21.5 12.5t-7.5 33.5q0 26 15 53.5t40 45t53 17.5q24 0 43 -7.5t43 -21.5q18 -10 31 -15.5t26 -5.5t21.5 6.5t19.5 19.5q10 12 18.5 18.5t20.5 6.5q30 0 30 -46q0 -28 -15.5 -55t-41 -44.5t-54.5 -17.5q-23 0 -42 7.5z" />
    <glyph glyph-name="adieresis" unicode="&#xe4;" horiz-adv-x="559" 
d="M462 455q59 -51 59 -155q0 -12 -2 -36l-13 -175q-5 -46 -33 -71t-74 -25q-35 0 -58.5 18t-28.5 48q-17 -32 -49 -50t-73 -18q-49 0 -88.5 19.5t-62.5 54t-23 75.5q0 58 27.5 92.5t87.5 51t159 16.5h37q3 56 -72 56q-22 0 -78 -14l-21 -5q-19 -8 -39 -8q-30 0 -48 18.5
t-18 45.5q0 21 12.5 41.5t37.5 34.5q74 37 182 37q120 0 179 -51zM297.5 149q18.5 21 21.5 55v5h-26q-41 0 -60 -11t-19 -34q0 -16 10.5 -26t28.5 -10q26 0 44.5 21zM154.5 600.5q-23.5 22.5 -23.5 60.5q0 37 23.5 59t61.5 22q39 0 63 -22t24 -59q0 -38 -24 -60.5t-63 -22.5
q-38 0 -61.5 22.5zM353.5 600.5q-23.5 22.5 -23.5 60.5q0 37 23.5 59t63.5 22q37 0 61 -22t24 -59q0 -38 -23.5 -60.5t-61.5 -22.5q-40 0 -63.5 22.5z" />
    <glyph glyph-name="aring" unicode="&#xe5;" horiz-adv-x="559" 
d="M462 455q59 -51 59 -155q0 -12 -2 -36l-13 -175q-5 -46 -33 -71t-74 -25q-35 0 -58.5 18t-28.5 48q-17 -32 -49 -50t-73 -18q-49 0 -88.5 19.5t-62.5 54t-23 75.5q0 58 27.5 92.5t87.5 51t159 16.5h37q3 56 -72 56q-22 0 -78 -14l-21 -5q-19 -8 -39 -8q-30 0 -48 18.5
t-18 45.5q0 21 12.5 41.5t37.5 34.5q74 37 182 37q120 0 179 -51zM297.5 149q18.5 21 21.5 55v5h-26q-41 0 -60 -11t-19 -34q0 -16 10.5 -26t28.5 -10q26 0 44.5 21zM236 583.5q-33 32.5 -33 79.5t33 79t80 32t80 -32t33 -79t-33 -79.5t-80 -32.5t-80 32.5zM345 632
q12 12 12 31q0 17 -12 30t-29 13q-18 0 -29.5 -12.5t-11.5 -30.5q0 -19 11.5 -31t29.5 -12q17 0 29 12z" />
    <glyph glyph-name="ae" unicode="&#xe6;" horiz-adv-x="824" 
d="M786 219.5q-13 -13.5 -36 -13.5h-233q14 -64 90 -64q20 0 33.5 2.5t27 7.5t21.5 7q16 8 34 8q25 0 39.5 -19t14.5 -47q0 -24 -11 -46t-33 -35q-26 -14 -63.5 -21.5t-80.5 -7.5q-65 0 -115 22t-82 63q-30 -41 -78 -63t-104 -22q-59 0 -103 19.5t-67.5 53t-23.5 76.5
q0 58 28 93t87.5 51t158.5 16h31q1 30 -15.5 43t-54.5 13q-20 0 -68 -13l-27 -6q-19 -8 -39 -8q-30 0 -48 18.5t-18 45.5q0 21 12.5 41.5t37.5 34.5q74 37 197 37q95 0 145 -48q62 48 143 48q64 0 112 -30.5t74.5 -87t26.5 -132.5q0 -23 -13 -36.5zM538.5 352.5
q-15.5 -15.5 -21.5 -52.5h113q-5 68 -52 68q-24 0 -39.5 -15.5zM294.5 148q17.5 20 19.5 51l1 10h-22q-79 0 -79 -50q0 -14 11 -22.5t28 -8.5q24 0 41.5 20z" />
    <glyph glyph-name="ccedilla" unicode="&#xe7;" horiz-adv-x="506" 
d="M158.5 21q-64.5 30 -99.5 85.5t-35 128.5q0 84 36 145t102.5 93.5t157.5 32.5q98 0 157 -28q19 -9 28 -27.5t9 -40.5q0 -32 -17 -56.5t-45 -24.5q-17 0 -32 8q-56 14 -86 14q-46 0 -71.5 -28.5t-25.5 -81.5q0 -45 22.5 -70t61.5 -25q23 0 42 2.5t42 9.5q20 9 35 9
q25 0 39 -19t14 -47q0 -25 -11.5 -47.5t-33.5 -36.5q-26 -11 -65.5 -18.5t-74.5 -7.5q-85 0 -149.5 30zM364 -57.5q23 -18.5 23 -50.5q0 -42 -38.5 -66.5t-101.5 -24.5q-48 0 -75 9q-11 3 -17 12t-6 20q0 16 10 28t24 8q14 -3 30 -5t23 -2q23 0 33.5 5t10.5 16
q0 7 -7.5 11.5t-19.5 4.5q-8 0 -18.5 -2.5t-15.5 -2.5q-12 0 -16.5 5.5t-1.5 14.5l21 97h92l-15 -59h2q40 0 63 -18.5z" />
    <glyph glyph-name="egrave" unicode="&#xe8;" horiz-adv-x="537" 
d="M501 219.5q-13 -13.5 -36 -13.5h-241q14 -64 94 -64q22 0 36 3t28 7.5t21 6.5q17 8 34 8q25 0 39.5 -19t14.5 -47q0 -24 -11 -46t-33 -35q-26 -14 -63.5 -21.5t-81.5 -7.5q-82 0 -145 30.5t-98 86t-35 128.5q0 76 33.5 138t92.5 97t131 35q110 0 171.5 -66.5t61.5 -183.5
q0 -23 -13 -36.5zM245 352q-15 -16 -21 -52h120q-2 34 -15.5 51t-41.5 17q-27 0 -42 -16zM174 663q-16 25 -16 46q0 26 20.5 43.5t46.5 17.5q20 0 38 -12t27 -36l37 -98q5 -13 5 -23q0 -20 -14 -32.5t-34 -12.5q-14 0 -28 7t-23 21z" />
    <glyph glyph-name="eacute" unicode="&#xe9;" horiz-adv-x="537" 
d="M501 219.5q-13 -13.5 -36 -13.5h-241q14 -64 94 -64q22 0 36 3t28 7.5t21 6.5q17 8 34 8q25 0 39.5 -19t14.5 -47q0 -24 -11 -46t-33 -35q-26 -14 -63.5 -21.5t-81.5 -7.5q-82 0 -145 30.5t-98 86t-35 128.5q0 76 33.5 138t92.5 97t131 35q110 0 171.5 -66.5t61.5 -183.5
q0 -23 -13 -36.5zM245 352q-15 -16 -21 -52h120q-2 34 -15.5 51t-41.5 17q-27 0 -42 -16zM318 555q-18 0 -30 11t-12 29q0 14 8 29l37 103q11 22 28 33t36 11q27 0 48 -18.5t21 -44.5q0 -25 -22 -50l-61 -77q-23 -26 -53 -26z" />
    <glyph glyph-name="ecircumflex" unicode="&#xea;" horiz-adv-x="537" 
d="M501 219.5q-13 -13.5 -36 -13.5h-241q14 -64 94 -64q22 0 36 3t28 7.5t21 6.5q17 8 34 8q25 0 39.5 -19t14.5 -47q0 -24 -11 -46t-33 -35q-26 -14 -63.5 -21.5t-81.5 -7.5q-82 0 -145 30.5t-98 86t-35 128.5q0 76 33.5 138t92.5 97t131 35q110 0 171.5 -66.5t61.5 -183.5
q0 -23 -13 -36.5zM245 352q-15 -16 -21 -52h120q-2 34 -15.5 51t-41.5 17q-27 0 -42 -16zM245.5 563q-15.5 -9 -32.5 -9q-22 0 -39 14t-17 35q0 17 13 36l69 91q15 19 36 29.5t44 10.5q22 0 41 -10t31 -30l59 -100q8 -13 8 -28q0 -20 -16.5 -33.5t-39.5 -13.5
q-19 0 -36 10.5t-27 31.5l-30 64l-38 -71q-10 -18 -25.5 -27z" />
    <glyph glyph-name="edieresis" unicode="&#xeb;" horiz-adv-x="537" 
d="M501 219.5q-13 -13.5 -36 -13.5h-241q14 -64 94 -64q22 0 36 3t28 7.5t21 6.5q17 8 34 8q25 0 39.5 -19t14.5 -47q0 -24 -11 -46t-33 -35q-26 -14 -63.5 -21.5t-81.5 -7.5q-82 0 -145 30.5t-98 86t-35 128.5q0 76 33.5 138t92.5 97t131 35q110 0 171.5 -66.5t61.5 -183.5
q0 -23 -13 -36.5zM245 352q-15 -16 -21 -52h120q-2 34 -15.5 51t-41.5 17q-27 0 -42 -16zM147.5 600.5q-23.5 22.5 -23.5 60.5q0 37 23.5 59t61.5 22q39 0 63 -22t24 -59q0 -38 -24 -60.5t-63 -22.5q-38 0 -61.5 22.5zM346.5 600.5q-23.5 22.5 -23.5 60.5q0 37 23.5 59
t63.5 22q37 0 61 -22t24 -59q0 -38 -23.5 -60.5t-61.5 -22.5q-40 0 -63.5 22.5z" />
    <glyph glyph-name="igrave" unicode="&#xec;" horiz-adv-x="297" 
d="M56.5 17.5q-28.5 24.5 -24.5 71.5l26 318q4 48 35.5 72.5t76.5 24.5q44 0 72 -24.5t24 -72.5l-26 -318q-4 -47 -35 -71.5t-75 -24.5q-45 0 -73.5 24.5zM46 663q-16 25 -16 46q0 26 20.5 43.5t46.5 17.5q20 0 38 -12t27 -36l37 -98q5 -13 5 -23q0 -20 -14 -32.5t-34 -12.5
q-14 0 -28 7t-23 21z" />
    <glyph glyph-name="iacute" unicode="&#xed;" horiz-adv-x="297" 
d="M56.5 17.5q-28.5 24.5 -24.5 71.5l26 318q4 48 35.5 72.5t76.5 24.5q44 0 72 -24.5t24 -72.5l-26 -318q-4 -47 -35 -71.5t-75 -24.5q-45 0 -73.5 24.5zM190 555q-18 0 -30 11t-12 29q0 14 8 29l37 103q11 22 28 33t36 11q27 0 48 -18.5t21 -44.5q0 -25 -22 -50l-61 -77
q-23 -26 -53 -26z" />
    <glyph glyph-name="icircumflex" unicode="&#xee;" horiz-adv-x="297" 
d="M56.5 17.5q-28.5 24.5 -24.5 71.5l26 318q4 48 35.5 72.5t76.5 24.5q44 0 72 -24.5t24 -72.5l-26 -318q-4 -47 -35 -71.5t-75 -24.5q-45 0 -73.5 24.5zM117.5 563q-15.5 -9 -32.5 -9q-22 0 -39 14t-17 35q0 17 13 36l69 91q15 19 36 29.5t44 10.5q22 0 41 -10t31 -30
l59 -100q8 -13 8 -28q0 -20 -16.5 -33.5t-39.5 -13.5q-19 0 -36 10.5t-27 31.5l-30 64l-38 -71q-10 -18 -25.5 -27z" />
    <glyph glyph-name="idieresis" unicode="&#xef;" horiz-adv-x="297" 
d="M56.5 17.5q-28.5 24.5 -24.5 71.5l26 318q4 48 35.5 72.5t76.5 24.5q44 0 72 -24.5t24 -72.5l-26 -318q-4 -47 -35 -71.5t-75 -24.5q-45 0 -73.5 24.5zM19.5 600.5q-23.5 22.5 -23.5 60.5q0 37 23.5 59t61.5 22q39 0 63 -22t24 -59q0 -38 -24 -60.5t-63 -22.5
q-38 0 -61.5 22.5zM218.5 600.5q-23.5 22.5 -23.5 60.5q0 37 23.5 59t63.5 22q37 0 61 -22t24 -59q0 -38 -23.5 -60.5t-61.5 -22.5q-40 0 -63.5 22.5z" />
    <glyph glyph-name="eth" unicode="&#xf0;" horiz-adv-x="624" 
d="M574 629q23 0 36 -14t13 -33q0 -17 -11 -31t-31 -19l-34 -7q57 -99 57 -209q0 -168 -81.5 -246.5t-216.5 -78.5q-87 0 -151 28t-98.5 79t-34.5 119q0 73 35.5 127t95.5 82.5t132 28.5q36 0 65 -6t53 -23q-13 32 -35 61l-144 -30q-7 -2 -19 -2q-23 0 -36 14t-13 33
q0 17 10.5 31t29.5 18l61 13q-26 9 -52 12q-29 6 -44.5 25t-15.5 42q0 29 23 50.5t63 21.5q18 0 27 -2q66 -7 122 -33.5t99 -68.5l76 16q7 2 19 2zM366 170.5q18 25.5 18 61.5q0 34 -18 54t-56 20q-46 0 -64.5 -25.5t-18.5 -58.5q0 -31 19 -54t55 -23q47 0 65 25.5z" />
    <glyph glyph-name="ntilde" unicode="&#xf1;" horiz-adv-x="617" 
d="M539.5 458q41.5 -48 41.5 -141q0 -23 -1 -35l-16 -193q-4 -44 -33 -70t-78 -26q-48 0 -74.5 26.5t-22.5 69.5l16 186q2 34 -11 53.5t-41 19.5q-58 0 -65 -76l-15 -183q-4 -44 -33 -70t-77 -26q-49 0 -74.5 26t-23.5 70l26 321q3 41 34.5 67.5t78.5 26.5q35 0 58 -16
t30 -43q26 29 66.5 45t90.5 16q82 0 123.5 -48zM372 589.5q-19 7.5 -42 21.5q-19 11 -30.5 16t-24.5 5t-21.5 -6t-20.5 -19q-11 -13 -19 -19t-21 -6q-14 0 -21.5 12.5t-7.5 33.5q0 26 15 53.5t40 45t53 17.5q24 0 43 -7.5t43 -21.5q18 -10 31 -15.5t26 -5.5t21.5 6.5
t19.5 19.5q10 12 18.5 18.5t20.5 6.5q30 0 30 -46q0 -28 -15.5 -55t-41 -44.5t-54.5 -17.5q-23 0 -42 7.5z" />
    <glyph glyph-name="ograve" unicode="&#xf2;" horiz-adv-x="614" 
d="M157 21.5q-64 30.5 -98.5 86.5t-34.5 130q0 84 35.5 144.5t99.5 92t149 31.5q86 0 150 -30.5t98.5 -86t34.5 -129.5q0 -84 -35 -144.5t-99 -92.5t-149 -32q-87 0 -151 30.5zM386 265q0 47 -17 68t-57 21q-83 0 -83 -119q0 -48 18 -70t56 -22q83 0 83 122zM205 663
q-16 25 -16 46q0 26 20.5 43.5t46.5 17.5q20 0 38 -12t27 -36l37 -98q5 -13 5 -23q0 -20 -14 -32.5t-34 -12.5q-14 0 -28 7t-23 21z" />
    <glyph glyph-name="oacute" unicode="&#xf3;" horiz-adv-x="614" 
d="M157 21.5q-64 30.5 -98.5 86.5t-34.5 130q0 84 35.5 144.5t99.5 92t149 31.5q86 0 150 -30.5t98.5 -86t34.5 -129.5q0 -84 -35 -144.5t-99 -92.5t-149 -32q-87 0 -151 30.5zM386 265q0 47 -17 68t-57 21q-83 0 -83 -119q0 -48 18 -70t56 -22q83 0 83 122zM349 555
q-18 0 -30 11t-12 29q0 14 8 29l37 103q11 22 28 33t36 11q27 0 48 -18.5t21 -44.5q0 -25 -22 -50l-61 -77q-23 -26 -53 -26z" />
    <glyph glyph-name="ocircumflex" unicode="&#xf4;" horiz-adv-x="614" 
d="M157 21.5q-64 30.5 -98.5 86.5t-34.5 130q0 84 35.5 144.5t99.5 92t149 31.5q86 0 150 -30.5t98.5 -86t34.5 -129.5q0 -84 -35 -144.5t-99 -92.5t-149 -32q-87 0 -151 30.5zM386 265q0 47 -17 68t-57 21q-83 0 -83 -119q0 -48 18 -70t56 -22q83 0 83 122zM276.5 563
q-15.5 -9 -32.5 -9q-22 0 -39 14t-17 35q0 17 13 36l69 91q15 19 36 29.5t44 10.5q22 0 41 -10t31 -30l59 -100q8 -13 8 -28q0 -20 -16.5 -33.5t-39.5 -13.5q-19 0 -36 10.5t-27 31.5l-30 64l-38 -71q-10 -18 -25.5 -27z" />
    <glyph glyph-name="otilde" unicode="&#xf5;" horiz-adv-x="614" 
d="M157 21.5q-64 30.5 -98.5 86.5t-34.5 130q0 84 35.5 144.5t99.5 92t149 31.5q86 0 150 -30.5t98.5 -86t34.5 -129.5q0 -84 -35 -144.5t-99 -92.5t-149 -32q-87 0 -151 30.5zM386 265q0 47 -17 68t-57 21q-83 0 -83 -119q0 -48 18 -70t56 -22q83 0 83 122zM368 589.5
q-19 7.5 -42 21.5q-19 11 -30.5 16t-24.5 5t-21.5 -6t-20.5 -19q-11 -13 -19 -19t-21 -6q-14 0 -21.5 12.5t-7.5 33.5q0 26 15 53.5t40 45t53 17.5q24 0 43 -7.5t43 -21.5q18 -10 31 -15.5t26 -5.5t21.5 6.5t19.5 19.5q10 12 18.5 18.5t20.5 6.5q30 0 30 -46
q0 -28 -15.5 -55t-41 -44.5t-54.5 -17.5q-23 0 -42 7.5z" />
    <glyph glyph-name="odieresis" unicode="&#xf6;" horiz-adv-x="614" 
d="M157 21.5q-64 30.5 -98.5 86.5t-34.5 130q0 84 35.5 144.5t99.5 92t149 31.5q86 0 150 -30.5t98.5 -86t34.5 -129.5q0 -84 -35 -144.5t-99 -92.5t-149 -32q-87 0 -151 30.5zM386 265q0 47 -17 68t-57 21q-83 0 -83 -119q0 -48 18 -70t56 -22q83 0 83 122zM178.5 600.5
q-23.5 22.5 -23.5 60.5q0 37 23.5 59t61.5 22q39 0 63 -22t24 -59q0 -38 -24 -60.5t-63 -22.5q-38 0 -61.5 22.5zM377.5 600.5q-23.5 22.5 -23.5 60.5q0 37 23.5 59t63.5 22q37 0 61 -22t24 -59q0 -38 -23.5 -60.5t-61.5 -22.5q-40 0 -63.5 22.5z" />
    <glyph glyph-name="divide" unicode="&#xf7;" 
d="M264 431.5q-20 20.5 -20 48.5q0 29 20 49.5t48 20.5q30 0 49.5 -20.5t19.5 -49.5q0 -28 -20 -48.5t-49 -20.5q-28 0 -48 20.5zM76.5 239q-18.5 18 -18.5 44q0 32 21.5 53t52.5 21h353q27 0 44.5 -18.5t17.5 -45.5q0 -31 -21.5 -51.5t-51.5 -20.5h-353q-26 0 -44.5 18z
M234 47.5q-20 20.5 -20 49.5q0 28 20 48.5t49 20.5t48.5 -20.5t19.5 -48.5q0 -29 -19.5 -49.5t-48.5 -20.5t-49 20.5z" />
    <glyph glyph-name="oslash" unicode="&#xf8;" horiz-adv-x="614" 
d="M568 369q23 -49 23 -109q0 -84 -35 -144.5t-99 -92.5t-149 -32q-53 0 -103 13l-27 -40q-15 -25 -46 -25q-21 0 -37 12.5t-16 30.5q0 12 9 26l26 39q-44 33 -67 82t-23 109q0 84 35.5 144.5t99.5 92t149 31.5q57 0 102 -13l26 39q17 26 48 26q21 0 36.5 -12t15.5 -30
q0 -14 -9 -27l-26 -39q44 -32 67 -81zM226 215l93 141h-7q-87 0 -87 -121q0 -13 1 -20zM392 265q0 14 -1 20l-95 -143h7q89 0 89 123z" />
    <glyph glyph-name="ugrave" unicode="&#xf9;" horiz-adv-x="612" 
d="M558.5 477.5q25.5 -26.5 21.5 -69.5l-26 -320q-3 -41 -33 -68t-77 -27q-35 0 -59 16.5t-31 43.5q-26 -29 -66 -45.5t-88 -16.5q-81 0 -122.5 47.5t-41.5 138.5q0 22 1 34l16 197q4 43 34.5 69.5t79.5 26.5q48 0 73 -26.5t21 -69.5l-16 -186q-2 -34 10.5 -53.5t39.5 -19.5
q28 0 43.5 20.5t18.5 56.5l15 182q4 43 34 69.5t79 26.5q48 0 73.5 -26.5zM202 663q-16 25 -16 46q0 26 20.5 43.5t46.5 17.5q20 0 38 -12t27 -36l37 -98q5 -13 5 -23q0 -20 -14 -32.5t-34 -12.5q-14 0 -28 7t-23 21z" />
    <glyph glyph-name="uacute" unicode="&#xfa;" horiz-adv-x="612" 
d="M558.5 477.5q25.5 -26.5 21.5 -69.5l-26 -320q-3 -41 -33 -68t-77 -27q-35 0 -59 16.5t-31 43.5q-26 -29 -66 -45.5t-88 -16.5q-81 0 -122.5 47.5t-41.5 138.5q0 22 1 34l16 197q4 43 34.5 69.5t79.5 26.5q48 0 73 -26.5t21 -69.5l-16 -186q-2 -34 10.5 -53.5t39.5 -19.5
q28 0 43.5 20.5t18.5 56.5l15 182q4 43 34 69.5t79 26.5q48 0 73.5 -26.5zM346 555q-18 0 -30 11t-12 29q0 14 8 29l37 103q11 22 28 33t36 11q27 0 48 -18.5t21 -44.5q0 -25 -22 -50l-61 -77q-23 -26 -53 -26z" />
    <glyph glyph-name="ucircumflex" unicode="&#xfb;" horiz-adv-x="612" 
d="M558.5 477.5q25.5 -26.5 21.5 -69.5l-26 -320q-3 -41 -33 -68t-77 -27q-35 0 -59 16.5t-31 43.5q-26 -29 -66 -45.5t-88 -16.5q-81 0 -122.5 47.5t-41.5 138.5q0 22 1 34l16 197q4 43 34.5 69.5t79.5 26.5q48 0 73 -26.5t21 -69.5l-16 -186q-2 -34 10.5 -53.5t39.5 -19.5
q28 0 43.5 20.5t18.5 56.5l15 182q4 43 34 69.5t79 26.5q48 0 73.5 -26.5zM273.5 563q-15.5 -9 -32.5 -9q-22 0 -39 14t-17 35q0 17 13 36l69 91q15 19 36 29.5t44 10.5q22 0 41 -10t31 -30l59 -100q8 -13 8 -28q0 -20 -16.5 -33.5t-39.5 -13.5q-19 0 -36 10.5t-27 31.5
l-30 64l-38 -71q-10 -18 -25.5 -27z" />
    <glyph glyph-name="udieresis" unicode="&#xfc;" horiz-adv-x="612" 
d="M558.5 477.5q25.5 -26.5 21.5 -69.5l-26 -320q-3 -41 -33 -68t-77 -27q-35 0 -59 16.5t-31 43.5q-26 -29 -66 -45.5t-88 -16.5q-81 0 -122.5 47.5t-41.5 138.5q0 22 1 34l16 197q4 43 34.5 69.5t79.5 26.5q48 0 73 -26.5t21 -69.5l-16 -186q-2 -34 10.5 -53.5t39.5 -19.5
q28 0 43.5 20.5t18.5 56.5l15 182q4 43 34 69.5t79 26.5q48 0 73.5 -26.5zM175.5 600.5q-23.5 22.5 -23.5 60.5q0 37 23.5 59t61.5 22q39 0 63 -22t24 -59q0 -38 -24 -60.5t-63 -22.5q-38 0 -61.5 22.5zM374.5 600.5q-23.5 22.5 -23.5 60.5q0 37 23.5 59t63.5 22
q37 0 61 -22t24 -59q0 -38 -23.5 -60.5t-61.5 -22.5q-40 0 -63.5 22.5z" />
    <glyph glyph-name="yacute" unicode="&#xfd;" horiz-adv-x="549" 
d="M404.5 492.5q23.5 14.5 50.5 14.5q37 0 66 -24t29 -58q0 -18 -11 -40l-270 -515q-16 -29 -38 -43.5t-46 -14.5q-35 0 -60 24t-25 61q0 21 12 47l46 92l-125 353q-4 11 -4 24q0 25 16.5 47t43 35t52.5 13t47 -14.5t31 -43.5l61 -192l87 190q14 30 37.5 44.5zM317 555
q-18 0 -30 11t-12 29q0 14 8 29l37 103q11 22 28 33t36 11q27 0 48 -18.5t21 -44.5q0 -25 -22 -50l-61 -77q-23 -26 -53 -26z" />
    <glyph glyph-name="thorn" unicode="&#xfe;" horiz-adv-x="638" 
d="M511.5 478q47.5 -28 74 -81.5t26.5 -127.5q0 -80 -30 -143t-84.5 -99t-124.5 -36q-43 0 -76 13.5t-60 39.5l-12 -144q-3 -40 -32.5 -65t-75.5 -25q-48 0 -75.5 27t-24.5 68l56 714q3 42 33 69t78 27t74.5 -27t22.5 -69l-14 -165q50 52 135 52q62 0 109.5 -28zM385 173
q22 30 22 81q0 49 -21 74.5t-60 25.5q-36 0 -57.5 -29.5t-21.5 -76.5q0 -52 20 -78.5t57 -26.5q39 0 61 30z" />
    <glyph glyph-name="ydieresis" unicode="&#xff;" horiz-adv-x="549" 
d="M404.5 492.5q23.5 14.5 50.5 14.5q37 0 66 -24t29 -58q0 -18 -11 -40l-270 -515q-16 -29 -38 -43.5t-46 -14.5q-35 0 -60 24t-25 61q0 21 12 47l46 92l-125 353q-4 11 -4 24q0 25 16.5 47t43 35t52.5 13t47 -14.5t31 -43.5l61 -192l87 190q14 30 37.5 44.5zM146.5 600.5
q-23.5 22.5 -23.5 60.5q0 37 23.5 59t61.5 22q39 0 63 -22t24 -59q0 -38 -24 -60.5t-63 -22.5q-38 0 -61.5 22.5zM345.5 600.5q-23.5 22.5 -23.5 60.5q0 37 23.5 59t63.5 22q37 0 61 -22t24 -59q0 -38 -23.5 -60.5t-61.5 -22.5q-40 0 -63.5 22.5z" />
    <glyph glyph-name="Amacron" unicode="&#x100;" horiz-adv-x="771" 
d="M745 88q0 -40 -33 -66.5t-73 -26.5q-27 0 -48.5 14t-31.5 42l-30 84h-294l-42 -82q-15 -29 -39 -43t-51 -14q-38 0 -68 24.5t-30 61.5q0 24 14 48l288 517q17 32 49 49t67 17t64 -17t41 -47l211 -528q6 -18 6 -33zM473 295l-64 184l-93 -184h157zM270.5 802.5
q-15.5 14.5 -15.5 36.5q0 29 17.5 44t45.5 15h241q23 0 37.5 -14.5t14.5 -37.5q0 -29 -17.5 -43.5t-44.5 -14.5h-242q-21 0 -36.5 14.5z" />
    <glyph glyph-name="amacron" unicode="&#x101;" horiz-adv-x="559" 
d="M462 455q59 -51 59 -155q0 -12 -2 -36l-13 -175q-5 -46 -33 -71t-74 -25q-35 0 -58.5 18t-28.5 48q-17 -32 -49 -50t-73 -18q-49 0 -88.5 19.5t-62.5 54t-23 75.5q0 58 27.5 92.5t87.5 51t159 16.5h37q3 56 -72 56q-22 0 -78 -14l-21 -5q-19 -8 -39 -8q-30 0 -48 18.5
t-18 45.5q0 21 12.5 41.5t37.5 34.5q74 37 182 37q120 0 179 -51zM297.5 149q18.5 21 21.5 55v5h-26q-41 0 -60 -11t-19 -34q0 -16 10.5 -26t28.5 -10q26 0 44.5 21zM152.5 619q-14.5 14 -14.5 39q0 27 17.5 41t44.5 14h242q22 0 36.5 -13t14.5 -35q0 -30 -17 -45t-45 -15
h-241q-23 0 -37.5 14z" />
    <glyph glyph-name="Abreve" unicode="&#x102;" horiz-adv-x="771" 
d="M745 88q0 -40 -33 -66.5t-73 -26.5q-27 0 -48.5 14t-31.5 42l-30 84h-294l-42 -82q-15 -29 -39 -43t-51 -14q-38 0 -68 24.5t-30 61.5q0 24 14 48l288 517q17 32 49 49t67 17t64 -17t41 -47l211 -528q6 -18 6 -33zM473 295l-64 184l-93 -184h157zM334 792q-42 19 -66 52
q-11 16 -11 29q0 18 14.5 30t33.5 12q21 0 39 -15q39 -23 93 -23q24 0 49.5 6.5t42.5 16.5q19 15 41 15q18 0 29.5 -10t11.5 -26q0 -15 -15 -35q-25 -32 -66 -51.5t-96 -19.5q-58 0 -100 19z" />
    <glyph glyph-name="abreve" unicode="&#x103;" horiz-adv-x="559" 
d="M462 455q59 -51 59 -155q0 -12 -2 -36l-13 -175q-5 -46 -33 -71t-74 -25q-35 0 -58.5 18t-28.5 48q-17 -32 -49 -50t-73 -18q-49 0 -88.5 19.5t-62.5 54t-23 75.5q0 58 27.5 92.5t87.5 51t159 16.5h37q3 56 -72 56q-22 0 -78 -14l-21 -5q-19 -8 -39 -8q-30 0 -48 18.5
t-18 45.5q0 21 12.5 41.5t37.5 34.5q74 37 182 37q120 0 179 -51zM297.5 149q18.5 21 21.5 55v5h-26q-41 0 -60 -11t-19 -34q0 -16 10.5 -26t28.5 -10q26 0 44.5 21zM206 609.5q-47 32.5 -69 84.5q-4 9 -4 20q0 20 15 33t35 13q26 0 40 -23q15 -21 42.5 -35t57.5 -14
q58 0 96 49q17 24 44 24q18 0 31 -12t13 -31q0 -13 -5 -24q-22 -51 -72 -84t-114 -33q-63 0 -110 32.5z" />
    <glyph glyph-name="Aogonek" unicode="&#x104;" horiz-adv-x="771" 
d="M751.5 -103q10.5 -11 10.5 -29q0 -28 -24 -42q-44 -26 -90 -26q-63 0 -100.5 31t-37.5 80q0 35 15.5 60.5t46.5 45.5l-42 118h-295l-41 -82q-15 -29 -39 -43t-51 -14q-39 0 -68.5 25t-29.5 62q0 22 13 47l288 517q17 32 49 49t67 17q36 0 64.5 -16.5t40.5 -47.5l205 -517
q8 -20 8 -42q0 -27 -13.5 -47.5t-35.5 -33.5q1 1 -20 -17q-18 -13 -27 -23.5t-9 -25.5q0 -20 12.5 -32t31.5 -12h13.5t31.5 5q16 4 26.5 -7zM474 295l-65 185l-93 -185h158z" />
    <glyph glyph-name="aogonek" unicode="&#x105;" horiz-adv-x="559" 
d="M518 -104.5q10 -11.5 10 -28.5q0 -27 -24 -41q-45 -26 -90 -26q-61 0 -99 30t-38 81q0 63 58 104q-19 19 -23 45q-17 -33 -49.5 -51t-78.5 -18q-47 0 -85.5 19.5t-60.5 54t-22 75.5q0 58 28 93t87.5 51t158.5 16h37q3 56 -72 56q-38 0 -99 -19q-19 -8 -39 -8
q-30 0 -48 18.5t-18 45.5q0 21 12.5 41.5t37.5 34.5q73 37 182 37q238 0 238 -206q0 -12 -2 -36l-13 -175q-5 -60 -53 -86q-28 -19 -39 -33t-11 -27q0 -20 13 -32t35 -12q17 0 40 5q17 3 27 -8.5zM297.5 149q18.5 21 21.5 55v5h-26q-79 0 -79 -50q0 -14 11 -22.5t28 -8.5
q26 0 44.5 21z" />
    <glyph glyph-name="Cacute" unicode="&#x106;" horiz-adv-x="679" 
d="M215.5 32q-80.5 42 -123.5 119.5t-43 181.5q0 115 48.5 201.5t137 133.5t204.5 47q80 0 173 -30l23 -6q28 -17 41.5 -40t13.5 -48q0 -34 -22.5 -59t-56.5 -25q-23 0 -50 15q-5 1 -28 7q-53 16 -82 16q-89 0 -136.5 -56.5t-47.5 -154.5q0 -86 36 -130t106 -44q22 0 42 4.5
t49 13.5q27 8 36 10q22 11 44 11q32 0 52 -22t20 -54q0 -23 -11.5 -45.5t-34.5 -39.5q-27 -16 -83 -32t-116 -16q-111 0 -191.5 42zM467 761q-17 0 -29.5 11.5t-12.5 28.5q0 15 10 29l50 72q18 27 46 27q23 0 42 -17.5t19 -39.5t-20 -41l-66 -54q-17 -16 -39 -16z" />
    <glyph glyph-name="cacute" unicode="&#x107;" horiz-adv-x="506" 
d="M158.5 21q-64.5 30 -99.5 85.5t-35 128.5q0 84 36 145t102.5 93.5t157.5 32.5q98 0 157 -28q19 -9 28 -27.5t9 -40.5q0 -32 -17 -56.5t-45 -24.5q-17 0 -32 8q-56 14 -86 14q-46 0 -71.5 -28.5t-25.5 -81.5q0 -45 22.5 -70t61.5 -25q23 0 42 2.5t42 9.5q20 9 35 9
q25 0 39 -19t14 -47q0 -25 -11.5 -47.5t-33.5 -36.5q-26 -11 -65.5 -18.5t-74.5 -7.5q-85 0 -149.5 30zM347 555q-18 0 -30 11t-12 29q0 14 8 29l37 103q11 22 28 33t36 11q27 0 48 -18.5t21 -44.5q0 -25 -22 -50l-61 -77q-23 -26 -53 -26z" />
    <glyph glyph-name="Ccircumflex" unicode="&#x108;" horiz-adv-x="679" 
d="M215.5 32q-80.5 42 -123.5 119.5t-43 181.5q0 115 48.5 201.5t137 133.5t204.5 47q80 0 173 -30l23 -6q28 -17 41.5 -40t13.5 -48q0 -34 -22.5 -59t-56.5 -25q-23 0 -50 15q-5 1 -28 7q-53 16 -82 16q-89 0 -136.5 -56.5t-47.5 -154.5q0 -86 36 -130t106 -44q22 0 42 4.5
t49 13.5q27 8 36 10q22 11 44 11q32 0 52 -22t20 -54q0 -23 -11.5 -45.5t-34.5 -39.5q-27 -16 -83 -32t-116 -16q-111 0 -191.5 42zM378.5 769q-14.5 -7 -28.5 -7q-18 0 -31 10t-13 26q0 19 19 39l63 68q26 24 67 24q19 0 36 -6t26 -18l55 -68q12 -15 12 -29q0 -19 -17 -33
t-38 -14q-31 0 -48 29l-29 52l-47 -52q-12 -14 -26.5 -21z" />
    <glyph glyph-name="ccircumflex" unicode="&#x109;" horiz-adv-x="506" 
d="M158.5 21q-64.5 30 -99.5 85.5t-35 128.5q0 84 36 145t102.5 93.5t157.5 32.5q98 0 157 -28q19 -9 28 -27.5t9 -40.5q0 -32 -17 -56.5t-45 -24.5q-17 0 -32 8q-56 14 -86 14q-46 0 -71.5 -28.5t-25.5 -81.5q0 -45 22.5 -70t61.5 -25q23 0 42 2.5t42 9.5q20 9 35 9
q25 0 39 -19t14 -47q0 -25 -11.5 -47.5t-33.5 -36.5q-26 -11 -65.5 -18.5t-74.5 -7.5q-85 0 -149.5 30zM274.5 563q-15.5 -9 -32.5 -9q-22 0 -39 14t-17 35q0 17 13 36l69 91q15 19 36 29.5t44 10.5q22 0 41 -10t31 -30l59 -100q8 -13 8 -28q0 -20 -16.5 -33.5t-39.5 -13.5
q-19 0 -36 10.5t-27 31.5l-30 64l-38 -71q-10 -18 -25.5 -27z" />
    <glyph glyph-name="Cdotaccent" unicode="&#x10a;" horiz-adv-x="679" 
d="M215.5 32q-80.5 42 -123.5 119.5t-43 181.5q0 115 48.5 201.5t137 133.5t204.5 47q80 0 173 -30l23 -6q28 -17 41.5 -40t13.5 -48q0 -34 -22.5 -59t-56.5 -25q-23 0 -50 15q-5 1 -28 7q-53 16 -82 16q-89 0 -136.5 -56.5t-47.5 -154.5q0 -86 36 -130t106 -44q22 0 42 4.5
t49 13.5q27 8 36 10q22 11 44 11q32 0 52 -22t20 -54q0 -23 -11.5 -45.5t-34.5 -39.5q-27 -16 -83 -32t-116 -16q-111 0 -191.5 42zM375.5 780.5q-27.5 24.5 -27.5 65.5q0 39 27.5 62.5t73.5 23.5q45 0 73 -23.5t28 -62.5q0 -41 -27.5 -65.5t-73.5 -24.5t-73.5 24.5z" />
    <glyph glyph-name="cdotaccent" unicode="&#x10b;" horiz-adv-x="506" 
d="M158.5 21q-64.5 30 -99.5 85.5t-35 128.5q0 84 36 145t102.5 93.5t157.5 32.5q98 0 157 -28q19 -9 28 -27.5t9 -40.5q0 -32 -17 -56.5t-45 -24.5q-17 0 -32 8q-56 14 -86 14q-46 0 -71.5 -28.5t-25.5 -81.5q0 -45 22.5 -70t61.5 -25q23 0 42 2.5t42 9.5q20 9 35 9
q25 0 39 -19t14 -47q0 -25 -11.5 -47.5t-33.5 -36.5q-26 -11 -65.5 -18.5t-74.5 -7.5q-85 0 -149.5 30zM264.5 597q-27.5 24 -27.5 64t27 63t74 23q45 0 73 -23.5t28 -62.5q0 -40 -27.5 -64t-73.5 -24t-73.5 24z" />
    <glyph glyph-name="Ccaron" unicode="&#x10c;" horiz-adv-x="679" 
d="M215.5 32q-80.5 42 -123.5 119.5t-43 181.5q0 115 48.5 201.5t137 133.5t204.5 47q80 0 173 -30l23 -6q28 -17 41.5 -40t13.5 -48q0 -34 -22.5 -59t-56.5 -25q-23 0 -50 15q-5 1 -28 7q-53 16 -82 16q-89 0 -136.5 -56.5t-47.5 -154.5q0 -86 36 -130t106 -44q22 0 42 4.5
t49 13.5q27 8 36 10q22 11 44 11q32 0 52 -22t20 -54q0 -23 -11.5 -45.5t-34.5 -39.5q-27 -16 -83 -32t-116 -16q-111 0 -191.5 42zM547 926q18 0 30.5 -10.5t12.5 -26.5q0 -18 -17 -38l-66 -68q-23 -24 -65 -24q-19 0 -36.5 6t-26.5 18l-55 68q-11 14 -11 29q0 19 16.5 33
t37.5 14q30 0 47 -29l30 -52l46 51q25 29 57 29z" />
    <glyph glyph-name="ccaron" unicode="&#x10d;" horiz-adv-x="506" 
d="M158.5 21q-64.5 30 -99.5 85.5t-35 128.5q0 84 36 145t102.5 93.5t157.5 32.5q98 0 157 -28q19 -9 28 -27.5t9 -40.5q0 -32 -17 -56.5t-45 -24.5q-17 0 -32 8q-56 14 -86 14q-46 0 -71.5 -28.5t-25.5 -81.5q0 -45 22.5 -70t61.5 -25q23 0 42 2.5t42 9.5q20 9 35 9
q25 0 39 -19t14 -47q0 -25 -11.5 -47.5t-33.5 -36.5q-26 -11 -65.5 -18.5t-74.5 -7.5q-85 0 -149.5 30zM434 768q22 0 39 -14t17 -34q0 -17 -13 -36l-70 -90q-14 -20 -35.5 -30.5t-44.5 -10.5q-22 0 -40.5 10.5t-30.5 30.5l-58 99q-9 15 -9 29q0 20 16.5 33t39.5 13
q19 0 36 -10.5t27 -31.5l29 -65l39 71q19 36 58 36z" />
    <glyph glyph-name="Dcaron" unicode="&#x10e;" horiz-adv-x="783" 
d="M64 24.5q-23 24.5 -19 71.5l41 510q5 48 32 73.5t75 25.5h204q106 0 186.5 -41t124.5 -116.5t44 -175.5q0 -118 -48.5 -201.5t-140 -127t-217.5 -43.5h-212q-47 0 -70 24.5zM325 172q110 0 161 47t51 154q0 78 -44.5 119t-126.5 41h-71l-29 -361h59zM537 926
q18 0 30.5 -10.5t12.5 -26.5q0 -18 -17 -38l-66 -68q-23 -24 -65 -24q-19 0 -36.5 6t-26.5 18l-55 68q-11 14 -11 29q0 19 16.5 33t37.5 14q30 0 47 -29l30 -52l46 51q25 29 57 29z" />
    <glyph glyph-name="dcaron" unicode="&#x10f;" horiz-adv-x="638" 
d="M661.5 698q14.5 13 32.5 13q15 0 25.5 -10t10.5 -27q0 -8 -1 -13l-30 -143q-4 -17 -14 -26t-21 -9q-13 0 -21.5 11t-7.5 30l10 137q2 24 16.5 37zM596.5 682.5q27.5 -26.5 24.5 -67.5l-41 -526q-3 -42 -31.5 -69t-76.5 -27q-37 0 -60.5 16.5t-32.5 45.5
q-24 -31 -60.5 -47.5t-84.5 -16.5q-62 0 -109.5 28.5t-74 82t-26.5 127.5q0 80 30 143t84.5 98.5t124.5 35.5q82 0 137 -53l13 167q3 40 32 64.5t76 24.5q48 0 75.5 -26.5zM367.5 172.5q21.5 29.5 21.5 76.5q0 105 -77 105q-39 0 -61 -29.5t-22 -80.5q0 -49 21 -75t60 -26
q36 0 57.5 29.5z" />
    <glyph glyph-name="Dcroat" unicode="&#x110;" horiz-adv-x="827" 
d="M625 664q80 -41 124 -116.5t44 -175.5q0 -118 -48.5 -201.5t-139.5 -127t-218 -43.5h-212q-43 0 -66 21t-23 61l1 14l14 179h-5q-42 0 -64.5 20t-22.5 55q0 43 27 64t76 21h2l14 171q4 48 31.5 73.5t75.5 25.5h204q106 0 186 -41zM528 219q51 47 51 154q0 78 -44.5 119
t-127.5 41h-71l-8 -98h110q40 0 63.5 -20t23.5 -55q0 -43 -27 -64t-76 -21h-106l-8 -103h59q110 0 161 47z" />
    <glyph glyph-name="dcroat" unicode="&#x111;" horiz-adv-x="638" 
d="M701 638q20 -17 20 -47q0 -37 -23.5 -56.5t-69.5 -19.5h-13l-35 -426q-4 -43 -32.5 -69.5t-75.5 -26.5q-37 0 -60.5 16.5t-32.5 45.5q-24 -31 -60.5 -47.5t-84.5 -16.5q-62 0 -109.5 28.5t-74 82t-26.5 127.5q0 80 30 143t84.5 98.5t124.5 35.5q84 0 139 -55l5 64h-114
q-40 0 -60 17t-20 48q0 36 24.5 55.5t69.5 19.5h117q12 25 37.5 39.5t60.5 14.5t60 -14.5t35 -39.5h25q39 0 59 -17zM367.5 172.5q21.5 29.5 21.5 76.5q0 105 -77 105q-39 0 -61 -29.5t-22 -80.5q0 -49 21 -75t60 -26q36 0 57.5 29.5z" />
    <glyph glyph-name="Emacron" unicode="&#x112;" horiz-adv-x="602" 
d="M290 541l-8 -100h207q47 0 71 -19.5t24 -55.5q0 -46 -26.5 -67.5t-81.5 -21.5h-207l-9 -113h228q47 0 71 -20t24 -57q0 -45 -27.5 -66t-82.5 -21h-337q-44 0 -67.5 22t-23.5 62l1 14l40 508q5 47 32.5 73t75.5 26h337q47 0 71 -20t24 -55q0 -47 -27 -68t-83 -21h-226z
M221.5 802.5q-15.5 14.5 -15.5 36.5q0 29 17.5 44t45.5 15h241q23 0 37.5 -14.5t14.5 -37.5q0 -29 -17.5 -43.5t-44.5 -14.5h-242q-21 0 -36.5 14.5z" />
    <glyph glyph-name="emacron" unicode="&#x113;" horiz-adv-x="537" 
d="M501 219.5q-13 -13.5 -36 -13.5h-241q14 -64 94 -64q22 0 36 3t28 7.5t21 6.5q17 8 34 8q25 0 39.5 -19t14.5 -47q0 -24 -11 -46t-33 -35q-26 -14 -63.5 -21.5t-81.5 -7.5q-82 0 -145 30.5t-98 86t-35 128.5q0 76 33.5 138t92.5 97t131 35q110 0 171.5 -66.5t61.5 -183.5
q0 -23 -13 -36.5zM245 352q-15 -16 -21 -52h120q-2 34 -15.5 51t-41.5 17q-27 0 -42 -16zM145.5 619q-14.5 14 -14.5 39q0 27 17.5 41t44.5 14h242q22 0 36.5 -13t14.5 -35q0 -30 -17 -45t-45 -15h-241q-23 0 -37.5 14z" />
    <glyph glyph-name="Ebreve" unicode="&#x114;" horiz-adv-x="602" 
d="M290 541l-8 -100h207q47 0 71 -19.5t24 -55.5q0 -46 -26.5 -67.5t-81.5 -21.5h-207l-9 -113h228q47 0 71 -20t24 -57q0 -45 -27.5 -66t-82.5 -21h-337q-44 0 -67.5 22t-23.5 62l1 14l40 508q5 47 32.5 73t75.5 26h337q47 0 71 -20t24 -55q0 -47 -27 -68t-83 -21h-226z
M285 792q-42 19 -66 52q-11 16 -11 29q0 18 14.5 30t33.5 12q21 0 39 -15q39 -23 93 -23q24 0 49.5 6.5t42.5 16.5q19 15 41 15q18 0 29.5 -10t11.5 -26q0 -15 -15 -35q-25 -32 -66 -51.5t-96 -19.5q-58 0 -100 19z" />
    <glyph glyph-name="ebreve" unicode="&#x115;" horiz-adv-x="537" 
d="M501 219.5q-13 -13.5 -36 -13.5h-241q14 -64 94 -64q22 0 36 3t28 7.5t21 6.5q17 8 34 8q25 0 39.5 -19t14.5 -47q0 -24 -11 -46t-33 -35q-26 -14 -63.5 -21.5t-81.5 -7.5q-82 0 -145 30.5t-98 86t-35 128.5q0 76 33.5 138t92.5 97t131 35q110 0 171.5 -66.5t61.5 -183.5
q0 -23 -13 -36.5zM245 352q-15 -16 -21 -52h120q-2 34 -15.5 51t-41.5 17q-27 0 -42 -16zM199 609.5q-47 32.5 -69 84.5q-4 9 -4 20q0 20 15 33t35 13q26 0 40 -23q15 -21 42.5 -35t57.5 -14q58 0 96 49q17 24 44 24q18 0 31 -12t13 -31q0 -13 -5 -24q-22 -51 -72 -84
t-114 -33q-63 0 -110 32.5z" />
    <glyph glyph-name="Edotaccent" unicode="&#x116;" horiz-adv-x="602" 
d="M290 541l-8 -100h207q47 0 71 -19.5t24 -55.5q0 -46 -26.5 -67.5t-81.5 -21.5h-207l-9 -113h228q47 0 71 -20t24 -57q0 -45 -27.5 -66t-82.5 -21h-337q-44 0 -67.5 22t-23.5 62l1 14l40 508q5 47 32.5 73t75.5 26h337q47 0 71 -20t24 -55q0 -47 -27 -68t-83 -21h-226z
M310.5 780.5q-27.5 24.5 -27.5 65.5q0 39 27.5 62.5t73.5 23.5q45 0 73 -23.5t28 -62.5q0 -41 -27.5 -65.5t-73.5 -24.5t-73.5 24.5z" />
    <glyph glyph-name="edotaccent" unicode="&#x117;" horiz-adv-x="537" 
d="M501 219.5q-13 -13.5 -36 -13.5h-241q14 -64 94 -64q22 0 36 3t28 7.5t21 6.5q17 8 34 8q25 0 39.5 -19t14.5 -47q0 -24 -11 -46t-33 -35q-26 -14 -63.5 -21.5t-81.5 -7.5q-82 0 -145 30.5t-98 86t-35 128.5q0 76 33.5 138t92.5 97t131 35q110 0 171.5 -66.5t61.5 -183.5
q0 -23 -13 -36.5zM245 352q-15 -16 -21 -52h120q-2 34 -15.5 51t-41.5 17q-27 0 -42 -16zM235.5 597q-27.5 24 -27.5 64t27 63t74 23q45 0 73 -23.5t28 -62.5q0 -40 -27.5 -64t-73.5 -24t-73.5 24z" />
    <glyph glyph-name="Eogonek" unicode="&#x118;" horiz-adv-x="602" 
d="M290 541l-8 -100h207q47 0 71 -19.5t24 -55.5q0 -46 -26.5 -67.5t-81.5 -21.5h-207l-9 -113h228q47 0 71 -20t24 -57q0 -38 -18 -56.5t-60 -30.5q-15 -13 -24.5 -26t-9.5 -31q0 -20 12 -32t29 -12q4 0 13.5 -0.5t33.5 5.5q16 4 26.5 -8t10.5 -30q0 -12 -6 -23t-18 -17
q-45 -26 -91 -26q-62 0 -99 31t-37 80q0 53 43 89h-252q-44 0 -67.5 22t-23.5 62l1 14l40 508q5 47 32.5 73t75.5 26h337q47 0 71 -20t24 -55q0 -47 -27 -68t-83 -21h-226z" />
    <glyph glyph-name="eogonek" unicode="&#x119;" horiz-adv-x="537" 
d="M501 219.5q-13 -13.5 -36 -13.5h-241q14 -64 94 -64q22 0 36 3t28 7.5t21 6.5q17 8 34 8q25 0 39.5 -19t14.5 -47q0 -24 -11 -46t-33 -35q-9 -5 -22 -9.5t-22 -7.5q-20 -6 -33.5 -23.5t-13.5 -41.5q0 -17 11.5 -28t29.5 -11h13.5t17.5 1t17 4q15 4 25.5 -8t10.5 -29
q0 -12 -6 -23.5t-17 -17.5q-45 -26 -102 -26t-91.5 28.5t-34.5 78.5q0 51 39 85q-73 6 -128.5 38t-86 85t-30.5 121q0 76 33.5 138t92.5 97t131 35q110 0 171.5 -66.5t61.5 -183.5q0 -23 -13 -36.5zM245 352q-15 -16 -21 -52h120q-2 34 -15.5 51t-41.5 17q-27 0 -42 -16z
" />
    <glyph glyph-name="Ecaron" unicode="&#x11a;" horiz-adv-x="602" 
d="M290 541l-8 -100h207q47 0 71 -19.5t24 -55.5q0 -46 -26.5 -67.5t-81.5 -21.5h-207l-9 -113h228q47 0 71 -20t24 -57q0 -45 -27.5 -66t-82.5 -21h-337q-44 0 -67.5 22t-23.5 62l1 14l40 508q5 47 32.5 73t75.5 26h337q47 0 71 -20t24 -55q0 -47 -27 -68t-83 -21h-226z
M482 926q18 0 30.5 -10.5t12.5 -26.5q0 -18 -17 -38l-66 -68q-23 -24 -65 -24q-19 0 -36.5 6t-26.5 18l-55 68q-11 14 -11 29q0 19 16.5 33t37.5 14q30 0 47 -29l30 -52l46 51q25 29 57 29z" />
    <glyph glyph-name="ecaron" unicode="&#x11b;" horiz-adv-x="537" 
d="M501 219.5q-13 -13.5 -36 -13.5h-241q14 -64 94 -64q22 0 36 3t28 7.5t21 6.5q17 8 34 8q25 0 39.5 -19t14.5 -47q0 -24 -11 -46t-33 -35q-26 -14 -63.5 -21.5t-81.5 -7.5q-82 0 -145 30.5t-98 86t-35 128.5q0 76 33.5 138t92.5 97t131 35q110 0 171.5 -66.5t61.5 -183.5
q0 -23 -13 -36.5zM245 352q-15 -16 -21 -52h120q-2 34 -15.5 51t-41.5 17q-27 0 -42 -16zM405 768q22 0 39 -14t17 -34q0 -17 -13 -36l-70 -90q-14 -20 -35.5 -30.5t-44.5 -10.5q-22 0 -40.5 10.5t-30.5 30.5l-58 99q-9 15 -9 29q0 20 16.5 33t39.5 13q19 0 36 -10.5
t27 -31.5l29 -65l39 71q19 36 58 36z" />
    <glyph glyph-name="Gcircumflex" unicode="&#x11c;" horiz-adv-x="750" 
d="M692 387.5q19 -19.5 16 -53.5l-12 -154q-5 -60 -16 -91.5t-36 -49.5t-74 -32q-87 -17 -168 -17q-107 0 -186.5 43t-123 121.5t-43.5 183.5q0 113 48 198.5t137 132t208 46.5q70 0 119 -11.5t97 -27.5q27 -16 40.5 -38.5t13.5 -46.5q0 -34 -23 -58.5t-57 -24.5
q-25 0 -50 14q-8 2 -29 9t-47.5 11.5t-60.5 4.5q-85 0 -132 -57t-47 -154q0 -183 169 -183q36 0 68 8l8 102h-42q-81 0 -81 69q0 35 23.5 55t61.5 20h164q36 0 55 -19.5zM396.5 769q-14.5 -7 -28.5 -7q-18 0 -31 10t-13 26q0 19 19 39l63 68q26 24 67 24q19 0 36 -6t26 -18
l55 -68q12 -15 12 -29q0 -19 -17 -33t-38 -14q-31 0 -48 29l-29 52l-47 -52q-12 -14 -26.5 -21z" />
    <glyph glyph-name="gcircumflex" unicode="&#x11d;" horiz-adv-x="642" 
d="M589 477.5q25 -26.5 22 -69.5l-27 -340q-10 -125 -95 -191t-238 -66q-45 0 -93 8t-83 23q-23 12 -34.5 30.5t-11.5 39.5q0 30 20.5 54t50.5 24q15 0 26 -5q6 0 19.5 -3t20.5 -5q60 -15 92 -15q57 0 86 21.5t33 69.5l1 10q-52 -50 -142 -50q-62 0 -110 28.5t-74.5 80
t-26.5 119.5q0 73 30.5 133.5t86 96t125.5 35.5q48 0 83.5 -15.5t64.5 -45.5q12 27 38.5 43t63.5 16q47 0 72 -26.5zM372 193q23 26 23 68q0 93 -81 93q-39 0 -61.5 -26.5t-22.5 -74.5q0 -40 22 -63t59 -23q38 0 61 26zM290.5 563q-15.5 -9 -32.5 -9q-22 0 -39 14t-17 35
q0 17 13 36l69 91q15 19 36 29.5t44 10.5q22 0 41 -10t31 -30l59 -100q8 -13 8 -28q0 -20 -16.5 -33.5t-39.5 -13.5q-19 0 -36 10.5t-27 31.5l-30 64l-38 -71q-10 -18 -25.5 -27z" />
    <glyph glyph-name="Gbreve" unicode="&#x11e;" horiz-adv-x="750" 
d="M692 387.5q19 -19.5 16 -53.5l-12 -154q-5 -60 -16 -91.5t-36 -49.5t-74 -32q-87 -17 -168 -17q-107 0 -186.5 43t-123 121.5t-43.5 183.5q0 113 48 198.5t137 132t208 46.5q70 0 119 -11.5t97 -27.5q27 -16 40.5 -38.5t13.5 -46.5q0 -34 -23 -58.5t-57 -24.5
q-25 0 -50 14q-8 2 -29 9t-47.5 11.5t-60.5 4.5q-85 0 -132 -57t-47 -154q0 -183 169 -183q36 0 68 8l8 102h-42q-81 0 -81 69q0 35 23.5 55t61.5 20h164q36 0 55 -19.5zM368 792q-42 19 -66 52q-11 16 -11 29q0 18 14.5 30t33.5 12q21 0 39 -15q39 -23 93 -23
q24 0 49.5 6.5t42.5 16.5q19 15 41 15q18 0 29.5 -10t11.5 -26q0 -15 -15 -35q-25 -32 -66 -51.5t-96 -19.5q-58 0 -100 19z" />
    <glyph glyph-name="gbreve" unicode="&#x11f;" horiz-adv-x="642" 
d="M589 477.5q25 -26.5 22 -69.5l-27 -340q-10 -125 -95 -191t-238 -66q-45 0 -93 8t-83 23q-23 12 -34.5 30.5t-11.5 39.5q0 30 20.5 54t50.5 24q15 0 26 -5q6 0 19.5 -3t20.5 -5q60 -15 92 -15q57 0 86 21.5t33 69.5l1 10q-52 -50 -142 -50q-62 0 -110 28.5t-74.5 80
t-26.5 119.5q0 73 30.5 133.5t86 96t125.5 35.5q48 0 83.5 -15.5t64.5 -45.5q12 27 38.5 43t63.5 16q47 0 72 -26.5zM372 193q23 26 23 68q0 93 -81 93q-39 0 -61.5 -26.5t-22.5 -74.5q0 -40 22 -63t59 -23q38 0 61 26zM244 609.5q-47 32.5 -69 84.5q-4 9 -4 20q0 20 15 33
t35 13q26 0 40 -23q15 -21 42.5 -35t57.5 -14q58 0 96 49q17 24 44 24q18 0 31 -12t13 -31q0 -13 -5 -24q-22 -51 -72 -84t-114 -33q-63 0 -110 32.5z" />
    <glyph glyph-name="Gdotaccent" unicode="&#x120;" horiz-adv-x="750" 
d="M692 387.5q19 -19.5 16 -53.5l-12 -154q-5 -60 -16 -91.5t-36 -49.5t-74 -32q-87 -17 -168 -17q-107 0 -186.5 43t-123 121.5t-43.5 183.5q0 113 48 198.5t137 132t208 46.5q70 0 119 -11.5t97 -27.5q27 -16 40.5 -38.5t13.5 -46.5q0 -34 -23 -58.5t-57 -24.5
q-25 0 -50 14q-8 2 -29 9t-47.5 11.5t-60.5 4.5q-85 0 -132 -57t-47 -154q0 -183 169 -183q36 0 68 8l8 102h-42q-81 0 -81 69q0 35 23.5 55t61.5 20h164q36 0 55 -19.5zM393.5 780.5q-27.5 24.5 -27.5 65.5q0 39 27.5 62.5t73.5 23.5q45 0 73 -23.5t28 -62.5
q0 -41 -27.5 -65.5t-73.5 -24.5t-73.5 24.5z" />
    <glyph glyph-name="gdotaccent" unicode="&#x121;" horiz-adv-x="642" 
d="M589 477.5q25 -26.5 22 -69.5l-27 -340q-10 -125 -95 -191t-238 -66q-45 0 -93 8t-83 23q-23 12 -34.5 30.5t-11.5 39.5q0 30 20.5 54t50.5 24q15 0 26 -5q6 0 19.5 -3t20.5 -5q60 -15 92 -15q57 0 86 21.5t33 69.5l1 10q-52 -50 -142 -50q-62 0 -110 28.5t-74.5 80
t-26.5 119.5q0 73 30.5 133.5t86 96t125.5 35.5q48 0 83.5 -15.5t64.5 -45.5q12 27 38.5 43t63.5 16q47 0 72 -26.5zM372 193q23 26 23 68q0 93 -81 93q-39 0 -61.5 -26.5t-22.5 -74.5q0 -40 22 -63t59 -23q38 0 61 26zM280.5 597q-27.5 24 -27.5 64t27 63t74 23
q45 0 73 -23.5t28 -62.5q0 -40 -27.5 -64t-73.5 -24t-73.5 24z" />
    <glyph glyph-name="Gcommaaccent" unicode="&#x122;" horiz-adv-x="750" 
d="M692 387.5q19 -19.5 16 -53.5l-12 -154q-5 -60 -16 -91.5t-36 -49.5t-74 -32q-87 -17 -168 -17q-107 0 -186.5 43t-123 121.5t-43.5 183.5q0 113 48 198.5t137 132t208 46.5q70 0 119 -11.5t97 -27.5q27 -16 40.5 -38.5t13.5 -46.5q0 -34 -23 -58.5t-57 -24.5
q-25 0 -50 14q-8 2 -29 9t-47.5 11.5t-60.5 4.5q-85 0 -132 -57t-47 -154q0 -183 169 -183q36 0 68 8l8 102h-42q-81 0 -81 69q0 35 23.5 55t61.5 20h164q36 0 55 -19.5zM462.5 -83q25.5 -25 25.5 -63q0 -62 -44 -113q-18 -22 -47 -22q-16 0 -27 8t-11 20q0 11 9 23
q14 19 21 33h-8q-30 0 -51 16t-21 48q0 33 25 54t58 21q45 0 70.5 -25z" />
    <glyph glyph-name="gcommaaccent" unicode="&#x123;" horiz-adv-x="642" 
d="M589 477.5q25 -26.5 22 -69.5l-27 -340q-10 -125 -95 -191t-238 -66q-45 0 -93 8t-83 23q-23 12 -34.5 30.5t-11.5 39.5q0 30 20.5 54t50.5 24q15 0 26 -5q6 0 19.5 -3t20.5 -5q60 -15 92 -15q57 0 86 21.5t33 69.5l1 10q-52 -50 -142 -50q-62 0 -110 28.5t-74.5 80
t-26.5 119.5q0 73 30.5 133.5t86 96t125.5 35.5q48 0 83.5 -15.5t64.5 -45.5q12 27 38.5 43t63.5 16q47 0 72 -26.5zM372 193q23 26 23 68q0 93 -81 93q-39 0 -61.5 -26.5t-22.5 -74.5q0 -40 22 -63t59 -23q38 0 61 26zM422.5 706q20.5 -16 20.5 -48t-25 -54t-58 -22
q-45 0 -69.5 25.5t-24.5 63.5q0 34 12.5 63t29.5 49q19 23 49 23q16 0 26.5 -7.5t10.5 -19.5t-10 -25q-13 -17 -19 -32h6q31 0 51.5 -16z" />
    <glyph glyph-name="Hcircumflex" unicode="&#x124;" horiz-adv-x="782" 
d="M731 681.5q26 -28.5 22 -75.5l-40 -504q-5 -49 -35.5 -79t-79.5 -30q-45 0 -71 25t-26 68l1 13l14 175h-245l-14 -172q-5 -49 -35.5 -79t-79.5 -30q-45 0 -71 25t-26 68l1 13l40 504q4 49 34.5 78t79.5 29t75 -28.5t22 -75.5l-13 -164h245l13 161q4 49 34.5 78t79.5 29
t75 -28.5zM368.5 769q-14.5 -7 -28.5 -7q-18 0 -31 10t-13 26q0 19 19 39l63 68q26 24 67 24q19 0 36 -6t26 -18l55 -68q12 -15 12 -29q0 -19 -17 -33t-38 -14q-31 0 -48 29l-29 52l-47 -52q-12 -14 -26.5 -21z" />
    <glyph glyph-name="hcircumflex" unicode="&#x125;" horiz-adv-x="617" 
d="M539.5 458q41.5 -48 41.5 -141q0 -23 -1 -35l-16 -193q-4 -44 -33 -70t-78 -26q-48 0 -74.5 26.5t-22.5 69.5l16 186q2 34 -11 53.5t-41 19.5q-58 0 -65 -76l-15 -183q-2 -43 -31.5 -69.5t-78.5 -26.5t-75.5 26.5t-22.5 69.5l41 526q3 41 34 67.5t80 26.5q46 0 71.5 -25
t22.5 -64l-13 -166q27 25 65 38.5t83 13.5q82 0 123.5 -48zM128.5 769q-14.5 -7 -28.5 -7q-18 0 -31 10t-13 26q0 19 19 39l63 68q26 24 67 24q19 0 36 -6t26 -18l55 -68q12 -15 12 -29q0 -19 -17 -33t-38 -14q-31 0 -48 29l-29 52l-47 -52q-12 -14 -26.5 -21z" />
    <glyph glyph-name="Hbar" unicode="&#x126;" horiz-adv-x="868" 
d="M872 629.5q23 -20.5 23 -52.5q0 -39 -26 -60.5t-78 -21.5h-4l-31 -393q-5 -49 -36 -79t-79 -30q-45 0 -71 25t-26 68l1 13l14 175h-246l-13 -172q-5 -49 -36 -79t-79 -30q-45 0 -71 25t-26 68l1 13l31 396h-4q-44 0 -66.5 20t-22.5 53q0 39 25.5 60.5t77.5 21.5h11
q14 29 40 44.5t62 15.5t60 -16t32 -44h262q14 29 40 44.5t62 15.5t60 -16t33 -44h12q45 0 68 -20.5zM576 495h-246l-4 -53h246z" />
    <glyph glyph-name="hbar" unicode="&#x127;" horiz-adv-x="617" 
d="M539.5 458q41.5 -48 41.5 -141q0 -23 -1 -35l-16 -193q-4 -44 -33 -70t-78 -26q-48 0 -74.5 26.5t-22.5 69.5l16 186q2 34 -11 53.5t-41 19.5q-58 0 -65 -76l-15 -183q-2 -43 -31.5 -69.5t-78.5 -26.5t-75.5 26.5t-22.5 69.5l33 426h-13q-40 0 -60.5 18.5t-20.5 49.5
q0 35 24 53.5t70 18.5h20q13 25 39.5 39.5t62.5 14.5q35 0 58.5 -14.5t31.5 -39.5h123q39 0 59 -17.5t20 -47.5q0 -75 -92 -75h-114l-5 -61q27 25 65 38.5t83 13.5q82 0 123.5 -48z" />
    <glyph glyph-name="Itilde" unicode="&#x128;" horiz-adv-x="329" 
d="M71.5 18q-26.5 25 -26.5 68l1 13l40 504q4 49 35 78t81 29q47 0 73.5 -24.5t26.5 -66.5l-1 -13l-40 -504q-4 -50 -35 -79.5t-82 -29.5q-46 0 -72.5 25zM248 771.5q-18 6.5 -42 17.5q-23 11 -38 16.5t-29 5.5q-13 0 -20.5 -5t-17.5 -15q-7 -9 -15 -14t-20 -5
q-16 0 -24.5 10.5t-8.5 28.5q0 26 12.5 52.5t37.5 43.5t59 17q17 0 35 -6t42 -18q44 -21 67 -21q13 0 21 5t17 14t16.5 13.5t19.5 4.5q32 0 32 -38q0 -26 -12.5 -52.5t-37 -43.5t-58.5 -17q-18 0 -36 6.5z" />
    <glyph glyph-name="itilde" unicode="&#x129;" horiz-adv-x="297" 
d="M56.5 17.5q-28.5 24.5 -24.5 71.5l26 318q4 48 35.5 72.5t76.5 24.5q44 0 72 -24.5t24 -72.5l-26 -318q-4 -47 -35 -71.5t-75 -24.5q-45 0 -73.5 24.5zM209 589.5q-19 7.5 -42 21.5q-19 11 -30.5 16t-24.5 5t-21.5 -6t-20.5 -19q-11 -13 -19 -19t-21 -6q-14 0 -21.5 12.5
t-7.5 33.5q0 26 15 53.5t40 45t53 17.5q24 0 43 -7.5t43 -21.5q18 -10 31 -15.5t26 -5.5t21.5 6.5t19.5 19.5q10 12 18.5 18.5t20.5 6.5q30 0 30 -46q0 -28 -15.5 -55t-41 -44.5t-54.5 -17.5q-23 0 -42 7.5z" />
    <glyph glyph-name="Imacron" unicode="&#x12a;" horiz-adv-x="329" 
d="M71.5 18q-26.5 25 -26.5 68l1 13l40 504q4 49 35 78t81 29q47 0 73.5 -24.5t26.5 -66.5l-1 -13l-40 -504q-4 -50 -35 -79.5t-82 -29.5q-46 0 -72.5 25zM50.5 802.5q-15.5 14.5 -15.5 36.5q0 29 17.5 44t45.5 15h241q23 0 37.5 -14.5t14.5 -37.5q0 -29 -17.5 -43.5
t-44.5 -14.5h-242q-21 0 -36.5 14.5z" />
    <glyph glyph-name="imacron" unicode="&#x12b;" horiz-adv-x="297" 
d="M56.5 17.5q-28.5 24.5 -24.5 71.5l26 318q4 48 35.5 72.5t76.5 24.5q44 0 72 -24.5t24 -72.5l-26 -318q-4 -47 -35 -71.5t-75 -24.5q-45 0 -73.5 24.5zM17.5 619q-14.5 14 -14.5 39q0 27 17.5 41t44.5 14h242q22 0 36.5 -13t14.5 -35q0 -30 -17 -45t-45 -15h-241
q-23 0 -37.5 14z" />
    <glyph glyph-name="Ibreve" unicode="&#x12c;" horiz-adv-x="329" 
d="M71.5 18q-26.5 25 -26.5 68l1 13l40 504q4 49 35 78t81 29q47 0 73.5 -24.5t26.5 -66.5l-1 -13l-40 -504q-4 -50 -35 -79.5t-82 -29.5q-46 0 -72.5 25zM114 792q-42 19 -66 52q-11 16 -11 29q0 18 14.5 30t33.5 12q21 0 39 -15q39 -23 93 -23q24 0 49.5 6.5t42.5 16.5
q19 15 41 15q18 0 29.5 -10t11.5 -26q0 -15 -15 -35q-25 -32 -66 -51.5t-96 -19.5q-58 0 -100 19z" />
    <glyph glyph-name="ibreve" unicode="&#x12d;" horiz-adv-x="297" 
d="M56.5 17.5q-28.5 24.5 -24.5 71.5l26 318q4 48 35.5 72.5t76.5 24.5q44 0 72 -24.5t24 -72.5l-26 -318q-4 -47 -35 -71.5t-75 -24.5q-45 0 -73.5 24.5zM71 609.5q-47 32.5 -69 84.5q-4 9 -4 20q0 20 15 33t35 13q26 0 40 -23q15 -21 42.5 -35t57.5 -14q58 0 96 49
q17 24 44 24q18 0 31 -12t13 -31q0 -13 -5 -24q-22 -51 -72 -84t-114 -33q-63 0 -110 32.5z" />
    <glyph glyph-name="Iogonek" unicode="&#x12e;" horiz-adv-x="329" 
d="M191 -4q-22 -15 -31.5 -25.5t-9.5 -27.5q0 -21 13.5 -32.5t34.5 -11.5q22 0 48 5q16 4 26 -6.5t10 -27.5q0 -28 -23 -44q-38 -26 -96 -26q-65 0 -102.5 31t-37.5 83q0 32 13.5 55t41.5 45q-36 29 -32 84l40 505q4 49 35 78t81 29q47 0 73.5 -24.5t26.5 -66.5l-1 -13
l-40 -504q-3 -31 -16 -55.5t-32 -34.5z" />
    <glyph glyph-name="iogonek" unicode="&#x12f;" horiz-adv-x="297" 
d="M263.5 729q30.5 -26 30.5 -69q0 -44 -30 -70.5t-82 -26.5q-51 0 -81 26.5t-30 70.5t29.5 69.5t81.5 25.5q51 0 81.5 -26zM242 479.5q28 -24.5 24 -72.5l-26 -318q-4 -57 -47 -80q-3 -4 -9 -8.5l-10 -7.5q-18 -14 -27 -25t-9 -30q0 -18 12.5 -28.5t28.5 -10.5h14.5t32.5 5
q16 4 26.5 -8t10.5 -30q0 -12 -6 -23t-18 -17q-44 -26 -102 -26q-55 0 -90.5 29t-35.5 79q0 25 13 51.5t40 50.5q-35 27 -32 79l26 318q4 48 35.5 72.5t76.5 24.5q44 0 72 -24.5z" />
    <glyph glyph-name="Idotaccent" unicode="&#x130;" horiz-adv-x="329" 
d="M71.5 18q-26.5 25 -26.5 68l1 13l40 504q4 49 35 78t81 29q47 0 73.5 -24.5t26.5 -66.5l-1 -13l-40 -504q-4 -50 -35 -79.5t-82 -29.5q-46 0 -72.5 25zM139.5 780.5q-27.5 24.5 -27.5 65.5q0 39 27.5 62.5t73.5 23.5q45 0 73 -23.5t28 -62.5q0 -41 -27.5 -65.5
t-73.5 -24.5t-73.5 24.5z" />
    <glyph glyph-name="dotlessi" unicode="&#x131;" horiz-adv-x="297" 
d="M56.5 17.5q-28.5 24.5 -24.5 71.5l26 318q4 48 35.5 72.5t76.5 24.5q44 0 72 -24.5t24 -72.5l-26 -318q-4 -47 -35 -71.5t-75 -24.5q-45 0 -73.5 24.5z" />
    <glyph glyph-name="Jcircumflex" unicode="&#x134;" horiz-adv-x="419" 
d="M-2 9.5q-30 20.5 -30 66.5q0 44 22.5 64t68.5 23l33 2q24 2 37 14.5t14 38.5l31 387q5 48 36.5 76.5t80.5 28.5t76.5 -28.5t23.5 -76.5l-29 -383q-8 -105 -68 -162.5t-169 -64.5l-32 -2q-65 -4 -95 16.5zM231.5 769q-14.5 -7 -28.5 -7q-18 0 -31 10t-13 26q0 19 19 39
l63 68q26 24 67 24q19 0 36 -6t26 -18l55 -68q12 -15 12 -29q0 -19 -17 -33t-38 -14q-31 0 -48 29l-29 52l-47 -52q-12 -14 -26.5 -21z" />
    <glyph glyph-name="jcircumflex" unicode="&#x135;" horiz-adv-x="297" 
d="M-10 -182q-49 0 -74.5 19t-22.5 58q4 33 23.5 50t60.5 20l29 2q5 0 11 6t7 12l34 423q4 47 36 71.5t77 24.5q44 0 71.5 -24t23.5 -72l-33 -408q-5 -77 -53 -124.5t-134 -54.5l-33 -2q-8 -1 -23 -1zM116.5 563q-15.5 -9 -32.5 -9q-22 0 -39 14t-17 35q0 17 13 36l69 91
q15 19 36 29.5t44 10.5q22 0 41 -10t31 -30l59 -100q8 -13 8 -28q0 -20 -16.5 -33.5t-39.5 -13.5q-19 0 -36 10.5t-27 31.5l-30 64l-38 -71q-10 -18 -25.5 -27z" />
    <glyph glyph-name="Kcommaaccent" unicode="&#x136;" horiz-adv-x="720" 
d="M642 146q18 -22 18 -49q0 -25 -14 -48.5t-37.5 -38.5t-49.5 -15q-42 0 -76 40l-206 274l-16 -207q-4 -51 -35 -80t-82 -29q-46 0 -72.5 24.5t-26.5 67.5l1 14l40 504q4 50 35 78.5t81 28.5q47 0 73.5 -24.5t26.5 -66.5l-1 -13l-16 -198l233 269q34 35 74 35q35 0 60 -26
t25 -63q0 -43 -37 -81l-155 -180zM398.5 -83q25.5 -25 25.5 -63q0 -62 -44 -113q-18 -22 -47 -22q-16 0 -27 8t-11 20q0 11 9 23q14 19 21 33h-8q-30 0 -51 16t-21 48q0 33 25 54t58 21q45 0 70.5 -25z" />
    <glyph glyph-name="kcommaaccent" unicode="&#x137;" horiz-adv-x="605" 
d="M538 149q20 -24 20 -53q0 -26 -15.5 -50.5t-40.5 -39t-52 -14.5q-39 0 -68 33l-134 175l-8 -108q-4 -48 -36 -72.5t-76 -24.5t-72 24t-24 71l41 523q4 48 35 72.5t76 24.5q44 0 72.5 -24t24.5 -71l-25 -314l160 174q30 31 69 31q38 0 67 -27.5t29 -64.5q0 -34 -29 -63
l-90 -97zM338.5 -83q25.5 -25 25.5 -63q0 -62 -44 -113q-18 -22 -47 -22q-16 0 -27 8t-11 20q0 11 9 23q14 19 21 33h-8q-30 0 -51 16t-21 48q0 33 25 54t58 21q45 0 70.5 -25z" />
    <glyph glyph-name="kgreenlandic" unicode="&#x138;" horiz-adv-x="605" 
d="M538 149q20 -24 20 -53q0 -26 -15.5 -50.5t-40.5 -39t-52 -14.5q-39 0 -68 33l-133 174l-9 -108q-4 -47 -35 -71.5t-75 -24.5q-45 0 -73.5 24.5t-24.5 71.5l26 316q4 48 35.5 72.5t76.5 24.5q44 0 72 -24.5t24 -72.5l-9 -105l159 173q30 31 69 31q38 0 67 -27.5t29 -64.5
q0 -34 -29 -63l-90 -97z" />
    <glyph glyph-name="Lacute" unicode="&#x139;" horiz-adv-x="582" 
d="M65.5 25.5q-23.5 25.5 -19.5 72.5l40 505q4 49 35 78t80 29q47 0 74 -24.5t27 -66.5l-1 -13l-35 -433h202q95 0 95 -78q0 -51 -26.5 -73t-83.5 -22h-317q-47 0 -70.5 25.5zM230 761q-17 0 -29.5 11.5t-12.5 28.5q0 15 10 29l50 72q18 27 46 27q23 0 42 -17.5t19 -39.5
t-20 -41l-66 -54q-17 -16 -39 -16z" />
    <glyph glyph-name="lacute" unicode="&#x13a;" horiz-adv-x="297" 
d="M56.5 17.5q-28.5 24.5 -24.5 71.5l41 523q4 48 35 72.5t76 24.5t73 -24.5t24 -72.5l-41 -523q-4 -47 -35 -71.5t-75 -24.5q-45 0 -73.5 24.5zM214 761q-17 0 -29.5 11.5t-12.5 28.5q0 15 10 29l50 72q18 27 46 27q23 0 42 -17.5t19 -39.5t-20 -41l-66 -54
q-17 -16 -39 -16z" />
    <glyph glyph-name="Lcommaaccent" unicode="&#x13b;" horiz-adv-x="582" 
d="M65.5 25.5q-23.5 25.5 -19.5 72.5l40 505q4 49 35 78t80 29q47 0 74 -24.5t27 -66.5l-1 -13l-35 -433h202q95 0 95 -78q0 -51 -26.5 -73t-83.5 -22h-317q-47 0 -70.5 25.5zM352.5 -83q25.5 -25 25.5 -63q0 -62 -44 -113q-18 -22 -47 -22q-16 0 -27 8t-11 20q0 11 9 23
q14 19 21 33h-8q-30 0 -51 16t-21 48q0 33 25 54t58 21q45 0 70.5 -25z" />
    <glyph glyph-name="lcommaaccent" unicode="&#x13c;" horiz-adv-x="297" 
d="M56.5 17.5q-28.5 24.5 -24.5 71.5l41 523q4 48 35 72.5t76 24.5t73 -24.5t24 -72.5l-41 -523q-4 -47 -35 -71.5t-75 -24.5q-45 0 -73.5 24.5zM184.5 -83q25.5 -25 25.5 -63q0 -62 -44 -113q-18 -22 -47 -22q-16 0 -27 8t-11 20q0 11 9 23q14 19 21 33h-8q-30 0 -51 16
t-21 48q0 33 25 54t58 21q45 0 70.5 -25z" />
    <glyph glyph-name="Lcaron" unicode="&#x13d;" horiz-adv-x="582" 
d="M65.5 25.5q-23.5 25.5 -19.5 72.5l40 505q4 49 35 78t80 29q47 0 74 -24.5t27 -66.5l-1 -13l-35 -433h202q95 0 95 -78q0 -51 -26.5 -73t-83.5 -22h-317q-47 0 -70.5 25.5zM450.5 498q-11.5 -8 -26.5 -8q-17 0 -29.5 10.5t-11.5 26.5l11 145q2 21 17 32t35 11
q21 0 36.5 -11.5t15.5 -32.5q0 -8 -1 -12l-31 -137q-4 -16 -15.5 -24z" />
    <glyph glyph-name="lcaron" unicode="&#x13e;" horiz-adv-x="297" 
d="M339.5 492q-9.5 -9 -20.5 -9q-12 0 -20 11t-7 30l10 137q2 24 16.5 37t32.5 13q15 0 26 -9.5t11 -26.5q0 -4 -2 -14l-33 -143q-4 -17 -13.5 -26zM56.5 17.5q-28.5 24.5 -24.5 71.5l41 523q4 48 35 72.5t76 24.5t73 -24.5t24 -72.5l-41 -523q-4 -47 -35 -71.5t-75 -24.5
q-45 0 -73.5 24.5z" />
    <glyph glyph-name="Ldot" unicode="&#x13f;" horiz-adv-x="582" 
d="M65.5 25.5q-23.5 25.5 -19.5 72.5l40 505q4 49 35 78t80 29q47 0 74 -24.5t27 -66.5l-1 -13l-35 -433h202q95 0 95 -78q0 -51 -26.5 -73t-83.5 -22h-317q-47 0 -70.5 25.5zM353 284.5q-30 26.5 -30 70.5t29.5 69.5t81.5 25.5q51 0 81 -25.5t30 -69.5t-30 -70.5t-81 -26.5
t-81 26.5z" />
    <glyph glyph-name="ldot" unicode="&#x140;" horiz-adv-x="466" 
d="M56.5 17.5q-28.5 24.5 -24.5 71.5l41 523q4 48 35 72.5t76 24.5t73 -24.5t24 -72.5l-41 -523q-4 -47 -35 -71.5t-75 -24.5q-45 0 -73.5 24.5zM302 282.5q-30 26.5 -30 70.5t29.5 69.5t81.5 25.5q51 0 81 -25.5t30 -69.5t-30 -70.5t-81 -26.5t-81 26.5z" />
    <glyph glyph-name="Lslash" unicode="&#x141;" horiz-adv-x="626" 
d="M607 95q0 -51 -27 -73t-83 -22h-318q-47 0 -70.5 25.5t-19.5 72.5l9 107q-15 -6 -29 -6q-30 0 -49.5 22t-19.5 52q0 21 11.5 40t34.5 32l65 36l18 222q4 49 35 78t81 29t77 -28.5t23 -75.5l-8 -100l82 45q23 12 42 12q29 0 49 -22t20 -51q0 -21 -11.5 -39.5t-35.5 -31.5
l-160 -89l-13 -157h202q95 0 95 -78z" />
    <glyph glyph-name="lslash" unicode="&#x142;" horiz-adv-x="407" 
d="M356 507q30 0 50 -22.5t20 -52.5q0 -22 -11.5 -41t-35.5 -31l-66 -36l-18 -235q-4 -47 -35 -71.5t-76 -24.5q-44 0 -72.5 24.5t-24.5 71.5l9 116q-17 -6 -30 -6q-29 0 -48 22t-19 51q0 22 11.5 42t35.5 33l64 35l18 230q4 48 34.5 72.5t75.5 24.5t73.5 -24.5t24.5 -72.5
l-9 -111q15 6 29 6z" />
    <glyph glyph-name="Nacute" unicode="&#x143;" horiz-adv-x="763" 
d="M708.5 685q25.5 -25 25.5 -67l-1 -13l-40 -504q-4 -49 -34.5 -78.5t-75.5 -29.5q-54 0 -76 33l-240 318l-20 -242q-5 -49 -34 -79t-75 -30t-71 29.5t-21 77.5l40 504q5 47 35 76.5t75 29.5q52 0 75 -33l242 -318l18 244q5 48 34.5 77.5t74.5 29.5q43 0 68.5 -25zM447 761
q-17 0 -29.5 11.5t-12.5 28.5q0 15 10 29l50 72q18 27 46 27q23 0 42 -17.5t19 -39.5t-20 -41l-66 -54q-17 -16 -39 -16z" />
    <glyph glyph-name="nacute" unicode="&#x144;" horiz-adv-x="617" 
d="M539.5 458q41.5 -48 41.5 -141q0 -23 -1 -35l-16 -193q-4 -44 -33 -70t-78 -26q-48 0 -74.5 26.5t-22.5 69.5l16 186q2 34 -11 53.5t-41 19.5q-58 0 -65 -76l-15 -183q-4 -44 -33 -70t-77 -26q-49 0 -74.5 26t-23.5 70l26 321q3 41 34.5 67.5t78.5 26.5q35 0 58 -16
t30 -43q26 29 66.5 45t90.5 16q82 0 123.5 -48zM353 555q-18 0 -30 11t-12 29q0 14 8 29l37 103q11 22 28 33t36 11q27 0 48 -18.5t21 -44.5q0 -25 -22 -50l-61 -77q-23 -26 -53 -26z" />
    <glyph glyph-name="Ncommaaccent" unicode="&#x145;" horiz-adv-x="763" 
d="M708.5 685q25.5 -25 25.5 -67l-1 -13l-40 -504q-4 -49 -34.5 -78.5t-75.5 -29.5q-54 0 -76 33l-240 318l-20 -242q-5 -49 -34 -79t-75 -30t-71 29.5t-21 77.5l40 504q5 47 35 76.5t75 29.5q52 0 75 -33l242 -318l18 244q5 48 34.5 77.5t74.5 29.5q43 0 68.5 -25z
M418.5 -83q25.5 -25 25.5 -63q0 -62 -44 -113q-18 -22 -47 -22q-16 0 -27 8t-11 20q0 11 9 23q14 19 21 33h-8q-30 0 -51 16t-21 48q0 33 25 54t58 21q45 0 70.5 -25z" />
    <glyph glyph-name="ncommaaccent" unicode="&#x146;" horiz-adv-x="617" 
d="M539.5 458q41.5 -48 41.5 -141q0 -23 -1 -35l-16 -193q-4 -44 -33 -70t-78 -26q-48 0 -74.5 26.5t-22.5 69.5l16 186q2 34 -11 53.5t-41 19.5q-58 0 -65 -76l-15 -183q-4 -44 -33 -70t-77 -26q-49 0 -74.5 26t-23.5 70l26 321q3 41 34.5 67.5t78.5 26.5q35 0 58 -16
t30 -43q26 29 66.5 45t90.5 16q82 0 123.5 -48zM347.5 -83q25.5 -25 25.5 -63q0 -62 -44 -113q-18 -22 -47 -22q-16 0 -27 8t-11 20q0 11 9 23q14 19 21 33h-8q-30 0 -51 16t-21 48q0 33 25 54t58 21q45 0 70.5 -25z" />
    <glyph glyph-name="Ncaron" unicode="&#x147;" horiz-adv-x="763" 
d="M708.5 685q25.5 -25 25.5 -67l-1 -13l-40 -504q-4 -49 -34.5 -78.5t-75.5 -29.5q-54 0 -76 33l-240 318l-20 -242q-5 -49 -34 -79t-75 -30t-71 29.5t-21 77.5l40 504q5 47 35 76.5t75 29.5q52 0 75 -33l242 -318l18 244q5 48 34.5 77.5t74.5 29.5q43 0 68.5 -25zM527 926
q18 0 30.5 -10.5t12.5 -26.5q0 -18 -17 -38l-66 -68q-23 -24 -65 -24q-19 0 -36.5 6t-26.5 18l-55 68q-11 14 -11 29q0 19 16.5 33t37.5 14q30 0 47 -29l30 -52l46 51q25 29 57 29z" />
    <glyph glyph-name="ncaron" unicode="&#x148;" horiz-adv-x="617" 
d="M539.5 458q41.5 -48 41.5 -141q0 -23 -1 -35l-16 -193q-4 -44 -33 -70t-78 -26q-48 0 -74.5 26.5t-22.5 69.5l16 186q2 34 -11 53.5t-41 19.5q-58 0 -65 -76l-15 -183q-4 -44 -33 -70t-77 -26q-49 0 -74.5 26t-23.5 70l26 321q3 41 34.5 67.5t78.5 26.5q35 0 58 -16
t30 -43q26 29 66.5 45t90.5 16q82 0 123.5 -48zM440 768q22 0 39 -14t17 -34q0 -17 -13 -36l-70 -90q-14 -20 -35.5 -30.5t-44.5 -10.5q-22 0 -40.5 10.5t-30.5 30.5l-58 99q-9 15 -9 29q0 20 16.5 33t39.5 13q19 0 36 -10.5t27 -31.5l29 -65l39 71q19 36 58 36z" />
    <glyph glyph-name="napostrophe" unicode="&#x149;" horiz-adv-x="617" 
d="M262 740.5q25 -22.5 25 -67.5q0 -34 -13.5 -64t-30.5 -47q-20 -21 -47 -21q-16 0 -27.5 8t-11.5 20q0 11 10 22q12 15 20 33h-7q-30 0 -51 17.5t-21 48.5q0 34 24.5 53.5t62.5 19.5q42 0 67 -22.5zM539.5 458q41.5 -48 41.5 -141q0 -23 -1 -35l-16 -193q-4 -44 -33 -70
t-78 -26q-48 0 -74.5 26.5t-22.5 69.5l16 186q2 34 -11 53.5t-41 19.5q-58 0 -65 -76l-15 -183q-4 -44 -33 -70t-77 -26q-49 0 -74.5 26t-23.5 70l26 321q3 41 34.5 67.5t78.5 26.5q35 0 58 -16t30 -43q26 29 66.5 45t90.5 16q82 0 123.5 -48z" />
    <glyph glyph-name="Eng" unicode="&#x14a;" horiz-adv-x="763" 
d="M708.5 685q25.5 -25 25.5 -67l-1 -13l-43 -560q-8 -105 -67.5 -162t-168.5 -64l-32 -2q-8 -1 -22 -1q-102 0 -104 80q0 70 92 78l28 2q31 2 49.5 16.5t20.5 36.5l2 23l-221 292l-20 -242q-5 -49 -34.5 -79t-74.5 -30q-46 0 -71 29.5t-21 77.5l40 504q5 47 35 76.5
t75 29.5q51 0 75 -33l242 -318l18 244q5 48 34.5 77.5t74.5 29.5q43 0 68.5 -25z" />
    <glyph glyph-name="eng" unicode="&#x14b;" horiz-adv-x="617" 
d="M539 457.5q42 -48.5 42 -141.5q0 -22 -1 -34l-23 -282q-7 -79 -55 -125.5t-132 -53.5l-33 -2q-8 -1 -22 -1q-51 0 -76.5 19.5t-21.5 57.5q4 34 24 50.5t60 19.5l29 2q5 0 11 6t7 12l24 290q2 34 -11 53.5t-41 19.5q-58 0 -65 -76l-15 -183q-4 -44 -33 -70t-77 -26
q-49 0 -74.5 26t-23.5 70l26 321q3 41 34.5 67.5t78.5 26.5q35 0 58 -16t30 -43q26 29 66.5 45t90.5 16q81 0 123 -48.5z" />
    <glyph glyph-name="Omacron" unicode="&#x14c;" horiz-adv-x="806" 
d="M218.5 31q-81.5 42 -125.5 119.5t-44 182.5q0 114 45.5 201t128.5 134.5t192 47.5t190 -42t125 -119.5t44 -182.5q0 -114 -45.5 -201t-128 -134.5t-191.5 -47.5t-190.5 42zM519 211q41 58 41 161q0 86 -37.5 133t-104.5 47q-73 0 -114 -58t-41 -160q0 -88 37 -134.5
t107 -46.5q71 0 112 58zM288.5 802.5q-15.5 14.5 -15.5 36.5q0 29 17.5 44t45.5 15h241q23 0 37.5 -14.5t14.5 -37.5q0 -29 -17.5 -43.5t-44.5 -14.5h-242q-21 0 -36.5 14.5z" />
    <glyph glyph-name="omacron" unicode="&#x14d;" horiz-adv-x="614" 
d="M157 21.5q-64 30.5 -98.5 86.5t-34.5 130q0 84 35.5 144.5t99.5 92t149 31.5q86 0 150 -30.5t98.5 -86t34.5 -129.5q0 -84 -35 -144.5t-99 -92.5t-149 -32q-87 0 -151 30.5zM386 265q0 47 -17 68t-57 21q-83 0 -83 -119q0 -48 18 -70t56 -22q83 0 83 122zM176.5 619
q-14.5 14 -14.5 39q0 27 17.5 41t44.5 14h242q22 0 36.5 -13t14.5 -35q0 -30 -17 -45t-45 -15h-241q-23 0 -37.5 14z" />
    <glyph glyph-name="Obreve" unicode="&#x14e;" horiz-adv-x="806" 
d="M218.5 31q-81.5 42 -125.5 119.5t-44 182.5q0 114 45.5 201t128.5 134.5t192 47.5t190 -42t125 -119.5t44 -182.5q0 -114 -45.5 -201t-128 -134.5t-191.5 -47.5t-190.5 42zM519 211q41 58 41 161q0 86 -37.5 133t-104.5 47q-73 0 -114 -58t-41 -160q0 -88 37 -134.5
t107 -46.5q71 0 112 58zM352 792q-42 19 -66 52q-11 16 -11 29q0 18 14.5 30t33.5 12q21 0 39 -15q39 -23 93 -23q24 0 49.5 6.5t42.5 16.5q19 15 41 15q18 0 29.5 -10t11.5 -26q0 -15 -15 -35q-25 -32 -66 -51.5t-96 -19.5q-58 0 -100 19z" />
    <glyph glyph-name="obreve" unicode="&#x14f;" horiz-adv-x="614" 
d="M157 21.5q-64 30.5 -98.5 86.5t-34.5 130q0 84 35.5 144.5t99.5 92t149 31.5q86 0 150 -30.5t98.5 -86t34.5 -129.5q0 -84 -35 -144.5t-99 -92.5t-149 -32q-87 0 -151 30.5zM386 265q0 47 -17 68t-57 21q-83 0 -83 -119q0 -48 18 -70t56 -22q83 0 83 122zM230 609.5
q-47 32.5 -69 84.5q-4 9 -4 20q0 20 15 33t35 13q26 0 40 -23q15 -21 42.5 -35t57.5 -14q58 0 96 49q17 24 44 24q18 0 31 -12t13 -31q0 -13 -5 -24q-22 -51 -72 -84t-114 -33q-63 0 -110 32.5z" />
    <glyph glyph-name="Ohungarumlaut" unicode="&#x150;" horiz-adv-x="806" 
d="M218.5 31q-81.5 42 -125.5 119.5t-44 182.5q0 114 45.5 201t128.5 134.5t192 47.5t190 -42t125 -119.5t44 -182.5q0 -114 -45.5 -201t-128 -134.5t-191.5 -47.5t-190.5 42zM519 211q41 58 41 161q0 86 -37.5 133t-104.5 47q-73 0 -114 -58t-41 -160q0 -88 37 -134.5
t107 -46.5q71 0 112 58zM382 761q-12 0 -20.5 8t-8.5 20q0 9 6 21l39 91q13 28 41 28q19 0 34.5 -13.5t15.5 -32.5q0 -18 -14 -35l-54 -66q-17 -21 -39 -21zM530 761q-12 0 -20.5 8t-8.5 20q0 11 5 21l40 91q13 28 41 28q19 0 34.5 -13.5t15.5 -33.5q0 -17 -14 -34l-54 -66
q-17 -21 -39 -21z" />
    <glyph glyph-name="ohungarumlaut" unicode="&#x151;" horiz-adv-x="614" 
d="M157 21.5q-64 30.5 -98.5 86.5t-34.5 130q0 84 35.5 144.5t99.5 92t149 31.5q86 0 150 -30.5t98.5 -86t34.5 -129.5q0 -84 -35 -144.5t-99 -92.5t-149 -32q-87 0 -151 30.5zM386 265q0 47 -17 68t-57 21q-83 0 -83 -119q0 -48 18 -70t56 -22q83 0 83 122zM286 557.5
q-10 -6.5 -20 -6.5q-14 0 -24 10.5t-10 27.5q0 4 2 14l20 114q5 27 22 41t37 14q21 0 36.5 -14t15.5 -37q0 -18 -10 -38l-53 -107q-6 -12 -16 -18.5zM433 557.5q-10 -6.5 -20 -6.5q-14 0 -24 10.5t-10 27.5q0 4 2 14l20 114q5 27 22 41t37 14q21 0 36 -13.5t15 -36.5
q0 -18 -11 -39l-51 -107q-6 -12 -16 -18.5z" />
    <glyph glyph-name="OE" unicode="&#x152;" horiz-adv-x="1043" 
d="M732 541l-8 -100h206q47 0 71 -19.5t24 -55.5q0 -46 -27 -67.5t-82 -21.5h-205l-9 -113h226q47 0 71 -20t24 -57q0 -45 -27 -66t-83 -21h-509q-106 0 -186.5 41t-124.5 116.5t-44 175.5q0 118 48.5 201.5t139.5 127t218 43.5h517q46 0 70.5 -20t24.5 -55
q0 -46 -27.5 -67.5t-82.5 -21.5h-225zM522 541h-47q-109 0 -160.5 -50.5t-51.5 -158.5q0 -78 45 -123t125 -45h59z" />
    <glyph glyph-name="oe" unicode="&#x153;" horiz-adv-x="894" 
d="M856 219.5q-13 -13.5 -36 -13.5h-231q7 -34 29.5 -49t59.5 -15q20 0 32.5 2.5t26.5 7.5t22 7q16 8 34 8q25 0 39.5 -19t14.5 -47q0 -24 -11 -46t-33 -35q-27 -14 -64 -21.5t-79 -7.5q-107 0 -176 67q-64 -67 -188 -67q-81 0 -142.5 31t-95.5 87t-34 129q0 84 35 144.5
t97.5 92t143.5 31.5q125 0 191 -61q64 61 165 61q63 0 111.5 -30.5t75 -87t26.5 -132.5q0 -23 -13 -36.5zM589 300h112q-6 68 -52 68q-50 0 -60 -68zM364.5 178q17.5 35 17.5 87q0 47 -17 68t-53 21q-83 0 -83 -119q0 -48 18 -70t56 -22q44 0 61.5 35z" />
    <glyph glyph-name="Racute" unicode="&#x154;" horiz-adv-x="713" 
d="M629 129q10 -21 10 -42q0 -41 -33.5 -70t-76.5 -29q-29 0 -53 14.5t-39 45.5l-80 176q-5 14 -17.5 22t-26.5 8h-44l-11 -152q-4 -50 -34.5 -79.5t-79.5 -29.5t-75.5 29t-22.5 77l40 507q5 48 32 73.5t75 25.5h260q74 0 128 -27t82 -75t28 -111q0 -95 -42.5 -150
t-133.5 -73q30 -5 50 -22t36 -50zM413 413q38 0 58 17.5t20 49.5t-16 48t-53 16h-132l-9 -131h132zM428 761q-17 0 -29.5 11.5t-12.5 28.5q0 15 10 29l50 72q18 27 46 27q23 0 42 -17.5t19 -39.5t-20 -41l-66 -54q-17 -16 -39 -16z" />
    <glyph glyph-name="racute" unicode="&#x155;" horiz-adv-x="440" 
d="M458.5 488.5q20.5 -17.5 20.5 -53.5l-1 -13q-5 -48 -28 -68t-83 -27l-27 -3q-35 -4 -52.5 -13t-25 -25.5t-10.5 -47.5l-12 -149q-4 -47 -35 -71.5t-75 -24.5q-45 0 -73.5 24.5t-24.5 71.5l26 321q4 45 36 69.5t74 24.5q38 0 62 -19t26 -55q28 32 66 51.5t70 21.5l13 1
q33 2 53.5 -15.5zM291 555q-18 0 -30 11t-12 29q0 14 8 29l37 103q11 22 28 33t36 11q27 0 48 -18.5t21 -44.5q0 -25 -22 -50l-61 -77q-23 -26 -53 -26z" />
    <glyph glyph-name="Rcommaaccent" unicode="&#x156;" horiz-adv-x="713" 
d="M629 129q10 -21 10 -42q0 -41 -33.5 -70t-76.5 -29q-29 0 -53 14.5t-39 45.5l-80 176q-5 14 -17.5 22t-26.5 8h-44l-11 -152q-4 -50 -34.5 -79.5t-79.5 -29.5t-75.5 29t-22.5 77l40 507q5 48 32 73.5t75 25.5h260q74 0 128 -27t82 -75t28 -111q0 -95 -42.5 -150
t-133.5 -73q30 -5 50 -22t36 -50zM413 413q38 0 58 17.5t20 49.5t-16 48t-53 16h-132l-9 -131h132zM399.5 -83q25.5 -25 25.5 -63q0 -62 -44 -113q-18 -22 -47 -22q-16 0 -27 8t-11 20q0 11 9 23q14 19 21 33h-8q-30 0 -51 16t-21 48q0 33 25 54t58 21q45 0 70.5 -25z" />
    <glyph glyph-name="rcommaaccent" unicode="&#x157;" horiz-adv-x="440" 
d="M458.5 488.5q20.5 -17.5 20.5 -53.5l-1 -13q-5 -48 -28 -68t-83 -27l-27 -3q-35 -4 -52.5 -13t-25 -25.5t-10.5 -47.5l-12 -149q-4 -47 -35 -71.5t-75 -24.5q-45 0 -73.5 24.5t-24.5 71.5l26 321q4 45 36 69.5t74 24.5q38 0 62 -19t26 -55q28 32 66 51.5t70 21.5l13 1
q33 2 53.5 -15.5zM184.5 -83q25.5 -25 25.5 -63q0 -62 -44 -113q-18 -22 -47 -22q-16 0 -27 8t-11 20q0 11 9 23q14 19 21 33h-8q-30 0 -51 16t-21 48q0 33 25 54t58 21q45 0 70.5 -25z" />
    <glyph glyph-name="Rcaron" unicode="&#x158;" horiz-adv-x="713" 
d="M629 129q10 -21 10 -42q0 -41 -33.5 -70t-76.5 -29q-29 0 -53 14.5t-39 45.5l-80 176q-5 14 -17.5 22t-26.5 8h-44l-11 -152q-4 -50 -34.5 -79.5t-79.5 -29.5t-75.5 29t-22.5 77l40 507q5 48 32 73.5t75 25.5h260q74 0 128 -27t82 -75t28 -111q0 -95 -42.5 -150
t-133.5 -73q30 -5 50 -22t36 -50zM413 413q38 0 58 17.5t20 49.5t-16 48t-53 16h-132l-9 -131h132zM508 926q18 0 30.5 -10.5t12.5 -26.5q0 -18 -17 -38l-66 -68q-23 -24 -65 -24q-19 0 -36.5 6t-26.5 18l-55 68q-11 14 -11 29q0 19 16.5 33t37.5 14q30 0 47 -29l30 -52
l46 51q25 29 57 29z" />
    <glyph glyph-name="rcaron" unicode="&#x159;" horiz-adv-x="440" 
d="M458.5 488.5q20.5 -17.5 20.5 -53.5l-1 -13q-5 -48 -28 -68t-83 -27l-27 -3q-35 -4 -52.5 -13t-25 -25.5t-10.5 -47.5l-12 -149q-4 -47 -35 -71.5t-75 -24.5q-45 0 -73.5 24.5t-24.5 71.5l26 321q4 45 36 69.5t74 24.5q38 0 62 -19t26 -55q28 32 66 51.5t70 21.5l13 1
q33 2 53.5 -15.5zM378 768q22 0 39 -14t17 -34q0 -17 -13 -36l-70 -90q-14 -20 -35.5 -30.5t-44.5 -10.5q-22 0 -40.5 10.5t-30.5 30.5l-58 99q-9 15 -9 29q0 20 16.5 33t39.5 13q19 0 36 -10.5t27 -31.5l29 -65l39 71q19 36 58 36z" />
    <glyph glyph-name="Sacute" unicode="&#x15a;" horiz-adv-x="678" 
d="M174.5 3.5q-67.5 13.5 -107.5 33.5q-23 14 -35 36.5t-12 46.5q0 32 20 56t52 24q27 0 54 -16q5 -1 35 -9.5t69.5 -14.5t76.5 -6q98 0 98 39q0 26 -30 41t-92 33q-73 22 -121 43.5t-83 63.5t-35 109q0 69 39.5 121.5t111.5 81.5t167 29q75 0 139 -15.5t98 -38.5
q18 -13 27 -31.5t9 -38.5q0 -34 -21.5 -59t-56.5 -25q-25 0 -54 16q-5 1 -30.5 9t-56.5 13.5t-60 5.5q-45 0 -72 -12.5t-27 -35.5q0 -24 28 -38t91 -32q74 -21 122.5 -42t84 -62.5t35.5 -109.5q0 -110 -83 -169.5t-237 -59.5q-76 0 -143.5 13.5zM410 761q-17 0 -29.5 11.5
t-12.5 28.5q0 15 10 29l50 72q18 27 46 27q23 0 42 -17.5t19 -39.5t-20 -41l-66 -54q-17 -16 -39 -16z" />
    <glyph glyph-name="sacute" unicode="&#x15b;" horiz-adv-x="494" 
d="M60 17q-30 12 -45 33.5t-15 45.5q0 30 19.5 52.5t48.5 22.5q18 0 37 -10q30 -12 71 -20t74 -8q42 0 42 14q0 11 -17.5 18.5t-55.5 16.5q-56 15 -93 29.5t-65 45.5t-28 81q0 48 30.5 86.5t87 60t131.5 21.5q28 0 69.5 -6.5t69.5 -15.5q26 -13 38.5 -34t12.5 -44
q0 -29 -17.5 -50t-44.5 -21q-16 0 -31 7q-31 13 -59 18t-59 5q-22 0 -34.5 -3.5t-12.5 -9.5q0 -12 17.5 -19.5t56.5 -17.5q54 -14 91.5 -29.5t65.5 -46.5t28 -80q0 -80 -62 -124t-180 -44q-92 0 -171 26zM298 555q-18 0 -30 11t-12 29q0 14 8 29l37 103q11 22 28 33t36 11
q27 0 48 -18.5t21 -44.5q0 -25 -22 -50l-61 -77q-23 -26 -53 -26z" />
    <glyph glyph-name="Scircumflex" unicode="&#x15c;" horiz-adv-x="678" 
d="M174.5 3.5q-67.5 13.5 -107.5 33.5q-23 14 -35 36.5t-12 46.5q0 32 20 56t52 24q27 0 54 -16q5 -1 35 -9.5t69.5 -14.5t76.5 -6q98 0 98 39q0 26 -30 41t-92 33q-73 22 -121 43.5t-83 63.5t-35 109q0 69 39.5 121.5t111.5 81.5t167 29q75 0 139 -15.5t98 -38.5
q18 -13 27 -31.5t9 -38.5q0 -34 -21.5 -59t-56.5 -25q-25 0 -54 16q-5 1 -30.5 9t-56.5 13.5t-60 5.5q-45 0 -72 -12.5t-27 -35.5q0 -24 28 -38t91 -32q74 -21 122.5 -42t84 -62.5t35.5 -109.5q0 -110 -83 -169.5t-237 -59.5q-76 0 -143.5 13.5zM321.5 769
q-14.5 -7 -28.5 -7q-18 0 -31 10t-13 26q0 19 19 39l63 68q26 24 67 24q19 0 36 -6t26 -18l55 -68q12 -15 12 -29q0 -19 -17 -33t-38 -14q-31 0 -48 29l-29 52l-47 -52q-12 -14 -26.5 -21z" />
    <glyph glyph-name="scircumflex" unicode="&#x15d;" horiz-adv-x="494" 
d="M60 17q-30 12 -45 33.5t-15 45.5q0 30 19.5 52.5t48.5 22.5q18 0 37 -10q30 -12 71 -20t74 -8q42 0 42 14q0 11 -17.5 18.5t-55.5 16.5q-56 15 -93 29.5t-65 45.5t-28 81q0 48 30.5 86.5t87 60t131.5 21.5q28 0 69.5 -6.5t69.5 -15.5q26 -13 38.5 -34t12.5 -44
q0 -29 -17.5 -50t-44.5 -21q-16 0 -31 7q-31 13 -59 18t-59 5q-22 0 -34.5 -3.5t-12.5 -9.5q0 -12 17.5 -19.5t56.5 -17.5q54 -14 91.5 -29.5t65.5 -46.5t28 -80q0 -80 -62 -124t-180 -44q-92 0 -171 26zM225.5 563q-15.5 -9 -32.5 -9q-22 0 -39 14t-17 35q0 17 13 36l69 91
q15 19 36 29.5t44 10.5q22 0 41 -10t31 -30l59 -100q8 -13 8 -28q0 -20 -16.5 -33.5t-39.5 -13.5q-19 0 -36 10.5t-27 31.5l-30 64l-38 -71q-10 -18 -25.5 -27z" />
    <glyph glyph-name="Scedilla" unicode="&#x15e;" horiz-adv-x="678" 
d="M174.5 3.5q-67.5 13.5 -107.5 33.5q-23 14 -35 36.5t-12 46.5q0 32 20 56t52 24q27 0 54 -16q5 -1 35 -9.5t69.5 -14.5t76.5 -6q98 0 98 39q0 26 -30 41t-92 33q-73 22 -121 43.5t-83 63.5t-35 109q0 69 39.5 121.5t111.5 81.5t167 29q75 0 139 -15.5t98 -38.5
q18 -13 27 -31.5t9 -38.5q0 -34 -21.5 -59t-56.5 -25q-25 0 -54 16q-5 1 -30.5 9t-56.5 13.5t-60 5.5q-45 0 -72 -12.5t-27 -35.5q0 -24 28 -38t91 -32q74 -21 122.5 -42t84 -62.5t35.5 -109.5q0 -110 -83 -169.5t-237 -59.5q-76 0 -143.5 13.5zM405 -57.5
q23 -18.5 23 -50.5q0 -42 -38.5 -66.5t-101.5 -24.5q-48 0 -75 9q-11 3 -17 12t-6 20q0 16 10 28t24 8q14 -3 30 -5t23 -2q23 0 33.5 5t10.5 16q0 7 -7.5 11.5t-19.5 4.5q-8 0 -18.5 -2.5t-15.5 -2.5q-12 0 -16.5 5.5t-1.5 14.5l21 97h92l-15 -59h2q40 0 63 -18.5z" />
    <glyph glyph-name="scedilla" unicode="&#x15f;" horiz-adv-x="494" 
d="M60 17q-30 12 -45 33.5t-15 45.5q0 30 19.5 52.5t48.5 22.5q18 0 37 -10q30 -12 71 -20t74 -8q42 0 42 14q0 11 -17.5 18.5t-55.5 16.5q-56 15 -93 29.5t-65 45.5t-28 81q0 48 30.5 86.5t87 60t131.5 21.5q28 0 69.5 -6.5t69.5 -15.5q26 -13 38.5 -34t12.5 -44
q0 -29 -17.5 -50t-44.5 -21q-16 0 -31 7q-31 13 -59 18t-59 5q-22 0 -34.5 -3.5t-12.5 -9.5q0 -12 17.5 -19.5t56.5 -17.5q54 -14 91.5 -29.5t65.5 -46.5t28 -80q0 -80 -62 -124t-180 -44q-92 0 -171 26zM319 -57.5q23 -18.5 23 -50.5q0 -42 -38.5 -66.5t-101.5 -24.5
q-48 0 -75 9q-11 3 -17 12t-6 20q0 16 10 28t24 8q14 -3 30 -5t23 -2q23 0 33.5 5t10.5 16q0 7 -7.5 11.5t-19.5 4.5q-8 0 -18.5 -2.5t-15.5 -2.5q-12 0 -16.5 5.5t-1.5 14.5l21 97h92l-15 -59h2q40 0 63 -18.5z" />
    <glyph glyph-name="Scaron" unicode="&#x160;" horiz-adv-x="678" 
d="M174.5 3.5q-67.5 13.5 -107.5 33.5q-23 14 -35 36.5t-12 46.5q0 32 20 56t52 24q27 0 54 -16q5 -1 35 -9.5t69.5 -14.5t76.5 -6q98 0 98 39q0 26 -30 41t-92 33q-73 22 -121 43.5t-83 63.5t-35 109q0 69 39.5 121.5t111.5 81.5t167 29q75 0 139 -15.5t98 -38.5
q18 -13 27 -31.5t9 -38.5q0 -34 -21.5 -59t-56.5 -25q-25 0 -54 16q-5 1 -30.5 9t-56.5 13.5t-60 5.5q-45 0 -72 -12.5t-27 -35.5q0 -24 28 -38t91 -32q74 -21 122.5 -42t84 -62.5t35.5 -109.5q0 -110 -83 -169.5t-237 -59.5q-76 0 -143.5 13.5zM490 926q18 0 30.5 -10.5
t12.5 -26.5q0 -18 -17 -38l-66 -68q-23 -24 -65 -24q-19 0 -36.5 6t-26.5 18l-55 68q-11 14 -11 29q0 19 16.5 33t37.5 14q30 0 47 -29l30 -52l46 51q25 29 57 29z" />
    <glyph glyph-name="scaron" unicode="&#x161;" horiz-adv-x="494" 
d="M60 17q-30 12 -45 33.5t-15 45.5q0 30 19.5 52.5t48.5 22.5q18 0 37 -10q30 -12 71 -20t74 -8q42 0 42 14q0 11 -17.5 18.5t-55.5 16.5q-56 15 -93 29.5t-65 45.5t-28 81q0 48 30.5 86.5t87 60t131.5 21.5q28 0 69.5 -6.5t69.5 -15.5q26 -13 38.5 -34t12.5 -44
q0 -29 -17.5 -50t-44.5 -21q-16 0 -31 7q-31 13 -59 18t-59 5q-22 0 -34.5 -3.5t-12.5 -9.5q0 -12 17.5 -19.5t56.5 -17.5q54 -14 91.5 -29.5t65.5 -46.5t28 -80q0 -80 -62 -124t-180 -44q-92 0 -171 26zM385 768q22 0 39 -14t17 -34q0 -17 -13 -36l-70 -90
q-14 -20 -35.5 -30.5t-44.5 -10.5q-22 0 -40.5 10.5t-30.5 30.5l-58 99q-9 15 -9 29q0 20 16.5 33t39.5 13q19 0 36 -10.5t27 -31.5l29 -65l39 71q19 36 58 36z" />
    <glyph glyph-name="uni0162" unicode="&#x162;" horiz-adv-x="642" 
d="M224.5 23.5q-27.5 28.5 -22.5 75.5l35 433h-120q-95 0 -95 78q0 51 27 73t83 22h454q95 0 95 -80q0 -51 -26.5 -72t-83.5 -21h-117l-35 -430q-5 -49 -36.5 -78t-81.5 -29q-49 0 -76.5 28.5zM392 -57.5q23 -18.5 23 -50.5q0 -42 -38.5 -66.5t-101.5 -24.5q-48 0 -75 9
q-11 3 -17 12t-6 20q0 16 10 28t24 8q14 -3 30 -5t23 -2q23 0 33.5 5t10.5 16q0 7 -7.5 11.5t-19.5 4.5q-8 0 -18.5 -2.5t-15.5 -2.5q-12 0 -16.5 5.5t-1.5 14.5l21 97h92l-15 -59h2q40 0 63 -18.5z" />
    <glyph glyph-name="uni0163" unicode="&#x163;" horiz-adv-x="425" 
d="M417 125q12 -17 12 -45q0 -49 -30.5 -69t-106.5 -20q-100 0 -151.5 48t-51.5 140q0 20 1 30l11 133h-17q-43 0 -66 18.5t-23 52.5q0 41 25 61t77 20h17l4 50q4 45 34 71t78 26q49 0 74.5 -26t21.5 -70l-4 -51h37q42 0 64.5 -18.5t22.5 -51.5q0 -43 -24 -62.5t-76 -19.5
h-37l-11 -135l-1 -14q0 -28 11.5 -41t35.5 -13q8 0 18.5 1.5t22.5 1.5q20 0 32 -17zM334 -57.5q23 -18.5 23 -50.5q0 -42 -38.5 -66.5t-101.5 -24.5q-48 0 -75 9q-11 3 -17 12t-6 20q0 16 10 28t24 8q14 -3 30 -5t23 -2q23 0 33.5 5t10.5 16q0 7 -7.5 11.5t-19.5 4.5
q-8 0 -18.5 -2.5t-15.5 -2.5q-12 0 -16.5 5.5t-1.5 14.5l21 97h92l-15 -59h2q40 0 63 -18.5z" />
    <glyph glyph-name="Tcaron" unicode="&#x164;" horiz-adv-x="642" 
d="M224.5 23.5q-27.5 28.5 -22.5 75.5l35 433h-120q-95 0 -95 78q0 51 27 73t83 22h454q95 0 95 -80q0 -51 -26.5 -72t-83.5 -21h-117l-35 -430q-5 -49 -36.5 -78t-81.5 -29q-49 0 -76.5 28.5zM467 926q18 0 30.5 -10.5t12.5 -26.5q0 -18 -17 -38l-66 -68q-23 -24 -65 -24
q-19 0 -36.5 6t-26.5 18l-55 68q-11 14 -11 29q0 19 16.5 33t37.5 14q30 0 47 -29l30 -52l46 51q25 29 57 29z" />
    <glyph glyph-name="tcaron" unicode="&#x165;" horiz-adv-x="425" 
d="M417 125q12 -17 12 -45q0 -49 -30.5 -69t-106.5 -20q-100 0 -151.5 48t-51.5 140q0 20 1 30l11 133h-17q-43 0 -66 18.5t-23 52.5q0 41 25 61t77 20h17l4 50q4 45 34 71t78 26q49 0 74.5 -26t21.5 -70l-4 -51h37q42 0 64.5 -18.5t22.5 -51.5q0 -43 -24 -62.5t-76 -19.5
h-37l-11 -135l-1 -14q0 -28 11.5 -41t35.5 -13q8 0 18.5 1.5t22.5 1.5q20 0 32 -17zM448.396 519.182q-14.9727 -7.19922 -34.5029 -7.19922q-22.1338 0 -38.4092 9.44922q-16.2744 9.44922 -14.9727 23.8486l14.3223 130.495q2.60352 18.8994 22.1338 28.7988
t45.5703 9.89941q27.3418 0 47.5225 -10.3496q20.1816 -10.3496 20.1816 -29.249q0 -7.19922 -1.30273 -10.7988l-40.3613 -123.295q-5.20801 -14.3994 -20.1816 -21.5996z" />
    <glyph glyph-name="Tbar" unicode="&#x166;" horiz-adv-x="642" 
d="M454 532l-8 -97h53q43 0 66.5 -20t23.5 -55q0 -85 -105 -85h-51l-14 -173q-5 -49 -36.5 -78t-81.5 -29q-49 0 -76.5 28.5t-22.5 75.5l14 176h-55q-43 0 -66 20t-23 55q0 85 104 85h53l8 97h-120q-95 0 -95 78q0 51 27 73t83 22h454q95 0 95 -80q0 -51 -26.5 -72
t-83.5 -21h-117z" />
    <glyph glyph-name="tbar" unicode="&#x167;" horiz-adv-x="435" 
d="M419.5 132.5q13.5 -10.5 28.5 -39.5q2 -38 -12.5 -60t-48.5 -32t-95 -10q-97 0 -147.5 48.5t-50.5 141.5q0 18 1 28v1h-5q-39 0 -59.5 18t-20.5 50q0 52 51 66q-61 13 -61 69q0 42 25.5 61.5t76.5 19.5h17l4 50q4 45 33.5 71t78.5 26t74.5 -26t21.5 -70l-4 -51h37
q41 0 64 -18t23 -52q0 -36 -17.5 -55.5t-53.5 -24.5q40 -15 40 -58q0 -38 -24 -57t-68 -19h-25v-3l-1 -15q0 -53 42 -53q8 0 21.5 2t22.5 2q18 0 31.5 -10.5z" />
    <glyph glyph-name="Utilde" unicode="&#x168;" horiz-adv-x="751" 
d="M56 274q0 14 2 44l23 285q4 49 34.5 78t79.5 29t75 -28.5t22 -75.5l-23 -297q-1 -10 -1 -29q0 -64 29.5 -95t90.5 -31q42 0 68.5 28.5t32.5 101.5l25 319q5 49 35.5 78t79.5 29q45 0 71 -24.5t26 -66.5l-1 -13l-24 -309q-12 -152 -93.5 -229.5t-231.5 -77.5
q-320 0 -320 284zM459 771.5q-18 6.5 -42 17.5q-23 11 -38 16.5t-29 5.5q-13 0 -20.5 -5t-17.5 -15q-7 -9 -15 -14t-20 -5q-16 0 -24.5 10.5t-8.5 28.5q0 26 12.5 52.5t37.5 43.5t59 17q17 0 35 -6t42 -18q44 -21 67 -21q13 0 21 5t17 14t16.5 13.5t19.5 4.5q32 0 32 -38
q0 -26 -12.5 -52.5t-37 -43.5t-58.5 -17q-18 0 -36 6.5z" />
    <glyph glyph-name="utilde" unicode="&#x169;" horiz-adv-x="612" 
d="M558.5 477.5q25.5 -26.5 21.5 -69.5l-26 -320q-3 -41 -33 -68t-77 -27q-35 0 -59 16.5t-31 43.5q-26 -29 -66 -45.5t-88 -16.5q-81 0 -122.5 47.5t-41.5 138.5q0 22 1 34l16 197q4 43 34.5 69.5t79.5 26.5q48 0 73 -26.5t21 -69.5l-16 -186q-2 -34 10.5 -53.5t39.5 -19.5
q28 0 43.5 20.5t18.5 56.5l15 182q4 43 34 69.5t79 26.5q48 0 73.5 -26.5zM365 589.5q-19 7.5 -42 21.5q-19 11 -30.5 16t-24.5 5t-21.5 -6t-20.5 -19q-11 -13 -19 -19t-21 -6q-14 0 -21.5 12.5t-7.5 33.5q0 26 15 53.5t40 45t53 17.5q24 0 43 -7.5t43 -21.5
q18 -10 31 -15.5t26 -5.5t21.5 6.5t19.5 19.5q10 12 18.5 18.5t20.5 6.5q30 0 30 -46q0 -28 -15.5 -55t-41 -44.5t-54.5 -17.5q-23 0 -42 7.5z" />
    <glyph glyph-name="Umacron" unicode="&#x16a;" horiz-adv-x="751" 
d="M56 274q0 14 2 44l23 285q4 49 34.5 78t79.5 29t75 -28.5t22 -75.5l-23 -297q-1 -10 -1 -29q0 -64 29.5 -95t90.5 -31q42 0 68.5 28.5t32.5 101.5l25 319q5 49 35.5 78t79.5 29q45 0 71 -24.5t26 -66.5l-1 -13l-24 -309q-12 -152 -93.5 -229.5t-231.5 -77.5
q-320 0 -320 284zM261.5 802.5q-15.5 14.5 -15.5 36.5q0 29 17.5 44t45.5 15h241q23 0 37.5 -14.5t14.5 -37.5q0 -29 -17.5 -43.5t-44.5 -14.5h-242q-21 0 -36.5 14.5z" />
    <glyph glyph-name="umacron" unicode="&#x16b;" horiz-adv-x="612" 
d="M558.5 477.5q25.5 -26.5 21.5 -69.5l-26 -320q-3 -41 -33 -68t-77 -27q-35 0 -59 16.5t-31 43.5q-26 -29 -66 -45.5t-88 -16.5q-81 0 -122.5 47.5t-41.5 138.5q0 22 1 34l16 197q4 43 34.5 69.5t79.5 26.5q48 0 73 -26.5t21 -69.5l-16 -186q-2 -34 10.5 -53.5t39.5 -19.5
q28 0 43.5 20.5t18.5 56.5l15 182q4 43 34 69.5t79 26.5q48 0 73.5 -26.5zM173.5 619q-14.5 14 -14.5 39q0 27 17.5 41t44.5 14h242q22 0 36.5 -13t14.5 -35q0 -30 -17 -45t-45 -15h-241q-23 0 -37.5 14z" />
    <glyph glyph-name="Ubreve" unicode="&#x16c;" horiz-adv-x="751" 
d="M56 274q0 14 2 44l23 285q4 49 34.5 78t79.5 29t75 -28.5t22 -75.5l-23 -297q-1 -10 -1 -29q0 -64 29.5 -95t90.5 -31q42 0 68.5 28.5t32.5 101.5l25 319q5 49 35.5 78t79.5 29q45 0 71 -24.5t26 -66.5l-1 -13l-24 -309q-12 -152 -93.5 -229.5t-231.5 -77.5
q-320 0 -320 284zM325 792q-42 19 -66 52q-11 16 -11 29q0 18 14.5 30t33.5 12q21 0 39 -15q39 -23 93 -23q24 0 49.5 6.5t42.5 16.5q19 15 41 15q18 0 29.5 -10t11.5 -26q0 -15 -15 -35q-25 -32 -66 -51.5t-96 -19.5q-58 0 -100 19z" />
    <glyph glyph-name="ubreve" unicode="&#x16d;" horiz-adv-x="612" 
d="M558.5 477.5q25.5 -26.5 21.5 -69.5l-26 -320q-3 -41 -33 -68t-77 -27q-35 0 -59 16.5t-31 43.5q-26 -29 -66 -45.5t-88 -16.5q-81 0 -122.5 47.5t-41.5 138.5q0 22 1 34l16 197q4 43 34.5 69.5t79.5 26.5q48 0 73 -26.5t21 -69.5l-16 -186q-2 -34 10.5 -53.5t39.5 -19.5
q28 0 43.5 20.5t18.5 56.5l15 182q4 43 34 69.5t79 26.5q48 0 73.5 -26.5zM227 609.5q-47 32.5 -69 84.5q-4 9 -4 20q0 20 15 33t35 13q26 0 40 -23q15 -21 42.5 -35t57.5 -14q58 0 96 49q17 24 44 24q18 0 31 -12t13 -31q0 -13 -5 -24q-22 -51 -72 -84t-114 -33
q-63 0 -110 32.5z" />
    <glyph glyph-name="Uring" unicode="&#x16e;" horiz-adv-x="751" 
d="M56 274q0 14 2 44l23 285q4 49 34.5 78t79.5 29t75 -28.5t22 -75.5l-23 -297q-1 -10 -1 -29q0 -64 29.5 -95t90.5 -31q42 0 68.5 28.5t32.5 101.5l25 319q5 49 35.5 78t79.5 29q45 0 71 -24.5t26 -66.5l-1 -13l-24 -309q-12 -152 -93.5 -229.5t-231.5 -77.5
q-320 0 -320 284zM346 792q-33 32 -33 79t33 79t80 32t80 -32t33 -79t-33 -79t-80 -32t-80 32zM455 840.5q12 12.5 12 30.5q0 19 -12 31t-29 12q-19 0 -30 -12t-11 -31q0 -18 11.5 -30.5t29.5 -12.5q17 0 29 12.5z" />
    <glyph glyph-name="uring" unicode="&#x16f;" horiz-adv-x="612" 
d="M558.5 477.5q25.5 -26.5 21.5 -69.5l-26 -320q-3 -41 -33 -68t-77 -27q-35 0 -59 16.5t-31 43.5q-26 -29 -66 -45.5t-88 -16.5q-81 0 -122.5 47.5t-41.5 138.5q0 22 1 34l16 197q4 43 34.5 69.5t79.5 26.5q48 0 73 -26.5t21 -69.5l-16 -186q-2 -34 10.5 -53.5t39.5 -19.5
q28 0 43.5 20.5t18.5 56.5l15 182q4 43 34 69.5t79 26.5q48 0 73.5 -26.5zM257 583.5q-33 32.5 -33 79.5t33 79t80 32t80 -32t33 -79t-33 -79.5t-80 -32.5t-80 32.5zM366 632q12 12 12 31q0 17 -12 30t-29 13q-18 0 -29.5 -12.5t-11.5 -30.5q0 -19 11.5 -31t29.5 -12
q17 0 29 12z" />
    <glyph glyph-name="Uhungarumlaut" unicode="&#x170;" horiz-adv-x="751" 
d="M56 274q0 14 2 44l23 285q4 49 34.5 78t79.5 29t75 -28.5t22 -75.5l-23 -297q-1 -10 -1 -29q0 -64 29.5 -95t90.5 -31q42 0 68.5 28.5t32.5 101.5l25 319q5 49 35.5 78t79.5 29q45 0 71 -24.5t26 -66.5l-1 -13l-24 -309q-12 -152 -93.5 -229.5t-231.5 -77.5
q-320 0 -320 284zM355 761q-12 0 -20.5 8t-8.5 20q0 9 6 21l39 91q13 28 41 28q19 0 34.5 -13.5t15.5 -32.5q0 -18 -14 -35l-54 -66q-17 -21 -39 -21zM503 761q-12 0 -20.5 8t-8.5 20q0 11 5 21l40 91q13 28 41 28q19 0 34.5 -13.5t15.5 -33.5q0 -17 -14 -34l-54 -66
q-17 -21 -39 -21z" />
    <glyph glyph-name="uhungarumlaut" unicode="&#x171;" horiz-adv-x="612" 
d="M558.5 477.5q25.5 -26.5 21.5 -69.5l-26 -320q-3 -41 -33 -68t-77 -27q-35 0 -59 16.5t-31 43.5q-26 -29 -66 -45.5t-88 -16.5q-81 0 -122.5 47.5t-41.5 138.5q0 22 1 34l16 197q4 43 34.5 69.5t79.5 26.5q48 0 73 -26.5t21 -69.5l-16 -186q-2 -34 10.5 -53.5t39.5 -19.5
q28 0 43.5 20.5t18.5 56.5l15 182q4 43 34 69.5t79 26.5q48 0 73.5 -26.5zM283 557.5q-10 -6.5 -20 -6.5q-14 0 -24 10.5t-10 27.5q0 4 2 14l20 114q5 27 22 41t37 14q21 0 36.5 -14t15.5 -37q0 -18 -10 -38l-53 -107q-6 -12 -16 -18.5zM430 557.5q-10 -6.5 -20 -6.5
q-14 0 -24 10.5t-10 27.5q0 4 2 14l20 114q5 27 22 41t37 14q21 0 36 -13.5t15 -36.5q0 -18 -11 -39l-51 -107q-6 -12 -16 -18.5z" />
    <glyph glyph-name="Uogonek" unicode="&#x172;" horiz-adv-x="751" 
d="M700 685.5q26 -24.5 26 -66.5l-1 -13l-24 -309q-9 -122 -64 -197.5t-164 -102.5q-22 -4 -36.5 -18.5t-14.5 -35.5t13.5 -32.5t34.5 -11.5q16 0 40 5q16 4 26.5 -7t10.5 -29q0 -28 -24 -42q-45 -26 -90 -26q-62 0 -100 31t-38 80q0 21 7.5 42.5t24.5 37.5
q-271 20 -271 283q0 14 2 44l23 285q4 49 34.5 78t79.5 29t75 -28.5t22 -75.5l-23 -297q-1 -10 -1 -29q0 -64 29.5 -95t90.5 -31q42 0 68.5 28.5t32.5 101.5l25 319q5 49 35.5 78t79.5 29q45 0 71 -24.5zM371 -10h-9h9z" />
    <glyph glyph-name="uogonek" unicode="&#x173;" horiz-adv-x="612" 
d="M460 -26q-9 -12 -9 -31q0 -21 13.5 -32.5t35.5 -11.5q14 0 40 5q16 4 26.5 -7.5t10.5 -28.5q0 -28 -24 -42q-25 -14 -45 -20t-46 -6q-62 0 -99.5 31t-37.5 80q0 58 53 103q-20 17 -24 39q-26 -29 -66.5 -45.5t-87.5 -16.5q-81 0 -122.5 47.5t-41.5 136.5q0 22 1 34
l16 199q4 44 33.5 70t78.5 26t74.5 -26.5t21.5 -69.5l-16 -186q-2 -34 10.5 -53.5t39.5 -19.5q28 0 43.5 20.5t18.5 56.5l15 182q4 44 33.5 70t78.5 26q48 0 74 -26.5t22 -69.5l-26 -321q-5 -57 -57 -84q-28 -17 -37 -29z" />
    <glyph glyph-name="Wcircumflex" unicode="&#x174;" horiz-adv-x="1127" 
d="M965.5 695.5q27.5 17.5 59.5 17.5q37 0 63.5 -22.5t26.5 -61.5q0 -25 -13 -54l-229 -516q-14 -32 -45.5 -50t-66.5 -18t-62.5 17t-36.5 49l-89 320l-138 -318q-14 -33 -45 -51t-66 -18t-63 17.5t-37 49.5l-147 517q-5 22 -5 35q0 47 33.5 75.5t77.5 28.5q33 0 57.5 -17
t32.5 -50l84 -344l150 344q14 32 41.5 49.5t58.5 17.5t55 -17.5t33 -50.5l86 -353l143 352q14 34 41.5 51.5zM541.5 769q-14.5 -7 -28.5 -7q-18 0 -31 10t-13 26q0 19 19 39l63 68q26 24 67 24q19 0 36 -6t26 -18l55 -68q12 -15 12 -29q0 -19 -17 -33t-38 -14q-31 0 -48 29
l-29 52l-47 -52q-12 -14 -26.5 -21z" />
    <glyph glyph-name="wcircumflex" unicode="&#x175;" horiz-adv-x="881" 
d="M735 491q24 15 52 15q38 0 66 -23t28 -59q0 -21 -12 -45l-175 -329q-14 -28 -44.5 -43t-64.5 -15t-61 14.5t-35 40.5l-54 157l-74 -154q-13 -28 -43 -43t-65 -15q-34 0 -61 14t-36 41l-120 330q-5 14 -5 32q0 42 34 69.5t76 27.5q28 0 49.5 -14t30.5 -43l62 -200l97 201
q12 26 35 40t49 14q25 0 45.5 -13.5t28.5 -40.5l64 -203l95 200q14 29 38 44zM410.5 563q-15.5 -9 -32.5 -9q-22 0 -39 14t-17 35q0 17 13 36l69 91q15 19 36 29.5t44 10.5q22 0 41 -10t31 -30l59 -100q8 -13 8 -28q0 -20 -16.5 -33.5t-39.5 -13.5q-19 0 -36 10.5t-27 31.5
l-30 64l-38 -71q-10 -18 -25.5 -27z" />
    <glyph glyph-name="Ycircumflex" unicode="&#x176;" horiz-adv-x="666" 
d="M588 714q38 0 67 -29.5t29 -68.5q0 -37 -27 -68l-211 -243l-16 -203q-4 -53 -36.5 -81t-79.5 -28q-48 0 -76 27t-24 79l16 208l-176 247q-16 22 -16 48q0 27 16 52t41.5 40.5t51.5 15.5q43 0 69 -39l132 -193l169 201q29 35 71 35zM309.5 769q-14.5 -7 -28.5 -7
q-18 0 -31 10t-13 26q0 19 19 39l63 68q26 24 67 24q19 0 36 -6t26 -18l55 -68q12 -15 12 -29q0 -19 -17 -33t-38 -14q-31 0 -48 29l-29 52l-47 -52q-12 -14 -26.5 -21z" />
    <glyph glyph-name="ycircumflex" unicode="&#x177;" horiz-adv-x="549" 
d="M404.5 492.5q23.5 14.5 50.5 14.5q37 0 66 -24t29 -58q0 -18 -11 -40l-270 -515q-16 -29 -38 -43.5t-46 -14.5q-35 0 -60 24t-25 61q0 21 12 47l46 92l-125 353q-4 11 -4 24q0 25 16.5 47t43 35t52.5 13t47 -14.5t31 -43.5l61 -192l87 190q14 30 37.5 44.5zM244.5 563
q-15.5 -9 -32.5 -9q-22 0 -39 14t-17 35q0 17 13 36l69 91q15 19 36 29.5t44 10.5q22 0 41 -10t31 -30l59 -100q8 -13 8 -28q0 -20 -16.5 -33.5t-39.5 -13.5q-19 0 -36 10.5t-27 31.5l-30 64l-38 -71q-10 -18 -25.5 -27z" />
    <glyph glyph-name="Ydieresis" unicode="&#x178;" horiz-adv-x="666" 
d="M588 714q38 0 67 -29.5t29 -68.5q0 -37 -27 -68l-211 -243l-16 -203q-4 -53 -36.5 -81t-79.5 -28q-48 0 -76 27t-24 79l16 208l-176 247q-16 22 -16 48q0 27 16 52t41.5 40.5t51.5 15.5q43 0 69 -39l132 -193l169 201q29 35 71 35zM218.5 785.5q-23.5 22.5 -23.5 60.5
q0 36 23.5 57.5t61.5 21.5q39 0 63 -21.5t24 -57.5q0 -38 -24 -60.5t-63 -22.5q-38 0 -61.5 22.5zM417.5 785.5q-23.5 22.5 -23.5 60.5q0 36 23.5 57.5t63.5 21.5q37 0 61 -21.5t24 -57.5q0 -38 -23.5 -60.5t-61.5 -22.5q-40 0 -63.5 22.5z" />
    <glyph glyph-name="Zacute" unicode="&#x179;" horiz-adv-x="626" 
d="M601 90q0 -49 -26.5 -69.5t-83.5 -20.5h-385q-41 0 -63.5 22.5t-22.5 57.5q0 43 35 87l303 371h-198q-95 0 -95 74q0 50 27 71.5t84 21.5h366q41 0 64 -23t23 -58q0 -45 -34 -86l-304 -371h215q95 0 95 -77zM382 761q-17 0 -29.5 11.5t-12.5 28.5q0 15 10 29l50 72
q18 27 46 27q23 0 42 -17.5t19 -39.5t-20 -41l-66 -54q-17 -16 -39 -16z" />
    <glyph glyph-name="zacute" unicode="&#x17a;" horiz-adv-x="524" 
d="M504 84q0 -43 -24.5 -63.5t-76.5 -20.5h-299q-40 0 -62.5 23.5t-22.5 58.5q0 44 34 79l190 181h-126q-89 0 -89 68q0 43 25 63.5t77 20.5h292q40 0 62.5 -23.5t22.5 -57.5q0 -44 -33 -78l-192 -183h134q88 0 88 -68zM315 555q-18 0 -30 11t-12 29q0 14 8 29l37 103
q11 22 28 33t36 11q27 0 48 -18.5t21 -44.5q0 -25 -22 -50l-61 -77q-23 -26 -53 -26z" />
    <glyph glyph-name="Zdotaccent" unicode="&#x17b;" horiz-adv-x="626" 
d="M601 90q0 -49 -26.5 -69.5t-83.5 -20.5h-385q-41 0 -63.5 22.5t-22.5 57.5q0 43 35 87l303 371h-198q-95 0 -95 74q0 50 27 71.5t84 21.5h366q41 0 64 -23t23 -58q0 -45 -34 -86l-304 -371h215q95 0 95 -77zM290.5 780.5q-27.5 24.5 -27.5 65.5q0 39 27.5 62.5t73.5 23.5
q45 0 73 -23.5t28 -62.5q0 -41 -27.5 -65.5t-73.5 -24.5t-73.5 24.5z" />
    <glyph glyph-name="zdotaccent" unicode="&#x17c;" horiz-adv-x="524" 
d="M504 84q0 -43 -24.5 -63.5t-76.5 -20.5h-299q-40 0 -62.5 23.5t-22.5 58.5q0 44 34 79l190 181h-126q-89 0 -89 68q0 43 25 63.5t77 20.5h292q40 0 62.5 -23.5t22.5 -57.5q0 -44 -33 -78l-192 -183h134q88 0 88 -68zM232.5 597q-27.5 24 -27.5 64t27 63t74 23
q45 0 73 -23.5t28 -62.5q0 -40 -27.5 -64t-73.5 -24t-73.5 24z" />
    <glyph glyph-name="Zcaron" unicode="&#x17d;" horiz-adv-x="626" 
d="M601 90q0 -49 -26.5 -69.5t-83.5 -20.5h-385q-41 0 -63.5 22.5t-22.5 57.5q0 43 35 87l303 371h-198q-95 0 -95 74q0 50 27 71.5t84 21.5h366q41 0 64 -23t23 -58q0 -45 -34 -86l-304 -371h215q95 0 95 -77zM462 926q18 0 30.5 -10.5t12.5 -26.5q0 -18 -17 -38l-66 -68
q-23 -24 -65 -24q-19 0 -36.5 6t-26.5 18l-55 68q-11 14 -11 29q0 19 16.5 33t37.5 14q30 0 47 -29l30 -52l46 51q25 29 57 29z" />
    <glyph glyph-name="zcaron" unicode="&#x17e;" horiz-adv-x="524" 
d="M504 84q0 -43 -24.5 -63.5t-76.5 -20.5h-299q-40 0 -62.5 23.5t-22.5 58.5q0 44 34 79l190 181h-126q-89 0 -89 68q0 43 25 63.5t77 20.5h292q40 0 62.5 -23.5t22.5 -57.5q0 -44 -33 -78l-192 -183h134q88 0 88 -68zM402 768q22 0 39 -14t17 -34q0 -17 -13 -36l-70 -90
q-14 -20 -35.5 -30.5t-44.5 -10.5q-22 0 -40.5 10.5t-30.5 30.5l-58 99q-9 15 -9 29q0 20 16.5 33t39.5 13q19 0 36 -10.5t27 -31.5l29 -65l39 71q19 36 58 36z" />
    <glyph glyph-name="uni018F" unicode="&#x18f;" horiz-adv-x="788" 
d="M591 670.5q80 -44.5 122.5 -122.5t42.5 -176q0 -114 -45.5 -200.5t-126.5 -134t-185 -47.5q-116 0 -195 44t-117.5 116.5t-38.5 159.5l1 37q3 43 26.5 66t63.5 23h397q-15 54 -55.5 82.5t-100.5 28.5q-72 0 -133 -25q-38 -21 -68 -21q-29 0 -45.5 19.5t-16.5 48.5
q0 24 11.5 47.5t33.5 38.5q47 30 110.5 45t129.5 15q109 0 189 -44.5zM480.5 186.5q35.5 32.5 51.5 89.5h-276q3 -61 41.5 -91.5t98.5 -30.5q49 0 84.5 32.5z" />
    <glyph glyph-name="florin" unicode="&#x192;" 
d="M495 535q-13 -13 -20 -33h52q24 0 41.5 -16t17.5 -39q0 -26 -20.5 -42t-47.5 -16h-76l-105 -359q-33 -117 -107.5 -166t-156.5 -49h-22q-40 0 -61.5 20t-21.5 49q0 36 29 64t77 28h8q17 0 31.5 16t19.5 42l104 355h-55q-23 0 -40 15t-17 38q0 27 20 43.5t46 16.5h79
q35 113 108 161t152 48h22q41 0 62.5 -20.5t21.5 -50.5q0 -36 -28.5 -64t-76.5 -28h-8q-15 0 -28 -13z" />
    <glyph glyph-name="Ohorn" unicode="&#x1a0;" horiz-adv-x="806" 
d="M772.5 679.5q-34.5 -48.5 -87.5 -62.5q89 -89 89 -245q0 -114 -45.5 -201t-128 -134.5t-191.5 -47.5t-190.5 42t-125.5 119.5t-44 182.5q0 114 46 201t131 134.5t199 47.5q32 0 83 -7q34 -4 47 -4q28 0 41.5 6.5t19.5 21.5t15 52q8 38 32 59.5t65 21.5q39 0 59 -21
t20 -59q0 -58 -34.5 -106.5zM519 211q41 58 41 161q0 86 -37.5 133t-104.5 47q-73 0 -114 -58t-41 -160q0 -88 37 -134.5t107 -46.5q71 0 112 58z" />
    <glyph glyph-name="ohorn" unicode="&#x1a1;" horiz-adv-x="614" 
d="M622 473.5q-33 -43.5 -80 -60.5q24 -31 36.5 -70.5t12.5 -82.5q0 -84 -35 -144.5t-99 -92.5t-149 -32q-87 0 -151 30.5t-98.5 86.5t-34.5 130q0 84 35.5 144.5t99.5 92t149 31.5q20 0 57 -5q40 -4 50 -4q44 0 57 48q9 50 36 71t72 21q43 0 59 -17.5t16 -61.5
q0 -41 -33 -84.5zM386 265q0 47 -17 68t-57 21q-83 0 -83 -119q0 -48 18 -70t56 -22q83 0 83 122z" />
    <glyph glyph-name="Uhorn" unicode="&#x1af;" horiz-adv-x="751" 
d="M813 678.5q-35 -48.5 -86 -60.5l-26 -321q-12 -152 -93.5 -229.5t-231.5 -77.5q-320 0 -320 284q0 14 2 44l23 285q4 49 34.5 78t79.5 29t75 -28.5t22 -75.5l-23 -315l-1 -19q0 -118 120 -118q50 0 72.5 30.5t28.5 99.5l26 322q4 46 34 76.5t72 31.5q17 1 24.5 5.5
t11.5 16t15 49.5q8 38 32 59.5t64 21.5q39 0 59.5 -21t20.5 -59q0 -59 -35 -107.5z" />
    <glyph glyph-name="uhorn" unicode="&#x1b0;" horiz-adv-x="645" 
d="M683.5 499.5q-16.5 -30.5 -44 -55.5t-59.5 -35l-26 -321q-3 -41 -34 -68t-78 -27q-35 0 -58 16.5t-30 43.5q-26 -29 -66 -45.5t-88 -16.5q-81 0 -122.5 47.5t-41.5 138.5q0 22 1 34l16 197q4 44 33.5 70t78.5 26t74 -26t21 -70l-15 -186q-2 -34 10.5 -53.5t39.5 -19.5
q29 0 44 21t18 56l15 182q8 95 103 96q29 3 41 41q10 50 36.5 71t71.5 21q43 0 59.5 -17.5t16.5 -61.5q0 -28 -16.5 -58.5z" />
    <glyph glyph-name="uni01C4" unicode="&#x1c4;" horiz-adv-x="1394" 
d="M64 24.5q-23 24.5 -19 71.5l41 510q5 48 32 73.5t75 25.5h204q106 0 186.5 -41t124.5 -116.5t44 -175.5q0 -118 -48.5 -201.5t-140 -127t-217.5 -43.5h-212q-47 0 -70 24.5zM325 172q110 0 161 47t51 154q0 78 -44.5 119t-126.5 41h-71l-29 -361h59zM1369 90
q0 -49 -26.5 -69.5t-83.5 -20.5h-385q-41 0 -63.5 22.5t-22.5 57.5q0 43 35 87l303 371h-198q-95 0 -95 74q0 50 27 71.5t84 21.5h366q41 0 64 -23t23 -58q0 -45 -34 -86l-304 -371h215q95 0 95 -77zM1230 926q18 0 30.5 -10.5t12.5 -26.5q0 -18 -17 -38l-66 -68
q-23 -24 -65 -24q-19 0 -36.5 6t-26.5 18l-55 68q-11 14 -11 29q0 19 16.5 33t37.5 14q30 0 47 -29l30 -52l46 51q25 29 57 29z" />
    <glyph glyph-name="uni01C5" unicode="&#x1c5;" horiz-adv-x="1307" 
d="M64 24.5q-23 24.5 -19 71.5l41 510q5 48 32 73.5t75 25.5h204q106 0 186.5 -41t124.5 -116.5t44 -175.5q0 -118 -48.5 -201.5t-140 -127t-217.5 -43.5h-212q-47 0 -70 24.5zM325 172q110 0 161 47t51 154q0 78 -44.5 119t-126.5 41h-71l-29 -361h59zM1287 84
q0 -43 -24.5 -63.5t-76.5 -20.5h-299q-40 0 -62.5 23.5t-22.5 58.5q0 44 34 79l190 181h-126q-89 0 -89 68q0 43 25 63.5t77 20.5h292q40 0 62.5 -23.5t22.5 -57.5q0 -44 -33 -78l-192 -183h134q88 0 88 -68zM1185 768q22 0 39 -14t17 -34q0 -17 -13 -36l-70 -90
q-14 -20 -35.5 -30.5t-44.5 -10.5q-22 0 -40.5 10.5t-30.5 30.5l-58 99q-9 15 -9 29q0 20 16.5 33t39.5 13q19 0 36 -10.5t27 -31.5l29 -65l39 71q19 36 58 36z" />
    <glyph glyph-name="uni01C6" unicode="&#x1c6;" horiz-adv-x="1162" 
d="M596.5 682.5q27.5 -26.5 24.5 -67.5l-41 -526q-3 -42 -31.5 -69t-76.5 -27q-37 0 -60.5 16.5t-32.5 45.5q-24 -31 -60.5 -47.5t-84.5 -16.5q-62 0 -109.5 28.5t-74 82t-26.5 127.5q0 80 30 143t84.5 98.5t124.5 35.5q82 0 137 -53l13 167q3 40 32 64.5t76 24.5
q48 0 75.5 -26.5zM367.5 172.5q21.5 29.5 21.5 76.5q0 105 -77 105q-39 0 -61 -29.5t-22 -80.5q0 -49 21 -75t60 -26q36 0 57.5 29.5zM1142 84q0 -43 -24.5 -63.5t-76.5 -20.5h-299q-40 0 -62.5 23.5t-22.5 58.5q0 44 34 79l190 181h-126q-89 0 -89 68q0 43 25 63.5t77 20.5
h292q40 0 62.5 -23.5t22.5 -57.5q0 -44 -33 -78l-192 -183h134q88 0 88 -68zM1040 768q22 0 39 -14t17 -34q0 -17 -13 -36l-70 -90q-14 -20 -35.5 -30.5t-44.5 -10.5q-22 0 -40.5 10.5t-30.5 30.5l-58 99q-9 15 -9 29q0 20 16.5 33t39.5 13q19 0 36 -10.5t27 -31.5l29 -65
l39 71q19 36 58 36z" />
    <glyph glyph-name="uni01C7" unicode="&#x1c7;" horiz-adv-x="1007" 
d="M65.5 25.5q-23.5 25.5 -19.5 72.5l40 505q4 49 35 78t80 29q47 0 74 -24.5t27 -66.5l-1 -13l-35 -433h172q95 0 95 -78q0 -51 -26.5 -73t-83.5 -22h-287q-47 0 -70.5 25.5zM556 71q0 46 22 67.5t70 24.5l32 2q24 2 37 14.5t14 38.5l31 387q5 48 36.5 76.5t80.5 28.5
t76.5 -28.5t23.5 -76.5l-29 -383q-8 -105 -68 -162.5t-170 -64.5l-30 -2q-126 -8 -126 78z" />
    <glyph glyph-name="uni01C8" unicode="&#x1c8;" horiz-adv-x="879" 
d="M65.5 25.5q-23.5 25.5 -19.5 72.5l40 505q4 49 35 78t80 29q47 0 74 -24.5t27 -66.5l-1 -13l-35 -433h202q95 0 95 -78q0 -51 -26.5 -73t-83.5 -22h-317q-47 0 -70.5 25.5zM572 -182q-49 0 -74.5 19t-22.5 58q4 33 23.5 50t60.5 20l29 2q5 0 11 6t7 12l34 423
q4 47 36 71.5t77 24.5q44 0 71.5 -24t23.5 -72l-33 -408q-5 -77 -53 -124.5t-134 -54.5l-33 -2q-8 -1 -23 -1zM688.5 597q-27.5 24 -27.5 64t27 63t74 23q45 0 73 -23.5t28 -62.5q0 -40 -27.5 -64t-73.5 -24t-73.5 24z" />
    <glyph glyph-name="uni01C9" unicode="&#x1c9;" horiz-adv-x="594" 
d="M56.5 17.5q-28.5 24.5 -24.5 71.5l41 523q4 48 35 72.5t76 24.5t73 -24.5t24 -72.5l-41 -523q-4 -47 -35 -71.5t-75 -24.5q-45 0 -73.5 24.5zM287 -182q-49 0 -74.5 19t-22.5 58q4 33 23.5 50t60.5 20l29 2q5 0 11 6t7 12l34 423q4 47 36 71.5t77 24.5q44 0 71.5 -24
t23.5 -72l-33 -408q-5 -77 -53 -124.5t-134 -54.5l-33 -2q-8 -1 -23 -1zM403.5 597q-27.5 24 -27.5 64t27 63t74 23q45 0 73 -23.5t28 -62.5q0 -40 -27.5 -64t-73.5 -24t-73.5 24z" />
    <glyph glyph-name="uni01CA" unicode="&#x1ca;" horiz-adv-x="1182" 
d="M708.5 685q25.5 -25 25.5 -67l-1 -13l-40 -504q-4 -49 -34.5 -78.5t-75.5 -29.5q-54 0 -76 33l-240 318l-20 -242q-5 -49 -34 -79t-75 -30t-71 29.5t-21 77.5l40 504q5 47 35 76.5t75 29.5q52 0 75 -33l242 -318l18 244q5 48 34.5 77.5t74.5 29.5q43 0 68.5 -25zM761 9.5
q-30 20.5 -30 66.5q0 44 22.5 64t68.5 23l33 2q24 2 37 14.5t14 38.5l31 387q5 48 36.5 76.5t80.5 28.5t76.5 -28.5t23.5 -76.5l-29 -383q-8 -105 -68 -162.5t-169 -64.5l-32 -2q-65 -4 -95 16.5z" />
    <glyph glyph-name="uni01CB" unicode="&#x1cb;" horiz-adv-x="1060" 
d="M708.5 685q25.5 -25 25.5 -67l-1 -13l-40 -504q-4 -49 -34.5 -78.5t-75.5 -29.5q-54 0 -76 33l-240 318l-20 -242q-5 -49 -34 -79t-75 -30t-71 29.5t-21 77.5l40 504q5 47 35 76.5t75 29.5q52 0 75 -33l242 -318l18 244q5 48 34.5 77.5t74.5 29.5q43 0 68.5 -25z
M753 -182q-49 0 -74.5 19t-22.5 58q4 33 23.5 50t60.5 20l29 2q5 0 11 6t7 12l34 423q4 47 36 71.5t77 24.5q44 0 71.5 -24t23.5 -72l-33 -408q-5 -77 -53 -124.5t-134 -54.5l-33 -2q-8 -1 -23 -1zM869.5 597q-27.5 24 -27.5 64t27 63t74 23q45 0 73 -23.5t28 -62.5
q0 -40 -27.5 -64t-73.5 -24t-73.5 24z" />
    <glyph glyph-name="uni01CC" unicode="&#x1cc;" horiz-adv-x="914" 
d="M539.5 458q41.5 -48 41.5 -141q0 -23 -1 -35l-16 -193q-4 -44 -33 -70t-78 -26q-48 0 -74.5 26.5t-22.5 69.5l16 186q2 34 -11 53.5t-41 19.5q-58 0 -65 -76l-15 -183q-4 -44 -33 -70t-77 -26q-49 0 -74.5 26t-23.5 70l26 321q3 41 34.5 67.5t78.5 26.5q35 0 58 -16
t30 -43q26 29 66.5 45t90.5 16q82 0 123.5 -48zM607 -182q-49 0 -74.5 19t-22.5 58q4 33 23.5 50t60.5 20l29 2q5 0 11 6t7 12l34 423q4 47 36 71.5t77 24.5q44 0 71.5 -24t23.5 -72l-33 -408q-5 -77 -53 -124.5t-134 -54.5l-33 -2q-8 -1 -23 -1zM723.5 597
q-27.5 24 -27.5 64t27 63t74 23q45 0 73 -23.5t28 -62.5q0 -40 -27.5 -64t-73.5 -24t-73.5 24z" />
    <glyph glyph-name="uni01CE" unicode="&#x1ce;" horiz-adv-x="559" 
d="M462 455q59 -51 59 -155q0 -12 -2 -36l-13 -175q-5 -46 -33 -71t-74 -25q-35 0 -58.5 18t-28.5 48q-17 -32 -49 -50t-73 -18q-49 0 -88.5 19.5t-62.5 54t-23 75.5q0 58 27.5 92.5t87.5 51t159 16.5h37q3 56 -72 56q-22 0 -78 -14l-21 -5q-19 -8 -39 -8q-30 0 -48 18.5
t-18 45.5q0 21 12.5 41.5t37.5 34.5q74 37 182 37q120 0 179 -51zM297.5 149q18.5 21 21.5 55v5h-26q-41 0 -60 -11t-19 -34q0 -16 10.5 -26t28.5 -10q26 0 44.5 21zM412 768q22 0 39 -14t17 -34q0 -17 -13 -36l-70 -90q-14 -20 -35.5 -30.5t-44.5 -10.5q-22 0 -40.5 10.5
t-30.5 30.5l-58 99q-9 15 -9 29q0 20 16.5 33t39.5 13q19 0 36 -10.5t27 -31.5l29 -65l39 71q19 36 58 36z" />
    <glyph glyph-name="uni01D4" unicode="&#x1d4;" horiz-adv-x="612" 
d="M558.5 477.5q25.5 -26.5 21.5 -69.5l-26 -320q-3 -41 -33 -68t-77 -27q-35 0 -59 16.5t-31 43.5q-26 -29 -66 -45.5t-88 -16.5q-81 0 -122.5 47.5t-41.5 138.5q0 22 1 34l16 197q4 43 34.5 69.5t79.5 26.5q48 0 73 -26.5t21 -69.5l-16 -186q-2 -34 10.5 -53.5t39.5 -19.5
q28 0 43.5 20.5t18.5 56.5l15 182q4 43 34 69.5t79 26.5q48 0 73.5 -26.5zM433 768q22 0 39 -14t17 -34q0 -17 -13 -36l-70 -90q-14 -20 -35.5 -30.5t-44.5 -10.5q-22 0 -40.5 10.5t-30.5 30.5l-58 99q-9 15 -9 29q0 20 16.5 33t39.5 13q19 0 36 -10.5t27 -31.5l29 -65
l39 71q19 36 58 36z" />
    <glyph glyph-name="uni01E5" unicode="&#x1e5;" horiz-adv-x="642" 
d="M650.5 16.5q17.5 -14.5 17.5 -38.5t-17.5 -39t-44.5 -15h-32q-37 -80 -108 -125t-175 -45q-45 0 -93 12t-83 34q-23 11 -34 27t-11 33q0 24 18.5 41t45.5 17q16 0 32 -6q69 -22 113 -22q54 0 84 34h-89q-26 0 -43.5 15t-17.5 39t17.5 38.5t43.5 14.5h126l2 27l3 51
q-53 -55 -144 -55q-211 0 -211 187q0 73 30.5 133.5t86 96t125.5 35.5q48 0 83.5 -15.5t63.5 -45.5q12 27 39 43t64 16q47 0 72.5 -26.5t21.5 -69.5l-27 -340q-2 -24 -4 -37h1q27 0 44.5 -14.5zM397 204q23 22 23 57q0 93 -81 93q-39 0 -61.5 -26.5t-22.5 -74.5
q0 -33 22 -52t59 -19q38 0 61 22z" />
    <glyph glyph-name="Gcaron" unicode="&#x1e6;" horiz-adv-x="750" 
d="M692 387.5q19 -19.5 16 -53.5l-12 -154q-5 -60 -16 -91.5t-36 -49.5t-74 -32q-87 -17 -168 -17q-107 0 -186.5 43t-123 121.5t-43.5 183.5q0 113 48 198.5t137 132t208 46.5q70 0 119 -11.5t97 -27.5q27 -16 40.5 -38.5t13.5 -46.5q0 -34 -23 -58.5t-57 -24.5
q-25 0 -50 14q-8 2 -29 9t-47.5 11.5t-60.5 4.5q-85 0 -132 -57t-47 -154q0 -183 169 -183q36 0 68 8l8 102h-42q-81 0 -81 69q0 35 23.5 55t61.5 20h164q36 0 55 -19.5zM565 926q18 0 30.5 -10.5t12.5 -26.5q0 -18 -17 -38l-66 -68q-23 -24 -65 -24q-19 0 -36.5 6t-26.5 18
l-55 68q-11 14 -11 29q0 19 16.5 33t37.5 14q30 0 47 -29l30 -52l46 51q25 29 57 29z" />
    <glyph glyph-name="gcaron" unicode="&#x1e7;" horiz-adv-x="642" 
d="M589 477.5q25 -26.5 22 -69.5l-27 -340q-10 -125 -95 -191t-238 -66q-45 0 -93 8t-83 23q-23 12 -34.5 30.5t-11.5 39.5q0 30 20.5 54t50.5 24q15 0 26 -5q6 0 19.5 -3t20.5 -5q60 -15 92 -15q57 0 86 21.5t33 69.5l1 10q-52 -50 -142 -50q-62 0 -110 28.5t-74.5 80
t-26.5 119.5q0 73 30.5 133.5t86 96t125.5 35.5q48 0 83.5 -15.5t64.5 -45.5q12 27 38.5 43t63.5 16q47 0 72 -26.5zM372 193q23 26 23 68q0 93 -81 93q-39 0 -61.5 -26.5t-22.5 -74.5q0 -40 22 -63t59 -23q38 0 61 26zM450 768q22 0 39 -14t17 -34q0 -17 -13 -36l-70 -90
q-14 -20 -35.5 -30.5t-44.5 -10.5q-22 0 -40.5 10.5t-30.5 30.5l-58 99q-9 15 -9 29q0 20 16.5 33t39.5 13q19 0 36 -10.5t27 -31.5l29 -65l39 71q19 36 58 36z" />
    <glyph glyph-name="uni01E9" unicode="&#x1e9;" horiz-adv-x="605" 
d="M538 149q20 -24 20 -53q0 -26 -15.5 -50.5t-40.5 -39t-52 -14.5q-39 0 -68 33l-134 175l-8 -108q-4 -48 -36 -72.5t-76 -24.5t-72 24t-24 71l41 523q4 48 35 72.5t76 24.5q44 0 72.5 -24t24.5 -71l-25 -314l160 174q30 31 69 31q38 0 67 -27.5t29 -64.5q0 -34 -29 -63
l-90 -97zM491 896q18 0 30.5 -10.5t12.5 -26.5q0 -18 -17 -38l-66 -68q-23 -24 -65 -24q-19 0 -36.5 6t-26.5 18l-55 68q-11 14 -11 29q0 19 16.5 33t37.5 14q30 0 47 -29l30 -52l46 51q25 29 57 29z" />
    <glyph glyph-name="uni01EA" unicode="&#x1ea;" horiz-adv-x="806" 
d="M464.5 -21q-16.5 -15 -16.5 -36t13.5 -32.5t34.5 -11.5q3 0 40 5q17 2 27.5 -8.5t10.5 -27.5q0 -27 -25 -42q-45 -26 -90 -26q-62 0 -99.5 30.5t-37.5 79.5q0 48 33 82q-93 8 -162 52t-106.5 118t-37.5 171q0 114 45.5 201t128.5 134.5t192 47.5q111 0 192 -41.5
t124 -119t43 -183.5q0 -99 -33.5 -176.5t-93 -127t-135.5 -66.5q-31 -8 -47.5 -23zM519 211q41 58 41 161q0 86 -37.5 133t-104.5 47q-73 0 -114 -58t-41 -160q0 -88 37 -134.5t107 -46.5q71 0 112 58z" />
    <glyph glyph-name="uni01EB" unicode="&#x1eb;" horiz-adv-x="614" 
d="M353.5 -19.5q-15.5 -14.5 -15.5 -37.5q0 -21 13.5 -32.5t35.5 -11.5q11 0 25.5 3t14.5 2q16 4 26.5 -7.5t10.5 -29.5q0 -12 -6 -23.5t-18 -17.5q-49 -26 -91 -26q-62 0 -99.5 31t-37.5 80q0 27 10 46.5t30 37.5q-107 14 -167.5 79t-60.5 164q0 84 35.5 144.5t99.5 92
t149 31.5q86 0 150 -30.5t98.5 -86.5t34.5 -129q0 -111 -52 -172.5t-146 -86.5q-24 -6 -39.5 -20.5zM386 265q0 47 -17 68t-57 21q-83 0 -83 -119q0 -48 18 -70t56 -22q83 0 83 122z" />
    <glyph glyph-name="uni01EF" unicode="&#x1ef;" horiz-adv-x="594" 
d="M33 -63q0 29 22.5 49t53.5 20q30 0 57 -20q47 -33 92 -33q43 0 69.5 29.5t26.5 78.5q0 25 -24.5 33t-62.5 8l-3 1q-42 1 -66.5 21t-24.5 50q0 17 9 35t27 33l124 100h-163q-40 0 -63 22.5t-23 53.5t23 53.5t63 22.5h328q37 0 56 -18.5t19 -47.5q0 -22 -12 -46t-35 -43
l-134 -105q13 0 22.5 -1t16.5 -2q54 -13 89 -52.5t35 -113.5q0 -72 -43 -131t-113 -92.5t-145 -33.5q-54 0 -103.5 18t-89.5 55q-28 27 -28 56zM396 764q22 0 39 -14t17 -34q0 -17 -13 -36l-70 -90q-14 -20 -35.5 -30.5t-44.5 -10.5q-22 0 -40.5 10.5t-30.5 30.5l-58 99
q-9 15 -9 29q0 20 16.5 33t39.5 13q19 0 36 -10.5t27 -31.5l29 -65l39 71q19 36 58 36z" />
    <glyph glyph-name="Aringacute" unicode="&#x1fa;" horiz-adv-x="771" 
d="M745 88q0 -40 -33 -66.5t-73 -26.5q-27 0 -48.5 14t-31.5 42l-30 84h-294l-42 -82q-15 -29 -39 -43.5t-52 -14.5q-38 0 -67.5 24.5t-29.5 61.5q0 25 14 49l320 580q-25 30 -25 72q0 48 33.5 81t82.5 33q26 0 50 -11l1 1l91 51q30 18 55 18q28 0 46 -19t18 -44t-17.5 -45
t-52.5 -28l-78 -11q3 -12 3 -26q0 -25 -10 -47t-27 -37l230 -577q6 -18 6 -33zM401.5 811q-11.5 -12 -11.5 -29t11.5 -29.5t28.5 -12.5t28 12t11 30q0 17 -11 29t-28 12t-28.5 -12zM473 295l-64 184l-93 -184h157z" />
    <glyph glyph-name="aringacute" unicode="&#x1fb;" horiz-adv-x="559" 
d="M498 862q29 0 49 -20.5t20 -47.5q0 -19 -13 -37t-40 -29l-89 -28q7 -15 7 -38q0 -48 -34 -81.5t-82 -33.5q-49 0 -83 33t-34 82q0 48 34 81t83 33q22 0 43 -8l1 1l77 65q29 28 61 28zM344 632q11 12 11 30q0 17 -11 29t-28 12t-28.5 -12t-11.5 -29t11.5 -29.5t28.5 -12.5
t28 12zM521 300q0 -12 -2 -36l-13 -175q-5 -45 -32.5 -70.5t-74.5 -25.5q-35 0 -58.5 18t-28.5 48q-17 -32 -48.5 -50t-73.5 -18q-49 0 -88.5 19.5t-62.5 54t-23 75.5q0 58 28 93t87.5 51t158.5 16h37q3 56 -72 56q-22 0 -78 -14l-21 -5q-19 -8 -39 -8q-30 0 -48 18.5
t-18 45.5q0 21 12.5 41.5t37.5 34.5q74 37 182 37q238 0 238 -206zM297.5 149q18.5 21 21.5 55v5h-26q-79 0 -79 -45q0 -16 11 -26t28 -10q26 0 44.5 21z" />
    <glyph glyph-name="AEacute" unicode="&#x1fc;" horiz-adv-x="1008" 
d="M652 541l15 -100h228q47 0 71 -19.5t24 -55.5q0 -47 -26.5 -68t-82.5 -21h-189l17 -113h185q46 0 70 -20t24 -57q0 -46 -27 -66.5t-82 -20.5h-262q-35 0 -58.5 15t-27.5 40l-12 80h-265l-54 -81q-22 -33 -51 -49t-59 -16q-36 0 -61.5 22.5t-25.5 58.5q0 39 31 81l362 497
q19 27 52.5 42t71.5 15h417q47 0 71 -19.5t24 -55.5q0 -46 -27.5 -67.5t-82.5 -21.5h-270zM495 295l-25 164l-109 -164h134zM576 761q-17 0 -29.5 11.5t-12.5 28.5q0 15 10 29l50 72q18 27 46 27q23 0 42 -17.5t19 -39.5t-20 -41l-66 -54q-17 -16 -39 -16z" />
    <glyph glyph-name="aeacute" unicode="&#x1fd;" horiz-adv-x="824" 
d="M786 219.5q-13 -13.5 -36 -13.5h-233q14 -64 90 -64q20 0 33.5 2.5t27 7.5t21.5 7q16 8 34 8q25 0 39.5 -19t14.5 -47q0 -24 -11 -46t-33 -35q-26 -14 -63.5 -21.5t-80.5 -7.5q-65 0 -115 22t-82 63q-30 -41 -78 -63t-104 -22q-59 0 -103 19.5t-67.5 53t-23.5 76.5
q0 58 28 93t87.5 51t158.5 16h31q1 30 -15.5 43t-54.5 13q-20 0 -68 -13l-27 -6q-19 -8 -39 -8q-30 0 -48 18.5t-18 45.5q0 21 12.5 41.5t37.5 34.5q74 37 197 37q95 0 145 -48q62 48 143 48q64 0 112 -30.5t74.5 -87t26.5 -132.5q0 -23 -13 -36.5zM538.5 352.5
q-15.5 -15.5 -21.5 -52.5h113q-5 68 -52 68q-24 0 -39.5 -15.5zM294.5 148q17.5 20 19.5 51l1 10h-22q-79 0 -79 -50q0 -14 11 -22.5t28 -8.5q24 0 41.5 20zM456 555q-18 0 -30 11t-12 29q0 14 8 29l37 103q11 22 28 33t36 11q27 0 48 -18.5t21 -44.5q0 -25 -22 -50l-61 -77
q-23 -26 -53 -26z" />
    <glyph glyph-name="Oslashacute" unicode="&#x1fe;" horiz-adv-x="806" 
d="M749.5 513.5q24.5 -63.5 24.5 -141.5q0 -114 -45.5 -201t-128 -134.5t-191.5 -47.5q-70 0 -135 19l-28 -43q-27 -41 -70 -41q-30 0 -52 20.5t-22 49.5q0 25 15 47l28 42q-46 46 -71 109t-25 141q0 114 45.5 201t128.5 134.5t192 47.5q72 0 135 -19l29 43q27 41 70 41
q29 0 51 -20t22 -49q0 -23 -16 -48l-28 -42q47 -45 71.5 -108.5zM269 271l183 277q-13 4 -34 4q-73 0 -114 -58t-41 -160q0 -34 6 -63zM519 211q41 58 41 161q0 34 -6 61l-182 -277q16 -3 35 -3q71 0 112 58zM469 761q-17 0 -29.5 11.5t-12.5 28.5q0 15 10 29l50 72
q18 27 46 27q23 0 42 -17.5t19 -39.5t-20 -41l-66 -54q-17 -16 -39 -16z" />
    <glyph glyph-name="oslashacute" unicode="&#x1ff;" horiz-adv-x="614" 
d="M568 369q23 -49 23 -109q0 -84 -35 -144.5t-99 -92.5t-149 -32q-53 0 -103 13l-27 -40q-15 -25 -46 -25q-21 0 -37 12.5t-16 30.5q0 12 9 26l26 39q-44 33 -67 82t-23 109q0 84 35.5 144.5t99.5 92t149 31.5q57 0 102 -13l26 39q17 26 48 26q21 0 36.5 -12t15.5 -30
q0 -14 -9 -27l-26 -39q44 -32 67 -81zM226 215l93 141h-7q-87 0 -87 -121q0 -13 1 -20zM392 265q0 14 -1 20l-95 -143h7q89 0 89 123zM349 555q-18 0 -30 11t-12 29q0 14 8 29l37 103q11 22 28 33t36 11q27 0 48 -18.5t21 -44.5q0 -25 -22 -50l-61 -77q-23 -26 -53 -26z" />
    <glyph glyph-name="uni0200" unicode="&#x200;" horiz-adv-x="771" 
d="M745 88q0 -40 -33 -66.5t-73 -26.5q-27 0 -48.5 14t-31.5 42l-30 84h-294l-42 -82q-15 -29 -39 -43t-51 -14q-38 0 -68 24.5t-30 61.5q0 24 14 48l288 517q17 32 49 49t67 17t64 -17t41 -47l211 -528q6 -18 6 -33zM473 295l-64 184l-93 -184h157zM258 857q-8 13 -8 28
q0 19 14 31.5t33 12.5q14 0 26.5 -8.5t18.5 -25.5l30 -78q3 -9 3 -17q0 -16 -11.5 -27t-26.5 -11q-23 0 -36 23zM406 857q-8 13 -8 28q0 19 14 31.5t33 12.5q31 0 44 -34l31 -78q3 -9 3 -16q0 -17 -12 -28t-28 -11q-23 0 -36 23z" />
    <glyph glyph-name="uni0201" unicode="&#x201;" horiz-adv-x="559" 
d="M462 455q59 -51 59 -155q0 -12 -2 -36l-13 -175q-5 -46 -33 -71t-74 -25q-35 0 -58.5 18t-28.5 48q-17 -32 -49 -50t-73 -18q-49 0 -88.5 19.5t-62.5 54t-23 75.5q0 58 27.5 92.5t87.5 51t159 16.5h37q3 56 -72 56q-22 0 -78 -14l-21 -5q-19 -8 -39 -8q-30 0 -48 18.5
t-18 45.5q0 21 12.5 41.5t37.5 34.5q74 37 182 37q120 0 179 -51zM297.5 149q18.5 21 21.5 55v5h-26q-41 0 -60 -11t-19 -34q0 -16 10.5 -26t28.5 -10q26 0 44.5 21zM157 699q-3 12 -3 21q0 24 16 38t37 14t36.5 -15t16.5 -42l7 -121q1 -22 -9.5 -34.5t-25.5 -12.5
q-12 0 -23 8.5t-16 24.5zM304 700q-3 11 -3 21q0 23 16 37t37 14t37 -14.5t17 -42.5l5 -121q1 -22 -8.5 -34.5t-24.5 -12.5q-13 0 -24 8.5t-16 24.5z" />
    <glyph glyph-name="uni0202" unicode="&#x202;" horiz-adv-x="771" 
d="M745 88q0 -40 -33 -66.5t-73 -26.5q-27 0 -48.5 14t-31.5 42l-30 84h-294l-42 -82q-15 -29 -39 -43t-51 -14q-38 0 -68 24.5t-30 61.5q0 24 14 48l288 517q17 32 49 49t67 17t64 -17t41 -47l211 -528q6 -18 6 -33zM473 295l-64 184l-93 -184h157zM530 896q42 -19 65 -52
q11 -16 11 -29q0 -18 -14.5 -29.5t-33.5 -11.5q-21 0 -39 15q-15 11 -39.5 17t-53.5 6q-24 0 -50 -6.5t-42 -16.5q-20 -16 -41 -16q-17 0 -28.5 10t-11.5 26q0 18 14 35q25 32 66.5 51.5t95.5 19.5q59 0 101 -19z" />
    <glyph glyph-name="uni0203" unicode="&#x203;" horiz-adv-x="559" 
d="M462 455q59 -51 59 -155q0 -12 -2 -36l-13 -175q-5 -46 -33 -71t-74 -25q-35 0 -58.5 18t-28.5 48q-17 -32 -49 -50t-73 -18q-49 0 -88.5 19.5t-62.5 54t-23 75.5q0 58 27.5 92.5t87.5 51t159 16.5h37q3 56 -72 56q-22 0 -78 -14l-21 -5q-19 -8 -39 -8q-30 0 -48 18.5
t-18 45.5q0 21 12.5 41.5t37.5 34.5q74 37 182 37q120 0 179 -51zM297.5 149q18.5 21 21.5 55v5h-26q-41 0 -60 -11t-19 -34q0 -16 10.5 -26t28.5 -10q26 0 44.5 21zM426.5 726.5q47.5 -32.5 69.5 -84.5q4 -9 4 -19q0 -20 -15.5 -33t-35.5 -13q-27 0 -41 22q-14 21 -41 35
t-57 14q-57 0 -97 -49q-17 -24 -44 -24q-19 0 -32 12t-13 32q0 13 5 23q22 52 72 84.5t114 32.5t111.5 -32.5z" />
    <glyph glyph-name="uni0204" unicode="&#x204;" horiz-adv-x="602" 
d="M290 541l-8 -100h207q47 0 71 -19.5t24 -55.5q0 -46 -26.5 -67.5t-81.5 -21.5h-207l-9 -113h228q47 0 71 -20t24 -57q0 -45 -27.5 -66t-82.5 -21h-337q-44 0 -67.5 22t-23.5 62l1 14l40 508q5 47 32.5 73t75.5 26h337q47 0 71 -20t24 -55q0 -47 -27 -68t-83 -21h-226z
M209 857q-8 13 -8 28q0 19 14 31.5t33 12.5q14 0 26.5 -8.5t18.5 -25.5l30 -78q3 -9 3 -17q0 -16 -11.5 -27t-26.5 -11q-23 0 -36 23zM357 857q-8 13 -8 28q0 19 14 31.5t33 12.5q31 0 44 -34l31 -78q3 -9 3 -16q0 -17 -12 -28t-28 -11q-23 0 -36 23z" />
    <glyph glyph-name="uni0205" unicode="&#x205;" horiz-adv-x="537" 
d="M501 219.5q-13 -13.5 -36 -13.5h-241q14 -64 94 -64q22 0 36 3t28 7.5t21 6.5q17 8 34 8q25 0 39.5 -19t14.5 -47q0 -24 -11 -46t-33 -35q-26 -14 -63.5 -21.5t-81.5 -7.5q-82 0 -145 30.5t-98 86t-35 128.5q0 76 33.5 138t92.5 97t131 35q110 0 171.5 -66.5t61.5 -183.5
q0 -23 -13 -36.5zM245 352q-15 -16 -21 -52h120q-2 34 -15.5 51t-41.5 17q-27 0 -42 -16zM150 699q-3 12 -3 21q0 24 16 38t37 14t36.5 -15t16.5 -42l7 -121q1 -22 -9.5 -34.5t-25.5 -12.5q-12 0 -23 8.5t-16 24.5zM297 700q-3 11 -3 21q0 23 16 37t37 14t37 -14.5t17 -42.5
l5 -121q1 -22 -8.5 -34.5t-24.5 -12.5q-13 0 -24 8.5t-16 24.5z" />
    <glyph glyph-name="uni0206" unicode="&#x206;" horiz-adv-x="602" 
d="M290 541l-8 -100h207q47 0 71 -19.5t24 -55.5q0 -46 -26.5 -67.5t-81.5 -21.5h-207l-9 -113h228q47 0 71 -20t24 -57q0 -45 -27.5 -66t-82.5 -21h-337q-44 0 -67.5 22t-23.5 62l1 14l40 508q5 47 32.5 73t75.5 26h337q47 0 71 -20t24 -55q0 -47 -27 -68t-83 -21h-226z
M481 896q42 -19 65 -52q11 -16 11 -29q0 -18 -14.5 -29.5t-33.5 -11.5q-21 0 -39 15q-15 11 -39.5 17t-53.5 6q-24 0 -50 -6.5t-42 -16.5q-20 -16 -41 -16q-17 0 -28.5 10t-11.5 26q0 18 14 35q25 32 66.5 51.5t95.5 19.5q59 0 101 -19z" />
    <glyph glyph-name="uni0207" unicode="&#x207;" horiz-adv-x="537" 
d="M501 219.5q-13 -13.5 -36 -13.5h-241q14 -64 94 -64q22 0 36 3t28 7.5t21 6.5q17 8 34 8q25 0 39.5 -19t14.5 -47q0 -24 -11 -46t-33 -35q-26 -14 -63.5 -21.5t-81.5 -7.5q-82 0 -145 30.5t-98 86t-35 128.5q0 76 33.5 138t92.5 97t131 35q110 0 171.5 -66.5t61.5 -183.5
q0 -23 -13 -36.5zM245 352q-15 -16 -21 -52h120q-2 34 -15.5 51t-41.5 17q-27 0 -42 -16zM419.5 726.5q47.5 -32.5 69.5 -84.5q4 -9 4 -19q0 -20 -15.5 -33t-35.5 -13q-27 0 -41 22q-14 21 -41 35t-57 14q-57 0 -97 -49q-17 -24 -44 -24q-19 0 -32 12t-13 32q0 13 5 23
q22 52 72 84.5t114 32.5t111.5 -32.5z" />
    <glyph glyph-name="uni0208" unicode="&#x208;" horiz-adv-x="329" 
d="M71.5 18q-26.5 25 -26.5 68l1 13l40 504q4 49 35 78t81 29q47 0 73.5 -24.5t26.5 -66.5l-1 -13l-40 -504q-4 -50 -35 -79.5t-82 -29.5q-46 0 -72.5 25zM38 857q-8 13 -8 28q0 19 14 31.5t33 12.5q14 0 26.5 -8.5t18.5 -25.5l30 -78q3 -9 3 -17q0 -16 -11.5 -27t-26.5 -11
q-23 0 -36 23zM186 857q-8 13 -8 28q0 19 14 31.5t33 12.5q31 0 44 -34l31 -78q3 -9 3 -16q0 -17 -12 -28t-28 -11q-23 0 -36 23z" />
    <glyph glyph-name="uni0209" unicode="&#x209;" horiz-adv-x="297" 
d="M56.5 17.5q-28.5 24.5 -24.5 71.5l26 318q4 48 35.5 72.5t76.5 24.5q44 0 72 -24.5t24 -72.5l-26 -318q-4 -47 -35 -71.5t-75 -24.5q-45 0 -73.5 24.5zM22 699q-3 12 -3 21q0 24 16 38t37 14t36.5 -15t16.5 -42l7 -121q1 -22 -9.5 -34.5t-25.5 -12.5q-12 0 -23 8.5
t-16 24.5zM169 700q-3 11 -3 21q0 23 16 37t37 14t37 -14.5t17 -42.5l5 -121q1 -22 -8.5 -34.5t-24.5 -12.5q-13 0 -24 8.5t-16 24.5z" />
    <glyph glyph-name="uni020A" unicode="&#x20a;" horiz-adv-x="329" 
d="M71.5 18q-26.5 25 -26.5 68l1 13l40 504q4 49 35 78t81 29q47 0 73.5 -24.5t26.5 -66.5l-1 -13l-40 -504q-4 -50 -35 -79.5t-82 -29.5q-46 0 -72.5 25zM310 896q42 -19 65 -52q11 -16 11 -29q0 -18 -14.5 -29.5t-33.5 -11.5q-21 0 -39 15q-15 11 -39.5 17t-53.5 6
q-24 0 -50 -6.5t-42 -16.5q-20 -16 -41 -16q-17 0 -28.5 10t-11.5 26q0 18 14 35q25 32 66.5 51.5t95.5 19.5q59 0 101 -19z" />
    <glyph glyph-name="uni020B" unicode="&#x20b;" horiz-adv-x="297" 
d="M56.5 17.5q-28.5 24.5 -24.5 71.5l26 318q4 48 35.5 72.5t76.5 24.5q44 0 72 -24.5t24 -72.5l-26 -318q-4 -47 -35 -71.5t-75 -24.5q-45 0 -73.5 24.5zM291.5 726.5q47.5 -32.5 69.5 -84.5q4 -9 4 -19q0 -20 -15.5 -33t-35.5 -13q-27 0 -41 22q-14 21 -41 35t-57 14
q-57 0 -97 -49q-17 -24 -44 -24q-19 0 -32 12t-13 32q0 13 5 23q22 52 72 84.5t114 32.5t111.5 -32.5z" />
    <glyph glyph-name="uni020C" unicode="&#x20c;" horiz-adv-x="806" 
d="M218.5 31q-81.5 42 -125.5 119.5t-44 182.5q0 114 45.5 201t128.5 134.5t192 47.5t190 -42t125 -119.5t44 -182.5q0 -114 -45.5 -201t-128 -134.5t-191.5 -47.5t-190.5 42zM519 211q41 58 41 161q0 86 -37.5 133t-104.5 47q-73 0 -114 -58t-41 -160q0 -88 37 -134.5
t107 -46.5q71 0 112 58zM276 857q-8 13 -8 28q0 19 14 31.5t33 12.5q14 0 26.5 -8.5t18.5 -25.5l30 -78q3 -9 3 -17q0 -16 -11.5 -27t-26.5 -11q-23 0 -36 23zM424 857q-8 13 -8 28q0 19 14 31.5t33 12.5q31 0 44 -34l31 -78q3 -9 3 -16q0 -17 -12 -28t-28 -11q-23 0 -36 23
z" />
    <glyph glyph-name="uni020D" unicode="&#x20d;" horiz-adv-x="614" 
d="M157 21.5q-64 30.5 -98.5 86.5t-34.5 130q0 84 35.5 144.5t99.5 92t149 31.5q86 0 150 -30.5t98.5 -86t34.5 -129.5q0 -84 -35 -144.5t-99 -92.5t-149 -32q-87 0 -151 30.5zM386 265q0 47 -17 68t-57 21q-83 0 -83 -119q0 -48 18 -70t56 -22q83 0 83 122zM181 699
q-3 12 -3 21q0 24 16 38t37 14t36.5 -15t16.5 -42l7 -121q1 -22 -9.5 -34.5t-25.5 -12.5q-12 0 -23 8.5t-16 24.5zM328 700q-3 11 -3 21q0 23 16 37t37 14t37 -14.5t17 -42.5l5 -121q1 -22 -8.5 -34.5t-24.5 -12.5q-13 0 -24 8.5t-16 24.5z" />
    <glyph glyph-name="uni020E" unicode="&#x20e;" horiz-adv-x="806" 
d="M218.5 31q-81.5 42 -125.5 119.5t-44 182.5q0 114 45.5 201t128.5 134.5t192 47.5t190 -42t125 -119.5t44 -182.5q0 -114 -45.5 -201t-128 -134.5t-191.5 -47.5t-190.5 42zM519 211q41 58 41 161q0 86 -37.5 133t-104.5 47q-73 0 -114 -58t-41 -160q0 -88 37 -134.5
t107 -46.5q71 0 112 58zM548 896q42 -19 65 -52q11 -16 11 -29q0 -18 -14.5 -29.5t-33.5 -11.5q-21 0 -39 15q-15 11 -39.5 17t-53.5 6q-24 0 -50 -6.5t-42 -16.5q-20 -16 -41 -16q-17 0 -28.5 10t-11.5 26q0 18 14 35q25 32 66.5 51.5t95.5 19.5q59 0 101 -19z" />
    <glyph glyph-name="uni020F" unicode="&#x20f;" horiz-adv-x="614" 
d="M157 21.5q-64 30.5 -98.5 86.5t-34.5 130q0 84 35.5 144.5t99.5 92t149 31.5q86 0 150 -30.5t98.5 -86t34.5 -129.5q0 -84 -35 -144.5t-99 -92.5t-149 -32q-87 0 -151 30.5zM386 265q0 47 -17 68t-57 21q-83 0 -83 -119q0 -48 18 -70t56 -22q83 0 83 122zM450.5 726.5
q47.5 -32.5 69.5 -84.5q4 -9 4 -19q0 -20 -15.5 -33t-35.5 -13q-27 0 -41 22q-14 21 -41 35t-57 14q-57 0 -97 -49q-17 -24 -44 -24q-19 0 -32 12t-13 32q0 13 5 23q22 52 72 84.5t114 32.5t111.5 -32.5z" />
    <glyph glyph-name="uni0210" unicode="&#x210;" horiz-adv-x="713" 
d="M629 129q10 -21 10 -42q0 -41 -33.5 -70t-76.5 -29q-29 0 -53 14.5t-39 45.5l-80 176q-5 14 -17.5 22t-26.5 8h-44l-11 -152q-4 -50 -34.5 -79.5t-79.5 -29.5t-75.5 29t-22.5 77l40 507q5 48 32 73.5t75 25.5h260q74 0 128 -27t82 -75t28 -111q0 -95 -42.5 -150
t-133.5 -73q30 -5 50 -22t36 -50zM413 413q38 0 58 17.5t20 49.5t-16 48t-53 16h-132l-9 -131h132zM235 857q-8 13 -8 28q0 19 14 31.5t33 12.5q14 0 26.5 -8.5t18.5 -25.5l30 -78q3 -9 3 -17q0 -16 -11.5 -27t-26.5 -11q-23 0 -36 23zM383 857q-8 13 -8 28q0 19 14 31.5
t33 12.5q31 0 44 -34l31 -78q3 -9 3 -16q0 -17 -12 -28t-28 -11q-23 0 -36 23z" />
    <glyph glyph-name="uni0211" unicode="&#x211;" horiz-adv-x="440" 
d="M458.5 488.5q20.5 -17.5 20.5 -53.5l-1 -13q-5 -48 -28 -68t-83 -27l-27 -3q-35 -4 -52.5 -13t-25 -25.5t-10.5 -47.5l-12 -149q-4 -47 -35 -71.5t-75 -24.5q-45 0 -73.5 24.5t-24.5 71.5l26 321q4 45 36 69.5t74 24.5q38 0 62 -19t26 -55q28 32 66 51.5t70 21.5l13 1
q33 2 53.5 -15.5zM123 699q-3 12 -3 21q0 24 16 38t37 14t36.5 -15t16.5 -42l7 -121q1 -22 -9.5 -34.5t-25.5 -12.5q-12 0 -23 8.5t-16 24.5zM270 700q-3 11 -3 21q0 23 16 37t37 14t37 -14.5t17 -42.5l5 -121q1 -22 -8.5 -34.5t-24.5 -12.5q-13 0 -24 8.5t-16 24.5z" />
    <glyph glyph-name="uni0212" unicode="&#x212;" horiz-adv-x="713" 
d="M629 129q10 -21 10 -42q0 -41 -33.5 -70t-76.5 -29q-29 0 -53 14.5t-39 45.5l-80 176q-5 14 -17.5 22t-26.5 8h-44l-11 -152q-4 -50 -34.5 -79.5t-79.5 -29.5t-75.5 29t-22.5 77l40 507q5 48 32 73.5t75 25.5h260q74 0 128 -27t82 -75t28 -111q0 -95 -42.5 -150
t-133.5 -73q30 -5 50 -22t36 -50zM413 413q38 0 58 17.5t20 49.5t-16 48t-53 16h-132l-9 -131h132zM507 896q42 -19 65 -52q11 -16 11 -29q0 -18 -14.5 -29.5t-33.5 -11.5q-21 0 -39 15q-15 11 -39.5 17t-53.5 6q-24 0 -50 -6.5t-42 -16.5q-20 -16 -41 -16q-17 0 -28.5 10
t-11.5 26q0 18 14 35q25 32 66.5 51.5t95.5 19.5q59 0 101 -19z" />
    <glyph glyph-name="uni0213" unicode="&#x213;" horiz-adv-x="440" 
d="M458.5 488.5q20.5 -17.5 20.5 -53.5l-1 -13q-5 -48 -28 -68t-83 -27l-27 -3q-35 -4 -52.5 -13t-25 -25.5t-10.5 -47.5l-12 -149q-4 -47 -35 -71.5t-75 -24.5q-45 0 -73.5 24.5t-24.5 71.5l26 321q4 45 36 69.5t74 24.5q38 0 62 -19t26 -55q28 32 66 51.5t70 21.5l13 1
q33 2 53.5 -15.5zM392.5 726.5q47.5 -32.5 69.5 -84.5q4 -9 4 -19q0 -20 -15.5 -33t-35.5 -13q-27 0 -41 22q-14 21 -41 35t-57 14q-57 0 -97 -49q-17 -24 -44 -24q-19 0 -32 12t-13 32q0 13 5 23q22 52 72 84.5t114 32.5t111.5 -32.5z" />
    <glyph glyph-name="uni0214" unicode="&#x214;" horiz-adv-x="751" 
d="M56 274q0 14 2 44l23 285q4 49 34.5 78t79.5 29t75 -28.5t22 -75.5l-23 -297q-1 -10 -1 -29q0 -64 29.5 -95t90.5 -31q42 0 68.5 28.5t32.5 101.5l25 319q5 49 35.5 78t79.5 29q45 0 71 -24.5t26 -66.5l-1 -13l-24 -309q-12 -152 -93.5 -229.5t-231.5 -77.5
q-320 0 -320 284zM249 857q-8 13 -8 28q0 19 14 31.5t33 12.5q14 0 26.5 -8.5t18.5 -25.5l30 -78q3 -9 3 -17q0 -16 -11.5 -27t-26.5 -11q-23 0 -36 23zM397 857q-8 13 -8 28q0 19 14 31.5t33 12.5q31 0 44 -34l31 -78q3 -9 3 -16q0 -17 -12 -28t-28 -11q-23 0 -36 23z" />
    <glyph glyph-name="uni0215" unicode="&#x215;" horiz-adv-x="612" 
d="M558.5 477.5q25.5 -26.5 21.5 -69.5l-26 -320q-3 -41 -33 -68t-77 -27q-35 0 -59 16.5t-31 43.5q-26 -29 -66 -45.5t-88 -16.5q-81 0 -122.5 47.5t-41.5 138.5q0 22 1 34l16 197q4 43 34.5 69.5t79.5 26.5q48 0 73 -26.5t21 -69.5l-16 -186q-2 -34 10.5 -53.5t39.5 -19.5
q28 0 43.5 20.5t18.5 56.5l15 182q4 43 34 69.5t79 26.5q48 0 73.5 -26.5zM178 699q-3 12 -3 21q0 24 16 38t37 14t36.5 -15t16.5 -42l7 -121q1 -22 -9.5 -34.5t-25.5 -12.5q-12 0 -23 8.5t-16 24.5zM325 700q-3 11 -3 21q0 23 16 37t37 14t37 -14.5t17 -42.5l5 -121
q1 -22 -8.5 -34.5t-24.5 -12.5q-13 0 -24 8.5t-16 24.5z" />
    <glyph glyph-name="uni0216" unicode="&#x216;" horiz-adv-x="751" 
d="M56 274q0 14 2 44l23 285q4 49 34.5 78t79.5 29t75 -28.5t22 -75.5l-23 -297q-1 -10 -1 -29q0 -64 29.5 -95t90.5 -31q42 0 68.5 28.5t32.5 101.5l25 319q5 49 35.5 78t79.5 29q45 0 71 -24.5t26 -66.5l-1 -13l-24 -309q-12 -152 -93.5 -229.5t-231.5 -77.5
q-320 0 -320 284zM521 896q42 -19 65 -52q11 -16 11 -29q0 -18 -14.5 -29.5t-33.5 -11.5q-21 0 -39 15q-15 11 -39.5 17t-53.5 6q-24 0 -50 -6.5t-42 -16.5q-20 -16 -41 -16q-17 0 -28.5 10t-11.5 26q0 18 14 35q25 32 66.5 51.5t95.5 19.5q59 0 101 -19z" />
    <glyph glyph-name="uni0217" unicode="&#x217;" horiz-adv-x="612" 
d="M558.5 477.5q25.5 -26.5 21.5 -69.5l-26 -320q-3 -41 -33 -68t-77 -27q-35 0 -59 16.5t-31 43.5q-26 -29 -66 -45.5t-88 -16.5q-81 0 -122.5 47.5t-41.5 138.5q0 22 1 34l16 197q4 43 34.5 69.5t79.5 26.5q48 0 73 -26.5t21 -69.5l-16 -186q-2 -34 10.5 -53.5t39.5 -19.5
q28 0 43.5 20.5t18.5 56.5l15 182q4 43 34 69.5t79 26.5q48 0 73.5 -26.5zM447.5 726.5q47.5 -32.5 69.5 -84.5q4 -9 4 -19q0 -20 -15.5 -33t-35.5 -13q-27 0 -41 22q-14 21 -41 35t-57 14q-57 0 -97 -49q-17 -24 -44 -24q-19 0 -32 12t-13 32q0 13 5 23q22 52 72 84.5
t114 32.5t111.5 -32.5z" />
    <glyph glyph-name="Scommaaccent" unicode="&#x218;" horiz-adv-x="678" 
d="M174.5 3.5q-67.5 13.5 -107.5 33.5q-23 14 -35 36.5t-12 46.5q0 32 20 56t52 24q27 0 54 -16q5 -1 35 -9.5t69.5 -14.5t76.5 -6q98 0 98 39q0 26 -30 41t-92 33q-73 22 -121 43.5t-83 63.5t-35 109q0 69 39.5 121.5t111.5 81.5t167 29q75 0 139 -15.5t98 -38.5
q18 -13 27 -31.5t9 -38.5q0 -34 -21.5 -59t-56.5 -25q-25 0 -54 16q-5 1 -30.5 9t-56.5 13.5t-60 5.5q-45 0 -72 -12.5t-27 -35.5q0 -24 28 -38t91 -32q74 -21 122.5 -42t84 -62.5t35.5 -109.5q0 -110 -83 -169.5t-237 -59.5q-76 0 -143.5 13.5zM370.5 -83
q25.5 -25 25.5 -63q0 -62 -44 -113q-18 -22 -47 -22q-16 0 -27 8t-11 20q0 11 9 23q14 19 21 33h-8q-30 0 -51 16t-21 48q0 33 25 54t58 21q45 0 70.5 -25z" />
    <glyph glyph-name="scommaaccent" unicode="&#x219;" horiz-adv-x="494" 
d="M60 17q-30 12 -45 33.5t-15 45.5q0 30 19.5 52.5t48.5 22.5q18 0 37 -10q30 -12 71 -20t74 -8q42 0 42 14q0 11 -17.5 18.5t-55.5 16.5q-56 15 -93 29.5t-65 45.5t-28 81q0 48 30.5 86.5t87 60t131.5 21.5q28 0 69.5 -6.5t69.5 -15.5q26 -13 38.5 -34t12.5 -44
q0 -29 -17.5 -50t-44.5 -21q-16 0 -31 7q-31 13 -59 18t-59 5q-22 0 -34.5 -3.5t-12.5 -9.5q0 -12 17.5 -19.5t56.5 -17.5q54 -14 91.5 -29.5t65.5 -46.5t28 -80q0 -80 -62 -124t-180 -44q-92 0 -171 26zM284.5 -83q25.5 -25 25.5 -63q0 -62 -44 -113q-18 -22 -47 -22
q-16 0 -27 8t-11 20q0 11 9 23q14 19 21 33h-8q-30 0 -51 16t-21 48q0 33 25 54t58 21q45 0 70.5 -25z" />
    <glyph glyph-name="uni021A" unicode="&#x21a;" horiz-adv-x="642" 
d="M224.5 23.5q-27.5 28.5 -22.5 75.5l35 433h-120q-95 0 -95 78q0 51 27 73t83 22h454q95 0 95 -80q0 -51 -26.5 -72t-83.5 -21h-117l-35 -430q-5 -49 -36.5 -78t-81.5 -29q-49 0 -76.5 28.5zM357.5 -83q25.5 -25 25.5 -63q0 -62 -44 -113q-18 -22 -47 -22q-16 0 -27 8
t-11 20q0 11 9 23q14 19 21 33h-8q-30 0 -51 16t-21 48q0 33 25 54t58 21q45 0 70.5 -25z" />
    <glyph glyph-name="uni021B" unicode="&#x21b;" horiz-adv-x="425" 
d="M417 125q12 -17 12 -45q0 -49 -30.5 -69t-106.5 -20q-100 0 -151.5 48t-51.5 140q0 20 1 30l11 133h-17q-43 0 -66 18.5t-23 52.5q0 41 25 61t77 20h17l4 50q4 45 34 71t78 26q49 0 74.5 -26t21.5 -70l-4 -51h37q42 0 64.5 -18.5t22.5 -51.5q0 -43 -24 -62.5t-76 -19.5
h-37l-11 -135l-1 -14q0 -28 11.5 -41t35.5 -13q8 0 18.5 1.5t22.5 1.5q20 0 32 -17zM299.5 -83q25.5 -25 25.5 -63q0 -62 -44 -113q-18 -22 -47 -22q-16 0 -27 8t-11 20q0 11 9 23q14 19 21 33h-8q-30 0 -51 16t-21 48q0 33 25 54t58 21q45 0 70.5 -25z" />
    <glyph glyph-name="uni021F" unicode="&#x21f;" horiz-adv-x="617" 
d="M539.5 458q41.5 -48 41.5 -141q0 -23 -1 -35l-16 -193q-4 -44 -33 -70t-78 -26q-48 0 -74.5 26.5t-22.5 69.5l16 186q2 34 -11 53.5t-41 19.5q-58 0 -65 -76l-15 -183q-2 -43 -31.5 -69.5t-78.5 -26.5t-75.5 26.5t-22.5 69.5l41 526q3 41 34 67.5t80 26.5q46 0 71.5 -25
t22.5 -64l-13 -166q27 25 65 38.5t83 13.5q82 0 123.5 -48zM461 896q18 0 30.5 -10.5t12.5 -26.5q0 -18 -17 -38l-66 -68q-23 -24 -65 -24q-19 0 -36.5 6t-26.5 18l-55 68q-11 14 -11 29q0 19 16.5 33t37.5 14q30 0 47 -29l30 -52l46 51q25 29 57 29z" />
    <glyph glyph-name="uni0227" unicode="&#x227;" horiz-adv-x="559" 
d="M462 455q59 -51 59 -155q0 -12 -2 -36l-13 -175q-5 -46 -33 -71t-74 -25q-35 0 -58.5 18t-28.5 48q-17 -32 -49 -50t-73 -18q-49 0 -88.5 19.5t-62.5 54t-23 75.5q0 58 27.5 92.5t87.5 51t159 16.5h37q3 56 -72 56q-22 0 -78 -14l-21 -5q-19 -8 -39 -8q-30 0 -48 18.5
t-18 45.5q0 21 12.5 41.5t37.5 34.5q74 37 182 37q120 0 179 -51zM297.5 149q18.5 21 21.5 55v5h-26q-41 0 -60 -11t-19 -34q0 -16 10.5 -26t28.5 -10q26 0 44.5 21zM242.5 597q-27.5 24 -27.5 64t27 63t74 23q45 0 73 -23.5t28 -62.5q0 -40 -27.5 -64t-73.5 -24t-73.5 24z
" />
    <glyph glyph-name="uni0228" unicode="&#x228;" horiz-adv-x="602" 
d="M290 541l-8 -100h207q47 0 71 -19.5t24 -55.5q0 -46 -26.5 -67.5t-81.5 -21.5h-207l-9 -113h228q47 0 71 -20t24 -57q0 -45 -27.5 -66t-82.5 -21h-337q-44 0 -67.5 22t-23.5 62l1 14l40 508q5 47 32.5 73t75.5 26h337q47 0 71 -20t24 -55q0 -47 -27 -68t-83 -21h-226z
M407 -57.5q23 -18.5 23 -50.5q0 -42 -38.5 -66.5t-101.5 -24.5q-48 0 -75 9q-11 3 -17 12t-6 20q0 16 10 28t24 8q14 -3 30 -5t23 -2q23 0 33.5 5t10.5 16q0 7 -7.5 11.5t-19.5 4.5q-8 0 -18.5 -2.5t-15.5 -2.5q-12 0 -16.5 5.5t-1.5 14.5l21 97h92l-15 -59h2q40 0 63 -18.5
z" />
    <glyph glyph-name="uni022A" unicode="&#x22a;" horiz-adv-x="806" 
d="M218.5 31q-81.5 42 -125.5 119.5t-44 182.5q0 114 45.5 201t128.5 134.5t192 47.5t190 -42t125 -119.5t44 -182.5q0 -114 -45.5 -201t-128 -134.5t-191.5 -47.5t-190.5 42zM519 211q41 58 41 161q0 86 -37.5 133t-104.5 47q-73 0 -114 -58t-41 -160q0 -88 37 -134.5
t107 -46.5q71 0 112 58zM289.5 785.5q-23.5 22.5 -23.5 60.5q0 36 23.5 57.5t61.5 21.5q39 0 63 -21.5t24 -57.5q0 -38 -24 -60.5t-63 -22.5q-38 0 -61.5 22.5zM488.5 785.5q-23.5 22.5 -23.5 60.5q0 36 23.5 57.5t63.5 21.5q37 0 61 -21.5t24 -57.5q0 -38 -23.5 -60.5
t-61.5 -22.5q-40 0 -63.5 22.5zM301.5 962.5q-15.5 14.5 -15.5 36.5q0 29 17.5 44t45.5 15h241q23 0 37.5 -14.5t14.5 -37.5q0 -29 -17.5 -43.5t-44.5 -14.5h-242q-21 0 -36.5 14.5z" />
    <glyph glyph-name="uni022B" unicode="&#x22b;" horiz-adv-x="614" 
d="M157 21.5q-64 30.5 -98.5 86.5t-34.5 130q0 84 35.5 144.5t99.5 92t149 31.5q86 0 150 -30.5t98.5 -86t34.5 -129.5q0 -84 -35 -144.5t-99 -92.5t-149 -32q-87 0 -151 30.5zM386 265q0 47 -17 68t-57 21q-83 0 -83 -119q0 -48 18 -70t56 -22q83 0 83 122zM178.5 600.5
q-23.5 22.5 -23.5 60.5q0 37 23.5 59t61.5 22q39 0 63 -22t24 -59q0 -38 -24 -60.5t-63 -22.5q-38 0 -61.5 22.5zM377.5 600.5q-23.5 22.5 -23.5 60.5q0 37 23.5 59t63.5 22q37 0 61 -22t24 -59q0 -38 -23.5 -60.5t-61.5 -22.5q-40 0 -63.5 22.5zM191.5 808
q-14.5 14 -14.5 39q0 27 17.5 41t44.5 14h242q22 0 36.5 -13t14.5 -35q0 -30 -17 -45t-45 -15h-241q-23 0 -37.5 14z" />
    <glyph glyph-name="uni022C" unicode="&#x22c;" horiz-adv-x="806" 
d="M218.5 31q-81.5 42 -125.5 119.5t-44 182.5q0 114 45.5 201t128.5 134.5t192 47.5t190 -42t125 -119.5t44 -182.5q0 -114 -45.5 -201t-128 -134.5t-191.5 -47.5t-190.5 42zM519 211q41 58 41 161q0 86 -37.5 133t-104.5 47q-73 0 -114 -58t-41 -160q0 -88 37 -134.5
t107 -46.5q71 0 112 58zM486 771.5q-18 6.5 -42 17.5q-23 11 -38 16.5t-29 5.5q-13 0 -20.5 -5t-17.5 -15q-7 -9 -15 -14t-20 -5q-16 0 -24.5 10.5t-8.5 28.5q0 26 12.5 52.5t37.5 43.5t59 17q17 0 35 -6t42 -18q44 -21 67 -21q13 0 21 5t17 14t16.5 13.5t19.5 4.5
q32 0 32 -38q0 -26 -12.5 -52.5t-37 -43.5t-58.5 -17q-18 0 -36 6.5zM301.5 962.5q-15.5 14.5 -15.5 36.5q0 29 17.5 44t45.5 15h241q23 0 37.5 -14.5t14.5 -37.5q0 -29 -17.5 -43.5t-44.5 -14.5h-242q-21 0 -36.5 14.5z" />
    <glyph glyph-name="uni022D" unicode="&#x22d;" horiz-adv-x="614" 
d="M157 21.5q-64 30.5 -98.5 86.5t-34.5 130q0 84 35.5 144.5t99.5 92t149 31.5q86 0 150 -30.5t98.5 -86t34.5 -129.5q0 -84 -35 -144.5t-99 -92.5t-149 -32q-87 0 -151 30.5zM386 265q0 47 -17 68t-57 21q-83 0 -83 -119q0 -48 18 -70t56 -22q83 0 83 122zM368 589.5
q-19 7.5 -42 21.5q-19 11 -30.5 16t-24.5 5t-21.5 -6t-20.5 -19q-11 -13 -19 -19t-21 -6q-14 0 -21.5 12.5t-7.5 33.5q0 26 15 53.5t40 45t53 17.5q24 0 43 -7.5t43 -21.5q18 -10 31 -15.5t26 -5.5t21.5 6.5t19.5 19.5q10 12 18.5 18.5t20.5 6.5q30 0 30 -46
q0 -28 -15.5 -55t-41 -44.5t-54.5 -17.5q-23 0 -42 7.5zM191.5 808q-14.5 14 -14.5 39q0 27 17.5 41t44.5 14h242q22 0 36.5 -13t14.5 -35q0 -30 -17 -45t-45 -15h-241q-23 0 -37.5 14z" />
    <glyph glyph-name="uni0230" unicode="&#x230;" horiz-adv-x="806" 
d="M218.5 31q-81.5 42 -125.5 119.5t-44 182.5q0 114 45.5 201t128.5 134.5t192 47.5t190 -42t125 -119.5t44 -182.5q0 -114 -45.5 -201t-128 -134.5t-191.5 -47.5t-190.5 42zM519 211q41 58 41 161q0 86 -37.5 133t-104.5 47q-73 0 -114 -58t-41 -160q0 -88 37 -134.5
t107 -46.5q71 0 112 58zM377.5 780.5q-27.5 24.5 -27.5 65.5q0 39 27.5 62.5t73.5 23.5q45 0 73 -23.5t28 -62.5q0 -41 -27.5 -65.5t-73.5 -24.5t-73.5 24.5zM301.5 962.5q-15.5 14.5 -15.5 36.5q0 29 17.5 44t45.5 15h241q23 0 37.5 -14.5t14.5 -37.5q0 -29 -17.5 -43.5
t-44.5 -14.5h-242q-21 0 -36.5 14.5z" />
    <glyph glyph-name="uni0231" unicode="&#x231;" horiz-adv-x="614" 
d="M157 21.5q-64 30.5 -98.5 86.5t-34.5 130q0 84 35.5 144.5t99.5 92t149 31.5q86 0 150 -30.5t98.5 -86t34.5 -129.5q0 -84 -35 -144.5t-99 -92.5t-149 -32q-87 0 -151 30.5zM386 265q0 47 -17 68t-57 21q-83 0 -83 -119q0 -48 18 -70t56 -22q83 0 83 122zM266.5 597
q-27.5 24 -27.5 64t27 63t74 23q45 0 73 -23.5t28 -62.5q0 -40 -27.5 -64t-73.5 -24t-73.5 24zM191.5 808q-14.5 14 -14.5 39q0 27 17.5 41t44.5 14h242q22 0 36.5 -13t14.5 -35q0 -30 -17 -45t-45 -15h-241q-23 0 -37.5 14z" />
    <glyph glyph-name="uni0232" unicode="&#x232;" horiz-adv-x="666" 
d="M588 714q38 0 67 -29.5t29 -68.5q0 -37 -27 -68l-211 -243l-16 -203q-4 -53 -36.5 -81t-79.5 -28q-48 0 -76 27t-24 79l16 208l-176 247q-16 22 -16 48q0 27 16 52t41.5 40.5t51.5 15.5q43 0 69 -39l132 -193l169 201q29 35 71 35zM217.5 802.5q-15.5 14.5 -15.5 36.5
q0 29 17.5 44t45.5 15h241q23 0 37.5 -14.5t14.5 -37.5q0 -29 -17.5 -43.5t-44.5 -14.5h-242q-21 0 -36.5 14.5z" />
    <glyph glyph-name="uni0233" unicode="&#x233;" horiz-adv-x="549" 
d="M404.5 492.5q23.5 14.5 50.5 14.5q37 0 66 -24t29 -58q0 -18 -11 -40l-270 -515q-16 -29 -38 -43.5t-46 -14.5q-35 0 -60 24t-25 61q0 21 12 47l46 92l-125 353q-4 11 -4 24q0 25 16.5 47t43 35t52.5 13t47 -14.5t31 -43.5l61 -192l87 190q14 30 37.5 44.5zM144.5 619
q-14.5 14 -14.5 39q0 27 17.5 41t44.5 14h242q22 0 36.5 -13t14.5 -35q0 -30 -17 -45t-45 -15h-241q-23 0 -37.5 14z" />
    <glyph glyph-name="uni0237" unicode="&#x237;" horiz-adv-x="297" 
d="M-10 -182q-49 0 -74.5 19t-22.5 58q4 33 23.5 50t60.5 20l29 2q5 0 11 6t7 12l34 423q4 47 36 71.5t77 24.5q44 0 71.5 -24t23.5 -72l-33 -408q-5 -77 -53 -124.5t-134 -54.5l-33 -2q-8 -1 -23 -1z" />
    <glyph glyph-name="uni0259" unicode="&#x259;" horiz-adv-x="537" 
d="M443.5 440q70.5 -66 70.5 -179q0 -76 -34 -137.5t-94 -97t-134 -35.5q-109 0 -168.5 68t-59.5 187q0 20 13 33t36 13h243q-7 33 -28.5 48.5t-58.5 15.5q-28 0 -44 -3t-30 -7.5t-20 -6.5q-17 -8 -34 -8q-25 0 -39.5 19t-14.5 47q0 24 11 46t33 35q56 28 157 28
q125 0 195.5 -66zM292.5 145q16.5 15 22.5 52h-116q-1 -67 49 -67q28 0 44.5 15z" />
    <glyph glyph-name="uni0292" unicode="&#x292;" horiz-adv-x="594" 
d="M33 -63q0 29 22.5 49t53.5 20q30 0 57 -20q47 -33 92 -33q43 0 69.5 29.5t26.5 78.5q0 25 -24.5 33t-62.5 8l-3 1q-42 1 -66.5 21t-24.5 50q0 17 9 35t27 33l124 100h-163q-40 0 -63 22.5t-23 53.5t23 53.5t63 22.5h328q37 0 56 -18.5t19 -47.5q0 -22 -12 -46t-35 -43
l-134 -105q13 0 22.5 -1t16.5 -2q54 -13 89 -52.5t35 -113.5q0 -72 -43 -131t-113 -92.5t-145 -33.5q-54 0 -103.5 18t-89.5 55q-28 27 -28 56z" />
    <glyph glyph-name="uni02BB" unicode="&#x2bb;" horiz-adv-x="332" 
d="M264 702q21 -18 21 -49q0 -33 -25.5 -53t-62.5 -20q-42 0 -66.5 23t-24.5 68q0 34 13 63t31 47q22 22 48 22q16 0 26.5 -7.5t10.5 -20.5q0 -11 -9 -23q-15 -17 -21 -32h8q30 0 51 -18z" />
    <glyph glyph-name="uni02BC" unicode="&#x2bc;" horiz-adv-x="332" 
d="M262 740.5q25 -22.5 25 -67.5q0 -34 -13.5 -64t-30.5 -47q-20 -21 -47 -21q-16 0 -27.5 8t-11.5 20q0 11 10 22q12 15 20 33h-7q-30 0 -51 17.5t-21 48.5q0 34 24.5 53.5t62.5 19.5q42 0 67 -22.5z" />
    <glyph glyph-name="uni02BE" unicode="&#x2be;" horiz-adv-x="304" 
d="M179 617q19 0 31 11.5t12 32.5q0 18 -10 30t-27 12l6 68q43 0 73 -29.5t30 -74.5q0 -54 -35 -86t-86 -32z" />
    <glyph glyph-name="uni02BF" unicode="&#x2bf;" horiz-adv-x="305" 
d="M191 703q-19 0 -31 -11.5t-12 -32.5q0 -17 10 -29.5t27 -12.5l-6 -68q-43 0 -73 29.5t-30 75.5q0 53 35 85t86 32z" />
    <glyph glyph-name="circumflex" unicode="&#x2c6;" horiz-adv-x="321" 
d="M128.5 561q-15.5 -9 -32.5 -9q-22 0 -39 14t-17 35q0 17 13 36l69 91q15 19 36 29.5t44 10.5q22 0 41 -10t31 -30l59 -100q8 -13 8 -28q0 -20 -16.5 -33.5t-39.5 -13.5q-19 0 -36 10.5t-27 31.5l-30 64l-38 -71q-10 -18 -25.5 -27z" />
    <glyph glyph-name="caron" unicode="&#x2c7;" horiz-adv-x="321" 
d="M291 766q22 0 39 -14t17 -34q0 -17 -13 -36l-70 -90q-14 -20 -35.5 -30.5t-44.5 -10.5q-22 0 -40.5 10.5t-30.5 30.5l-58 99q-9 15 -9 29q0 20 16.5 33t39.5 13q19 0 36 -10.5t27 -31.5l29 -65l39 71q19 36 58 36z" />
    <glyph glyph-name="uni02C8" unicode="&#x2c8;" horiz-adv-x="320" 
d="M146 567.5q-14 16.5 -11 40.5l8 103q2 25 17.5 41t41.5 16q25 0 38.5 -16t11.5 -41l-8 -103q-2 -24 -17.5 -40.5t-40.5 -16.5q-26 0 -40 16.5z" />
    <glyph glyph-name="uni02C9" unicode="&#x2c9;" horiz-adv-x="317" 
d="M28.5 617q-14.5 14 -14.5 39q0 27 17.5 41t44.5 14h242q22 0 36.5 -13t14.5 -35q0 -30 -17 -45t-45 -15h-241q-23 0 -37.5 14z" />
    <glyph glyph-name="uni02CA" unicode="&#x2ca;" horiz-adv-x="292" 
d="M197 553q-18 0 -30 11t-12 29q0 14 8 29l37 103q11 22 28 33t36 11q27 0 48 -18.5t21 -44.5q0 -25 -22 -50l-61 -77q-23 -26 -53 -26z" />
    <glyph glyph-name="uni02CB" unicode="&#x2cb;" horiz-adv-x="313" 
d="M56 661q-16 25 -16 46q0 26 20.5 43.5t46.5 17.5q20 0 38 -12t27 -36l37 -98q5 -13 5 -23q0 -20 -14 -32.5t-34 -12.5q-14 0 -28 7t-23 21z" />
    <glyph glyph-name="uni02CC" unicode="&#x2cc;" horiz-adv-x="321" 
d="M80.5 -259.5q-13.5 15.5 -11.5 41.5l9 103q2 25 17.5 41t41.5 16q25 0 38 -16t11 -41l-7 -103q-2 -25 -18 -41t-41 -16q-26 0 -39.5 15.5z" />
    <glyph glyph-name="breve" unicode="&#x2d8;" horiz-adv-x="324" 
d="M85 607.5q-47 32.5 -69 84.5q-4 9 -4 20q0 20 15 33t35 13q26 0 40 -23q15 -21 42.5 -35t57.5 -14q58 0 96 49q17 24 44 24q18 0 31 -12t13 -31q0 -13 -5 -24q-22 -51 -72 -84t-114 -33q-63 0 -110 32.5z" />
    <glyph glyph-name="dotaccent" unicode="&#x2d9;" horiz-adv-x="340" 
d="M129.5 595q-27.5 24 -27.5 64t27 63t74 23q45 0 73 -23.5t28 -62.5q0 -40 -27.5 -64t-73.5 -24t-73.5 24z" />
    <glyph glyph-name="ring" unicode="&#x2da;" horiz-adv-x="310" 
d="M108 581.5q-33 32.5 -33 79.5t33 79t80 32t80 -32t33 -79t-33 -79.5t-80 -32.5t-80 32.5zM217 630q12 12 12 31q0 17 -12 30t-29 13q-18 0 -29.5 -12.5t-11.5 -30.5q0 -19 11.5 -31t29.5 -12q17 0 29 12z" />
    <glyph glyph-name="ogonek" unicode="&#x2db;" horiz-adv-x="317" 
d="M-4 -168.5q-36 30.5 -36 78.5q0 54 43.5 90.5t125.5 46.5l14 -37q-69 -23 -69 -72q0 -21 14.5 -34t37.5 -13q17 0 41 7q3 1 8 1q12 0 19.5 -10t7.5 -24q0 -11 -5.5 -22t-16.5 -17q-44 -25 -88 -25q-60 0 -96 30.5z" />
    <glyph glyph-name="tilde" unicode="&#x2dc;" horiz-adv-x="317" 
d="M219 587.5q-19 7.5 -42 21.5q-19 11 -30.5 16t-24.5 5t-21.5 -6t-20.5 -19q-11 -13 -19 -19t-21 -6q-14 0 -21.5 12.5t-7.5 33.5q0 26 15 53.5t40 45t53 17.5q24 0 43 -7.5t43 -21.5q18 -10 31 -15.5t26 -5.5t21.5 6.5t19.5 19.5q10 12 18.5 18.5t20.5 6.5q30 0 30 -46
q0 -28 -15.5 -55t-41 -44.5t-54.5 -17.5q-23 0 -42 7.5z" />
    <glyph glyph-name="hungarumlaut" unicode="&#x2dd;" horiz-adv-x="319" 
d="M140 555.5q-10 -6.5 -20 -6.5q-14 0 -24 10.5t-10 27.5q0 4 2 14l20 114q5 27 22 41t37 14q21 0 36.5 -14t15.5 -37q0 -18 -10 -38l-53 -107q-6 -12 -16 -18.5zM287 555.5q-10 -6.5 -20 -6.5q-14 0 -24 10.5t-10 27.5q0 4 2 14l20 114q5 27 22 41t37 14q21 0 36 -13.5
t15 -36.5q0 -18 -11 -39l-51 -107q-6 -12 -16 -18.5z" />
    <glyph glyph-name="gravecomb" unicode="&#x300;" horiz-adv-x="0" 
d="M-257 661q-16 25 -16 46q0 26 20.5 43.5t46.5 17.5q20 0 38 -12t27 -36l37 -98q5 -13 5 -23q0 -20 -14 -32.5t-34 -12.5q-14 0 -28 7t-23 21z" />
    <glyph glyph-name="acutecomb" unicode="&#x301;" horiz-adv-x="0" 
d="M-95 553q-18 0 -30 11t-12 29q0 14 8 29l37 103q11 22 28 33t36 11q27 0 48 -18.5t21 -44.5q0 -25 -22 -50l-61 -77q-23 -26 -53 -26z" />
    <glyph glyph-name="uni0302" unicode="&#x302;" horiz-adv-x="0" 
d="M-192.5 561q-15.5 -9 -32.5 -9q-22 0 -39 14t-17 35q0 17 13 36l69 91q15 19 36 29.5t44 10.5q22 0 41 -10t31 -30l59 -100q8 -13 8 -28q0 -20 -16.5 -33.5t-39.5 -13.5q-19 0 -36 10.5t-27 31.5l-30 64l-38 -71q-10 -18 -25.5 -27z" />
    <glyph glyph-name="tildecomb" unicode="&#x303;" horiz-adv-x="0" 
d="M-98 587.5q-19 7.5 -42 21.5q-19 11 -30.5 16t-24.5 5t-21.5 -6t-20.5 -19q-11 -13 -19 -19t-21 -6q-14 0 -21.5 12.5t-7.5 33.5q0 26 15 53.5t40 45t53 17.5q24 0 43 -7.5t43 -21.5q18 -10 31 -15.5t26 -5.5t21.5 6.5t19.5 19.5q10 12 18.5 18.5t20.5 6.5q30 0 30 -46
q0 -28 -15.5 -55t-41 -44.5t-54.5 -17.5q-23 0 -42 7.5z" />
    <glyph glyph-name="uni0304" unicode="&#x304;" horiz-adv-x="0" 
d="M-288.5 617q-14.5 14 -14.5 39q0 27 17.5 41t44.5 14h242q22 0 36.5 -13t14.5 -35q0 -30 -17 -45t-45 -15h-241q-23 0 -37.5 14z" />
    <glyph glyph-name="uni0306" unicode="&#x306;" horiz-adv-x="0" 
d="M-239 607.5q-47 32.5 -69 84.5q-4 9 -4 20q0 20 15 33t35 13q26 0 40 -23q15 -21 42.5 -35t57.5 -14q58 0 96 49q17 24 44 24q18 0 31 -12t13 -31q0 -13 -5 -24q-22 -51 -72 -84t-114 -33q-63 0 -110 32.5z" />
    <glyph glyph-name="uni0307" unicode="&#x307;" horiz-adv-x="0" 
d="M-210.5 595q-27.5 24 -27.5 64t27 63t74 23q45 0 73 -23.5t28 -62.5q0 -40 -27.5 -64t-73.5 -24t-73.5 24z" />
    <glyph glyph-name="uni0308" unicode="&#x308;" horiz-adv-x="0" 
d="M-300.5 598.5q-23.5 22.5 -23.5 60.5q0 37 23.5 59t61.5 22q39 0 63 -22t24 -59q0 -38 -24 -60.5t-63 -22.5q-38 0 -61.5 22.5zM-101.5 598.5q-23.5 22.5 -23.5 60.5q0 37 23.5 59t63.5 22q37 0 61 -22t24 -59q0 -38 -23.5 -60.5t-61.5 -22.5q-40 0 -63.5 22.5z" />
    <glyph glyph-name="hookabovecomb" unicode="&#x309;" horiz-adv-x="0" 
d="M-102 556q-13 -9 -31 -9q-17 0 -29 8.5t-12 24.5q-1 21 9 34t29 29q13 10 18.5 16t5.5 14t-6.5 13t-19.5 5q-18 0 -38 -6q-16 -3 -25.5 7t-9.5 24q0 13 7 23t21 14q29 11 70 11q57 0 86.5 -20.5t29.5 -51.5q0 -26 -15 -42t-42 -33q-19 -12 -27 -19t-8 -17q0 -16 -13 -25z
" />
    <glyph glyph-name="uni030A" unicode="&#x30a;" horiz-adv-x="0" 
d="M-202 581.5q-33 32.5 -33 79.5t33 79t80 32t80 -32t33 -79t-33 -79.5t-80 -32.5t-80 32.5zM-93 630q12 12 12 31q0 17 -12 30t-29 13q-18 0 -29.5 -12.5t-11.5 -30.5q0 -19 11.5 -31t29.5 -12q17 0 29 12z" />
    <glyph glyph-name="uni030B" unicode="&#x30b;" horiz-adv-x="0" 
d="M-179 555.5q-10 -6.5 -20 -6.5q-14 0 -24 10.5t-10 27.5q0 4 2 14l20 114q5 27 22 41t37 14q21 0 36.5 -14t15.5 -37q0 -18 -10 -38l-53 -107q-6 -12 -16 -18.5zM-32 555.5q-10 -6.5 -20 -6.5q-14 0 -24 10.5t-10 27.5q0 4 2 14l20 114q5 27 22 41t37 14q21 0 36 -13.5
t15 -36.5q0 -18 -11 -39l-51 -107q-6 -12 -16 -18.5z" />
    <glyph glyph-name="uni030C" unicode="&#x30c;" horiz-adv-x="0" 
d="M-30 766q22 0 39 -14t17 -34q0 -17 -13 -36l-70 -90q-14 -20 -35.5 -30.5t-44.5 -10.5q-22 0 -40.5 10.5t-30.5 30.5l-58 99q-9 15 -9 29q0 20 16.5 33t39.5 13q19 0 36 -10.5t27 -31.5l29 -65l39 71q19 36 58 36z" />
    <glyph glyph-name="uni030F" unicode="&#x30f;" horiz-adv-x="0" 
d="M-287 697q-3 12 -3 21q0 24 16 38t37 14t36.5 -15t16.5 -42l7 -121q1 -22 -9.5 -34.5t-25.5 -12.5q-12 0 -23 8.5t-16 24.5zM-140 698q-3 11 -3 21q0 23 16 37t37 14t37 -14.5t17 -42.5l5 -121q1 -22 -8.5 -34.5t-24.5 -12.5q-13 0 -24 8.5t-16 24.5z" />
    <glyph glyph-name="uni0311" unicode="&#x311;" horiz-adv-x="0" 
d="M-18.5 724.5q47.5 -32.5 69.5 -84.5q4 -9 4 -19q0 -20 -15.5 -33t-35.5 -13q-27 0 -41 22q-14 21 -41 35t-57 14q-57 0 -97 -49q-17 -24 -44 -24q-19 0 -32 12t-13 32q0 13 5 23q22 52 72 84.5t114 32.5t111.5 -32.5z" />
    <glyph glyph-name="uni0312" unicode="&#x312;" horiz-adv-x="0" 
d="M-66.5 704q20.5 -16 20.5 -48t-25 -54t-58 -22q-45 0 -69.5 25.5t-24.5 63.5q0 34 12.5 63t29.5 49q19 23 49 23q16 0 26.5 -7.5t10.5 -19.5t-10 -25q-13 -17 -19 -32h6q31 0 51.5 -16z" />
    <glyph glyph-name="uni031B" unicode="&#x31b;" horiz-adv-x="0" 
d="M-154 481l-1 15q40 0 58.5 11.5t25.5 44.5q9 45 32.5 63.5t63.5 18.5q38 0 52.5 -15t14.5 -55q0 -32 -19 -66t-52 -57.5t-71 -27.5z" />
    <glyph glyph-name="dotbelowcomb" unicode="&#x323;" horiz-adv-x="0" 
d="M-256.5 -188.5q-23.5 22.5 -23.5 59.5q0 36 23.5 58t62.5 22q37 0 61.5 -22t24.5 -58q0 -37 -23.5 -59.5t-62.5 -22.5t-62.5 22.5z" />
    <glyph glyph-name="uni0324" unicode="&#x324;" horiz-adv-x="0" 
d="M-362.5 -189.5q-23.5 22.5 -23.5 60.5q0 36 23.5 58.5t61.5 22.5q39 0 63 -22.5t24 -58.5q0 -38 -24 -60.5t-63 -22.5q-38 0 -61.5 22.5zM-163.5 -189.5q-23.5 22.5 -23.5 60.5q0 36 24 58.5t63 22.5q37 0 61 -22.5t24 -58.5q0 -38 -23.5 -60.5t-61.5 -22.5
q-40 0 -63.5 22.5z" />
    <glyph glyph-name="uni0326" unicode="&#x326;" horiz-adv-x="0" 
d="M-129.5 -83q25.5 -25 25.5 -63q0 -62 -44 -113q-18 -22 -47 -22q-16 0 -27 8t-11 20q0 11 9 23q14 19 21 33h-8q-30 0 -51 16t-21 48q0 33 25 54t58 21q45 0 70.5 -25z" />
    <glyph glyph-name="uni0327" unicode="&#x327;" horiz-adv-x="0" 
d="M-81 -57.5q23 -18.5 23 -50.5q0 -42 -38.5 -66.5t-101.5 -24.5q-48 0 -75 9q-11 3 -17 12t-6 20q0 16 10 28t24 8q14 -3 30 -5t23 -2q23 0 33.5 5t10.5 16q0 7 -7.5 11.5t-19.5 4.5q-8 0 -18.5 -2.5t-15.5 -2.5q-12 0 -16.5 5.5t-1.5 14.5l21 97h92l-15 -59h2
q40 0 63 -18.5z" />
    <glyph glyph-name="uni0328" unicode="&#x328;" horiz-adv-x="0" 
d="M-321 -168.5q-36 30.5 -36 78.5q0 54 43.5 90.5t125.5 46.5l14 -37q-69 -23 -69 -72q0 -21 14.5 -34t37.5 -13q16 0 41 7q3 1 8 1q12 0 19.5 -10t7.5 -24q0 -11 -5.5 -22t-16.5 -17q-44 -25 -88 -25q-60 0 -96 30.5z" />
    </font>
</defs>
</svg>
